<?xml version="1.0" encoding="UTF-8"?>
<svg fill="#004494" baseprofile="tiny" viewBox="0 0 623.18 534" xmlns="http://www.w3.org/2000/svg">
  <path
    d="m526.14 0.05c-6.0811 13.999-6.184 0.6457-13.688 5.3127-6.3895 10.044-12.845 5.8755-3.6126-2.2131-11.41-4.0414-12.35 0.68981-19.5 5.9004-3.8082 10.161-9.7557-4.3459-18.199 2.1992-2.8229 2.6979 5.9749 4.7287-7.2012 4.0996-9.1871 6.586-2.8853 6.5754-9 0.5-1.5016 5.4917-11.65-0.04736-14.606 6.8266-5.3604-2.2237-7.9043 9.7666-16.458 9.58 6.3239 5.8841 0.88526-0.0906-3.8113 6.3053 2.7403 1.3058-14.291-1.8307-13.398 6.4027 13.965-0.24317-5.7307 2.8033-1.258 5.7849 17.749 0.88623-5.4167-0.50972-9.7677 4.8018-14.879 8.6426 9.8316 9.0689-0.37212 9.9004-5.9049-0.80776-13.532 7.1657-10.929 12.898 11.275 2.0856-10.195-0.78328-10.301 6.7012 4.5444-1.0732-12.996 7.5161-15.799 12.4-0.59854 8.8681 14.421 1.6705 16.058-2.3235 4.4777 0.83379-4.5838 8.835-10.6 8.1459-7.0763-0.55069-13.524-4.4852-19.159-0.0237-1.2895 4.7928 5.4952 9.1175-8.3984 4.9004-19.715 5.6676 7.829 5.2335 1.8752 5.5044-1.9477 2.7478-24.799 0.68363-12.076 4.1948-5.0773-1.2877-21.603 3.8474-12.132 6.6211 15.937 2.1007 7.6628 2.0951-3.3684 0.77925-1.377 3.4156-2.043 13.978 9.7352 10.275 5.6111 0.51078 24.058-2.527 11.066 1.5255-5.9347-0.68819-19.565-2.7858-21.4 2.7988 0.62172 9.636 10.385 9.4651 1.9466 14.252 2.2083 7.3607 9.4648-10.025 16.412-8.7119-0.30979-0.81649-14.219 11.566-6.142 10.052-11.519-1.8446-12.46 15.16-0.59113 5.2115 3.0347 3.5614-1.2814 6.3975-4.825 9.8976 5.6148 7.0279 13.901 7.1613 17.1 10.299 10.507 1.3237 18.573-5.3121 26.199-11.398 4.1418-0.14117 13.388-10.547 13.227-9.744 8.548 7.8774 6.5358 3.6911 8.9743 15.943 3.9308 6.4403 7.5018 11.78 11.657 18.221 8.064 6.5493 8.8107 11.639 4.961 13.849 5.7615 9.0529 6.0082 14.537 18.481 11.731 1.8233-5.0991 3.6672-13.697 13.199-11.201 10.051 2.9944 11.732-11.18 12.339-17.902-2.0649-6.9338 3.0405-16.725-1.3978-17.894-7.5222-0.11381 12.167-2.1145 15.559-6.7048 13.147-6.9408-10.091-2.1529 4.4004-7.2988 9.6946-5.9555-5.151-10.108-8.9004-14.701-8.3006 2.8241-11.028-8.8592-10.1-15.199 1.9637-8.3166 2.6844-11.126 5.1992-16.6 7.4284-0.18313 8.719-6.9553 15.801-9.6016 6.7596 0.24709 18.563-9.0884 17.941-14.302-6.0945-5.8815 1.9643-11.421 4.5587-14.798 2.7113-5.3123 9.4048-0.88363 16.301-3 8.2121-0.09113 21.218 3.2111 18.799 11.6-3.9895 0.64032-11.876 8.4186-16.199 13.201-9.5893 3.096-8.8172 11.978-17.841 11.422-5.9857 5.9056-2.7818 14.743 2.4342 21.233 2.1775 3.4622-3.8614 18.267 5.506 15.945 8.7727 2.1598 8.3422 9.5164 14.301 7.0996 0.78551 6.9455 13.285-0.18589 21.18-0.84798 8.4966-1.8472 11.446-4.1633 18.715-4.1605 8.194-0.10386 14.823-1.8621 20.704-8.6908 8.8158-6.3507 17.033-14.535 23.392-23.068 3.6076-9.4436-18.527-9.9135-16.55-15.59 5.5318-6.4968-5.3278-11.858-9.6692-16.01-2.1204-6.2023 4.1406-9.1684-0.87483-15.732-7.0938-5.6809-15.966-13.318-4.5-19.801-1.5369-8.3324-19.311-5.3069-17.261-14.701-3.3368-6.758 10.49-6.5776 12.962-13.098 15.712 0.63911-4.251-2.1503-6.8317-3.6396-16.778-5.0356-1.163-0.57965 7.232-3.7608 9.8907-2.8906-8.0449-6.5825-12.602-6.9004-9.7847-6.1926-9.084 10.967-13.5 0.90039 6.4472-4.1993 0.97305-4.9401-5.3985-5.5996zm26.199 15.5c-2.5631 3.5048 4.9719 1.2424 0 0zm-465.9 45.199c-3.2654 3.8107-11.348 8.6277-17.9 5.2012-6.5443 5.1667-1.9178 1.7605-12.963 0.40414-3.7023 10.032-12.397-5.9654-13.537 5.3947-4.1402 1.3952-13.276 8.949-10.807-0.26564 4.257-6.2651-15.628-12.31-14.992-8.0332 3.6566-1.1592 7.3518 7.24-1.3008 4.6992-8.4173-5.7753-6.4597 4.289-11.199 5.9004-12.249 0.79775 9.5207 1.7616 13.946-0.19208 13.315 0.65294-4.5793 6.6554 7.7536 6.2917-7.4204 2.108-17.939 0.46269-23.699 4 6.8184 1.5511 17.873-2.6652 20 5.0996 12.099 2.9976-15.827 6.1224-6.1303 8.557 10.085-2.0958 17.792 0.70551 26.763 4.1792 8.1872 2.3786 18.212 2.9372 24.268-2.9354 11.533-0.28255 20.855-7.6077 32.091-8.9047 2.8213-5.3602 16.241-5.8344 11.231-13.364 4.2397-5.5323-12.884-3.8603-10.073-9.3949 0.41743-5.858-6.7363-0.73742-12.518-6.6027zm222.1 74.301c-3.9871 0.92515 2.8674 3.3755 0 0zm1.3008 10.699c1.111 9.1027-1.4804-3.1752 0 0zm228.3 11.701c-5.2552 3.6195-21.027 1.2213-21.301 10.299 0.47506 10.433 13.746 6.1937 13.6 11.9 0.43451 7.6397 1.9075 21.07-10.9 14.801-4.1968-7.8781-15.076-12.541-20.819-4.0915-3.759 7.6113-5.1571 16.006-0.92571 24.441 0.58039 9.6476 12.487 8.0734 18.946 10.95 8.9546 10.252-5.4494 10.159-14.615 8.5826-10.147-1.5124-20.216 0.54727-29.8-0.40909-1.725-6.6982-3.3118-6.6222-15.91-4.9234-9.229 2.1718-15.214 8.8102-25.082 9.5229-8.3109 4.2542-23.558-1.2957-7.0021 4.1231-1.943 7.0576-10.597-7.2121-16.491-6.695-7.4704-8.1476-14.971 7.0975-23.336 4.1407-0.79093-3.8889-9.6372-6.4443-13.675-8.1544-3.1462-5.8082-9.2736-9.408-2.8728-16.373 1.07-5.1047 10.101-7.1409 10.784-12.715-13.643 2.6999-0.63511-16.624-6.441-16.926-7.1549 5.3986-15.454 6.8727-22.699 11.482 0.46391 6.4183 17.294-5.8688 6.8969 2.1024-8.1447 2.9814-9.5005 5.1496-8.0575 16.842 6.5832 2.0881 10.986 15.37 7 17.9 8.2954 8.4032 3.8706 5.7911-0.5996 12.5-2.9326 3.8864-14.201-8.7723-17.301 2.7012 1.848 1.5005-16.471-4.2641-19.697 4.0259-10.012 1.3807-6.9878 11.523-14.602 16.773 4.6727 8.7111-15.163 6.2248 0.9914 8.8205-4.6044-1.0697-16.375 2.967-23.683 5.7793-11.593-6e-3 -2.8734 18.491-16.349 17.23-10.977 0.55355-3.7829 12.01-15.661 8.1703-6.9767 1.7229-17.92-12.819-14.199 0.59962 6.2195 12.043-1.9311 10.274-10.752 10.952-6.4171-5.2216-16.806-2.4109-25.418 0.46765 4.9657 5.3565-1.2154 4.9662 3.9705 11.281 7.7259-1.0168 15.917 3.7337 21.398 4.5996 3.1167 4.243 5.5972 6.2283 8.5703 14.382 11.499 2.5786 5.8176 12.153 11.83 16.217 8.4287 13.753-7.4145-9.0134-4.387 11.09 1.472 0.80401-1.4331 13.989-4.5641 20.662-7.3449 4.549-15.585 0.26271-23.049 0.4492-8.0583-0.93351-17.074 1.829-25.463-1.7612-9.2038-2.3037-19.75 2.4907-28.037-3.0396-7.7675 2.7368-10.582 7.1513-18.9 9.0996-0.95489 8.4889 8.6588 9.7549 3 16.6-0.70543 5.0939 3.1005 13.557 1.7012 21.102-2.139 8.972-5.8559 17.321-10.006 25.062-4.7165 12.234 9.7801 0.17802 2.1053 9.4377 9.2508-0.10501 2.936 2.9324 4.9004 12.6-4.4202 12.861-1.4023 9.5514 9.8195 11.013 6.5751-2.887 20.762-5.3009 20.88 6.1865 2.0676 7.0652 12.865 14.135 15.701 3.3008 9.078-4.0292 18.198-5.8034 28.436-5.0465 9.572 1.1091 13.821-2.5145 18.924-10.952 12.739 0.32637 7.9679-10.073 16.4-16.337 13.656-3.7107-9.2407-13.122 2.4388-21.665 4.9063-7.1926 11.859-12.655 12.597-17.108 8.5196-3.8936 17.696-5.8632 25.492-11.801 9.1239-5.5992-0.51628-11.644 2.1272-19.907 5.224-8.2751 12.576-9.8001 20.783-5.6842 6.8604-2.1801 13.071 8.5567 21.5 3.2988 4.7619-6.0046 11.957-9.6507 19.5-11.6 4.248-10.767 14.944-7.3754 22.196-2.2904 8.748 2.1609 5.6526 15.923 12.336 18.997 7.9444 7.2189 16.66 13.041 24.568 21.294 7.3786 3.9636 15.858 2.8757 20.967 10.132 9.1005 0.75632 7.8755 11.386 17.934 11.968 3.4072 6.2182 13.696 18.24 5.2966 22.359-4.9115 8.363 0.5884 15.563 6.814 4.7735-0.14945-9.2059 13.699-8.5417 6.9374-17.883-11.639 0.14061-4.8605-20.145 1.952-14.647 7.2546 0.84087 19.423 15.7 13.699 0.39844-9.1399-8.4829-21.462-11.833-32.199-17.799 9.6663-10.953-12.037-2.6404-16.635-10.38-11.758-4.9402-9.2909-21.39-21.331-25.4-10.892-2.739-11.041-14.727-9.6336-18.819-7.0934-8.249 9.5153-9.6946 14.6-11.301-1.2648 2.3258 1.6907 21.926 8.0996 9.4004 6.9671-8.2119 7.923 9.7121 13.801 12-2.8048 3.0757 9.0687 15.133 16.618 13.719 10.077 3.523 15.777 10.395 11.487 8.9284 10.57 3.7775 18.665 8.7275 26.094 16.353 6.6956 2.9115-0.19079 14.699 2.593 20.93 2.8279 6.519 10.112 12.608 14.591 19.461 10.975 6.7561 5.6088 2.6021 7.597 9.1276 2.7093 10.446 15.145 1.9709 21.421 5.4816 12.37 2.984 3.8886 7.7672-4.2012 2.4004-6.5439-5.7635-19.917 5.1742-8.4593 9.6282 1.8739 7.8048 4.0404 14.382 9.1604 10.471 17.822 19.269 6.4714-10.777 11.299-8.4004 11.055 4.5683-9.1518-10.714 5.5-8.9004 8.4826 11.997 7.942-5.1823-0.21345-6.7767-8.7455-5.7935-13.59-4.0551-10.552-11.906 7.1223 1.3288 4.7516-1.9855-2.5507-10.604-8.4139-11.437 4.4403-11.838 8.0206-1.7548 4.0913 0.33862-2.2714-6.4887 7.6962-0.45907-2.5078-7.5992-0.28499-3.2631-2.329-11.299 6.6427-1.0514 12.292-4.7593 19.379-2.3555 10.049 6.4293 12.596-4.025 13.15-10.846-8.477-5.9002 9.8574-8.6121 14.771-5.5996 0.40696-4.0302-5.306-10.201-0.87019-19.1 7.9615-3.1888 8.0703-9.2817 7.2012-18.4 1.1384-12.87 3.1252-3.098 10.398-9.3008 1.3048-13.057-11.947-0.89477-17.199-5.6992-8.468-6.3756 1.8089-21.375-9.5-27.199-7.6744-4.8046-10.036-20.592-21.199-16.701-3.8631 5.0129-16.113 9.2399-21.701 3.9004-8.7397 0.0258-16.994-0.45253-22.944-2.704-11.455-3.0139-2.2931-17.26-0.48249-15.646-4.7659-7.5779 5.018-15.399 11.073-18.941 6.8542-5.8206-5.5872-12.107-6.5472-19.809-1.7757-8.913-6.8494-10.028 1.7033-17.725-1.2797-7.3311-13.794-18.687 0.99786-15.976 7.1101 2.5172 10.915-8.2995 17.461-2.976-4.515-3.603-0.55941-13.547 5.809-14.575 3.2615-0.1386-3.2549-13.287 9.9997-9.8913 12.42-4.3535 2.0325-13.219-0.47078-18.456-3.6997-6.6922-4.2516-9.0801-4.7285-15.364-10.278-8.9314-7.4968-11.587 0.42965-16.937 3.7585-4.8336-14.726-1.1586-20.299-4.552-2.424-0.45385-4.8274-0.82133-7.301-0.64726zm-319.9 14.299c-7.0522 3.2366-17.369-1.4651-20.6 3.8008-1.9053 5.6602-5.6494 6.4618-8.6016 14.699 8.0626 4.9615-10.208 11.363 2.2012 11.9 6.9044-6.3305-3.2166 12.066-2.8613 17.309 6.4985-2.2279 2.352-13.858 12.358-8.763 1.4757 4.8871-7.559 14.142-2.9443 19.108 4.3978-2.4368 12.798-1.8264 19.147-3.1538-12.318 9.0336 10.551 9.8972 2.4004 16.9 2.502 9.7968-6.6735 4.8289-14.282 9.2684-11.452 4.9566 11.344 4.7502-2.1181 14.331-13.073 2.3079-9.6335 9.8733 1.2459 7.9234 4.1044 7.1903 23.704-1.4819 16.254 3.977-6.1622 6.1338-19.128-0.38907-21.865 10.727-9.802 5.7921-14.693 14.287-1.4179 6.7158 11.111-0.11979 14.001-2.8436 23.552-6.8755 9.247 3.9294 11.422-1.065 20.532-2.0678 9.1467 1.4099 20.56 2.2084 27.616-3.7236 7.3218-6.3282-12.139-3.0554-5.0864-9.5667 7.1391 0.0573 17.014-12.446 7.5822-17.311-9.2571-4.1234-17.714 5.5807-13.413-6.8983-10.903-6.3373 0.66925-5.4921-6.9933-13.742-7.5766-4.8968-14.283-9.3377-15.206-19.459-1.868-9.1595-23.635-4.0582-15.976-8.5519 4.5965-3.8626 2.7042-4.873 11.275-14.048 9.4854-11.099-7.6348-8.1114-14.607-8.786-12.237 5.535-7.0042-5.6718 1.5622-8.6606 1.5092-0.38486 4.7826-6.8498 0.24596-5.0533zm290.2 0.40039c-10.652 0.14624-6.2593 6.9539-3.7988 9.5 1.8953-5.0987 19.462-8.0912 4.1627-9.4814zm-323.7 1.6992c-8.6491 1.3899-12.875 12.55-5.4004 8.6016 2.6952-1.2088 6.3166-5.3545 5.4004-8.6016zm282.7 8.8008c-11.101-1.0807-6.4112 21.526-2.0996 10.199 2.8617-0.42222 5.6127-10.996 2.0996-10.199zm-283.3 3.5996c-12.191 0.96536 3.139 12.187 6.2988 6.2012-5.0812-0.12243-4.7941-2.1014-6.2988-6.2012zm1 14.701c-8.9348 2.9212 12.712 9.3095 0 0zm210.9 7.6992c-7.1884 8.116-6.4531-0.11091-14.5 7.0996 2.8834 3.9826 10.471 13.972 13 10.53 1.5885-7.3377 4-7.973 4.5-16.729l-1.6958-0.50897zm-22.799 7.5996c-15.858 3.2491 13.761 15.411 4.73 1.1784-0.47759-2.5494-2.8497 0.85541-4.73-1.1784zm-202.1 3.8008c-4.5413 9.3451-5.3143-3.4702-13.701 5.7988-8.8087 7.4767 8.8472 2.3405-2.6992 10.9-6.6332-1.5093-22.306-1.8304-14.065 5.0528 3.8181 0.94366-10.914 8.8907 1.4651 8.4472 13.812 0.38108-3.8493 7.4512-0.10156 10.1 16.968-0.54809-0.97811-1.4563-3.6992 5.4004-9.6909 0.89349-1.3358 3.2222-4.5458 7.6346 6.4698 0.76413 1.3363 3.961 10.158 4.3159 9.3932-1.3646 11.366-5.6157 19.192-7.027 6.7483-5.4985 16.944-0.35538 18.295-8.7223 5.2746-6.5696-1.6013-17.397 1.043-21.917 5.1168-1.299 11.07-9.3435 5.6075-10.937-0.46877-8.1119-11.381-8.294-16.75-5.1458 2.4568-2.9767 5.1265-1.2879-0.19923-3.9004zm214 5.9004c-9.2797 4.9083 15.679 5.4294 1.2988 0.89844zm-72.9 26.398c-3.9007 1.2405 0.53663 5.6799 0 0zm-10.5 21.701c-5.496 1.2146 5.3508 3.1778 0 0zm-62.801 87.5c-4.2066 1.7346 5.8737 3.871 0 0zm133.5 46.199c1.2851 6.7334-14.529 7.0238-7.6992 15.1-1.3729 6.9058 9.9535 15.059 9.7682 0.25745 1.6949-4.2974-0.0893-12.185-2.069-15.357zm126.7 11.301c6.0155 6.6111-8.1109-0.80219-0.80078 0.29883zm-127.2 16c-8.1631 7.5293-16.527 5.6578-9 17.6 1.8138 5.0726-4.5093 17.396 5.9004 19 5.6309-5.4122 12.909-6.4495 9.3137-20.103 2.838-6.2564-0.80885-13.499-6.2141-16.497zm-76.799 20.1c-15.478 1.7717-5.9315 13.401 1.7988 7.6992 5.9222-5.8516-3.1064-2.8512-1.7988-7.6992zm297.3 9.0996c-9.3656 2.7322-2.4977 4.0294 2.2012 6.4004 3.1384-2.8421-1.7639-3.9633-2.2012-6.4004zm-38.4 5.5c-8.6543 2.118 8.2384 9.5558 11.371 11.51 9.5383 9.7906 2.8882 0.52536-0.76899-5.8093-4.4541-0.12233-8.0382-2.3773-10.602-5.7012zm-99.6 11.6c-7.1386 2.8383-15.239 4.5098-23.199 4.5-5.4385-3.6161-17.954-3.6371-14.6 5.2012 8.2324 2.7234 15.972 8.1636 24.299 10.9 6.8448 10.53 15.691-0.89423 9.1371-7.3524-0.94354-4.9274 6.9187-9.4886 4.3629-13.249zm166.3 29.201c-14.532 6.6291 2.9628 11.39 0 0zm-56.801 12.9c-7.9544 8.5648 12.853 3.7675 15 10.5 5.367-0.2096 25.765-1.695 15.701-4.4004-4.5065 0.63921-12.518-5.0543-20.83-2.4185-3.8405-3.4957-4.5434-2.0389-9.8713-3.6811z" />
</svg>
