<?xml version="1.0" encoding="UTF-8" standalone="no"?>
<svg
   fill="#ececec"
   stroke="black"
   stroke-linecap="round"
   stroke-linejoin="round"
   stroke-width=".1"
   baseprofile="tiny"
   version="1.2"
   viewBox="0 0 1000 684"
   viewbox="0 0 702 540"
   id="svg816"
   sodipodi:docname="europe.svg"
   inkscape:version="1.2.2 (b0a8486541, 2022-12-01)"
   xmlns:inkscape="http://www.inkscape.org/namespaces/inkscape"
   xmlns:sodipodi="http://sodipodi.sourceforge.net/DTD/sodipodi-0.dtd"
   xmlns="http://www.w3.org/2000/svg"
   xmlns:svg="http://www.w3.org/2000/svg">
  <defs
     id="defs820" />
  <sodipodi:namedview
     id="namedview818"
     pagecolor="#505050"
     bordercolor="#eeeeee"
     borderopacity="1"
     inkscape:showpageshadow="0"
     inkscape:pageopacity="0"
     inkscape:pagecheckerboard="0"
     inkscape:deskcolor="#505050"
     showgrid="false"
     inkscape:zoom="1.2733918"
     inkscape:cx="223.81171"
     inkscape:cy="343.57061"
     inkscape:window-width="1920"
     inkscape:window-height="1050"
     inkscape:window-x="0"
     inkscape:window-y="18"
     inkscape:window-maximized="1"
     inkscape:current-layer="svg816" />
  <path
     d="m 509.04999,415.55 0.5,0.4 2,2.9 1.4,0.5 1.9,1.3 1.4,3.2 0.1,2.2 -0.5,2.6 0.3,2.1 -0.8,0.8 0.7,2 0.2,1.9 1.2,2.2 1.2,1.1 1.3,2.4 1.6,-0.2 1.3,1.1 v 1.1 l 1.1,1.8 -0.8,2.6 -1.7,0.8 -1.2,3.1 -0.3,2 -0.6,0.5 -1.9,0.3 -1.7,1.3 1,2.2 -0.9,0.7 -0.3,1.5 -0.7,0.7 -2.7,-0.9 -0.7,-2.5 -1.7,-2.7 -4.9,-2.6 -1.2,-1.1 0.4,-1.5 -0.1,-1.4 -1.4,-2.4 0.3,-2.6 0.8,-2.2 -0.3,-2.7 0.1,-2.1 -0.7,-2.9 0.5,-2.1 0.9,-1.3 -0.2,-2.2 -1.5,-1.1 -1.6,-0.2 v -3.1 l -0.3,-0.6 h 1.7 l -1.7,-2.8 3.2,-5.3 1.1,0.3 0.8,2.1 z"
     name="Albania"
     id="path733" />
  <path
     d="m 277.74999,416.25 -2.8,1.1 -0.7,-0.4 v -2.1 l 0.9,-0.7 2.6,0.6 z"
     name="Andorra"
     id="path735" />
  <path
     d="m 462.14999,322.35 -0.9,2.4 0.1,0.8 1.6,2.9 2.3,2.9 -0.6,0.7 -0.6,1.9 0.7,2 -3.9,0.3 -2.5,-0.9 -1.3,1.4 2.6,0.7 0.5,1.1 -0.5,1.4 -2.2,1.2 0.4,1.5 -0.5,0.7 1.1,1.6 -0.3,1.8 -2.5,0.5 -1.8,1.7 -1.3,0.9 -0.1,1.9 -2.4,-0.5 -1.6,0.2 -2.3,1.1 -2.8,-0.2 -2.6,0.2 -1.9,0.7 -1,1.3 -3,1.2 -5,-0.7 -5,-0.9 -2.6,-0.5 -4,-0.3 -8.6,-1.5 -1.1,-0.5 -3.1,-3.5 v -2.3 l -4.7,1.5 -3.1,-0.2 -3.4,0.3 -1.4,0.6 -1.2,2.2 -1.1,0.4 -2.1,-0.4 -0.9,-0.8 -3,-0.3 -0.5,-1.5 -0.8,-0.3 -2,1.9 -2.3,-0.4 -1.5,-0.8 -0.4,-1 -3.3,-0.8 0.3,-0.8 -1.1,-2.5 1,-3 -0.9,-0.7 1.7,-0.5 0.7,-0.5 3.5,1.6 0.9,1.4 1.2,0.3 -0.1,1.3 1.6,-0.5 1,-1.6 0.2,-1.9 2.8,-0.1 2.7,0.4 1.4,1.9 3.8,-0.5 1.1,-0.9 3.9,-1.5 5.7,-0.5 0.1,-1.4 2,0.3 1.5,0.8 2.5,-0.5 1.1,0.5 0.2,1.1 1.2,0.9 1.7,0.4 0.3,-1.5 -0.3,-1.9 -1.7,-0.3 0.6,-1.3 -0.1,-1.3 -2.5,-2.8 0.6,-1.3 3.1,-1.8 2.9,-0.8 1,-1 0.7,-2.9 2.3,0.9 1.3,-0.9 0.2,-2.8 2.2,1.2 0.8,1.3 3.9,0.4 1.4,-0.7 2.5,0.4 0.1,-1.1 1.3,-1.6 h 1.2 l 0.3,-3.2 1.2,-0.2 1.6,0.8 1.4,-0.4 4.8,1.7 1.5,-0.1 3,1.7 3.8,0.2 1.2,-0.9 5.1,1.5 z"
     name="Austria"
     id="path737" />
  <path
     d="m 324.34999,289.25 1.6,-0.5 0.8,0.8 1.2,0.1 3,2.3 -0.4,1.5 1.7,0.7 0.4,2 -2.3,1.3 -0.6,1.7 -1.7,-0.7 -1.3,1.3 -1.4,2.5 -0.2,1.7 2,2.4 -1.1,1.7 -3.4,0.4 -2.8,-2.6 -3.3,-1.5 -1.7,-0.1 -0.4,-2 -0.6,-0.6 0.8,-2.7 -1.9,0.6 -0.5,1.4 -1.3,0.6 -2.2,0.3 -2.3,-0.3 -0.5,-0.6 0.7,-1.4 -0.7,-0.7 0.4,-1.6 -1.6,-1.1 -3.6,-0.4 -0.9,0.3 -0.6,-2 -4.2,-1.1 -0.5,-2 -1.6,-1.8 -3.2,1 -2.9,-2.4 v -1.2 l -0.9,-2.2 5.1,-2.5 4.7,-1.7 0.3,1.3 1.2,0.7 1.2,-0.6 3.9,1.1 3.2,-1.5 0.6,-1.2 2.1,0.3 -0.2,-0.9 1.4,-0.7 1.5,0.8 1.5,-1 1.1,1.3 2.5,-0.8 0.5,1.6 2.6,1.4 1.9,-0.4 1.7,1.3 2.6,1.1 -1,2.9 -1.1,1.3 z"
     name="Belgium"
     id="path739" />
  <path
     d="m 613.94999,397.05 0.2,3.7 -0.9,1.8 -2,-0.6 -2.2,0.5 -1,2 -1.2,1.2 v 2.6 l 0.4,4.2 -1.6,0.7 -2.9,3.7 3,1.8 1.7,2.2 2.4,2.5 0.5,1.2 -1.7,-0.2 -0.9,0.4 h -1.8 l -1.5,0.6 -3.4,-2.5 -3.5,0.3 -1.5,1.1 -3.4,0.4 -1,2.2 -1.9,0.3 -0.3,1.4 -1.6,-0.5 -1.6,1.1 0.7,1 0.9,2.7 -0.2,0.8 -2.5,1.2 -1.8,-0.3 -3.2,0.4 -3.4,0.9 -1.7,-1.1 -3.7,-1.2 -0.9,0.6 -2.4,-1.4 -1.2,-1.7 -1.6,0.5 -4.2,-0.1 -0.2,0.9 -1.9,0.2 -3,1.1 -2.6,-0.2 -2.4,0.2 -1,1 -3,-0.2 v -4.2 l 0.5,-1.7 -0.9,-1 -1.7,-3.3 -3.4,-1.8 -3.3,-3.2 1,-0.3 1.1,-1.7 -1.4,-2.9 v -3.3 l 1.1,-0.6 1.8,-0.1 1.1,-1.6 1.6,-1.7 0.3,-1.4 -1.6,-1 -1.3,-1.6 -2.9,-1.5 -2.4,-3.9 -0.6,-2.4 0.4,-2.3 2.1,-1 0.2,-1.9 0.9,-0.7 4.3,2.5 -1.8,2 0.9,1.8 3.7,-0.6 3.9,0.3 5.3,1 3.5,0.4 2.5,-0.5 9.4,1.7 4.2,0.2 2.3,-0.6 1.6,-0.9 1.2,-1.6 3.3,-2.1 3.2,-1.2 4.4,-0.9 2.9,-0.4 4.5,2.3 3.2,0.4 0.9,0.6 1.7,-0.5 2.5,2.6 2.2,0.7 2.6,0.5 z"
     name="Bulgaria"
     id="path741" />
  <path
     d="m 492.54999,379.65 2.8,-0.7 1.5,0.8 -0.5,2.5 -1.6,2.7 -0.1,2.6 0.5,0.8 2.4,1.2 3.3,2.9 -0.3,0.8 -3.1,-0.1 -0.5,0.8 3.2,3.7 -0.2,2.2 -2.5,-0.3 -0.7,0.8 -3.2,0.5 1.4,2.2 -2.3,0.2 -2,1.7 -0.5,1.7 0.1,1.5 -1.7,0.2 -0.5,0.7 0.6,3 1.1,1.6 -0.1,0.8 -1.1,1 -1.7,-0.7 -6.2,-3.8 -0.6,-0.9 -1.6,0.1 -1.1,-0.6 0.3,-1.6 -3,-2.5 -1.5,-1.6 -0.4,-2.2 -2.4,-1.1 -5,-4.1 -1.7,-2 -2.8,-2.3 -2.3,-2.4 -1.3,-4 -3.4,-3.2 -1.9,-1.3 -0.1,-1.4 0.3,-5 1.2,-0.6 1.8,0.4 1.7,1.8 1.8,1 2.7,-3.2 3.2,0.3 1.5,-1.2 2.7,1.6 2.5,0.1 2.8,0.7 1.7,-0.6 1.6,1.3 2.2,-1 1.8,0.3 1.8,-0.2 2.6,0.7 2.2,0.2 1.1,0.8 1.3,2.2 z"
     name="Bosnia and Herzegovina"
     id="path743" />
  <path
     d="m 368.44999,336.55 0.8,1.1 2.6,1.3 h 1.2 l 0.9,0.7 -1.5,4.5 0.1,1.7 1.2,0.1 3.3,0.8 0.4,1 1.5,0.8 2.3,0.4 2,-1.9 0.8,0.3 0.5,1.5 -0.5,3.1 0.5,1.8 -1.9,-0.2 -1,-0.9 -1.3,0.3 -0.6,1.8 1.5,3.5 -1.2,0.3 -1.4,-1.9 -0.7,-0.1 -2.9,1.1 -2,-0.8 -0.8,-2.1 -2,0.1 v 2.9 l -0.5,1.1 -2.2,2.6 -0.2,1 0.7,1.7 -1.2,0.7 -0.9,-1.4 -1.3,-1.2 0.4,-1.2 -2.2,-0.6 -2.4,-2 -0.2,-2.5 -1,-0.6 -3.4,2.9 0.6,1.5 -1.6,2.2 -2.4,1.4 -3.1,-0.8 -2.6,1 -2.4,0.5 -1.4,-0.7 -0.9,-1.4 -2.3,-2.3 0.5,-1.7 -0.8,-2.2 -2.2,-0.3 -1.9,0.1 -2.3,1.5 0.5,1.3 -2.3,1.6 -1.4,-0.1 v -1 l 1.5,-1 0.3,-1.5 -0.8,-0.7 1.1,-2.9 3,-2.2 0.5,-2.9 2.1,-0.9 3.8,-4 0.6,-0.9 -1.3,-1.1 1.8,-1.4 h 1.1 l 0.8,0.8 2.7,-0.3 0.8,-1.4 1.5,-0.7 1,0.3 2.8,0.1 3.3,-0.6 2.6,0.2 -0.2,-1.5 1.3,-1.2 h 1.3 l 1.4,1 0.8,-0.2 1.1,0.9 z"
     name="Switzerland"
     id="path745" />
  <path
     d="m 433.24999,287.95 2.1,-0.4 -0.1,-1.9 3.3,0.8 0.3,1.1 1,1.1 4.6,1.1 2.7,1.1 0.8,0.9 3.2,-0.7 1.8,1.2 -0.7,1.1 -1.6,1.2 1.6,0.9 2,1.8 1.5,1.9 1,0.4 3.5,-2.5 -1.7,-2.4 h 1.3 l 2.2,0.6 3.3,1.9 3.6,-0.7 v 1.6 l -1.4,0.5 2.7,2.3 1,0.6 1.8,-1 3.5,1.8 0.5,-0.2 2.7,0.8 0.5,1.8 2.8,2.2 0.5,1.6 -2.8,0.3 -2,1.5 -0.6,0.8 -2.3,1.2 -0.7,3 -1.6,0.8 -2.1,1.9 -1.5,0.7 -1.7,0.2 -3.6,-0.5 -1.4,1.2 -1.1,2.8 -1,-1.6 -5.1,-1.5 -1.2,0.9 -3.8,-0.2 -3,-1.7 -1.5,0.1 -4.8,-1.7 -1.4,0.4 -1.6,-0.8 -1.2,0.2 -0.3,3.2 h -1.2 l -1.3,1.6 -0.1,1.1 -2.5,-0.4 -1.4,0.7 -3.9,-0.4 -0.8,-1.3 -2.2,-1.2 -0.6,-0.7 -2.9,-2.2 h -1.3 l -1.3,-1.6 -2.5,-1.5 -2.9,-2.6 h -1.3 l -2.3,-2 -1.8,-2.7 -1.4,-1.5 1.2,-1.7 -0.6,-1.6 -2.3,-1.3 -2.5,-3.4 0.5,-0.7 1.9,2 1.9,-2.6 1.1,-0.6 2.6,-0.6 2.1,0.4 0.8,-1.3 2,-0.3 0.6,-1 1.6,-0.7 1.1,0.1 0.6,-1.2 4.4,-1 3.5,-1.5 1.9,-0.6 -1.5,-1.5 0.8,-0.6 2.2,0.4 1.5,1.5 v 0.9 l 1.4,0.6 z"
     name="Czech Republic"
     id="path747" />
  <path
     d="m 422.24999,242.65 -3.4,-0.1 -0.2,-1.7 -1.1,-1 -0.1,-1 4.7,2.6 z m -34.8,-8.1 h -1.8 l -1.4,-0.7 0.8,-1 1.7,0.4 z m 28.3,0.5 -1.3,0.7 h -1.3 l -1.3,1.3 -2.1,-1.1 -0.5,-1.1 0.1,-2.2 0.6,-1.4 2,-0.9 0.9,1.2 1.7,0.6 -0.5,1.7 z m -46.6,-6.6 1.8,0.7 1.6,1.6 0.1,1.4 -1.7,1.6 3.2,-0.3 0.8,1.2 1.7,-0.4 4.5,1.8 3.2,-0.9 0.7,1.4 -0.6,1.5 -2.2,1.6 1.4,1.2 2.1,-0.2 3.6,0.9 3.3,-2.5 1.1,-0.5 3.6,-0.3 5.1,-4.5 5.3,0.9 1.5,1.9 3.7,2.1 3.2,-0.2 1.3,2 0.8,2.5 1.9,1.3 2.8,0.5 0.7,2.6 1.8,4.1 -0.3,2.7 -1.9,1.8 -0.7,1.6 1.6,1.4 3.3,2.1 1.4,1.7 -0.6,2.6 2,2.3 0.8,1.9 -0.7,2.6 -0.8,1.1 1.9,3.1 v 1.6 l 2.2,0.9 1.6,3.2 -0.4,2.3 -1.6,3.6 -0.9,0.7 -1.4,-0.6 v -0.9 l -1.5,-1.5 -2.2,-0.4 -0.8,0.6 1.5,1.5 -1.9,0.6 -3.5,1.5 -4.4,1 -0.6,1.2 -1.1,-0.1 -1.6,0.7 -0.6,1 -2,0.3 -0.8,1.3 -2.1,-0.4 -2.6,0.6 -1.1,0.6 -1.9,2.6 -1.9,-2 -0.5,0.7 2.5,3.4 2.3,1.3 0.6,1.6 -1.2,1.7 1.4,1.5 1.8,2.7 2.3,2 h 1.3 l 2.9,2.6 2.5,1.5 1.3,1.6 h 1.3 l 2.9,2.2 0.6,0.7 -0.2,2.8 -1.3,0.9 -2.3,-0.9 -0.7,2.9 -1,1 -2.9,0.8 -3.1,1.8 -0.6,1.3 2.5,2.8 0.1,1.3 -0.6,1.3 1.7,0.3 0.3,1.9 -0.3,1.5 -1.7,-0.4 -1.2,-0.9 -0.2,-1.1 -1.1,-0.5 -2.5,0.5 -1.5,-0.8 -2,-0.3 -0.1,1.4 -5.7,0.5 -3.9,1.5 -1.1,0.9 -3.8,0.5 -1.4,-1.9 -2.7,-0.4 -2.8,0.1 -0.2,1.9 -1,1.6 -1.6,0.5 0.1,-1.3 -1.2,-0.3 -0.9,-1.4 -3.5,-1.6 -0.7,0.5 -2.2,-1.2 -5.1,-2.3 1,1.6 -3.7,0.2 -1.1,-0.9 -0.8,0.2 -1.4,-1 h -1.3 l -1.3,1.2 0.2,1.5 -2.6,-0.2 -3.3,0.6 -2.8,-0.1 -1,-0.3 -1.1,-1.3 v -1.5 l 0.6,-2 -0.2,-2.4 0.3,-1.5 1,-1.8 1.4,-5.5 3.5,-3.8 -0.1,-1.3 -1.6,-0.6 -4.8,-0.8 -2,-1.4 -3,0.6 -2.1,-0.1 -0.3,-0.9 -1.4,-0.4 -1.8,0.7 -3.5,-4.3 -1.4,-0.1 0.6,-3 0.9,-0.9 v -1.4 l -2.8,-1.1 -1.5,-1.6 -0.3,-2.2 0.6,-1.7 2.3,-1.3 -0.4,-2 -1.7,-0.7 0.4,-1.5 -3,-2.3 0.6,-2.4 -1.9,-1.2 0.5,-0.8 2.2,-1.6 -0.7,-1.2 1.3,-2.8 v -1.2 l -3.1,-4.1 0.7,-1.1 1.8,-0.7 2.3,0.8 4.5,-1.3 0.7,-1 -1,-0.9 0.3,-0.9 2.6,-1.6 0.6,-2.6 -0.8,-1 -2.6,-0.3 -0.7,-1 0.6,-1.6 3.1,0.1 1.1,-3.8 0.7,-1.7 -0.1,-4.3 -1.7,-1.4 0.5,-2.7 1.1,-1.4 0.9,-0.4 4,-0.3 4.5,0.1 1.9,2.2 -0.6,1.2 1.6,0.3 0.9,-2.4 1.4,0.8 1.1,-0.1 -0.5,-1.7 0.2,-1.6 0.9,-1.4 3.3,0.6 3.6,-0.3 0.1,-0.6 -2.8,-0.5 -0.9,-1.1 -0.2,-3.9 -1.5,-0.8 -1.6,0.3 v -1.5 l 3.4,-1.1 v -1 l -3.4,-3.8 -0.2,-1.6 2.7,0.1 5.2,1.3 3.1,-0.7 z"
     name="Germany"
     id="path749" />
  <path
     d="m 387.84999,227.45 2.1,1 2.4,0.3 0.4,1.9 -3.5,0.7 -5.1,-2.1 0.1,-2.5 2.3,-0.2 z m 13.7,-1.1 -2.3,0.1 -1.9,1 -0.3,-1.2 1.6,-1 1.2,0.2 z m -28.8,1.2 -1.2,0.2 -1.7,-0.5 -0.6,-2.3 2.7,1.1 z m 8,2 -1.4,-1.5 2.5,-2.9 0.7,-0.2 z m 50.1,-4 -2.4,-0.2 -2.4,-1 0.1,-2 0.5,-0.9 4.5,2.3 z m -52.1,-8.7 2.3,4.3 -0.1,2.8 -1.8,1.2 h -2.1 l -5.4,-1.7 -1.7,-2.9 -0.1,-2.3 4.8,-1.4 2.6,0.8 z m 23.3,0.2 -1,0.6 -0.7,-0.9 0.9,-0.9 z m -23.9,-2.8 h -0.9 v -3 l 1.5,1.6 z m 22.6,0 0.1,1.5 -0.7,0.7 -2,0.7 -1.1,1.8 2,1.2 0.5,1.5 -1,0.7 -2.6,0.7 v 5.6 l -2.2,0.6 -1.5,-2.1 -0.1,-0.9 -1.3,-3.1 -2,-0.4 -2.2,0.1 -1.5,-1.8 0.1,-2.1 -1,-2 -1.3,-0.6 0.4,-1.4 3.1,-0.2 1.5,-1.9 v -0.9 l 1.8,-0.2 0.8,0.7 0.1,2.6 1.6,0.5 1.1,-2.9 -0.9,-1.1 3.9,-2.2 1.1,-0.1 3,0.9 -0.4,2.1 z m -31.6,14.2 -1.5,-0.4 -3.1,0.7 -5.2,-1.3 -2.7,-0.1 -0.5,-2.1 -0.8,-1.4 1.1,-0.3 -0.9,-3.9 -3.2,-1.3 -2.5,-1.4 0.5,-5.6 -1,-2.3 0.1,-6.9 1.3,-0.1 3.1,0.8 1.5,0.9 0.6,-1.9 1.6,-1.6 2,-0.8 1.6,1.3 0.3,-4.5 -1.6,-0.5 -1.3,0.4 -1.3,1.9 -1,2.4 -1.9,0.2 -1.5,0.7 -2.4,-1.4 0.1,-1.4 1.6,-1.9 2,-1.9 h 2.2 l 1.6,-0.6 3.9,0.1 2.8,-1.3 2.8,-3.6 1.5,-1.5 3.3,-0.5 3,-1.7 -0.8,2.5 1.2,1.7 v 3 l -0.9,1 -1.4,2.5 0.2,5.6 2.5,1.5 h 4.1 l 1,1.1 -0.7,2.2 -2.6,1.4 h -0.9 l -1.4,-1.1 -1.1,0.9 -1.2,5.1 -2,-0.1 -1.2,0.5 1.4,1.2 -1.3,0.8 -3.4,3.1 1.1,3.4 -0.2,0.9 -1.5,1.3 -0.6,1.1 2.3,0.3 z"
     name="Denmark"
     id="path751" />
  <path
     d="m 509.84999,172.75 3.9,0.2 4,1.8 -1.8,0.7 -3.7,2.5 -0.3,0.5 -2.6,-0.1 -1.4,0.2 -1,0.9 -0.9,2.8 -1.6,0.5 -0.3,-0.9 1.6,-1.8 -1.5,-1.4 -1.9,-0.7 0.9,-1.8 -1.6,-1.6 1.5,-0.2 1,0.5 2,-0.5 0.5,-1 z m 8.3,1 -0.9,0.2 -2.4,-1.1 1,-1 1.9,0.5 z m -5.4,-4 -0.8,0.7 -0.9,-0.6 -0.9,1.6 -1.3,0.3 -1.9,-2.5 -2.9,-0.5 -1.3,-0.7 4.5,-0.4 1.2,-1.6 1.3,0.1 0.4,0.9 2.1,0.3 0.9,1 z m 53.2,18.9 -1.9,-0.2 -3.4,-1 -4,1.2 -2.8,-1.1 -3.5,-2.7 -0.6,-0.7 -2.3,-0.5 -5.6,-2.5 -1.1,0.7 -1.5,-1 -8.4,2.8 1,-3.4 0.1,-3.6 -2.3,-0.4 -0.9,1.3 -1.3,0.3 -4.1,-1.3 -1.2,-2.1 -1.6,-1.1 -0.8,-1.2 v -1.8 l -1.5,-2 0.7,-1.1 -0.7,-2.8 3,-1.2 3.3,-0.2 0.9,-1.3 2,-1.3 2.3,0.2 3.1,-1 6.3,0.1 0.4,-1.7 h 3.2 l 7.6,1.2 h 1.8 l 2.8,1.2 1.4,0.3 h 4 l 6.3,0.5 1.2,-1 1.5,1.2 -1,1.4 -1.2,0.4 -0.9,3.2 -0.8,1 -1.7,-0.3 -2.5,0.2 -2,0.5 -1.3,1.1 0.1,1.1 2.6,2.3 1.4,2.8 2.6,2.2 0.8,1.3 2.4,2.9 1.8,2.5 -2.3,0.6 -1.2,2 z"
     name="Estonia"
     id="path753" />
  <path
     d="m 500.84999,147.45 2,0.2 -0.6,2.8 -2.3,-1.8 z m -1.9,0.5 -2.1,-0.6 0.9,-0.8 z m -6.5,-2.7 -1.5,0.7 -0.3,-1.7 z m 25.5,-62.9 -1.5,0.5 -1.3,-0.3 -0.2,-0.9 2,-0.6 z m 30.1,-54.6 -3.7,1.3 1.6,0.8 0.8,1.2 -2,3.2 0.1,0.6 3.1,4 7.2,1.7 2.3,1.8 3.6,2.3 1.8,0.9 0.1,1.9 -3,3 -2.6,3.1 -1.2,1.7 0.4,1.7 2.6,2.1 2.3,2.2 3,3.5 3,2.5 3,4.2 0.4,1.4 -3.7,0.7 1.2,0.9 -0.6,1.3 0.3,1.9 -0.5,1.5 1.9,0.3 0.3,1.3 -1.7,1 v 0.9 l 1.4,1.7 1,0.6 3.2,0.6 0.9,1.6 -1,1.7 1.8,2.2 4.5,1.8 0.7,1.3 0.2,1.7 -2.4,3 -2,0.8 0.7,0.8 4.5,2.6 6.6,2.9 2.6,1.3 2.1,1.9 2.2,1.6 0.5,1 -1.6,4.5 -0.7,1.2 -2.2,2.2 -3.4,2.8 -2.3,2.3 -5.3,5.9 -1.9,1.5 -2.1,2.2 -4.9,3.3 -0.7,0.8 -2.5,1.5 -5.6,5.2 -3.5,1 -2.6,-1.1 -1.8,0.2 -1.2,0.8 -2.5,0.2 -2,0.6 -1,-0.7 -0.7,0.6 -1.9,0.2 -2,-1 0.3,1.5 -3.3,1.5 -0.8,-0.9 -2,1 -2.1,0.2 -1.1,0.8 -5.9,1.1 -1.5,1.3 -1.2,-0.3 -6.7,1.1 -2.9,-0.2 -2.7,2 -1.8,0.4 1.5,-3 -2.4,-1.1 -1.2,-1.6 -0.7,0.4 -0.3,1.5 -1.5,0.8 -2,-0.1 -0.4,-2.4 0.8,-2.3 -3.6,-0.6 -3.8,-1.4 -0.9,-0.1 -0.7,-1.3 -2,0.9 -2.1,-0.9 -1.7,-5.3 v -1.3 l 0.9,-1.6 -0.1,-3.4 -0.6,-2 1.1,-0.6 -0.9,-1.6 -2.2,-3 -1.6,-1.1 0.5,-3.3 -0.6,-1.6 -1.9,-1.1 -1.1,-2.9 0.6,-2.4 2.4,-2.2 v -1.2 l 0.9,-1.1 -0.5,-1.3 2.7,-0.5 1,0.4 2.4,-0.4 1.9,-1 -1.1,-1.8 1.5,-0.7 1.2,-1.2 -0.1,-1 2.3,-0.5 2.4,-1.9 2.3,-1.1 2.3,-1.9 1.1,-0.1 0.3,-1.3 2.5,-1.9 0.8,-1.6 2.3,-1.8 2.2,-3.9 3.8,-1.2 3.8,0.3 -0.6,-1.7 1,-0.3 -0.6,-1.3 -1,-0.6 v -4.6 l -1.3,-0.9 -4.5,-1.6 -1.7,-0.1 -1.2,-1.2 -4.6,-0.7 -1.6,-2.5 -1.9,-2.2 -1.8,-0.6 -1.3,-2.6 v -1.3 l 1.5,-1.3 -0.1,-1.8 0.7,-1.4 -0.6,-0.9 -3.3,-2.6 -0.8,-1.6 0.1,-1.1 1,-0.8 -0.6,-1.3 -2.8,-0.4 0.3,-1.9 -0.7,-1.4 -0.4,-2.4 1.1,-1 -1.8,-0.9 -1.9,-1.5 -1.4,-0.1 -1.2,-1.6 -3.5,-1.8 -8.3,-1.7 -4.2,-1.8 -4.8,-2.3 -2.9,-1.1 -0.4,-0.9 -2.9,-0.8 0.5,-0.4 h 2.1 l 1.9,0.4 0.5,-0.6 -1,-1.4 1.9,-1.1 h 3.6 l 7.9,5.5 1.4,1.8 6.9,0.6 0.8,0.5 1.8,-0.1 3.7,-0.9 1.2,-1.2 1.5,0.1 3.6,1.1 3.9,0.8 2.6,0.8 1.3,-0.6 0.5,-1.7 1.6,-1.3 2.1,-0.3 1.5,-1.4 -0.7,-3.2 0.6,-1.7 0.7,-3.8 2.6,-1.7 1.7,-1.8 2.1,-0.2 3.8,0.4 0.9,-0.2 3.5,-1.6 2.9,-0.3 1.8,1.2 4.2,2 4.2,1.1 3.6,0.8 2.6,2.7 -0.7,1 -3.2,2.9 v 0.7 z"
     name="Finland"
     id="path755" />
  <path
     d="m 243.44999,290.55 -1.6,1.3 -1.3,0.2 -2.5,-1.2 v -0.5 l 2.5,-1.1 2,0.6 z m -36.5,-39.7 1.3,0.9 -3.4,1.9 -1.2,-0.6 -0.9,-1.2 -0.1,-1.9 1.2,-0.5 h 1.8 z m -23.3,-11.4 -2.1,0.4 h -2.9 l 0.1,-1.5 -1.4,-0.5 -1.8,-2.7 -1.3,-0.5 -1.9,1.6 0.5,0.9 -2.4,1.8 -2.9,-0.3 -0.8,-0.7 -2.1,-0.4 -0.2,-1 -2.7,-2 1,-1.4 2.9,-0.9 -1,-1.4 0.2,-0.8 1.6,0.1 2.2,-0.8 1.2,-1.6 1,-2.3 1.9,-0.9 1.3,0.6 1.9,-2 2.8,-0.1 2.7,-0.7 3.9,0.3 1.1,1.1 0.5,1.7 1.3,1.7 1.7,1.4 v 0.9 l -2,1.1 3.5,0.3 1.2,2.5 -2.1,0.3 -0.1,1.4 1.1,0.2 -0.6,1.4 -2.6,0.6 -1.4,2.2 -1,0.5 z m 13.7,-20.2 -2.6,-0.5 -0.6,-2 0.9,-1.4 1.8,0.7 0.6,1.3 z m -11.5,-7.1 0.7,3.4 -2.4,1.3 -0.8,-2.4 -1.4,1 0.2,-1.9 1.5,-0.3 z m 1.7,1.7 -1.1,-1.2 1.6,-2.2 1.7,-1 -0.1,1.6 z m 2.5,-7.8 -4.6,0.8 0.6,-3 -1.9,-0.9 0.3,-0.9 2.1,-0.5 1.7,1.7 2.1,0.6 z m -16.2,-11.4 -1.5,-0.2 -0.4,-1.4 0.2,-2.3 1.6,0.2 z m 12.8,-5.7 -0.1,2.8 2.9,0.8 2,-0.1 0.4,0.6 -3.3,2.7 -0.7,-0.1 -0.2,-2.2 -1.4,0.3 -1.9,-0.3 -1.2,-1.9 -2.7,-0.5 -0.9,-1.1 1.4,-0.6 0.3,-1.2 2.8,-0.6 1.5,-0.7 0.9,1 z m -11.9,-2.6 1.2,0.9 -1.1,1.3 h -1.5 l -2.2,-1 0.2,-0.5 z m 11.8,-9.9 -1.6,2.6 -1,0.7 -0.2,1.7 -3,1.6 -3.2,2.4 -1.4,-1 2.6,-1.7 -2.1,-1 -0.2,-2.6 0.8,-0.7 1.4,0.7 1.9,-0.3 -0.7,-1.2 6.3,-3.2 z m 34.8,-2.2 v 1.2 l -1.3,1.6 -2.2,1.2 -4.2,2.8 -2.5,1.3 -0.5,1.6 1.4,0.1 0.2,0.8 -2.2,1.6 -0.6,1.5 3,-0.4 5.3,-1.5 3.6,0.5 2.6,-0.3 6.9,0.2 1.9,-0.3 2.3,1.3 1,1.7 -2.8,3.4 -0.8,2.3 -2,3.5 -1.9,2 -2,2.5 -2.1,1.1 -3.1,0.5 4.5,1.9 -1.4,1.8 -2.4,0.1 -2.3,1.7 -2.1,0.7 3.6,1.1 2.4,-1 2.7,-0.1 5.2,1.9 3.6,3.4 2,1.5 0.5,1.1 2.1,6.9 1.5,3.8 1.6,1.8 4.5,1.6 1.1,0.6 3.4,3.3 3.4,2.4 -1.4,1.5 0.4,1.2 2.1,2.9 0.3,1.6 -1.3,-0.1 -2.3,-1.4 -0.3,0.7 5,3.3 1.6,2 1,2.7 -0.6,1.1 -3,2.7 2.8,1.4 1.2,-0.2 2,-2.1 1.7,-0.2 4.2,0.3 3.8,1 3.3,2.1 0.7,1.1 0.4,3.1 -2.2,5.8 -2.8,1.9 -0.5,1.7 -2.1,0.9 -1.7,-0.3 -2.4,1.2 1.7,0.6 v 1.7 l -1.1,0.6 -2.5,0.2 1.1,2 2.5,0.4 4.3,-0.2 1.9,0.2 -0.2,2.7 -0.4,0.4 -3.8,1.7 -1,1.8 -2.2,-0.1 -1.1,0.7 -5.7,1.9 -4.9,-0.8 -2.9,0.1 -4,0.6 -4.2,-1.2 -1.8,-0.2 -2.8,1.7 -4.2,0.5 -2,-0.2 0.9,1.5 -0.9,0.4 -3.8,-0.5 -1,0.5 -1.4,-0.2 -2.7,-1.4 -2.6,-0.1 -4.9,1.2 -1,1.3 -1.3,3.5 -1.1,1.2 -1.4,0.2 -4.5,-2.5 -1.5,0.5 -2.5,0.3 -2.7,0.7 -3.9,2.4 -0.9,1.5 -1.3,0.2 -1.1,-0.9 -1.4,-0.3 -2.3,0.8 -0.3,-1.3 1,-1 2.8,-0.7 2.5,-1.9 2.2,-2.3 4.6,-3.8 0.8,-3.1 2.7,-0.7 1.4,-2.5 4.1,-0.6 h 2.8 l 2.8,0.5 2.9,-0.1 1.1,-0.7 1.9,-2.4 3.6,-3 -4.7,1 -3.8,2.3 -3.2,-0.4 -2.3,-1.9 -2.1,-0.8 -2.1,0.4 -0.7,-0.9 -2.4,-1.7 h -2.6 l -3.6,1.7 -2.6,-1.2 -0.9,-2.3 0.3,-1.4 1.1,-0.7 2.5,-0.6 3.8,-1.7 2.2,-0.7 2.8,-1.9 1.2,-2.3 -0.3,-2 0.5,-1.4 -0.9,-1.7 0.3,-1.5 -3,0.3 -2.7,1.2 -0.7,-1.1 2.8,-1.8 1,-1.4 2.6,-1.7 3.6,-1.3 1.9,0.1 3.7,-0.7 2.7,1.3 -0.8,-2.1 1.2,-0.4 0.1,-2.4 1.6,-2.2 -1.2,-0.6 0.1,-2 1.5,-0.8 0.7,-2.6 -1.7,-0.5 -2.1,0.6 -1.7,-1.5 -2.8,-3.6 -0.3,-1.4 1.6,-3.1 2.3,-2 -1.9,-0.8 -1.4,0.2 -2.7,1.2 -2,1.3 h -2.1 l -0.8,-0.9 -1.1,0.1 -2.5,1.1 -3.5,-1.3 -1.1,2.3 -2.6,-2.5 -0.3,-1.9 h 1.3 l 1.2,-2.4 2.9,-4 0.6,-1.2 -0.5,-1.4 -1.9,-1.5 0.3,-2.6 0.8,-1 1.5,-0.4 -1.9,-1.2 -2.9,0.9 -1.8,0.9 0.3,-2 -0.6,-0.4 -1.5,1.4 0.1,3.3 -2.1,5.7 -1.1,0.9 -1.4,-0.5 1.1,-3.9 1.4,-2.5 -0.6,-0.3 0.3,-3.6 1,-2.9 1.7,-3.8 2.2,-3.5 -4.1,2.7 -1,0.5 -2.4,-0.4 -0.8,-0.7 -1,-2.3 1.8,-0.2 1.7,-1.1 -1.5,-0.7 1.5,-0.9 1.7,-2.1 0.4,-1.9 -1,-1.5 -1.6,-0.6 -0.2,-0.9 1.7,-1.9 -0.7,-1.5 1.6,-3.1 3,0.1 1.9,-0.4 -2.3,-2 0.7,-2.9 3.7,-0.3 -0.8,-1.8 0.3,-2 1.6,-0.9 1.3,0.2 1,0.9 2.6,-0.9 0.6,0.8 2.8,-0.6 3.7,-0.3 4.5,-0.6 2.2,-0.4 2.3,0.2 z m -0.6,-4 -1.3,0.1 -1.3,-1.4 1.5,-0.3 z m 1.3,-3.4 2.7,0.6 -0.6,1.4 -1.4,-0.7 -2,0.3 -1.9,-1 0.4,-2.1 1.7,-0.1 1.2,0.5 z m 3.7,-2.3 -1,0.3 -0.4,-1.2 -1.7,-0.6 0.4,-0.8 z m 16.1,-19.5 1.6,1.8 1,0.5 -1.3,3.8 -0.2,1.6 -1,1.7 -0.8,-0.4 0.9,-2.9 -0.5,-1.1 -1.7,0.3 -0.4,-0.9 1.6,-1.4 -0.8,-2 -1.1,-0.2 1.5,-1.6 z m 2.9,0.4 -1.4,-1.3 1.3,-0.6 z"
     name="United Kingdom"
     id="path757" />
  <path
     d="m 567.24999,525.15 h 2.3 l 1.7,-1 2.2,3.7 1.7,-0.1 3.5,-0.9 3.7,0.2 1.4,1 2.6,0.2 2.3,0.5 3.3,-0.7 0.4,0.4 0.1,2.8 1.2,0.2 0.7,-0.7 1.7,-0.6 h 1.8 l 1.6,-0.8 -0.4,3.5 -0.9,0.4 -4.4,-0.1 -8.1,1 -5.3,0.4 -0.7,-0.2 -0.7,-2.2 -3.3,-1.1 -6.2,-1 -1.5,-0.4 -3.1,0.2 -1.1,-1 -0.4,-1.8 0.2,-1.9 1.4,0.3 0.4,-1.4 z m 43.4,1.1 -1.6,-2.1 1.1,-0.5 1.2,2.4 z m -54.7,-11.4 -1.4,0.2 -0.7,-2.2 0.5,-1 2.1,2.1 z m 62.7,4.1 -1.7,-0.4 0.4,-1.8 -0.7,-1.6 2.3,-2.7 3.2,-1.3 0.9,0.9 -0.9,2.5 -0.9,1.3 0.4,1 -1.6,0.2 z m -19,-10.3 -1.5,1.2 -0.9,-0.6 1.9,-1.2 z m 6.2,-2.2 v -0.7 l 1.3,-1.1 2.5,-1 1.2,0.6 -2.5,1.4 -1.5,0.1 z m -22.2,-5.4 -0.9,1.3 -1.3,-0.7 0.4,-1.2 1.1,-0.6 z m 3.6,1.6 -1.1,0.6 -1.4,-2.2 1.9,-2 0.9,0.7 0.1,1.8 z m 5.4,-8.8 0.6,-1.6 1.6,-0.1 v 1.1 z m -21.7,-0.7 -1,-0.4 0.4,-1.2 1.1,0.5 z m 31.6,-3.7 2.8,0.7 -0.7,1 -1.6,0.9 -1.7,-0.9 -1.2,-1.2 z m -76.7,0.1 0.4,1.2 -1.1,1 -1.6,-1.2 -1.2,-1.8 0.9,-1.1 0.9,1.2 z m 53.1,0.7 -1.4,-0.1 -2.4,-2.1 0.9,-1.4 0.9,1.2 1.3,0.1 z m -57.3,-9.7 0.3,1.8 0.9,0.3 1.3,1.6 -0.2,1.2 -2.1,-0.8 -1,0.2 -1.1,-2 -1.3,0.2 0.6,-1.8 1.4,0.1 z m 70.8,2.5 -1.1,0.9 -1.8,-1.7 1.4,-1.3 -2.1,-2.4 -0.1,-1 2.1,-0.5 1.3,0.9 0.6,1.2 0.4,2.6 z m -70.2,-6.1 -1.3,0.1 -0.4,-0.9 0.8,-2.4 1.1,0.3 0.2,2.5 z m 34.6,-5.4 0.9,1.7 5.5,2.5 2.8,0.3 1.7,2.6 -0.2,0.6 1.5,3.8 1.1,0.9 2.7,0.3 0.4,1.9 -0.9,0.8 -1.9,-0.7 -2.1,-1.6 -0.4,-1.3 -2.2,-2.9 -3.6,-0.2 -1.5,-0.7 -0.6,-1.7 -1.5,-0.9 -2,-1.9 -1.5,-1.1 -3,-1.1 -0.6,-0.7 1.9,-1.3 2.1,-0.5 z m 37.9,-5.8 -0.1,0.9 1.9,1.5 0.7,1 -1.2,2.1 -4,-0.8 -0.8,-0.8 1.6,-1.3 -0.9,-0.5 -1.2,1.5 -2.2,-0.7 -0.9,-0.9 0.7,-1.4 1.5,0.1 1.7,-0.8 v -0.6 l 2.3,-0.2 z m -81.3,-1.6 -1.3,0.3 -1.2,-0.8 -1.2,-1.9 -2.2,-2.2 0.7,-1.1 1.6,-0.4 1.4,1.2 -1.1,1.2 0.8,0.7 0.9,2.4 z m 67.8,-8.6 -0.7,1.4 -0.1,1.3 -3.8,-0.7 -0.3,-2.3 2.2,-0.1 0.8,0.8 1,-0.9 z m 2.4,-6.9 -1.4,0.4 -1.7,-1.3 1.4,-0.5 z m -11.9,-3 -1.6,0.6 -1.8,-1.1 1.1,-2.3 1.3,0.1 1,1.3 z m 15.9,-1.7 -0.5,-0.7 -2.1,-1.2 -4.6,-0.6 -2.3,-0.9 -0.9,0.2 -2,-1 -1.2,0.4 -2.5,1.7 -1.5,-0.2 -1.6,-1 -2.2,0.4 -1.7,1.9 -1.8,1 -1.8,-0.4 h -2.3 l -0.2,1.1 2,2.1 -0.5,1 0.5,1 2.1,0.1 2.5,1.3 -0.7,0.7 -3.2,-1.2 -1.2,-0.1 -1.2,1.2 3.5,2.7 0.5,1.4 -0.6,0.9 -1.5,-0.8 -2.5,-3.2 -3.1,-0.6 -0.4,0.6 1.2,2.4 2.9,1.7 -0.6,0.6 -3,-1 -1.1,-1.6 -0.4,-2 -5.5,-2.8 -1.4,-2.8 -2.2,1.3 0.4,2 -0.6,3.8 0.4,1.3 3.5,3.7 1.3,2.7 2.6,2.1 2.6,3.2 0.7,1.8 -1.3,1.1 -1.3,-0.5 0.3,-1.9 -2.2,-1.2 -1.9,1.2 1.5,2.3 0.5,1.2 -0.4,1.3 -1.6,0.8 -2.6,0.1 2.4,1.4 3.3,1 1.6,1.1 1.5,0.1 1.7,2.1 2.6,0.6 1.7,2.1 2,0.5 1.7,0.8 1,2.1 0.3,2.9 0.6,2.1 0.1,1.7 -1.1,0.5 -1.3,-1.6 -4.2,-3.6 -1,-0.4 -1,0.7 -2.9,0.5 -1.9,1.3 1.5,1.3 0.1,1.2 0.8,1.5 2,0.4 2,2.4 -3,1 -1.1,0.7 -0.8,-0.5 -0.2,-1.2 -4.3,-2.2 -0.6,0.6 0.7,2.4 1.3,1.6 2.2,4.3 1.3,3.7 -0.2,2.1 1,1.5 0.1,1.5 -1.7,-1.2 -2.2,-2.5 -0.8,-1.5 -2.2,0.1 -1.3,3.3 0.2,1.9 -1.6,-1.1 -0.2,-2.9 -2.1,-2.8 -0.9,-0.4 -1.3,-1.9 -1.5,0.6 -0.1,2.9 -0.4,1 -2.2,-1.9 -2.3,-3.5 -0.2,-1.8 1.4,-1.7 -0.3,-1.2 -1.6,-2.5 -2.1,-1.5 -1.2,-0.5 -0.7,-1.6 -2,-1.3 v -1 l 2,-1.7 1,-2.6 1.9,0.5 1.4,-0.2 2,-2.4 1.6,0.1 3.9,2.1 4.2,1.2 2.1,1 1.2,1.1 1.6,0.3 -0.5,-1.4 0.8,-0.4 h 2.1 l 0.2,-1.6 -2,-0.6 -0.8,0.2 -2.4,-1.4 -2.3,-0.8 -2.2,-1.5 -1.2,1.3 h -1.2 l -3.4,-0.9 -2.1,0.7 -4.2,0.7 -1.1,-1.3 -2.6,1 -1,-0.7 -1.9,-4.2 -1.7,-1.9 -1.2,-0.5 -0.2,-1.9 1.5,-0.2 2.4,0.9 0.9,-0.6 -0.6,-1.6 -2.5,-0.2 -1.8,0.5 -2.8,-2.2 -1.5,-1.7 -2.2,-1.1 -1.7,-3.4 -2.6,-2.6 2.7,0.9 0.7,-0.7 0.3,-1.5 0.9,-0.7 -1,-2.2 1.7,-1.3 1.9,-0.3 0.6,-0.5 0.3,-2 1.2,-3.1 1.7,-0.8 0.8,-2.6 -1.1,-1.8 v -1.1 l 4.6,-0.3 0.9,-0.6 2.3,0.6 2.4,-1.3 1.7,-2.5 0.8,-0.3 3,-0.4 3.3,0.6 2.9,-1 0.2,-2.1 2,-0.3 3,0.2 1,-1 2.4,-0.2 2.6,0.2 3,-1.1 1.9,-0.2 0.2,-0.9 4.2,0.1 1.6,-0.5 1.2,1.7 2.4,1.4 0.9,-0.6 3.7,1.2 1.7,1.1 3.4,-0.9 3.2,-0.4 1.8,0.3 2.5,-1.2 0.2,-0.8 -0.9,-2.7 -0.7,-1 1.6,-1.1 1.6,0.5 1.2,0.3 2.3,1.5 0.9,3.1 -3.4,2.5 0.5,4.4 -2.5,3.2 z"
     name="Greece"
     id="path759" />
  <path
     d="m 465.54999,408.65 2.3,0.4 -1.1,0.9 z m 12.9,1.5 1.6,-0.1 0.6,0.9 6.2,3.8 1.7,0.7 1.2,1.9 -4.8,-3.1 -4.4,-2.5 -3.1,-0.7 -4.3,-2 -0.5,-0.9 z m -6.3,-3.5 -0.8,0.1 -5.6,-0.1 -1.7,-0.3 -0.5,-1.3 1.8,0.2 0.5,0.6 z m -5.3,-2.3 -2,0.1 -2.6,-0.8 0.3,-1.1 4.8,0.6 z m -21.2,-16.5 -0.3,0.4 -3.3,-2.7 -0.3,-1.9 2.8,2.7 z m -4.9,-6.5 -1.9,-0.2 0.8,-1.1 z m -4.2,1.5 -0.9,-0.1 -1.7,-4.2 0.4,-1.2 -0.8,-2 0.9,-0.3 0.5,2.1 1,0.9 -0.1,1.6 z m 3.7,-4.9 -1.5,0.3 -1,-1 -1.3,-0.2 -1,-1 1,-0.7 0.5,-1.2 z m 49.5,-14.7 -0.7,1.5 1.6,2.7 0.2,1.6 1.3,0.4 -0.4,2 1.2,1 3,1 0.9,1.5 -2.3,0.1 -1.7,0.4 0.7,2.6 -1,1.6 -2.2,-0.2 -1.3,-2.2 -1.1,-0.8 -2.2,-0.2 -2.6,-0.7 -1.8,0.2 -1.8,-0.3 -2.2,1 -1.6,-1.3 -1.7,0.6 -2.8,-0.7 -2.5,-0.1 -2.7,-1.6 -1.5,1.2 -3.2,-0.3 -2.7,3.2 -1.8,-1 -1.7,-1.8 -1.8,-0.4 -1.2,0.6 -0.3,5 0.1,1.4 1.9,1.3 3.4,3.2 1.3,4 2.3,2.4 2.8,2.3 1.7,2 5,4.1 2.4,1.1 0.4,2.2 1.5,1.6 3,2.5 -0.3,1.6 -3.5,-2.8 -2.6,-1.5 -3.1,-2.8 -3.8,-1.1 -2.7,-1.2 -3.3,0.6 -1.8,-0.2 -0.7,-2.2 -5.8,-3.9 -4.3,-4 -0.8,-1.3 3.1,-1.2 -1.4,-0.8 -3.9,-3.4 -1.2,-1.6 -0.1,-4.1 -0.8,-1.7 -2.9,-2.2 -1.1,-1.1 -2.1,-0.7 -1.4,0.9 -0.3,1.9 -3,5 h -1.3 l -3.1,-4.2 -0.5,-1.9 -1.3,-3.9 0.7,-0.5 0.5,0.6 3.3,0.8 1.4,-1.3 1.1,0.5 3.6,-0.1 0.6,-0.3 1.2,-2.2 2.6,2.1 1.5,0.7 1.3,-0.5 2,0.7 1.6,0.2 1.2,-0.4 -0.8,-2.3 0.7,-0.7 -1,-1.1 2.1,-1 2.1,-0.6 0.4,-1.1 -0.2,-2.2 -0.9,-0.9 0.4,-1.4 4.4,-1.7 0.7,-1 h 2 v -1.7 l 0.9,-0.8 2.5,0.6 2.9,1.2 1.7,1.2 0.9,1.3 2.7,1.8 2.2,2.2 1.3,0.7 2.5,0.6 1.3,1.3 3.3,0.9 4.9,0.2 2.5,-0.9 1.1,-1.4 z"
     name="Croatia"
     id="path761" />
  <path
     d="m 525.34999,325.25 h 1.5 l 1.4,2.3 2.2,0.8 0.9,1.1 2.3,0.4 0.9,0.7 0.7,1.7 -2.2,2.3 -4.6,1.1 -1.9,2.4 -1.2,1 0.1,1.7 -1.4,1.4 -0.7,2.5 -1.4,1.5 v 1.2 l -1.6,2.7 0.2,1.3 -2.1,1.5 -1.5,4.7 -1.3,0.9 -2.6,-0.3 -2.5,2 -1.4,-0.5 -3.2,0.9 -1,-0.5 -2.8,-0.3 -1.1,0.2 -2.9,-0.4 -1,0.3 -1.5,1.6 -2.2,1 -1.6,-0.5 -2.1,1.3 -2.9,0.4 -1.1,1.4 -2.5,0.9 -4.9,-0.2 -3.3,-0.9 -1.3,-1.3 -2.5,-0.6 -1.3,-0.7 -2.2,-2.2 -2.7,-1.8 -0.9,-1.3 -1.7,-1.2 -2.9,-1.2 -1.9,-2.2 -1.4,-3.3 -2.4,-0.1 1.8,-1.7 2.5,-0.5 0.3,-1.8 -1.1,-1.6 0.5,-0.7 -0.4,-1.5 2.2,-1.2 0.5,-1.4 -0.5,-1.1 -2.6,-0.7 1.3,-1.4 2.5,0.9 3.9,-0.3 -0.7,-2 0.6,-1.9 0.6,-0.7 2.1,0.3 4.2,2.7 1.6,0.7 4.7,0.1 7,-0.4 0.6,-1 -0.5,-1.3 0.4,-1 1.4,-0.7 4.3,-0.4 2.4,-0.6 1,-1.5 0.7,-0.2 3.5,1.4 5,-2.5 1.6,-3.5 1.8,-0.4 2.7,0.1 2.5,0.6 4.6,-0.7 1.4,0.9 2.2,2.2 0.6,0.2 z"
     name="Hungary"
     id="path763" />
  <path
     d="m 183.64999,239.45 0.7,1.1 -2.2,0.4 1.5,5.2 0.6,0.9 v 4.1 l 0.9,3.2 0.1,2.5 -1.3,1.8 -0.9,2.1 -0.2,1.8 -1.6,2.1 -1.5,0.9 1.6,1.5 -2.8,0.8 -2.6,-0.3 -1.3,0.8 -3.9,0.2 -3.7,0.7 -1.7,1.8 -2.5,0.7 -1,1 -2.3,0.8 -1.7,-1.2 -1,0.2 0.2,2.1 -2.9,1.3 -1.8,0.3 -1,0.7 -5.8,1.4 -1.9,-0.5 -3.3,0.8 -1.2,-0.1 1.6,-1.8 1.6,-1.3 -3.8,0.6 -1.4,0.5 -0.6,-0.6 3.2,-1.9 -3.3,0.1 -3,-0.4 -0.4,-1 2.9,-2.3 2.4,-0.9 -0.1,-0.9 -5.1,0.1 0.5,-1.1 1.7,-1 1.8,-0.1 1.5,0.6 1.1,-0.8 -0.6,-1.7 3.9,-2.3 3,-0.3 3.3,-0.7 3.3,-0.8 -2.4,-1.2 -2.3,1.8 -2.6,0.3 -1.9,-0.5 h -2.1 l 2.7,-2 1.6,-1.7 -0.8,-0.7 2,-2.3 3.6,-1 -1.6,-1.3 -3.9,0.2 -1.4,-1.3 -2.6,0.1 0.4,-1.2 -3.5,-0.2 0.5,-1 -0.6,-1.1 2.8,-0.6 -0.2,-2 1.9,-0.8 2,-0.4 0.1,-1.1 -2,-0.2 -2,0.4 0.8,-2.1 -0.8,-1 -0.4,-1.7 -0.9,-1 2.8,-0.2 1.2,-0.5 4.7,0.1 1.9,1.3 1.7,-1.2 4.8,0.9 0.6,-2.6 3.8,-1.5 1.2,-2 -3.7,0.4 -3.6,-1 0.7,-0.8 2.1,-0.7 1.9,-1.6 -0.3,-1.1 1.7,-2.7 3.1,-0.8 h 2.4 l 1.6,-0.9 1.2,2 -1,1 0.6,0.9 1.2,-0.8 -0.5,-2.1 0.9,-1.3 1.9,-0.3 0.6,-0.8 3.2,1.7 -2.5,1.5 -0.5,0.7 -1.9,0.9 -1,2.3 -1.2,1.6 -2.2,0.8 -1.6,-0.1 -0.2,0.8 1,1.4 -2.9,0.9 -1,1.4 2.7,2 0.2,1 2.1,0.4 0.8,0.7 2.9,0.3 2.4,-1.8 -0.5,-0.9 1.9,-1.6 1.3,0.5 1.8,2.7 1.4,0.5 -0.1,1.5 h 2.9 z"
     name="Ireland"
     id="path765" />
  <path
     d="m 94.649994,65.35 1.2,0.1 2.8,-0.8 2.199996,-1.1 0.5,1.1 -2.499996,2.4 2.199996,0.9 2,0.3 -0.1,1.7 -1.7,1.6 0.8,0.3 3.5,-0.5 1,2.3 1.5,-0.2 2.4,0.3 1.4,1.2 1.2,-0.3 0.5,0.9 -0.7,1.2 -1.5,0.6 2.1,2.9 v 1.1 l -1,0.7 h -1.3 l -1,2.1 -1.2,1.1 -2,1 -2.6,-0.5 -1.1,1.5 0.2,1.4 -1.3,1.3 -5.299996,2.1 h -2.5 l -2.6,0.5 -6.2,2 -4.7,2.8 -2,0.7 -3.1,0.3 -1.8,0.5 -5.9,0.8 -2,0.5 -1.2,1.1 -0.5,1.4 -4,1.1 -3.8,0.7 -6.4,-0.5 -5.4,-1.3 -4.5,-0.3 -3.8,-2.5 -2.9,-1 -3.6,-1.8 -2.3,1.1 -12.4,0.3 -0.8,-0.5 -0.2,-2.1 1.1,-0.8 1.3,1.2 5,-1.1 2.7,-1.9 2.5,-2.7 -3.5,1.2 -0.2,-1.9 -0.9,-1.1 -1.7,-0.8 -0.3,-0.8 1.1,-0.9 -2.3,-1.2 -2.6,0.1 -6.6000002,-0.5 -3.8,1 -2,0.1 -0.9,-1 v -1.1 l 1.5,-0.3 1.8,0.1 4.1000002,-0.6 1.4,-0.6 0.8,0.5 3.6,-1.1 1,0.2 4,-0.2 4.4,-0.1 1.1,-0.8 0.4,-1.1 -2.8,0.9 -3.7,-0.5 -0.6,-0.9 3.6,-1.6 2.7,-0.8 -0.8,-1.3 -3.2,0.2 -0.7,-0.8 -2.6,-0.4 -1.8,0.3 -0.9,-0.5 -2.4,0.6 -5.2000002,0.9 -3.3,0.9 -3.1,-1.1 -2.39999996,-0.2 1.39999996,-1.4 2,-0.1 1.7,0.8 0.1,-3.2 1.2,0.3 2.8,1.1 -0.7,-2.8 2.2000002,0.1 -2.2000002,-1.6 0.5,-1 1.6000002,-0.3 0.8,-1 h 2.4 l 2.3,1.1 0.2,1.4 h 2.1 l 1.1,-0.8 0.9,0.6 0.5,1.2 h 1.2 l 0.4,-2.2 -3.6,-1.1 -0.3,-1.4 3.7,-0.1 -1.7,-1.1 -3,0.2 -1.4,-0.4 2.6,-1.2 h 3.4 l 1.4,0.2 2.3,1.7 2,0.6 3.1,2.3 2.2,0.9 v 1.2 l 0.7,0.8 -2.3,3.4 0.9,0.7 -0.8,1.6 1.9,0.6 1,1.7 0.9,-1.8 1.5,-1.9 2.3,-1.3 0.9,0.1 0.9,1 0.9,0.1 1.4,-2 0.7,-4.3 1.7,-0.9 1.8,0.7 1.3,1.6 2.6,2.1 1.8,-0.5 0.1,-2.3 1,-1.3 2,-0.3 2.2,-0.8 2.3,-0.2 1.7,1.4 1.2,1.4 1.7,1.1 0.7,1.8 0.9,-0.3 -0.2,-1.7 -1.4,-2.6 0.3,-0.9 4.1,0.2 3,2.3 1.3,-0.3 3.6,-2.8 2.3,0.8 1.8,0.1 2.8,-0.8 0.8,-1.2 -0.9,-2.3 0.6,-0.4 2.6,-0.6 2.7,0.1 2.6,2.1 -0.1,1 z"
     name="Iceland"
     id="path767" />
  <path
     d="m 456.94999,483.05 -1.2,2.5 -2.8,4.3 -1.5,5.1 0.3,2 1.6,1.4 -0.7,0.5 1.6,1.8 0.1,1.3 -1.8,1.9 -0.4,1.7 0.1,1.5 -2.9,-0.6 -1.4,0.3 -3.7,-1.4 -1.9,-2.8 -3,-2 h -3 l -1.4,-0.5 -2.9,-1.9 -3,-1.4 -2.6,-2.1 -1.7,-0.4 -1.5,-1 h -2.9 l -2.3,-1.6 -1.3,-2.3 1.3,-3.7 1.4,-0.8 0.9,-1.2 2.3,2.3 1.8,-0.8 1.4,-1.6 2.4,0.1 0.5,0.9 1.4,0.3 2.5,1.6 1.4,0.4 3.4,-1 3,0.4 2.8,-0.5 1.7,-0.6 1.2,-1 1.4,-0.3 3.5,0.3 2,-1.2 0.8,0.2 2,-1.2 z m -78.3,-41.5 0.7,0.9 1.8,5 -0.6,1.6 -1.3,2 0.8,2.8 -0.6,11.5 -0.6,2.9 -0.9,0.4 -2.9,-1.2 -1.5,0.3 -1.2,-0.6 -0.3,3 -1.8,2.1 -3,-0.2 -0.7,-0.6 -2.4,-3.8 -0.4,-4.3 0.6,-1.3 v -2.5 l 1.1,-0.1 v -1.7 l -1.8,-1.2 v -1.9 l 0.7,-1.4 -0.1,-2.6 -0.8,-0.9 -0.8,-2.3 -2.2,-2.4 0.1,-3.4 3.4,0.6 1.3,-0.3 3.1,-1.5 2.1,-2.5 1.4,-0.5 1.5,-1.8 0.7,0.9 2.2,0.8 1.2,1.5 0.9,0.5 -0.7,1.4 z m 8.3,-30.8 0.3,1.4 -2.5,0.5 -1.1,-1.1 2.9,-0.2 z m 37.9,-56.6 -0.2,0.9 -3.3,2.3 0.7,1.4 2.3,0.7 -1.6,2.1 0.3,1 1.3,0.2 -0.4,2 1.9,1.1 1.5,1.3 0.2,1.3 -1.5,0.1 0.7,-0.6 -2,-2.2 -2,0.9 -3.2,-0.9 -2.1,2 -1.5,0.4 -1.7,1.1 -3.2,1.2 -1.8,-0.4 -1,0.7 -0.4,3.1 0.8,0.6 1.5,2.6 1.7,1.1 -0.7,1.9 -0.9,0.7 -1.3,-0.5 -0.3,1.7 0.9,4.5 1.4,3.2 1.2,1.3 2.7,2.2 2.7,1.1 5.1,3.7 2.8,1.1 0.7,0.7 1.8,2.8 1.6,3.2 1.8,5.1 1.3,2.5 2.3,2.9 4.8,4.1 4.3,2.9 4,1.9 3,0.3 7,-0.4 2.6,0.7 0.4,1.2 -0.4,0.9 -2.9,2.1 v 1.7 l 1.5,1.2 7.1,3.2 7.2,2.6 2.2,1.4 2.7,2.1 6.4,2.9 1.1,1.4 4,3 1.8,2.4 0.5,1.8 -1.5,4.4 -1.6,-0.5 -1.9,-1.3 -3.1,-5.4 -5,-0.5 -2.9,-1.3 -0.7,-1.4 -2.3,-0.4 -1.3,0.9 -1.4,2 -1.5,3 -1.5,4.3 v 1.7 l 1.1,1.7 2.9,1 2.4,1.5 1.6,1.6 0.3,3.8 0.9,2.1 -0.9,1.3 -1.9,-0.3 -2.5,0.7 -1.7,1.4 -0.7,1.4 0.5,3.4 -0.3,1.4 -3.3,2.5 -1.6,2.5 -1,2.3 h -4.3 l -1.1,-1.5 -0.1,-2.2 0.6,-1.3 1.6,-0.7 0.9,-2.8 -0.5,-2 1.1,-1.6 2.8,-0.7 v -2.9 l -1.4,-1.3 -1.4,-5.1 -2.4,-4.3 -1.4,-3.8 -1.1,-1.8 -1.4,-1 -3.7,-0.3 -4.6,-2.6 -0.3,-1.1 0.6,-1.1 -1.1,-2.8 -2,-1.7 -2.6,0.6 -1.2,-0.1 -0.1,-1.5 -2,-1.3 -2.7,-0.2 -0.7,-0.7 -2.6,-4 -1.7,-1.7 -2.3,0.1 -3.9,-0.9 -2,0.7 -3.2,-2.6 -2.8,-0.9 -5.7,-5.3 -1.8,-2 -3.5,-2.2 -2.3,-3.2 -1.8,-1.2 -4,-1.4 -0.3,-1.3 -3.1,-3.1 -1.7,-1 -1.3,-2.1 -2.5,-0.5 0.1,-2.7 -1.2,-3.5 -1.7,-2.2 -1.2,-5.3 -0.8,-1.5 -1.8,-1.1 -4,-1.2 -5.7,-3.4 -1.1,-0.1 -3.4,-1.3 -2.1,-0.2 -2.6,1.2 -3.1,3.2 -2.5,3.4 -0.9,0.6 -3.4,1.2 -3,0.5 -0.2,-1.5 2.1,-2.6 -0.3,-2 -3.3,0.6 -5.1,-2.4 -0.9,-0.9 -0.1,-1.4 -0.7,-1.3 1.4,-2.5 0.8,-0.7 -0.5,-1.7 -3.2,-1.4 -1.5,-3.1 0.8,-0.4 1.9,0.2 1.7,-1.3 1.2,-0.3 0.8,-2.5 -1.8,-1.6 -1.7,-2.6 -0.9,-0.6 -0.1,-1.6 2.6,-1.7 1.4,0.7 2.4,-0.5 2.6,-1 3.1,0.8 2.4,-1.4 1.6,-2.2 -0.6,-1.5 3.4,-2.9 1,0.6 0.2,2.5 2.4,2 2.2,0.6 -0.4,1.2 1.3,1.2 0.9,1.4 1.2,-0.7 -0.7,-1.7 0.2,-1 2.2,-2.6 0.5,-1.1 v -2.9 l 2,-0.1 0.8,2.1 2,0.8 2.9,-1.1 0.7,0.1 1.4,1.9 1.2,-0.3 -1.5,-3.5 0.6,-1.8 1.3,-0.3 1,0.9 1.9,0.2 -0.5,-1.8 0.5,-3.1 3,0.3 0.9,0.8 2.1,0.4 1.1,-0.4 1.2,-2.2 1.4,-0.6 3.4,-0.3 3.1,0.2 4.7,-1.5 v 2.3 l 3.1,3.5 1.1,0.5 8.6,1.5 4,0.3 z"
     name="Italy"
     id="path769" />
  <path
     d="m 373.74999,345.95 -1.2,-0.1 -0.1,-1.7 0.5,-1.5 1.1,2.5 z"
     name="Liechtenstein"
     id="path771" />
  <path
     d="m 562.24999,215.95 v 1.8 l -0.7,3.1 3.9,1 -1.3,1 -0.4,1.1 -3.6,-0.1 -1,2 -0.8,0.6 -2.6,0.6 -1.1,3 0.4,2.3 -1,1.5 -0.5,2 1.9,0.5 0.9,1.1 v 1 l -2,0.2 -1.7,-2.3 -1,0.7 -2.1,0.5 -1.4,1.2 -2,-0.2 -0.8,2.6 -1.8,-0.1 -3.3,1.3 -1.6,-0.9 -3.7,0.3 -1.6,0.3 -2.9,-0.4 -0.8,-3 -1.1,-0.9 -4.5,-2.2 -2.3,-0.7 -0.6,0.6 -1.3,-2 v -2.1 l 1,-3.1 -1.3,-1.3 -1.4,-0.6 -0.9,-1.3 -5.7,-0.1 -2.4,-0.6 -3.9,-1.4 -2,-1.2 -1.8,0.2 -0.6,-1.2 0.2,-1.6 -1.1,-2.4 -1.6,-2.9 -0.7,-3.8 2.8,-1.7 3.6,-1.9 4.7,-1.4 5.9,0.5 4.3,-0.1 1,0.9 1.6,-0.7 4.9,0.5 2.3,0.1 3.7,0.9 4.6,-0.4 1.7,-1.3 2.3,-0.2 2.4,2.9 6.1,1 0.9,0.4 5.4,3.1 2.6,2.1 1.5,0.7 z"
     name="Lithuania"
     id="path773" />
  <path
     d="m 329.74999,299.15 0.3,2.2 1.5,1.6 2.8,1.1 v 1.4 l -0.9,0.9 -0.6,3 -1.3,-0.7 -2,0.6 h -1.4 l -2.1,-1.2 1.1,-1.7 -2,-2.4 0.2,-1.7 1.4,-2.5 1.3,-1.3 z"
     name="Luxembourg"
     id="path775" />
  <path
     d="m 565.94999,188.65 1.9,0.3 0.5,1.1 3.2,1.7 0.7,2.2 -0.8,1.6 -0.3,3.1 1.8,-0.3 1,0.6 0.3,1.2 1.7,2.1 1.3,0.8 1.9,4.2 -0.3,1.7 -1.3,0.2 -1.4,0.8 -2.5,2.4 -0.4,1.7 -3.1,-0.1 -3,-0.4 -1.1,0.3 -1.2,1.5 -2.6,0.6 -2.3,-0.5 -1.5,-0.7 -2.6,-2.1 -5.4,-3.1 -0.9,-0.4 -6.1,-1 -2.4,-2.9 -2.3,0.2 -1.7,1.3 -4.6,0.4 -3.7,-0.9 -2.3,-0.1 -4.9,-0.5 -1.6,0.7 -1,-0.9 -4.3,0.1 -5.9,-0.5 -4.7,1.4 -3.6,1.9 -2.8,1.7 -0.8,-2.8 -0.6,-5.5 0.1,-2.8 1.9,-1.6 0.8,-1.2 0.6,-4.5 2.5,-3.6 2.4,-0.4 3.1,-1 3.5,-0.9 1.4,1.9 4.9,3 1.2,1 2.3,3.4 4.4,1.8 3.1,-0.6 3.6,-2.4 1,-1.1 v -1.1 l -1.2,-4.7 -1.1,-2 0.1,-1.3 8.4,-2.8 1.5,1 1.1,-0.7 5.6,2.5 2.3,0.5 0.6,0.7 3.5,2.7 2.8,1.1 4,-1.2 3.4,1 z"
     name="Latvia"
     id="path777" />
  <path
     d="m 538.14999,419.25 3.3,3.2 3.4,1.8 1.7,3.3 0.9,1 -0.5,1.7 v 4.2 l -2,0.3 -0.2,2.1 -2.9,1 -3.3,-0.6 -3,0.4 -0.8,0.3 -1.7,2.5 -2.4,1.3 -2.3,-0.6 -0.9,0.6 -4.6,0.3 -1.3,-1.1 -1.6,0.2 -1.3,-2.4 -1.2,-1.1 -1.2,-2.2 -0.2,-1.9 -0.7,-2 0.8,-0.8 -0.3,-2.1 0.5,-2.6 1.7,0.3 0.5,-0.8 0.2,-2.6 3.4,-1.5 1,-0.1 1.6,1.2 1.5,-1.9 2.1,-0.4 2.2,-0.3 2,-0.9 1.9,0.3 2.3,-0.8 z"
     name="Macedonia"
     id="path781" />
  <path
     d="m 496.74999,400.35 0.4,1.2 2.6,1.7 1.9,2 3,1.6 2.1,0.5 5.3,2.9 0.1,1 -1.6,0.4 -0.2,0.7 -2,0.4 0.9,1.5 -0.2,1.3 -3.4,1.2 -0.8,-2.1 -1.1,-0.3 -3.2,5.3 -0.8,0.3 -2.5,-0.2 1.6,1.9 1.7,0.8 0.3,0.6 v 3.1 l -2.1,-1.2 -0.9,-1.8 -3.1,-2.9 -3.5,-2 0.1,-1 -1.6,0.1 -1.2,-1.9 1.1,-1 0.1,-0.8 -1.1,-1.6 -0.6,-3 0.5,-0.7 1.7,-0.2 -0.1,-1.5 0.5,-1.7 2,-1.7 2.3,-0.2 -1.4,-2.2 z"
     name="Montenegro"
     id="path783" />
  <path
     d="m 312.34999,148.35 0.1,1.7 -1,-0.1 -0.7,-1.1 -0.2,-2 0.7,-0.5 z m -1.8,-11.1 h -1.8 l 0.3,-1.3 0.9,-0.3 z m 32.5,-31.9 -2.3,-0.2 -1,-0.8 2.8,-0.8 0.7,0.5 z m 3.6,-4.6 -0.3,-0.9 2.7,-0.6 0.9,1 z m 28,-16.6 -4.2,0.3 -0.3,-1.1 2.1,-0.8 h 1.2 z m 6.8,-10.5 -2,0.3 0.1,-1.1 1.8,-0.3 z m 4.1,-5.7 -0.1,-1.1 1,-1.2 1,0.4 -0.3,1.5 z m 3.1,-24.9 -1.5,0.7 1.1,-2.6 1.1,-0.7 0.4,1.5 z m 8.5,-5.2 2.3,0.2 -0.5,0.8 -1.4,0.3 -1.1,0.8 -1.9,0.2 -1.9,1 -1.6,0.3 -0.4,-1.2 0.9,-1 h 1.3 l 1,-1.2 z m 12.4,-9 2.2,2.1 -0.3,1.5 -1.2,0.7 -3.3,0.1 -1.6,-0.9 -2.2,0.6 -1.6,-1.1 1.6,-1.4 2.6,0.4 0.5,-1.7 1.7,0.3 0.4,-1.5 z m 6.3,5 1.3,-1.1 1.5,-0.4 0.6,-2.2 1.8,-0.5 1.6,1 0.9,1.2 -0.2,1.1 -3.1,1.2 -2.5,2 -1.6,-0.2 -0.7,0.7 -2.4,0.6 -1.7,-0.9 -0.9,0.9 -1.4,0.4 -1.2,-0.4 -2.9,1.5 -2.8,0.3 -1,-1.1 3.1,-1.9 5.1,-0.6 2.9,-2.3 0.4,-2.5 0.6,-0.9 -1.3,-0.6 0.2,-1.7 2.4,-1.7 1.3,-1.4 1.5,-0.3 0.9,1.1 -1.1,1.4 -1.6,1.2 1.1,1.5 0.6,2.4 z m 15.5,-13.7 1.4,0.8 1.5,-0.3 2.3,0.7 1,1.5 -1.2,0.9 0.4,1.7 -3.8,0.5 -0.9,-0.5 -1.5,0.9 -1.4,1.4 -2.2,-0.6 0.2,-1.6 -0.3,-2.3 0.7,-0.5 2.9,0.3 -0.4,-2 z m 124,-2.6 -1.8,0.4 0.2,-1.8 z m -92.4,-3.8 -1.3,0.4 -1.8,-0.3 -0.7,-1 2.2,-1 1.7,0.3 z m -15.1,0.3 1,0.7 1.5,-0.5 1.1,1 -1.4,0.8 -0.8,1.2 -2,0.1 -2.9,2.3 -0.1,0.8 -5,0.5 -1.5,-0.3 1.7,-2.7 h 1.7 l 1.7,-0.8 -0.3,-0.8 2.5,-2 0.6,-1.7 1.4,-1 z m 4.8,-2 1.4,0.2 1.3,1.6 h -2.3 l -2,-1.8 z m 37.3,-4.3000001 0.5,1.1 -3.3,2.1000001 -1.6,0.1 -2.1,-1.2000001 0.1,-0.8 1.9,-0.9 0.9,0.1 2.7,-1.4 z m 3.9,-0.3 -1.8,0.5 -1.7,-0.9 -0.2,-1.6 0.8,-0.3 3.2,1.2 z m -6.4,-3.2 -0.4,0.8 -2.7,2.1 -2.2,0.7 -1.8,-0.3 -0.8,0.6 h -2 l -2,-0.6 -2,-1.2 3.5,-0.1 0.6,-0.5 h 1.5 l 2.8,-0.4 1.1,0.3 2.1,-1.4 z m 60.6,23.5000001 -1.7,-1.3 v -0.7 l 3.2,-2.9 0.7,-1 -2.6,-2.7 -3.6,-0.8 -4.2,-1.1 -4.2,-2 -1.8,-1.2 -2.9,0.3 -3.5,1.6 -0.9,0.2 -3.8,-0.4 -2.1,0.2 -1.7,1.8 -2.6,1.7 -0.7,3.8 -0.6,1.7 0.7,3.2 -1.5,1.4 -2.1,0.3 -1.6,1.3 -0.5,1.7 -1.3,0.6 -2.6,-0.8 -3.9,-0.8 -3.6,-1.1 -1.5,-0.1 -1.2,1.2 -3.7,0.9 -1.8,0.1 -0.8,-0.5 -6.9,-0.6 -1.4,-1.8 -7.9,-5.5 h -3.6 l -1.9,1.1 1,1.4 -0.5,0.6 -1.9,-0.4 h -2.1 l -0.5,0.4 -5.1,0.2 2.6,1.6 0.1,2 -1.4,1.9 -1.6,0.9 2.9,0.9 -2.5,1.6 -1,-0.1 -8.6,-1.7 -2.9,-0.1 -4.1,-0.9 -2.1,0.5 v 0.8 l 0.8,3.6 -2.1,3.1 -6.3,-1.8 -1.5,0.9 -3.7,1.9 -1.5,3.5 -1.1,1.1 -2.7,0.6 -0.5,1.1 2.7,2.3 1,1.3 -0.2,1.4 -1.5,1 -3.3,2.9 -3,2.9 -1.3,0.9 1,2.5 -3.3,1.5 -2.4,0.5 -3.8,0.4 1.4,3.9 -0.6,2.7 -0.1,4.7 -3.3,5 -4.4,5 4.7,1.6 1.1,2.9 0.1,1.2 -1.7,2.2 -7.1,-0.9 -3.3,0.4 -3.3,1.5 -3.5,3.8 -1.2,1 0.5,1.5 -2,2.8 2.7,4.1 -1.1,1.1 0.6,2.8 -0.1,1.8 2.5,4.4 v 1.6 l -0.9,6.4 3.8,2.1 1.2,0.4 3.4,2.7 -0.4,1.9 -1.3,2.5 h -2.4 l -1.8,0.6 0.3,1.6 3.1,4.9 0.5,1.4 -0.6,2.1 -0.1,2.8 -1.9,2 -1.3,0.8 -2.6,0.7 -0.9,2.4 -1.5,1.5 1.6,4.4 -0.6,3.9 -0.7,1.4 -1.9,0.2 -1,-1.8 -0.4,-1 -6,-1.2 -2.3,-2.9 -0.4,-3.1 -2.5,1.2 0.6,1.1 v 2.3 l -2.5,3.9 -1.1,-0.2 -1.3,0.8 -1.3,0.2 -0.6,-1 -1.1,0.2 -0.8,1 -3.4,1.3 1,0.7 -1.7,1 -0.6,0.9 -2.7,1.5 -4.3,3.9 -2.3,1.1 -1.6,1.2 h -1.4 l -1.8,0.9 -4.6,0.9 -3.1,-0.4 -2.1,0.4 -1.1,-0.7 v -1.1 l -1.2,-0.1 -0.8,1.2 -1.6,-0.4 0.7,-2.4 -3.1,-0.1 -3.8,-1.6 -0.9,-0.8 -3.1,-1.3 -1.4,-1.4 -0.8,-1.6 0.3,-3.6 0.6,-0.5 2.7,0.8 2.8,1.3 -0.1,-1.2 -2.4,-1.6 0.8,-1.8 -0.2,-1.6 2.6,-2.1 -0.4,-0.7 -3.4,2 -3.1,0.9 -1.1,1.2 -1.1,0.6 h -2.1 l -0.5,-0.9 0.5,-3.3 1.2,-2.7 1.8,-1 3.4,0.7 1,-1 1.3,-0.2 2.4,-1.2 -4.1,0.5 -1.2,-1 2.8,-2.4 1.2,-1.4 0.3,-1.5 2.2,-1.7 1.8,-0.8 1.6,0.6 1.5,-1.9 -5,1.1 -2,1.1 -2.7,2.8 -0.2,1.1 -2,0.9 -1.5,1.5 -0.6,1.2 -2.8,1.9 -1.4,0.3 v -2.4 l 1.1,-2 -0.3,-1.6 3.2,0.2 1.8,-1.2 h -2.7 l -1.4,-0.7 -1.2,-1.5 -0.6,-1.9 1.1,-1.8 -2.2,-2 -0.5,-2.2 -0.1,-2.5 0.9,-0.5 2.1,0.4 2.4,-0.2 5.2,-0.9 3.4,0.6 1.4,-0.1 2,-0.7 1.9,-0.1 2.2,1.2 0.7,-0.5 5.4,-1.2 -3,-1.5 0.1,1.4 -3.6,0.3 -3.2,-0.6 -1.3,-0.6 -0.5,1.3 -1.1,0.3 -3.4,-0.5 -4.7,0.3 -2.1,0.7 -1.4,-0.1 -2.5,-1.2 -0.9,-0.9 -0.3,-2.6 2.8,-0.3 -1.9,-2.3 -1.9,-1.3 -0.2,-1.4 0.7,-1.3 1.5,0.2 3.8,-0.1 6,1.5 4.9,-0.3 -0.8,-0.6 h -2.9 l -7.2,-1.3 -2.2,0.1 -1.2,-0.3 -0.7,-1 0.4,-1.9 1.1,-0.4 1.2,0.6 1.9,-2.3 1.9,-1 2,-0.5 2,1 1.3,-0.1 4,-0.8 -1.3,-0.5 -3.5,0.5 -0.2,-0.5 2.4,-2.3 4.2,-0.4 5.9,0.5 2.3,0.8 0.4,-1.8 5.3,-1.4 -6.8,0.8 -1.8,-0.5 -4.9,0.7 -0.1,-1.3 2.3,-2.3 4.1,-0.9 1.9,-1.1 3.1,-0.2 2.6,0.3 1.2,1.3 4.4,1.7 -5.1,-4 1.1,-1.7 3.3,-0.4 v -1.6 l -2.2,-0.3 v -1.2 l 1.9,-0.9 2.8,-0.7 3.2,0.8 -0.6,1.3 0.9,0.5 1.7,-1.5 3.9,-0.8 2.8,2.1 0.5,1.1 1.1,-0.5 2.7,-0.5 2.7,0.3 1.8,-0.2 -1,-1.3 0.4,-1 2.4,-1 1.7,-0.3 2.6,-1.2 -0.8,-1 -1.4,-0.3 2.9,-1.5 -1.7,-0.6 -2.4,0.9 -1.6,0.9 1.5,1 -1.1,1.1 -6.1,2.8 -3,0.8 -1.4,-0.1 -1.9,-2.5 -2.1,-0.1 1.3,-2.2 1.6,-0.8 1.4,-2.3 2.3,-1.3 3.2,-3.3 2.8,-1.1 0.9,-1.1 3,-1.5 3,-0.9 0.3,-1 -2.7,0.9 0.4,-2.1 1.4,-1 6.8,-2.8 1.6,1.3 2.1,-0.2 2.3,-1.6 -0.3,-0.7 -2.1,1 h -1.5 l -0.4,-0.6 -2.1,-0.5 -0.3,-1.2 1.3,-2.8 3.4,-3.3 0.5,-1.3 1.3,-0.7 1.7,0.2 -0.2,-1.1 -2.1,-1.1 6.2,-1.1 h 3 l 2.4,-0.9 0.5,-1 -6.4,1.1 -2.4,0.1 -0.8,-2.7 0.2,-1.5 1.9,-2.2 1.4,-0.2 1.7,-1.1 0.1,-1.5 2.3,-0.8 2.1,-2.1 2.3,-0.5 1.4,0.2 3,-0.7 6.6,-0.1 0.1,-0.6 -6.3,-0.3 -3.5,0.2 -0.4,-0.6 2.8,-2.7 2,-1 1.7,0.2 1.8,1 0.6,-0.8 -1.6,-1.5 0.7,-1.5 -2.6,1.1 -1.8,0.3 -0.9,-2 2.3,-2 h 2.3 l 0.3,-1.5 3.3,-1.3 1.9,-0.2 1.5,-0.6 0.6,0.4 0.9,2.3 1.5,0.3 1,-0.8 -1.3,-1.1 -1.1,-1.8 2,-1.5 2.3,-0.2 2.6,0.7 2.3,-0.2 0.9,-1.2 -6.3,-0.1 -0.8,-0.9 1.2,-1.2 2.2,-0.8 2.5,-0.1 2.4,-1.4 0.9,-1.1 0.3,-1.6 1.4,-1.3 3.9,-0.8 -0.6,-2.2 0.8,-1.4 1,-0.6 2.1,1.5 1.8,0.5 -0.5,-1.4 0.3,-1.2 h 2.1 l 1,-0.5 0.3,-1.3 1.4,-1.2 4.7,-0.7 0.5,2.5 0.7,1.4 0.8,-2.8 1.6,-2.1 2.4,-0.9 0.9,1.1 -0.4,4.3 -1.9,2.4 1.5,-0.2 2.5,-2.3 0.6,-1.2 -0.7,-2.8 0.6,-0.8 3.5,-0.1 1.9,0.4 0.7,-1.5 1.7,-0.1 1.8,0.9 4.1,1.4 -1.3,-2.2 -1,-0.8 -2.1,-0.5 -2.2,-1 1.2,-1 2.4,0.3 2,-0.8 2.2,-0.2 1.1,0.6 0.8,-1 2.5,-0.5000001 2.8,0.9000001 1.6,2.7 2.4,1.4 -0.1,-1.4 0.6,-1.9 2.3,-2.0000001 2.1,-1 1.4,-0.1 2.9,-3.4 -1.6,-1 3.3,-2.3 1.1,-0.1 5.4,2.1 1.5,-0.9 3.4,0.8 -0.8,1 -3.1,2.9 -0.5,0.8 -0.1,2.2000001 -1.2,1.4 0.8,1.4 1.6,-0.4 1.8,-1.3 0.1,-1.3 4.3,-3.7000001 1.9,-2.1 2.3,-1.7 1.5,-0.3 0.9,1.1 -0.2,1.5 0.2,4.3 3.7,-1.4 1.1,-3 1.1,-0.7 -0.8,-1.4 0.4,-1.1 2.3,-1.30000002 2.2,0.40000002 3.3,0.3 2.7,0.8 0.2,1.4 -0.8,0.9 -2.9,1.1 0.7,0.7 2,-0.6 0.9,5.5000001 0.9,-2.1000001 1,-0.7 0.1,-1.5 0.8,-1.9 1.8,-1.3 h 2.7 l 3.3,1.7 2.5,0.3 1.8,0.8 2.4,-0.7 2,1 0.1,1 3.8,0.3 3.8,1.6 0.6,1.6000001 -4.4,1 -1.8,1 -3.3,0.4 -11.5,-0.7 0.4,0.7 8.3,1.5 0.6,0.5 0.4,2.1 1.8,0.7 3.5,-0.2 v -1.3 l 3.2,0.6 3.8,0.2 1.1,1.7 -0.3,1.5 -2.4,0.1 -4.2,-1.4 -0.4,2.3 -1.1,0.9 -5.8,1.3 -1.1,2.6 z m -40.5,-27.70000012 3.7,0.5 2.2,1.40000002 -3.6,0.5 -1.7,-0.1 -2,-1.80000002 z"
     name="Norway"
     id="path785" />
  <path
     d="m 521.14999,235.45 0.6,-0.6 2.3,0.7 4.5,2.2 1.1,0.9 0.8,3 2.1,5.1 2.9,4.9 1.7,3.6 0.9,3.9 -0.6,1.6 -4,1.7 -0.8,0.5 -2,2.7 v 1.2 l 3.3,1.3 1.8,1 0.8,1 -0.2,2.4 0.4,1.1 -0.8,1.5 0.1,1.3 1,1.6 1.2,1.8 v 1.3 l 2.7,2.8 1.9,2.8 1.4,1 -1.2,1.3 1.8,2.6 0.1,1.3 -1.2,1.8 -3,0.5 -4.8,4.6 -2.4,2.7 -3.4,4.4 -0.6,1 1.5,3.8 -0.1,1.8 1.9,1.4 -0.4,0.9 -3.3,-0.7 -0.9,-0.2 -5.7,-1.9 -0.8,-1.4 -1,-0.7 -3.1,-1 -3.6,-0.3 -3.2,0.2 -1.4,1.5 -1.8,-0.1 -2.4,-1 -3,0.1 -2.3,1 -1.1,2.1 -1.7,-0.6 -1.4,0.4 -0.6,-2.7 -1.4,-0.4 -3,-3 -2.2,1.3 -1,1.7 h -2.2 l -0.5,-1.5 -1.3,-0.2 -0.5,-1.6 -2.8,-2.2 -0.5,-1.8 -2.7,-0.8 -0.5,0.2 -3.5,-1.8 -1.8,1 -1,-0.6 -2.7,-2.3 1.4,-0.5 v -1.6 l -3.6,0.7 -3.3,-1.9 -2.2,-0.6 h -1.3 l 1.7,2.4 -3.5,2.5 -1,-0.4 -1.5,-1.9 -2,-1.8 -1.6,-0.9 1.6,-1.2 0.7,-1.1 -1.8,-1.2 -3.2,0.7 -0.8,-0.9 -2.7,-1.1 -4.6,-1.1 -1,-1.1 -0.3,-1.1 -3.3,-0.8 0.1,1.9 -2.1,0.4 1.6,-3.6 0.4,-2.3 -1.6,-3.2 -2.2,-0.9 v -1.6 l -1.9,-3.1 0.8,-1.1 0.7,-2.6 -0.8,-1.9 -2,-2.3 0.6,-2.6 -1.4,-1.7 -3.3,-2.1 -1.6,-1.4 0.7,-1.6 1.9,-1.8 0.3,-2.7 -1.8,-4.1 -0.7,-2.6 2.8,0.9 0.7,-0.5 -0.1,-1.8 -4.1,-0.7 -0.1,-1.2 2,0.4 3.8,-1.4 6.5,-1.8 6.9,-1.7 3.3,-0.5 2,-2.2 1.9,-1.7 3.8,-0.7 1.3,-0.8 2.8,-1.2 6.6,-1.2 5.5,-0.4 5.4,2.3 -0.9,0.3 -3,-1.2 2.2,3.5 1.1,1.2 2,0.9 1.7,0.3 4.9,-0.5 2.2,-1.1 0.5,0.1 6.6,0.4 22.9,0.9 z"
     name="Poland"
     id="path787" />
  <path
     d="m 160.34999,499.35 -1.2,0.2 -4.5,2.5 h -1.3 l -2.5,-1.1 -4.5,-0.4 -1.5,-0.3 -1.8,0.7 h -1.5 l -1.1,1 -0.8,-0.3 1,-2.1 1.6,-4.1 v -2.6 l 0.4,-2.2 -0.3,-2.1 -0.7,-1.4 1.1,-3.5 v -1.8 l -0.9,-2.3 2.8,0.3 -1.7,-1.4 h -1.5 l -2.3,0.9 -1.5,0.1 0.1,-1.4 -0.5,-1.8 2,-0.6 1.6,-1.7 -0.3,-1.6 -1.2,1.1 -0.6,1.4 -2.8,0.7 -1.5,-0.5 v -1.9 l 0.6,-1.7 0.4,-2.3 0.8,-2.2 -0.2,-1.4 1.6,-1.3 1.4,-1.9 4.3,-8.9 -0.6,-1 1.7,-6.6 1.2,-2.3 0.6,-4.3 -0.2,-2 -0.7,-2 -0.7,-4.3 v -1.4 l -0.9,-1.8 0.1,-1 1.4,-1.7 1.2,-1.1 1.9,-0.9 4.1,-1 1,1.8 -1.3,1.9 0.9,1.3 3,-1.1 2.9,-0.1 2.2,0.8 h 1.4 l 2.5,-0.9 0.8,-1.4 1.5,0.5 5.2,0.1 0.7,1.1 0.1,3.1 1.9,0.2 1.9,0.9 0.3,1.1 -2.5,2.5 -2.1,1.1 -1.6,1.4 -1.1,1.6 -2,1.6 0.8,2 0.4,3.5 -0.4,3.8 0.4,1.1 -2.7,2.1 -0.2,1 1.4,1.3 v 1.9 l -1.7,3.5 -1,0.5 h -4.3 l -1.1,0.3 1.1,1.9 1.4,1.2 0.3,1.9 1.6,3.2 1.7,0.4 0.5,0.8 -0.6,2.4 -3.2,3 -0.9,4 3,4.3 1.7,-0.2 -0.7,2.4 -2.1,0.6 -3.5,4.3 -0.8,2.2 z"
     name="Portugal"
     id="path789" />
  <path
     d="m 605.74999,370.65 1.5,1.6 1.8,0.9 4,0.9 0.6,-1.2 0.9,0.3 1.6,-0.5 2.2,-1.3 2.2,-0.2 2.2,0.7 1.9,1.8 -0.2,4.3 -0.7,2.1 -6.2,1.3 0.4,-0.6 -0.7,-2 -1,-1 -0.9,1.1 0.6,1.7 -0.7,1.4 -0.2,2.4 0.6,0.9 -1.6,2 -0.5,1.3 0.8,4.8 -0.4,3.7 h -2 l -2.6,-0.5 -2.2,-0.7 -2.5,-2.6 -1.7,0.5 -0.9,-0.6 -3.2,-0.4 -4.5,-2.3 -2.9,0.4 -4.4,0.9 -3.2,1.2 -3.3,2.1 -1.2,1.6 -1.6,0.9 -2.3,0.6 -4.2,-0.2 -9.4,-1.7 -2.5,0.5 -3.5,-0.4 -5.3,-1 -3.9,-0.3 -3.7,0.6 -0.9,-1.8 1.8,-2 -4.3,-2.5 -0.8,-1.2 -1.6,-0.9 -0.5,-1.7 2.5,-1.8 -3,-1.6 -1.7,0.5 -1.7,1.8 -1.3,0.2 -1,-1.2 -1.5,-0.7 -3.5,-0.7 -1.5,-1.2 -2.1,-0.6 0.2,-0.6 1.8,-0.8 -2.3,-1.1 1.5,-2 -0.9,-1.1 -2.6,-0.8 -3.8,-1.9 -2.2,-1.8 -0.4,-4.1 -0.8,0.2 -1.8,-2 -2.9,-1.7 -1.7,-2 3.2,-0.9 1.4,0.5 2.5,-2 2.6,0.3 1.3,-0.9 1.5,-4.7 2.1,-1.5 -0.2,-1.3 1.6,-2.7 v -1.2 l 1.4,-1.5 0.7,-2.5 1.4,-1.4 -0.1,-1.7 1.2,-1 1.9,-2.4 4.6,-1.1 2.2,-2.3 2.1,-0.9 0.9,-1.2 h 0.7 l 2.7,1.5 2.7,-0.1 6.9,1.4 3.6,-0.7 1.2,0.3 4.3,3.3 2.1,-0.5 1,-1.2 3.4,-1.3 8.4,-1.2 1.1,-1.9 0.2,-1.4 3.7,-0.8 h 2.1 l 2.5,1.6 2.5,3 3,4.9 1.5,1.3 2.5,3.2 2.1,1.8 1.3,1.7 3,2.1 1.4,2.9 1.4,2.3 0.5,2.9 -0.9,4.8 0.1,2.6 1.4,5 -0.9,0.7 z"
     name="Romania"
     id="path791" />
  <path
     d="m 505.94999,360.55 1.7,2 2.9,1.7 1.8,2 0.8,-0.2 0.4,4.1 2.2,1.8 3.8,1.9 2.6,0.8 0.9,1.1 -1.5,2 2.3,1.1 -1.8,0.8 -0.2,0.6 2.1,0.6 1.5,1.2 3.5,0.7 1.5,0.7 1,1.2 1.3,-0.2 1.7,-1.8 1.7,-0.5 3,1.6 -2.5,1.8 0.5,1.7 1.6,0.9 0.8,1.2 -0.9,0.7 -0.2,1.9 -2.1,1 -0.4,2.3 0.6,2.4 2.4,3.9 2.9,1.5 1.3,1.6 1.6,1 -0.3,1.4 -1.6,1.7 -1.1,1.6 -1.8,0.1 -1.1,0.6 v 3.3 l 1.4,2.9 -1.1,1.7 -1,0.3 -1.4,-0.7 -2.3,0.8 -1.9,-0.3 -2,0.9 -2.2,0.3 -0.6,-1.3 1,-0.9 1.2,-3.2 0.2,-1.2 -4.7,-1.2 v -1.3 l -2.2,-1.2 -0.2,-0.7 -2.3,-2.1 -2.8,-1.3 -1.1,-1.3 -1.7,0.9 0.6,1.6 -0.4,1 -1.7,1.3 v 1.4 l -1.5,0.5 -0.1,-1 -5.3,-2.9 -2.1,-0.5 -3,-1.6 -1.9,-2 -2.6,-1.7 -0.4,-1.2 0.7,-0.8 2.5,0.3 0.2,-2.2 -3.2,-3.7 0.5,-0.8 3.1,0.1 0.3,-0.8 -3.3,-2.9 -2.4,-1.2 -0.5,-0.8 0.1,-2.6 1.6,-2.7 0.5,-2.5 -1.5,-0.8 -2.8,0.7 1,-1.6 -0.7,-2.6 1.7,-0.4 2.3,-0.1 -0.9,-1.5 -3,-1 -1.2,-1 0.4,-2 -1.3,-0.4 -0.2,-1.6 -1.6,-2.7 0.7,-1.5 2.1,-1.3 1.6,0.5 2.2,-1 1.5,-1.6 1,-0.3 2.9,0.4 1.1,-0.2 2.8,0.3 z"
     name="Serbia"
     id="path793" />
  <path
     d="m 529.14999,315.15 -1.5,3 -0.8,2.9 -1.6,1.7 0.1,2.5 -4.3,1.1 -0.6,-0.2 -2.2,-2.2 -1.4,-0.9 -4.6,0.7 -2.5,-0.6 -2.7,-0.1 -1.8,0.4 -1.6,3.5 -5,2.5 -3.5,-1.4 -0.7,0.2 -1,1.5 -2.4,0.6 -4.3,0.4 -1.4,0.7 -0.4,1 0.5,1.3 -0.6,1 -7,0.4 -4.7,-0.1 -1.6,-0.7 -4.2,-2.7 -2.1,-0.3 -2.3,-2.9 -1.6,-2.9 -0.1,-0.8 0.9,-2.4 1.1,-2.8 1.4,-1.2 3.6,0.5 1.7,-0.2 1.5,-0.7 2.1,-1.9 1.6,-0.8 0.7,-3 2.3,-1.2 0.6,-0.8 2,-1.5 2.8,-0.3 1.3,0.2 0.5,1.5 h 2.2 l 1,-1.7 2.2,-1.3 3,3 1.4,0.4 0.6,2.7 1.4,-0.4 1.7,0.6 1.1,-2.1 2.3,-1 3,-0.1 2.4,1 1.8,0.1 1.4,-1.5 3.2,-0.2 3.6,0.3 3.1,1 1,0.7 0.8,1.4 5.7,1.9 z"
     name="Slovakia"
     id="path795" />
  <path
     d="m 459.54999,354.55 -2.5,-0.6 -0.9,0.8 v 1.7 h -2 l -0.7,1 -4.4,1.7 -0.4,1.4 0.9,0.9 0.2,2.2 -0.4,1.1 -2.1,0.6 -2.1,1 1,1.1 -0.7,0.7 0.8,2.3 -1.2,0.4 -1.6,-0.2 -2,-0.7 -1.3,0.5 -1.5,-0.7 -2.6,-2.1 -1.2,2.2 -0.6,0.3 -3.6,0.1 -1.1,-0.5 -1.4,1.3 -3.3,-0.8 -0.5,-0.6 1.7,-1.1 1.5,-0.1 -0.2,-1.3 -1.5,-1.3 -1.9,-1.1 0.4,-2 -1.3,-0.2 -0.3,-1 1.6,-2.1 -2.3,-0.7 -0.7,-1.4 3.3,-2.3 0.2,-0.9 5,0.9 5,0.7 3,-1.2 1,-1.3 1.9,-0.7 2.6,-0.2 2.8,0.2 2.3,-1.1 1.6,-0.2 2.4,0.5 0.1,-1.9 1.3,-0.9 2.4,0.1 1.4,3.3 z"
     name="Slovenia"
     id="path797" />
  <path
     d="m 445.44999,206.85 -1.5,-0.3 -0.3,-3.8 2,-4.6 1,-0.3 2.7,-6.5 0.5,2 -1.5,3.2 -0.3,2.2 -0.6,0.5 z m 26.2,-22.7 -1.3,1.4 -1.4,0.5 0.1,3.3 1.5,1.2 -1.3,0.5 -0.7,1.8 -1.8,0.6 -1.5,1.6 -0.3,1.6 -2.1,0.9 1.2,-2.4 -0.9,-0.7 -1.4,-2.1 0.4,-0.9 -0.6,-3.2 2.7,-2.9 1.3,-1.1 3.3,-1 h 1.3 z m 36.8,-113 -2.7,0.3 -2.2,-0.6 -1,0.3 -3.8,0.3 -1.1,0.7 -2.1,-0.7 -2,-1.2 -2,1.1 -1.6,-1 -1,1.9 0.1,1.8 -1.8,-0.2 0.3,1.1 -2,1.5 -3.2,0.2 0.7,1.5 -0.9,0.7 1,1.7 -1.3,1.5 -2.1,1.9 -0.5,1 1.7,1.1 1.6,2.5 1.6,1.1 -0.4,1.2 -2.1,1.1 -2.2,1.7 -2,4.3 -3.1,1.3 -2.4,1.6 -3,0.7 -2.4,2.2 -1.8,-0.8 -1.5,0.5 -1,1.8 -1.9,1.5 -2.4,-0.2 0.2,0.8 -2.3,0.3 -1,4 -2.2,0.6 -0.7,0.8 -0.9,-0.6 -2.1,0.1 1.6,2.8 -1.7,1.8 h -1.2 l -1.5,0.7 -1.9,-0.8 -0.2,1.2 0.8,1.3 1.3,1 -0.1,1.3 -0.9,4.3 0.7,1.8 -2.1,1.2 -0.8,1.1 0.6,1.7 -0.1,1.1 0.7,1.9 0.8,4.2 1.1,2 -0.1,1.6 1.3,0.9 2.1,-0.1 1.4,1.6 3.1,-0.8 0.8,1.1 2.9,2.2 1.7,0.3 1.9,1.2 v 1.5 l 2.9,1 1.9,2 0.8,1.6 -0.1,1 -2.6,1.5 -1.3,1.3 -3.8,2.1 -0.6,-0.1 -2.1,1 2,0.6 1.4,-0.7 2.6,-0.6 1.4,1.2 -2.2,0.5 -0.3,1.6 -0.8,1 -2,0.7 -2.8,1.5 -4,1.4 -1.1,1.2 -2.6,1 -1.3,0.8 h -3.8 l -3.7,-0.1 1,0.9 0.9,-0.2 3.6,0.4 1.7,1.3 -3,0.9 1.7,3.2 -0.7,0.8 0.4,3.5 -1.1,0.1 -0.3,1.4 0.6,2.5 1,2.1 -0.1,1 -1.5,2.4 0.9,2.9 -1.5,5.3 -1.9,3.1 -1.3,4.1 -1.8,1.4 -2.4,-0.9 -3.4,0.5 -3.2,-0.3 -3,0.2 -0.8,0.4 0.7,1.4 -2.3,-0.2 -1.7,1.1 -2,2.1 v 1.5 l 1.9,3 -1.7,2 h -1.1 l -3.2,-0.5 -5.5,1.2 -5.1,-1 0.5,-1 0.2,-3.1 -0.6,-1.7 -1.3,-1.1 -3.1,-3.8 -1.2,-2.3 2.4,0.9 1,-0.5 -1.8,-2.6 2.2,-0.1 0.7,-1 -0.6,-1.5 -1.9,-0.6 -1.9,-2.4 -1.8,-1.2 -3.5,-4.7 -1.3,-3.2 -1.1,0.3 -1.2,-3.7 -1.7,-0.6 -0.6,-3.7 -1.8,-0.4 -1.3,-1.7 -0.4,-3.2 -1.2,-0.6 -0.8,-1.4 -0.8,-3 -0.3,-2.7 -0.9,-1.8 0.5,-1.2 1.1,-0.2 1.1,0.8 1,1.8 1.9,-0.2 0.7,-1.4 0.6,-3.9 -1.6,-4.4 1.5,-1.5 0.9,-2.4 2.6,-0.7 1.3,-0.8 1.9,-2 0.1,-2.8 0.6,-2.1 -0.5,-1.4 -3.1,-4.9 -0.3,-1.6 1.8,-0.6 h 2.4 l 1.3,-2.5 0.4,-1.9 -3.4,-2.7 -1.2,-0.4 -3.8,-2.1 0.9,-6.4 v -1.6 l -2.5,-4.4 0.1,-1.8 -0.6,-2.8 1.1,-1.1 -2.7,-4.1 2,-2.8 -0.5,-1.5 1.2,-1 3.5,-3.8 3.3,-1.5 3.3,-0.4 7.1,0.9 1.7,-2.2 -0.1,-1.2 -1.1,-2.9 -4.7,-1.6 4.4,-5 3.3,-5 0.1,-4.7 0.6,-2.7 -1.4,-3.9 3.8,-0.4 2.4,-0.5 3.3,-1.5 -1,-2.5 1.3,-0.9 3,-2.9 3.3,-2.9 1.5,-1 0.2,-1.4 -1,-1.3 -2.7,-2.3 0.5,-1.1 2.7,-0.6 1.1,-1.1 1.5,-3.5 3.7,-1.9 1.5,-0.9 6.3,1.8 2.1,-3.1 -0.8,-3.6 v -0.8 l 2.1,-0.5 4.1,0.9 2.9,0.1 8.6,1.7 1,0.1 2.5,-1.6 -2.9,-0.9 1.6,-0.9 1.4,-1.9 -0.1,-2 -2.6,-1.6 5.1,-0.2 2.9,0.8 0.4,0.9 2.9,1.1 4.8,2.3 4.2,1.8 8.3,1.7 3.5,1.8 1.2,1.6 1.4,0.1 1.9,1.5 1.8,0.9 -1.1,1 0.4,2.4 0.7,1.4 -0.3,1.9 2.8,0.4 0.6,1.3 -1,0.8 -0.1,1.1 0.8,1.6 3.3,2.6 0.6,0.9 -0.7,1.4 0.1,1.8 -1.5,1.3 v 1.3 l 1.3,2.6 1.8,0.6 1.9,2.2 z"
     name="Sweden"
     id="path799" />
  <path
     d="m 528.34999,420.25 -2.1,0.4 -1.5,1.9 -1.6,-1.2 -1,0.1 -3.4,1.5 -0.2,2.6 -0.5,0.8 -1.7,-0.3 -0.1,-2.2 -1.4,-3.2 -1.9,-1.3 -1.4,-0.5 -2,-2.9 -0.5,-0.4 0.2,-1.3 -0.9,-1.5 2,-0.4 0.2,-0.7 1.6,-0.4 1.5,-0.5 v -1.4 l 1.7,-1.3 0.4,-1 -0.6,-1.6 1.7,-0.9 1.1,1.3 2.8,1.3 2.3,2.1 0.2,0.7 2.2,1.2 v 1.3 l 4.7,1.2 -0.2,1.2 -1.2,3.2 -1,0.9 z"
     name="Kosovo"
     id="path801" />
  <path
     d="m 306.54999,279.95 -0.6,1.2 -3.2,1.5 -3.9,-1.1 -1.2,0.6 -1.2,-0.7 -0.3,-1.3 2.8,-0.4 3.5,0.7 1.5,-0.6 1.2,0.5 z m -3.4,-5.3 1.5,1.4 -1.5,0.3 -1.6,-1 z m 18.1,-8.5 -3,-0.4 -0.9,-0.7 2.4,-1.7 3.2,-1.5 1.7,0.4 0.5,0.9 -1.1,1.1 z m -7.6,-11.5 -1.1,1.1 -0.6,-1.4 1.7,-1.4 z m -7.1,25.3 -2.6,-0.8 -2.2,0.5 -2.8,-0.7 -1.7,-1.3 1.2,-0.7 2.3,-0.1 4,0.7 1.2,-0.9 -0.6,-1 -2.3,-2.1 1.6,-2.7 1.4,-1 3.2,-3.8 0.9,-2 1.2,-5.5 1,-2 1.4,0.5 2,-0.8 3.4,-2 1,-1.7 1,-0.9 4,-1.6 2.1,-0.4 8.9,-0.5 1.8,1.7 2.7,0.6 0.1,4.3 -0.7,1.7 -1.1,3.8 -3.1,-0.1 -0.6,1.6 0.7,1 2.6,0.3 0.8,1 -0.6,2.6 -2.6,1.6 -0.3,0.9 1,0.9 -0.7,1 -4.5,1.3 -2.3,-0.8 -1.8,0.7 -0.7,1.1 3.1,4.1 v 1.2 l -1.3,2.8 0.7,1.2 -2.2,1.6 -0.5,0.8 1.9,1.2 -0.6,2.4 -1.2,-0.1 -2.4,-0.3 -0.7,-1.1 1.1,-1.3 1,-2.9 -2.6,-1.1 -1.7,-1.3 -1.9,0.4 -2.6,-1.4 -0.5,-1.6 -2.5,0.8 -1.1,-1.3 -1.5,1 -1.5,-0.8 -1.4,0.7 0.2,0.9 z m 18.1,-15.6 0.9,-0.9 -0.5,-1.9 -2.1,-0.3 -0.5,-0.8 0.4,-2.5 -2.8,-0.4 -0.4,-2.5 -1.5,0.3 -2.3,1.5 0.6,1.3 1.6,1.6 v 0.9 l -2.1,0.7 0.1,2.6 -0.2,1.6 5.4,1.4 z"
     name="Netherlands"
     id="path803" />
  <a
     href="#spain"
     id="spain">
    <path
       d="m 274.74999,472.15 -0.4,1 -2,-0.4 v -1.5 l 1.2,-1.6 2.7,-0.7 0.8,1.3 z m 21.7,-13.6 1.2,0.5 1.3,-0.5 1.4,0.4 0.2,1 -2.2,3.5 -0.6,1.4 -2.1,1.3 -4,-1.7 -0.3,-1.6 -1.4,-0.7 -1.7,1.3 -1.4,-1 -0.3,-1.2 5.3,-3.7 1.5,-0.9 3.2,-0.9 0.5,1.2 z m 14.7,-0.8 -0.3,0.2 -3.9,-1.9 -1.6,-0.4 0.1,-1.4 2.6,-0.2 2.1,0.7 1.2,1.8 z m -77.4,-55.5 0.5,1.3 4.3,1.3 -0.3,3.2 1.8,-0.4 4.4,1.7 2.2,0.2 2.2,2.1 3.6,-0.4 3.2,2.1 3.1,-0.4 0.7,0.4 h 4.7 l 0.8,-2.4 4,1.1 2.5,1 1.7,0.3 1.1,1.5 v 2.1 l 0.7,0.4 2.8,-1.1 2.8,1.2 1.3,1.2 2.1,-1.1 4.7,1.2 1.2,-0.8 3.8,-1.1 3.1,0.6 1.2,2.2 -1.8,0.5 -0.2,1.4 1.2,1.3 0.1,2.1 -3,2.8 -8.7,4.7 -2.9,2.7 -6.6,1.5 -4.5,1.5 -2.2,0.5 -4.1,3.8 1.1,0.3 1.2,1.2 -0.4,0.6 -2.5,1.1 h -0.9 l -2.9,4.6 -2.6,3.3 -1.5,1.5 -1.5,2.1 -3.2,5.6 -0.1,1.6 1.6,5.5 2.2,2.7 2.4,1.1 0.6,1 -0.8,1 -2.4,1.7 -4.3,2.3 -1.8,1.9 -0.3,1.8 -1.3,0.8 -0.5,2.5 -1.8,4.4 1.3,1.2 -1.3,0.8 -6.5,0.3 -4.1,2.8 -2,2.4 -1.9,4.5 -2.2,2.6 -1,0.5 -1.5,-1.2 -1.9,-0.1 -1.9,0.3 -1,1 -1.5,0.5 -1.5,-0.5 -4.6,-0.2 -2.3,0.8 -1.9,-0.5 -3.2,-0.3 -7,0.6 -4,3.4 h -3.4 l -3.1,1.2 -2.1,3 -0.5,1.6 -1,-0.3 -0.3,1.2 -2.1,0.8 -2.4,-1 -2,-1.5 -1,-0.1 -1.6,-2.2 -1.2,-3.1 v -1.1 l -1.5,-0.6 -0.3,-1.4 0.2,-1.6 -1.2,-2 -5,-3.7 -3.7,-0.3 -3,0.5 -1.1,-6.4 0.8,-2.2 3.5,-4.3 2.1,-0.6 0.7,-2.4 -1.7,0.2 -3,-4.3 0.9,-4 3.2,-3 0.6,-2.4 -0.5,-0.8 -1.7,-0.4 -1.6,-3.2 -0.3,-1.9 -1.4,-1.2 -1.1,-1.9 1.1,-0.3 h 4.3 l 1,-0.5 1.7,-3.5 v -1.9 l -1.4,-1.3 0.2,-1 2.7,-2.1 -0.4,-1.1 0.4,-3.8 -0.4,-3.5 -0.8,-2 2,-1.6 1.1,-1.6 1.6,-1.4 2.1,-1.1 2.5,-2.5 -0.3,-1.1 -1.9,-0.9 -1.9,-0.2 -0.1,-3.1 -0.7,-1.1 -5.2,-0.1 -1.5,-0.5 -0.8,1.4 -2.5,0.9 h -1.4 l -2.2,-0.8 -2.9,0.1 -3,1.1 -0.9,-1.3 1.3,-1.9 -1,-1.8 -4.1,1 -1.9,0.9 -1.2,1.1 -1.3,-0.1 v -2.5 l 2.6,-2.6 -1.6,-0.2 1.2,-1.9 -1,-1 0.1,-2.6 -2.3,0.9 -0.5,-1.2 1.4,-2.2 -1.4,-0.2 -2.3,-2.5 0.8,-3.1 2,-1 1.9,-1.5 2.6,0.3 1.7,-0.3 3.6,-1.6 -0.4,-1.5 0.4,-0.7 3.2,-1.7 2,-0.2 1.9,-0.9 1.3,0.5 1.1,-0.1 1.3,0.6 1.7,1.6 2.5,0.6 2,-0.5 3.6,-0.1 1.7,0.2 3.2,-0.3 1.8,0.1 2.9,-0.8 2.3,1 4.4,0.4 2.6,0.8 7.2,1.4 h 2.7 l 3.7,-0.8 1.6,-0.5 1.5,0.3 2.1,-0.6 2.3,1 4.7,1.3 2.1,-1.3 3.4,0.6 3.3,1.3 1.8,0.1 2.6,-0.3 z"
       name="Spain"
       id="path805" />
  </a>
  <path
     d="m 375.54999,411.55 -0.3,2.3 1,1.7 0.6,6.5 -1.8,3.2 0.1,3 -1.6,4.3 -0.8,1.1 -3.8,-2 -1.2,-1.1 1,-1.8 -2.2,-0.9 0.4,-1.7 -0.2,-0.9 -1.6,-0.5 1,-1.3 v -0.8 l -1.5,-1 -0.3,-0.9 1.3,-1.1 -0.6,-0.9 0.1,-1.3 0.9,-1.9 1.2,-0.9 2.8,-0.8 1.2,-1.1 1.9,0.6 0.6,-1.2 -0.2,-2.7 0.3,-1.1 1.3,0.5 z m -133.9,-47.9 -0.4,1.4 -1.9,-2.4 1,-0.5 z m 84.4,-55.6 2.1,1.2 h 1.4 l 2,-0.6 1.3,0.7 1.4,0.1 3.5,4.3 1.8,-0.7 1.4,0.4 0.3,0.9 2.1,0.1 3,-0.6 2,1.4 4.8,0.8 1.6,0.6 0.1,1.3 -3.5,3.8 -1.4,5.5 -1,1.8 -0.3,1.5 0.2,2.4 -0.6,2 v 1.5 l 1.1,1.3 -1.5,0.7 -0.8,1.4 -2.7,0.3 -0.8,-0.8 h -1.1 l -1.8,1.4 1.3,1.1 -0.6,0.9 -3.8,4 -2.1,0.9 -0.5,2.9 -3,2.2 -1.1,2.9 0.8,0.7 -0.3,1.5 -1.5,1 v 1 l 1.4,0.1 2.3,-1.6 -0.5,-1.3 2.3,-1.5 1.9,-0.1 2.2,0.3 0.8,2.2 -0.5,1.7 2.3,2.3 0.9,1.4 -2.6,1.7 0.1,1.6 0.9,0.6 1.7,2.6 1.8,1.6 -0.8,2.5 -1.2,0.3 -1.7,1.3 -1.9,-0.2 -0.8,0.4 1.5,3.1 3.2,1.4 0.5,1.7 -0.8,0.7 -1.4,2.5 0.7,1.3 0.1,1.4 0.9,0.9 5.1,2.4 3.3,-0.6 0.3,2 -2.1,2.6 0.2,1.5 -0.6,0.3 -0.8,0.3 -2.4,1.1 -3.9,3.4 -1.8,1 -0.7,1.8 -2,1.4 -2.4,0.5 -2.3,1 -1.1,-0.4 h -2.8 l -1.7,-1.2 -3.4,-0.8 -1.1,-1.8 -2.5,-0.1 -0.8,-1.5 -1.9,0.3 -1.5,0.7 -2,-0.1 -5.9,-1.8 -1.4,-1.4 -1.7,0.5 -1.6,1.6 -6.5,4.1 -2.6,4.3 -0.1,1.2 0.7,3.9 1.6,2.5 -3.1,-0.6 -3.8,1.1 -1.2,0.8 -4.7,-1.2 -2.1,1.1 -1.3,-1.2 -2.8,-1.2 v -1.5 l -2.6,-0.6 -0.9,0.7 -1.1,-1.5 -1.7,-0.3 -2.5,-1 -4,-1.1 -0.8,2.4 h -4.7 l -0.7,-0.4 -3.1,0.4 -3.2,-2.1 -3.6,0.4 -2.2,-2.1 -2.2,-0.2 -4.4,-1.7 -1.8,0.4 0.3,-3.2 -4.3,-1.3 -0.5,-1.3 2,-0.5 1.9,-1.9 1.7,-7.1 1.3,-8.3 1,-1.6 1.2,-0.4 -1,-1.2 -1.1,1.5 0.7,-7.6 0.5,-2.8 0.9,-3 3.1,2.4 0.8,1 0.9,3.4 0.6,0.1 -1.1,-4.6 -1.8,-2.3 -3.6,-2.3 -0.5,-1.3 1.8,-0.6 -0.5,-1.8 -0.5,-5.9 -3,-0.6 -4.8,-2.6 -1.7,-2.6 -1.6,-1.9 -0.4,-1.7 0.9,-1.8 -0.8,-1.1 -1.4,-0.8 1.1,-1.6 -3,-0.2 -1.8,-0.5 -0.3,-1.1 1.3,-1.4 -1.6,-0.8 -2.6,0.2 -0.2,-1.7 -2.2,0.3 -1.2,-0.3 -1.1,-1.1 -1.3,0.2 -2.2,-0.4 -0.8,-0.7 -4.8,-1.3 -2,-0.1 -1.9,0.6 -1.1,-0.3 -1.3,-2.2 -3.1,-1.1 0.6,-0.7 3.1,-0.6 0.6,-0.7 -2.2,-0.9 -0.2,-1.2 1.6,0.3 0.1,-1.2 -4,0.1 -0.4,-1.3 0.5,-1.4 2.3,-1.2 5.8,-1.4 2.5,0.2 1.7,-0.2 3,-1.6 2.9,-0.4 2.7,0.8 2.5,2.8 1.2,1 3.1,-1.7 4.4,0.1 0.9,0.9 1.2,-1.7 1,1 4.7,-0.2 -1.5,-2.5 -0.2,-6 -1.3,-1.7 -2.1,-4.3 0.2,-1.4 3.2,0.3 2.7,-0.6 1.3,0.4 0.3,2.8 1.1,1.6 h 2.2 l 2.3,0.5 3,0.1 4.3,0.8 1.8,-0.5 3.5,-2 -1.8,-0.7 -0.2,-0.7 0.9,-2.2 5.2,-2.5 3.7,-0.7 3.8,-1.3 2,-1.4 1.2,-1.8 0.5,-1.3 0.3,-6.8 1,-2.2 2.9,-1.6 6.4,-1.1 0.9,-0.5 0.9,2.2 v 1.2 l 2.9,2.4 3.2,-1 1.6,1.8 0.5,2 4.2,1.1 0.6,2 0.9,-0.3 3.6,0.4 1.6,1.1 -0.4,1.6 0.7,0.7 -0.7,1.4 0.5,0.6 2.3,0.3 2.2,-0.3 1.3,-0.6 0.5,-1.4 1.9,-0.6 -0.8,2.7 0.6,0.6 0.4,2 1.7,0.1 3.3,1.5 2.8,2.6 z"
     name="France"
     id="path808" />
  <path
     d="m 160.34999,499.35 -1.2,0.2 -4.5,2.5 h -1.3 l -2.5,-1.1 -4.5,-0.4 -1.5,-0.3 -1.8,0.7 h -1.5 l -1.1,1 -0.8,-0.3 1,-2.1 1.6,-4.1 v -2.6 l 0.4,-2.2 -0.3,-2.1 -0.7,-1.4 1.1,-3.5 v -1.8 l -0.9,-2.3 2.8,0.3 -1.7,-1.4 h -1.5 l -2.3,0.9 -1.5,0.1 0.1,-1.4 -0.5,-1.8 2,-0.6 1.6,-1.7 -0.3,-1.6 -1.2,1.1 -0.6,1.4 -2.8,0.7 -1.5,-0.5 v -1.9 l 0.6,-1.7 0.4,-2.3 0.8,-2.2 -0.2,-1.4 1.6,-1.3 1.4,-1.9 4.3,-8.9 -0.6,-1 1.7,-6.6 1.2,-2.3 0.6,-4.3 -0.2,-2 -0.7,-2 -0.7,-4.3 v -1.4 l -0.9,-1.8 0.1,-1 1.4,-1.7 1.2,-1.1 1.9,-0.9 4.1,-1 1,1.8 -1.3,1.9 0.9,1.3 3,-1.1 2.9,-0.1 2.2,0.8 h 1.4 l 2.5,-0.9 0.8,-1.4 1.5,0.5 5.2,0.1 0.7,1.1 0.1,3.1 1.9,0.2 1.9,0.9 0.3,1.1 -2.5,2.5 -2.1,1.1 -1.6,1.4 -1.1,1.6 -2,1.6 0.8,2 0.4,3.5 -0.4,3.8 0.4,1.1 -2.7,2.1 -0.2,1 1.4,1.3 v 1.9 l -1.7,3.5 -1,0.5 h -4.3 l -1.1,0.3 1.1,1.9 1.4,1.2 0.3,1.9 1.6,3.2 1.7,0.4 0.5,0.8 -0.6,2.4 -3.2,3 -0.9,4 3,4.3 1.7,-0.2 -0.7,2.4 -2.1,0.6 -3.5,4.3 -0.8,2.2 z"
     name="Portugal"
     id="path810" />
  <path
     d="m 697.54999,533.75 h -0.1 -0.1 l 0.1,-0.1 z m 0,0 h 0.1 0.1 l 0.1,0.1 h -0.1 -0.1 -0.1 z m -0.4,-0.3 h -0.1 v -0.1 h 0.1 v -0.1 l 0.1,0.1 v 0.1 z m 3.5,-0.8 0.2,0.1 0.3,0.3 0.2,0.4 0.1,0.3 0.2,0.2 0.2,0.1 h -0.2 -0.3 l -0.3,-0.1 -0.2,-0.2 h -0.2 l -0.7,0.1 -0.6,0.1 -0.2,0.2 h -0.3 -0.3 l -0.1,-0.1 0.2,-0.1 h 0.1 l -0.1,-0.3 h -0.2 l -0.2,-0.1 v -0.4 l -0.1,-0.1 -0.3,-0.1 v -0.2 l 0.1,-0.1 0.2,-0.1 0.2,0.2 0.2,-0.1 0.3,-0.3 0.2,0.2 0.2,0.1 h 0.1 l 0.2,0.1 h 0.1 l 0.3,-0.1 h 0.2 l 0.1,0.1 h 0.2 0.1 0.1 z m -4,1.1 v 0.2 l -0.3,0.1 -0.3,0.3 v 0.2 l -0.1,0.3 v 0.3 0.3 0.3 0.1 h -0.1 l -0.1,0.1 v 0.3 l -0.1,0.1 h -0.2 -0.4 l -0.2,0.1 -0.1,0.1 -0.1,0.2 -0.1,0.1 -0.2,0.1 -0.4,0.1 -0.4,0.2 -0.3,0.1 -0.2,-0.3 0.1,0.5 -0.4,0.2 -0.9,0.2 -0.2,0.1 -0.1,0.1 -0.2,0.1 h -0.2 l -0.9,-0.1 -1,0.1 -0.1,0.1 -0.2,0.1 -0.6,0.5 -0.1,0.3 h -0.3 l -0.3,0.1 v 0.1 l -0.1,-0.1 -0.1,-0.2 0.1,-0.2 0.1,0.1 h 0.3 l -0.1,-0.4 -0.4,-0.1 -0.3,0.3 -0.2,-0.1 v 0.1 l -0.4,-0.1 -0.3,-0.2 -0.1,-0.1 v -0.2 h -0.1 -0.1 -0.1 -0.1 l -0.1,0.1 v 0.1 h -0.2 l -0.1,0.2 h -0.2 -0.2 l -0.1,0.1 0.1,0.2 -0.2,0.1 h -0.5 l -0.6,-0.1 -0.5,-0.2 -0.7,-0.4 -0.6,-0.2 h -0.5 l -0.3,-0.1 -0.2,-0.2 -0.6,-0.4 -0.1,-0.1 -0.1,-0.4 v -0.1 l -0.1,-0.1 -0.4,-0.9 -0.1,-0.1 -0.3,-0.2 -0.2,-0.1 -0.1,-0.1 -0.1,-0.2 v -0.2 l 0.1,-0.2 -0.3,-0.4 -0.1,-0.2 v -0.4 l -0.1,-0.2 -0.3,-0.5 -0.2,-0.3 -0.1,-0.4 0.1,-0.3 h 0.1 l 0.3,0.1 0.4,0.5 0.3,0.1 0.2,0.1 h 0.6 l 0.4,-0.2 0.6,-0.8 0.1,-0.5 0.1,-0.3 0.2,-0.1 0.1,-0.1 v -0.1 h 0.1 l 0.1,0.1 h 0.1 0.2 l 0.3,0.3 h 0.2 0.1 l 0.2,-0.2 0.1,-0.2 v -0.2 l 0.4,0.1 0.4,0.8 0.2,0.1 0.4,0.1 0.3,0.1 0.2,0.2 0.2,0.1 0.1,0.2 v 0.2 l 0.2,0.2 h 0.1 l 0.4,-0.1 0.2,-0.4 0.1,-0.1 0.2,0.2 0.2,0.1 h 0.2 l 0.2,-0.1 0.4,-0.4 0.2,-0.1 0.3,-0.2 0.1,-0.2 h 0.2 l 0.3,0.1 h 0.3 0.4 l 0.1,-0.1 h 0.1 l 0.1,-0.2 0.3,-0.2 h 0.2 l 0.2,0.1 0.1,0.1 h 0.2 0.1 l 0.4,0.4 0.2,0.1 0.3,0.1 h 0.1 l 0.1,-0.1 v -0.1 l 0.1,-0.2 0.3,-0.3 h 0.1 0.2 0.3 0.2 0.1 v 0.2 l 0.1,0.2 0.5,0.5 v 0.1 l 0.1,0.3 v 0.2 0.3 0.4 l -0.1,0.3 0.1,0.2 0.1,0.1 h 0.2 0.2 v -0.3 -0.4 l 0.3,-0.3 0.1,0.1 0.1,0.4 0.1,0.2 0.1,0.1 0.3,-0.1 v -0.2 l 0.1,-0.1 h 0.2 l 0.1,0.1 h 0.2 l 0.1,-0.1 0.1,0.1 h 0.1 l 0.3,0.2 h 0.2 0.1 z"
     name="Cyprus"
     id="path812" />
  <path
     d="m 666.81218,27.559457 c -7.23638,-0.0037 -14.15108,4.740716 -16.80204,11.464762 -2.77377,6.607179 -1.18386,14.747365 3.89993,19.804578 4.89459,5.128312 12.86942,6.919116 19.49336,4.404836 6.86817,-2.437247 11.86477,-9.283036 12.04141,-16.576307 0.36321,-7.091881 -3.84005,-14.118329 -10.23047,-17.196725 -2.59688,-1.291084 -5.50301,-1.944253 -8.40219,-1.901144 z m -0.0544,29.5984 c -2.04772,0.163282 -3.43305,-2.309523 -2.3875,-4.020361 1.07221,-2.142643 4.81483,-1.573819 5.05881,0.866528 0.33107,1.63826 -0.98112,3.242237 -2.67131,3.153833 z m 6.582,-13.0636 c -1.09861,1.435957 -2.82249,2.16864 -4.0624,3.441749 -0.80653,0.783293 -0.0478,2.493799 -1.60239,2.005851 -1.08174,0 -2.16347,0 -3.24521,0 -0.0242,-1.589653 0.11688,-3.3983 1.61576,-4.330238 1.32195,-1.243265 3.54647,-1.978569 3.70944,-4.062962 0.17519,-1.994804 -1.98452,-3.162162 -3.72713,-2.48969 -1.78511,0.151766 -1.21604,2.863199 -2.19206,3.17609 -1.33454,0 -2.66907,0 -4.00361,0 -0.033,-2.70515 1.31035,-5.632152 4.01333,-6.559772 3.10744,-1.054264 7.0291,-0.584672 9.3361,1.901996 1.55327,1.906548 1.67072,4.947406 0.15817,6.916976 z"
     id="path814"
     style="stroke-width:0.04" />
</svg>
