<?xml version="1.0" encoding="UTF-8"?>
<svg fill="#ececec" stroke="black" stroke-linecap="round" stroke-linejoin="round" stroke-width=".1" baseprofile="tiny"
  version="1.2" viewBox="0 0 1000 684" viewbox="0 0 1000 684" xmlns="http://www.w3.org/2000/svg">
  <path
    d="m654.7 528.1 0.5 0.4 2 2.9 1.4 0.5 1.9 1.3 1.4 3.2 0.1 2.2-0.5 2.6 0.3 2.1-0.8 0.8 0.7 2 0.2 1.9 1.2 2.2 1.2 1.1 1.3 2.4 1.6-0.2 1.3 1.1v1.1l1.1 1.8-0.8 2.6-1.7 0.8-1.2 3.1-0.3 2-0.6 0.5-1.9 0.3-1.7 1.3 1 2.2-0.9 0.7-0.3 1.5-0.7 0.7-2.7-0.9-0.7-2.5-1.7-2.7-4.9-2.6-1.2-1.1 0.4-1.5-0.1-1.4-1.4-2.4 0.3-2.6 0.8-2.2-0.3-2.7 0.1-2.1-0.7-2.9 0.5-2.1 0.9-1.3-0.2-2.2-1.5-1.1-1.6-0.2v-3.1l-0.3-0.6h1.7l-1.7-2.8 3.2-5.3 1.1 0.3 0.8 2.1 3.4-1.2z"
    name="Albania"></path>
  <path d="m423.4 528.8-2.8 1.1-0.7-0.4v-2.1l0.9-0.7 2.6 0.6v1.5z" name="Andorra"></path>
  <path
    d="m974.6 572.4-3.2-2.8-2.3-1.7-1.6-0.7-3.5 0.4-2.9-0.9-1.8-0.9 0.5-0.6-1.9-3-0.8-1.9 1-1.4 0.2-2.3-1.7-3.3-1.7-1.2-1.3-1.6 4.4-0.3 5.3-1.3 3.2 0.3 1.1-0.2 3.5-0.1-0.5-0.7 2.3-0.5 1.3 1.5 1.6 1-0.9 0.9 2.3 1h1.2l3.3 2.5v0.7l-1.9 1.5-0.2 1.1 3.2 3.4 2.4 1.4 3.2 1.5 0.2 0.9-0.9 2.5h-3l0.6 0.9 1.9 1.2 6.1 4.4 1.5-0.3 2.2 0.9 0.2 1.3-1 1.4 1.9 1.4 0.8 1.5-1.8 0.5 1.4 1.5 0.5 2.6-2.2-0.1-2.5 0.5-3-4.7 0.1-1-3.1-2.1 0.1-1.7-0.8-1.2-1.7 0.2-1.9 0.9-2.9-1.6-1.2 0.2-0.3-1.1-1.8-1.7-3.2 0.9z"
    name="Armenia"></path>
  <path
    d="m607.8 434.9-0.9 2.4 0.1 0.8 1.6 2.9 2.3 2.9-0.6 0.7-0.6 1.9 0.7 2-3.9 0.3-2.5-0.9-1.3 1.4 2.6 0.7 0.5 1.1-0.5 1.4-2.2 1.2 0.4 1.5-0.5 0.7 1.1 1.6-0.3 1.8-2.5 0.5-1.8 1.7-1.3 0.9-0.1 1.9-2.4-0.5-1.6 0.2-2.3 1.1-2.8-0.2-2.6 0.2-1.9 0.7-1 1.3-3 1.2-5-0.7-5-0.9-2.6-0.5-4-0.3-8.6-1.5-1.1-0.5-3.1-3.5v-2.3l-4.7 1.5-3.1-0.2-3.4 0.3-1.4 0.6-1.2 2.2-1.1 0.4-2.1-0.4-0.9-0.8-3-0.3-0.5-1.5-0.8-0.3-2 1.9-2.3-0.4-1.5-0.8-0.4-1-3.3-0.8 0.3-0.8-1.1-2.5 1-3-0.9-0.7 1.7-0.5 0.7-0.5 3.5 1.6 0.9 1.4 1.2 0.3-0.1 1.3 1.6-0.5 1-1.6 0.2-1.9 2.8-0.1 2.7 0.4 1.4 1.9 3.8-0.5 1.1-0.9 3.9-1.5 5.7-0.5 0.1-1.4 2 0.3 1.5 0.8 2.5-0.5 1.1 0.5 0.2 1.1 1.2 0.9 1.7 0.4 0.3-1.5-0.3-1.9-1.7-0.3 0.6-1.3-0.1-1.3-2.5-2.8 0.6-1.3 3.1-1.8 2.9-0.8 1-1 0.7-2.9 2.3 0.9 1.3-0.9 0.2-2.8 2.2 1.2 0.8 1.3 3.9 0.4 1.4-0.7 2.5 0.4 0.1-1.1 1.3-1.6h1.2l0.3-3.2 1.2-0.2 1.6 0.8 1.4-0.4 4.8 1.7 1.5-0.1 3 1.7 3.8 0.2 1.2-0.9 5.1 1.5 1 1.6z"
    name="Austria"></path>
  <path
    d="m470 401.8 1.6-0.5 0.8 0.8 1.2 0.1 3 2.3-0.4 1.5 1.7 0.7 0.4 2-2.3 1.3-0.6 1.7-1.7-0.7-1.3 1.3-1.4 2.5-0.2 1.7 2 2.4-1.1 1.7-3.4 0.4-2.8-2.6-3.3-1.5-1.7-0.1-0.4-2-0.6-0.6 0.8-2.7-1.9 0.6-0.5 1.4-1.3 0.6-2.2 0.3-2.3-0.3-0.5-0.6 0.7-1.4-0.7-0.7 0.4-1.6-1.6-1.1-3.6-0.4-0.9 0.3-0.6-2-4.2-1.1-0.5-2-1.6-1.8-3.2 1-2.9-2.4v-1.2l-0.9-2.2 5.1-2.5 4.7-1.7 0.3 1.3 1.2 0.7 1.2-0.6 3.9 1.1 3.2-1.5 0.6-1.2 2.1 0.3-0.2-0.9 1.4-0.7 1.5 0.8 1.5-1 1.1 1.3 2.5-0.8 0.5 1.6 2.6 1.4 1.9-0.4 1.7 1.3 2.6 1.1-1 2.9-1.1 1.3 0.7 1.1z"
    name="Belgium"></path>
  <path
    d="m759.6 509.6 0.2 3.7-0.9 1.8-2-0.6-2.2 0.5-1 2-1.2 1.2v2.6l0.4 4.2-1.6 0.7-2.9 3.7 3 1.8 1.7 2.2 2.4 2.5 0.5 1.2-1.7-0.2-0.9 0.4h-1.8l-1.5 0.6-3.4-2.5-3.5 0.3-1.5 1.1-3.4 0.4-1 2.2-1.9 0.3-0.3 1.4-1.6-0.5-1.6 1.1 0.7 1 0.9 2.7-0.2 0.8-2.5 1.2-1.8-0.3-3.2 0.4-3.4 0.9-1.7-1.1-3.7-1.2-0.9 0.6-2.4-1.4-1.2-1.7-1.6 0.5-4.2-0.1-0.2 0.9-1.9 0.2-3 1.1-2.6-0.2-2.4 0.2-1 1-3-0.2v-4.2l0.5-1.7-0.9-1-1.7-3.3-3.4-1.8-3.3-3.2 1-0.3 1.1-1.7-1.4-2.9v-3.3l1.1-0.6 1.8-0.1 1.1-1.6 1.6-1.7 0.3-1.4-1.6-1-1.3-1.6-2.9-1.5-2.4-3.9-0.6-2.4 0.4-2.3 2.1-1 0.2-1.9 0.9-0.7 4.3 2.5-1.8 2 0.9 1.8 3.7-0.6 3.9 0.3 5.3 1 3.5 0.4 2.5-0.5 9.4 1.7 4.2 0.2 2.3-0.6 1.6-0.9 1.2-1.6 3.3-2.1 3.2-1.2 4.4-0.9 2.9-0.4 4.5 2.3 3.2 0.4 0.9 0.6 1.7-0.5 2.5 2.6 2.2 0.7 2.6 0.5h2z"
    name="Bulgaria"></path>
  <path
    d="m638.2 492.2 2.8-0.7 1.5 0.8-0.5 2.5-1.6 2.7-0.1 2.6 0.5 0.8 2.4 1.2 3.3 2.9-0.3 0.8-3.1-0.1-0.5 0.8 3.2 3.7-0.2 2.2-2.5-0.3-0.7 0.8-3.2 0.5 1.4 2.2-2.3 0.2-2 1.7-0.5 1.7 0.1 1.5-1.7 0.2-0.5 0.7 0.6 3 1.1 1.6-0.1 0.8-1.1 1-1.7-0.7-6.2-3.8-0.6-0.9-1.6 0.1-1.1-0.6 0.3-1.6-3-2.5-1.5-1.6-0.4-2.2-2.4-1.1-5-4.1-1.7-2-2.8-2.3-2.3-2.4-1.3-4-3.4-3.2-1.9-1.3-0.1-1.4 0.3-5 1.2-0.6 1.8 0.4 1.7 1.8 1.8 1 2.7-3.2 3.2 0.3 1.5-1.2 2.7 1.6 2.5 0.1 2.8 0.7 1.7-0.6 1.6 1.3 2.2-1 1.8 0.3 1.8-0.2 2.6 0.7 2.2 0.2 1.1 0.8 1.3 2.2 2.2 0.2z"
    name="Bosnia and Herzegovina"></path>
  <path
    d="m724.5 321.5 1.8 1.3 1.2-0.4 1.9-0.1 3.1 2.2 1.6-0.9 1.5-0.3 3.6 1.2 0.2 2.3 1.7 1.5 2.1-1.3 2.7-1.1h3.4l2.7 0.9 2.4 1.8 3.5 1.4 0.4 2.5-0.6 1.8 2.1 2.1 0.5 1.3-1.3 2v2l4.1 2 0.5 0.5-0.5 1.8 1.4 0.6 1.8 2.4 1.5 1.4 4.9 2.1 0.7 0.8-0.4 2.8 5.3 0.5 3.2 1.3v1.1l0.7 1.1 2.8 1.4 0.6 1.7-2.6 1-0.3 0.9-3 1.8-3.5-0.2-2.4-1.5-2.9 0.1-1.4 2.7 3.9 3.3 0.6 1-0.2 1.5 1 1.5 0.5 3.3 1.6 1.4 1.3 1.8-5-0.1-1.4 0.8-1.7-0.4-1.1 0.5-2.2 2.3-0.8 1.2-1 3.3 1.8 3.6-0.8 1.4-2.7-0.9-0.5-1.2-2-1.1-7.1 0.6-2.3 0.8-0.6-0.5-2.5-3-3.8 1.6-0.6 1.1-1-0.3-0.8-1.3-5.1-1-1.9 0.7-1.9-0.5-1.2 1.7-0.8-1.4-1.1-0.4-3 0.1-1-0.3-1.8-2.1h-2.3l-6.1-0.9-6.5-1.5-7.8-0.4-2.4 0.1-2.3 0.5-5.9 0.5-0.8 1.4-1.6 1.6-1.9 1.2-1.1-0.5-1.9-0.3-1.1 0.5 0.1 1.4-1-1.6-0.1-1.3 0.8-1.5-0.4-1.1 0.2-2.4-0.8-1-1.8-1-3.3-1.3v-1.2l2-2.7 0.8-0.5 4-1.7 0.6-1.6-0.9-3.9-1.7-3.6-2.9-4.9-2.1-5.1 2.9 0.4 1.6-0.3 3.7-0.3 1.6 0.9 3.3-1.3 1.8 0.1 0.8-2.6 2 0.2 1.4-1.2 2.1-0.5 1-0.7 1.7 2.3 2-0.2v-1l-0.9-1.1-1.9-0.5 0.5-2 1-1.5-0.4-2.3 1.1-3 2.6-0.6 0.8-0.6 1-2 3.6 0.1 0.4-1.1 1.3-1-3.9-1 0.7-3.1v-1.8l2.6-0.6 1.2-1.5 1.1-0.3 3 0.4 3.1 0.1 0.4-1.7 2.5-2.4 1.4-0.8 1.3-0.2z"
    name="Belarus"></path>
  <path
    d="m514.1 449.1 0.8 1.1 2.6 1.3h1.2l0.9 0.7-1.5 4.5 0.1 1.7 1.2 0.1 3.3 0.8 0.4 1 1.5 0.8 2.3 0.4 2-1.9 0.8 0.3 0.5 1.5-0.5 3.1 0.5 1.8-1.9-0.2-1-0.9-1.3 0.3-0.6 1.8 1.5 3.5-1.2 0.3-1.4-1.9-0.7-0.1-2.9 1.1-2-0.8-0.8-2.1-2 0.1v2.9l-0.5 1.1-2.2 2.6-0.2 1 0.7 1.7-1.2 0.7-0.9-1.4-1.3-1.2 0.4-1.2-2.2-0.6-2.4-2-0.2-2.5-1-0.6-3.4 2.9 0.6 1.5-1.6 2.2-2.4 1.4-3.1-0.8-2.6 1-2.4 0.5-1.4-0.7-0.9-1.4-2.3-2.3 0.5-1.7-0.8-2.2-2.2-0.3-1.9 0.1-2.3 1.5 0.5 1.3-2.3 1.6-1.4-0.1v-1l1.5-1 0.3-1.5-0.8-0.7 1.1-2.9 3-2.2 0.5-2.9 2.1-0.9 3.8-4 0.6-0.9-1.3-1.1 1.8-1.4h1.1l0.8 0.8 2.7-0.3 0.8-1.4 1.5-0.7 1 0.3 2.8 0.1 3.3-0.6 2.6 0.2-0.2-1.5 1.3-1.2h1.3l1.4 1 0.8-0.2 1.1 0.9 3.7-0.2z"
    name="Switzerland"></path>
  <path
    d="m578.9 400.5 2.1-0.4-0.1-1.9 3.3 0.8 0.3 1.1 1 1.1 4.6 1.1 2.7 1.1 0.8 0.9 3.2-0.7 1.8 1.2-0.7 1.1-1.6 1.2 1.6 0.9 2 1.8 1.5 1.9 1 0.4 3.5-2.5-1.7-2.4h1.3l2.2 0.6 3.3 1.9 3.6-0.7v1.6l-1.4 0.5 2.7 2.3 1 0.6 1.8-1 3.5 1.8 0.5-0.2 2.7 0.8 0.5 1.8 2.8 2.2 0.5 1.6-2.8 0.3-2 1.5-0.6 0.8-2.3 1.2-0.7 3-1.6 0.8-2.1 1.9-1.5 0.7-1.7 0.2-3.6-0.5-1.4 1.2-1.1 2.8-1-1.6-5.1-1.5-1.2 0.9-3.8-0.2-3-1.7-1.5 0.1-4.8-1.7-1.4 0.4-1.6-0.8-1.2 0.2-0.3 3.2h-1.2l-1.3 1.6-0.1 1.1-2.5-0.4-1.4 0.7-3.9-0.4-0.8-1.3-2.2-1.2-0.6-0.7-2.9-2.2h-1.3l-1.3-1.6-2.5-1.5-2.9-2.6h-1.3l-2.3-2-1.8-2.7-1.4-1.5 1.2-1.7-0.6-1.6-2.3-1.3-2.5-3.4 0.5-0.7 1.9 2 1.9-2.6 1.1-0.6 2.6-0.6 2.1 0.4 0.8-1.3 2-0.3 0.6-1 1.6-0.7 1.1 0.1 0.6-1.2 4.4-1 3.5-1.5 1.9-0.6-1.5-1.5 0.8-0.6 2.2 0.4 1.5 1.5v0.9l1.4 0.6 0.9-0.7z"
    name="Czech Republic"></path>
  <path
    d="m567.9 355.2-3.4-0.1-0.2-1.7-1.1-1-0.1-1 4.7 2.6 0.1 1.2zm-34.8-8.1h-1.8l-1.4-0.7 0.8-1 1.7 0.4 0.7 1.3zm28.3 0.5-1.3 0.7h-1.3l-1.3 1.3-2.1-1.1-0.5-1.1 0.1-2.2 0.6-1.4 2-0.9 0.9 1.2 1.7 0.6-0.5 1.7 1.7 1.2zm-46.6-6.6 1.8 0.7 1.6 1.6 0.1 1.4-1.7 1.6 3.2-0.3 0.8 1.2 1.7-0.4 4.5 1.8 3.2-0.9 0.7 1.4-0.6 1.5-2.2 1.6 1.4 1.2 2.1-0.2 3.6 0.9 3.3-2.5 1.1-0.5 3.6-0.3 5.1-4.5 5.3 0.9 1.5 1.9 3.7 2.1 3.2-0.2 1.3 2 0.8 2.5 1.9 1.3 2.8 0.5 0.7 2.6 1.8 4.1-0.3 2.7-1.9 1.8-0.7 1.6 1.6 1.4 3.3 2.1 1.4 1.7-0.6 2.6 2 2.3 0.8 1.9-0.7 2.6-0.8 1.1 1.9 3.1v1.6l2.2 0.9 1.6 3.2-0.4 2.3-1.6 3.6-0.9 0.7-1.4-0.6v-0.9l-1.5-1.5-2.2-0.4-0.8 0.6 1.5 1.5-1.9 0.6-3.5 1.5-4.4 1-0.6 1.2-1.1-0.1-1.6 0.7-0.6 1-2 0.3-0.8 1.3-2.1-0.4-2.6 0.6-1.1 0.6-1.9 2.6-1.9-2-0.5 0.7 2.5 3.4 2.3 1.3 0.6 1.6-1.2 1.7 1.4 1.5 1.8 2.7 2.3 2h1.3l2.9 2.6 2.5 1.5 1.3 1.6h1.3l2.9 2.2 0.6 0.7-0.2 2.8-1.3 0.9-2.3-0.9-0.7 2.9-1 1-2.9 0.8-3.1 1.8-0.6 1.3 2.5 2.8 0.1 1.3-0.6 1.3 1.7 0.3 0.3 1.9-0.3 1.5-1.7-0.4-1.2-0.9-0.2-1.1-1.1-0.5-2.5 0.5-1.5-0.8-2-0.3-0.1 1.4-5.7 0.5-3.9 1.5-1.1 0.9-3.8 0.5-1.4-1.9-2.7-0.4-2.8 0.1-0.2 1.9-1 1.6-1.6 0.5 0.1-1.3-1.2-0.3-0.9-1.4-3.5-1.6-0.7 0.5-2.2-1.2-5.1-2.3 1 1.6-3.7 0.2-1.1-0.9-0.8 0.2-1.4-1h-1.3l-1.3 1.2 0.2 1.5-2.6-0.2-3.3 0.6-2.8-0.1-1-0.3-1.1-1.3v-1.5l0.6-2-0.2-2.4 0.3-1.5 1-1.8 1.4-5.5 3.5-3.8-0.1-1.3-1.6-0.6-4.8-0.8-2-1.4-3 0.6-2.1-0.1-0.3-0.9-1.4-0.4-1.8 0.7-3.5-4.3-1.4-0.1 0.6-3 0.9-0.9v-1.4l-2.8-1.1-1.5-1.6-0.3-2.2 0.6-1.7 2.3-1.3-0.4-2-1.7-0.7 0.4-1.5-3-2.3 0.6-2.4-1.9-1.2 0.5-0.8 2.2-1.6-0.7-1.2 1.3-2.8v-1.2l-3.1-4.1 0.7-1.1 1.8-0.7 2.3 0.8 4.5-1.3 0.7-1-1-0.9 0.3-0.9 2.6-1.6 0.6-2.6-0.8-1-2.6-0.3-0.7-1 0.6-1.6 3.1 0.1 1.1-3.8 0.7-1.7-0.1-4.3-1.7-1.4 0.5-2.7 1.1-1.4 0.9-0.4 4-0.3 4.5 0.1 1.9 2.2-0.6 1.2 1.6 0.3 0.9-2.4 1.4 0.8 1.1-0.1-0.5-1.7 0.2-1.6 0.9-1.4 3.3 0.6 3.6-0.3 0.1-0.6-2.8-0.5-0.9-1.1-0.2-3.9-1.5-0.8-1.6 0.3v-1.5l3.4-1.1v-1l-3.4-3.8-0.2-1.6 2.7 0.1 5.2 1.3 3.1-0.7 1.5 0.4z"
    name="Germany"></path>
  <path
    d="m533.5 340 2.1 1 2.4 0.3 0.4 1.9-3.5 0.7-5.1-2.1 0.1-2.5 2.3-0.2 1.3 0.9zm13.7-1.1-2.3 0.1-1.9 1-0.3-1.2 1.6-1 1.2 0.2 1.7 0.9zm-28.8 1.2-1.2 0.2-1.7-0.5-0.6-2.3 2.7 1.1 0.8 1.5zm8 2-1.4-1.5 2.5-2.9 0.7-0.2-1.8 4.6zm50.1-4-2.4-0.2-2.4-1 0.1-2 0.5-0.9 4.5 2.3-0.3 1.8zm-52.1-8.7 2.3 4.3-0.1 2.8-1.8 1.2h-2.1l-5.4-1.7-1.7-2.9-0.1-2.3 4.8-1.4 2.6 0.8 1.5-0.8zm23.3 0.2-1 0.6-0.7-0.9 0.9-0.9 0.8 1.2zm-23.9-2.8h-0.9v-3l1.5 1.6-0.6 1.4zm22.6 0 0.1 1.5-0.7 0.7-2 0.7-1.1 1.8 2 1.2 0.5 1.5-1 0.7-2.6 0.7v5.6l-2.2 0.6-1.5-2.1-0.1-0.9-1.3-3.1-2-0.4-2.2 0.1-1.5-1.8 0.1-2.1-1-2-1.3-0.6 0.4-1.4 3.1-0.2 1.5-1.9v-0.9l1.8-0.2 0.8 0.7 0.1 2.6 1.6 0.5 1.1-2.9-0.9-1.1 3.9-2.2 1.1-0.1 3 0.9-0.4 2.1 0.7 2zm-31.6 14.2-1.5-0.4-3.1 0.7-5.2-1.3-2.7-0.1-0.5-2.1-0.8-1.4 1.1-0.3-0.9-3.9-3.2-1.3-2.5-1.4 0.5-5.6-1-2.3 0.1-6.9 1.3-0.1 3.1 0.8 1.5 0.9 0.6-1.9 1.6-1.6 2-0.8 1.6 1.3 0.3-4.5-1.6-0.5-1.3 0.4-1.3 1.9-1 2.4-1.9 0.2-1.5 0.7-2.4-1.4 0.1-1.4 1.6-1.9 2-1.9h2.2l1.6-0.6 3.9 0.1 2.8-1.3 2.8-3.6 1.5-1.5 3.3-0.5 3-1.7-0.8 2.5 1.2 1.7v3l-0.9 1-1.4 2.5 0.2 5.6 2.5 1.5h4.1l1 1.1-0.7 2.2-2.6 1.4h-0.9l-1.4-1.1-1.1 0.9-1.2 5.1-2-0.1-1.2 0.5 1.4 1.2-1.3 0.8-3.4 3.1 1.1 3.4-0.2 0.9-1.5 1.3-0.6 1.1 2.3 0.3 1.3 2.9z"
    name="Denmark"></path>
  <path
    d="m655.5 285.3 3.9 0.2 4 1.8-1.8 0.7-3.7 2.5-0.3 0.5-2.6-0.1-1.4 0.2-1 0.9-0.9 2.8-1.6 0.5-0.3-0.9 1.6-1.8-1.5-1.4-1.9-0.7 0.9-1.8-1.6-1.6 1.5-0.2 1 0.5 2-0.5 0.5-1 3.2-0.6zm8.3 1-0.9 0.2-2.4-1.1 1-1 1.9 0.5 0.4 1.4zm-5.4-4-0.8 0.7-0.9-0.6-0.9 1.6-1.3 0.3-1.9-2.5-2.9-0.5-1.3-0.7 4.5-0.4 1.2-1.6 1.3 0.1 0.4 0.9 2.1 0.3 0.9 1-0.4 1.4zm53.2 18.9-1.9-0.2-3.4-1-4 1.2-2.8-1.1-3.5-2.7-0.6-0.7-2.3-0.5-5.6-2.5-1.1 0.7-1.5-1-8.4 2.8 1-3.4 0.1-3.6-2.3-0.4-0.9 1.3-1.3 0.3-4.1-1.3-1.2-2.1-1.6-1.1-0.8-1.2v-1.8l-1.5-2 0.7-1.1-0.7-2.8 3-1.2 3.3-0.2 0.9-1.3 2-1.3 2.3 0.2 3.1-1 6.3 0.1 0.4-1.7h3.2l7.6 1.2h1.8l2.8 1.2 1.4 0.3h4l6.3 0.5 1.2-1 1.5 1.2-1 1.4-1.2 0.4-0.9 3.2-0.8 1-1.7-0.3-2.5 0.2-2 0.5-1.3 1.1 0.1 1.1 2.6 2.3 1.4 2.8 2.6 2.2 0.8 1.3 2.4 2.9 1.8 2.5-2.3 0.6-1.2 2-0.2 2z"
    name="Estonia"></path>
  <path
    d="m646.5 260 2 0.2-0.6 2.8-2.3-1.8 0.9-1.2zm-1.9 0.5-2.1-0.6 0.9-0.8 1.2 1.4zm-6.5-2.7-1.5 0.7-0.3-1.7 1.8 1zm25.5-62.9-1.5 0.5-1.3-0.3-0.2-0.9 2-0.6 1 1.3zm30.1-54.6-3.7 1.3 1.6 0.8 0.8 1.2-2 3.2 0.1 0.6 3.1 4 7.2 1.7 2.3 1.8 3.6 2.3 1.8 0.9 0.1 1.9-3 3-2.6 3.1-1.2 1.7 0.4 1.7 2.6 2.1 2.3 2.2 3 3.5 3 2.5 3 4.2 0.4 1.4-3.7 0.7 1.2 0.9-0.6 1.3 0.3 1.9-0.5 1.5 1.9 0.3 0.3 1.3-1.7 1v0.9l1.4 1.7 1 0.6 3.2 0.6 0.9 1.6-1 1.7 1.8 2.2 4.5 1.8 0.7 1.3 0.2 1.7-2.4 3-2 0.8 0.7 0.8 4.5 2.6 6.6 2.9 2.6 1.3 2.1 1.9 2.2 1.6 0.5 1-1.6 4.5-0.7 1.2-2.2 2.2-3.4 2.8-2.3 2.3-5.3 5.9-1.9 1.5-2.1 2.2-4.9 3.3-0.7 0.8-2.5 1.5-5.6 5.2-3.5 1-2.6-1.1-1.8 0.2-1.2 0.8-2.5 0.2-2 0.6-1-0.7-0.7 0.6-1.9 0.2-2-1 0.3 1.5-3.3 1.5-0.8-0.9-2 1-2.1 0.2-1.1 0.8-5.9 1.1-1.5 1.3-1.2-0.3-6.7 1.1-2.9-0.2-2.7 2-1.8 0.4 1.5-3-2.4-1.1-1.2-1.6-0.7 0.4-0.3 1.5-1.5 0.8-2-0.1-0.4-2.4 0.8-2.3-3.6-0.6-3.8-1.4-0.9-0.1-0.7-1.3-2 0.9-2.1-0.9-1.7-5.3v-1.3l0.9-1.6-0.1-3.4-0.6-2 1.1-0.6-0.9-1.6-2.2-3-1.6-1.1 0.5-3.3-0.6-1.6-1.9-1.1-1.1-2.9 0.6-2.4 2.4-2.2v-1.2l0.9-1.1-0.5-1.3 2.7-0.5 1 0.4 2.4-0.4 1.9-1-1.1-1.8 1.5-0.7 1.2-1.2-0.1-1 2.3-0.5 2.4-1.9 2.3-1.1 2.3-1.9 1.1-0.1 0.3-1.3 2.5-1.9 0.8-1.6 2.3-1.8 2.2-3.9 3.8-1.2 3.8 0.3-0.6-1.7 1-0.3-0.6-1.3-1-0.6v-4.6l-1.3-0.9-4.5-1.6-1.7-0.1-1.2-1.2-4.6-0.7-1.6-2.5-1.9-2.2-1.8-0.6-1.3-2.6v-1.3l1.5-1.3-0.1-1.8 0.7-1.4-0.6-0.9-3.3-2.6-0.8-1.6 0.1-1.1 1-0.8-0.6-1.3-2.8-0.4 0.3-1.9-0.7-1.4-0.4-2.4 1.1-1-1.8-0.9-1.9-1.5-1.4-0.1-1.2-1.6-3.5-1.8-8.3-1.7-4.2-1.8-4.8-2.3-2.9-1.1-0.4-0.9-2.9-0.8 0.5-0.4h2.1l1.9 0.4 0.5-0.6-1-1.4 1.9-1.1h3.6l7.9 5.5 1.4 1.8 6.9 0.6 0.8 0.5 1.8-0.1 3.7-0.9 1.2-1.2 1.5 0.1 3.6 1.1 3.9 0.8 2.6 0.8 1.3-0.6 0.5-1.7 1.6-1.3 2.1-0.3 1.5-1.4-0.7-3.2 0.6-1.7 0.7-3.8 2.6-1.7 1.7-1.8 2.1-0.2 3.8 0.4 0.9-0.2 3.5-1.6 2.9-0.3 1.8 1.2 4.2 2 4.2 1.1 3.6 0.8 2.6 2.7-0.7 1-3.2 2.9v0.7l1.7 1.3z"
    name="Finland"></path>
  <path
    d="m389.1 403.1-1.6 1.3-1.3 0.2-2.5-1.2v-0.5l2.5-1.1 2 0.6 0.9 0.7zm-36.5-39.7 1.3 0.9-3.4 1.9-1.2-0.6-0.9-1.2-0.1-1.9 1.2-0.5h1.8l1.3 1.4zm-23.3-11.4-2.1 0.4h-2.9l0.1-1.5-1.4-0.5-1.8-2.7-1.3-0.5-1.9 1.6 0.5 0.9-2.4 1.8-2.9-0.3-0.8-0.7-2.1-0.4-0.2-1-2.7-2 1-1.4 2.9-0.9-1-1.4 0.2-0.8 1.6 0.1 2.2-0.8 1.2-1.6 1-2.3 1.9-0.9 1.3 0.6 1.9-2 2.8-0.1 2.7-0.7 3.9 0.3 1.1 1.1 0.5 1.7 1.3 1.7 1.7 1.4v0.9l-2 1.1 3.5 0.3 1.2 2.5-2.1 0.3-0.1 1.4 1.1 0.2-0.6 1.4-2.6 0.6-1.4 2.2-1 0.5-2.3-0.5zm13.7-20.2-2.6-0.5-0.6-2 0.9-1.4 1.8 0.7 0.6 1.3-0.1 1.9zm-11.5-7.1 0.7 3.4-2.4 1.3-0.8-2.4-1.4 1 0.2-1.9 1.5-0.3 2.2-1.1zm1.7 1.7-1.1-1.2 1.6-2.2 1.7-1-0.1 1.6-2.1 2.8zm2.5-7.8-4.6 0.8 0.6-3-1.9-0.9 0.3-0.9 2.1-0.5 1.7 1.7 2.1 0.6-0.3 2.2zm-16.2-11.4-1.5-0.2-0.4-1.4 0.2-2.3 1.6 0.2 0.1 3.7zm12.8-5.7-0.1 2.8 2.9 0.8 2-0.1 0.4 0.6-3.3 2.7-0.7-0.1-0.2-2.2-1.4 0.3-1.9-0.3-1.2-1.9-2.7-0.5-0.9-1.1 1.4-0.6 0.3-1.2 2.8-0.6 1.5-0.7 0.9 1 0.2 1.1zm-11.9-2.6 1.2 0.9-1.1 1.3h-1.5l-2.2-1 0.2-0.5 3.4-0.7zm11.8-9.9-1.6 2.6-1 0.7-0.2 1.7-3 1.6-3.2 2.4-1.4-1 2.6-1.7-2.1-1-0.2-2.6 0.8-0.7 1.4 0.7 1.9-0.3-0.7-1.2 6.3-3.2 0.4 2zm34.8-2.2v1.2l-1.3 1.6-2.2 1.2-4.2 2.8-2.5 1.3-0.5 1.6 1.4 0.1 0.2 0.8-2.2 1.6-0.6 1.5 3-0.4 5.3-1.5 3.6 0.5 2.6-0.3 6.9 0.2 1.9-0.3 2.3 1.3 1 1.7-2.8 3.4-0.8 2.3-2 3.5-1.9 2-2 2.5-2.1 1.1-3.1 0.5 4.5 1.9-1.4 1.8-2.4 0.1-2.3 1.7-2.1 0.7 3.6 1.1 2.4-1 2.7-0.1 5.2 1.9 3.6 3.4 2 1.5 0.5 1.1 2.1 6.9 1.5 3.8 1.6 1.8 4.5 1.6 1.1 0.6 3.4 3.3 3.4 2.4-1.4 1.5 0.4 1.2 2.1 2.9 0.3 1.6-1.3-0.1-2.3-1.4-0.3 0.7 5 3.3 1.6 2 1 2.7-0.6 1.1-3 2.7 2.8 1.4 1.2-0.2 2-2.1 1.7-0.2 4.2 0.3 3.8 1 3.3 2.1 0.7 1.1 0.4 3.1-2.2 5.8-2.8 1.9-0.5 1.7-2.1 0.9-1.7-0.3-2.4 1.2 1.7 0.6v1.7l-1.1 0.6-2.5 0.2 1.1 2 2.5 0.4 4.3-0.2 1.9 0.2-0.2 2.7-0.4 0.4-3.8 1.7-1 1.8-2.2-0.1-1.1 0.7-5.7 1.9-4.9-0.8-2.9 0.1-4 0.6-4.2-1.2-1.8-0.2-2.8 1.7-4.2 0.5-2-0.2 0.9 1.5-0.9 0.4-3.8-0.5-1 0.5-1.4-0.2-2.7-1.4-2.6-0.1-4.9 1.2-1 1.3-1.3 3.5-1.1 1.2-1.4 0.2-4.5-2.5-1.5 0.5-2.5 0.3-2.7 0.7-3.9 2.4-0.9 1.5-1.3 0.2-1.1-0.9-1.4-0.3-2.3 0.8-0.3-1.3 1-1 2.8-0.7 2.5-1.9 2.2-2.3 4.6-3.8 0.8-3.1 2.7-0.7 1.4-2.5 4.1-0.6h2.8l2.8 0.5 2.9-0.1 1.1-0.7 1.9-2.4 3.6-3-4.7 1-3.8 2.3-3.2-0.4-2.3-1.9-2.1-0.8-2.1 0.4-0.7-0.9-2.4-1.7h-2.6l-3.6 1.7-2.6-1.2-0.9-2.3 0.3-1.4 1.1-0.7 2.5-0.6 3.8-1.7 2.2-0.7 2.8-1.9 1.2-2.3-0.3-2 0.5-1.4-0.9-1.7 0.3-1.5-3 0.3-2.7 1.2-0.7-1.1 2.8-1.8 1-1.4 2.6-1.7 3.6-1.3 1.9 0.1 3.7-0.7 2.7 1.3-0.8-2.1 1.2-0.4 0.1-2.4 1.6-2.2-1.2-0.6 0.1-2 1.5-0.8 0.7-2.6-1.7-0.5-2.1 0.6-1.7-1.5-2.8-3.6-0.3-1.4 1.6-3.1 2.3-2-1.9-0.8-1.4 0.2-2.7 1.2-2 1.3h-2.1l-0.8-0.9-1.1 0.1-2.5 1.1-3.5-1.3-1.1 2.3-2.6-2.5-0.3-1.9h1.3l1.2-2.4 2.9-4 0.6-1.2-0.5-1.4-1.9-1.5 0.3-2.6 0.8-1 1.5-0.4-1.9-1.2-2.9 0.9-1.8 0.9 0.3-2-0.6-0.4-1.5 1.4 0.1 3.3-2.1 5.7-1.1 0.9-1.4-0.5 1.1-3.9 1.4-2.5-0.6-0.3 0.3-3.6 1-2.9 1.7-3.8 2.2-3.5-4.1 2.7-1 0.5-2.4-0.4-0.8-0.7-1-2.3 1.8-0.2 1.7-1.1-1.5-0.7 1.5-0.9 1.7-2.1 0.4-1.9-1-1.5-1.6-0.6-0.2-0.9 1.7-1.9-0.7-1.5 1.6-3.1 3 0.1 1.9-0.4-2.3-2 0.7-2.9 3.7-0.3-0.8-1.8 0.3-2 1.6-0.9 1.3 0.2 1 0.9 2.6-0.9 0.6 0.8 2.8-0.6 3.7-0.3 4.5-0.6 2.2-0.4 2.3 0.2-0.6 1.7zm-0.6-4-1.3 0.1-1.3-1.4 1.5-0.3 1.1 1.6zm1.3-3.4 2.7 0.6-0.6 1.4-1.4-0.7-2 0.3-1.9-1 0.4-2.1 1.7-0.1 1.2 0.5-0.1 1.1zm3.7-2.3-1 0.3-0.4-1.2-1.7-0.6 0.4-0.8 2.7 2.3zm16.1-19.5 1.6 1.8 1 0.5-1.3 3.8-0.2 1.6-1 1.7-0.8-0.4 0.9-2.9-0.5-1.1-1.7 0.3-0.4-0.9 1.6-1.4-0.8-2-1.1-0.2 1.5-1.6 1.2 0.8zm2.9 0.4-1.4-1.3 1.3-0.6 0.1 1.9z"
    name="United Kingdom"></path>
  <path
    d="m972.9 547.7-2.3 0.5 0.5 0.7-3.5 0.1-1.1 0.2-3.2-0.3-5.3 1.3-4.4 0.3-1.3-1.2-1.9-0.2-1.1-1.7-3.5-2.5-1.2-0.4-0.6-1.1-1.4-0.3-1.4 0.4-0.9 1.9-3.4-0.8-3.6-0.1-1.1 1-4.3-1.3 1.9-3 0.4-1.7-0.4-2.4-1.7-2.7-3.7-8-1.1-1.2-4-1.4-1.1-1.6-3.2-2.1-4.1-0.9-4.8-2.9-2.9-1.7 0.9-2.1 0.8-0.2 4.8 0.9 1.5-0.4 5.9 2.5 3.6 0.7 3.1 1.7 6 0.5 2.8-0.6h1.8l2 1.1 2.4-0.2 3.2 1.2 1.5 1.6 3.5 1.4 2.8 0.8 3.2 1.5 0.2 2.4 2.5 0.4 4.3-2.1 2.1-0.7 1.8 0.2 1.9 1.9 0.8-2.2 4.6 1.7 2.1 1.8 2.8-0.1 2.2 1-0.2 4.2 2.9 1.4 1.6 1.2 3.4 0.7 3.1 1.5-1.2 2.1-1.2 0.3v1.3l1.1 0.8 0.9 1.5 4.5 2.6 0.9 0.8-0.2 2-1.8 1.4-4.1-2-1.7 0.5-3.2-0.9-1.4-1 0.1-0.7-4-1.4-1.9-0.4-3 2.5z"
    name="Georgia"></path>
  <path
    d="m712.9 637.7h2.3l1.7-1 2.2 3.7 1.7-0.1 3.5-0.9 3.7 0.2 1.4 1 2.6 0.2 2.3 0.5 3.3-0.7 0.4 0.4 0.1 2.8 1.2 0.2 0.7-0.7 1.7-0.6h1.8l1.6-0.8-0.4 3.5-0.9 0.4-4.4-0.1-8.1 1-5.3 0.4-0.7-0.2-0.7-2.2-3.3-1.1-6.2-1-1.5-0.4-3.1 0.2-1.1-1-0.4-1.8 0.2-1.9 1.4 0.3 0.4-1.4 1.9 1.1zm43.4 1.1-1.6-2.1 1.1-0.5 1.2 2.4-0.7 0.2zm-54.7-11.4-1.4 0.2-0.7-2.2 0.5-1 2.1 2.1-0.5 0.9zm62.7 4.1-1.7-0.4 0.4-1.8-0.7-1.6 2.3-2.7 3.2-1.3 0.9 0.9-0.9 2.5-0.9 1.3 0.4 1-1.6 0.2-1.4 1.9zm-19-10.3-1.5 1.2-0.9-0.6 1.9-1.2 0.5 0.6zm6.2-2.2v-0.7l1.3-1.1 2.5-1 1.2 0.6-2.5 1.4-1.5 0.1-1 0.7zm-22.2-5.4-0.9 1.3-1.3-0.7 0.4-1.2 1.1-0.6 0.7 1.2zm3.6 1.6-1.1 0.6-1.4-2.2 1.9-2 0.9 0.7 0.1 1.8-0.4 1.1zm5.4-8.8 0.6-1.6 1.6-0.1v1.1l-2.2 0.6zm-21.7-0.7-1-0.4 0.4-1.2 1.1 0.5-0.5 1.1zm31.6-3.7 2.8 0.7-0.7 1-1.6 0.9-1.7-0.9-1.2-1.2 2.4-0.5zm-76.7 0.1 0.4 1.2-1.1 1-1.6-1.2-1.2-1.8 0.9-1.1 0.9 1.2 1.7 0.7zm53.1 0.7-1.4-0.1-2.4-2.1 0.9-1.4 0.9 1.2 1.3 0.1 0.7 2.3zm-57.3-9.7 0.3 1.8 0.9 0.3 1.3 1.6-0.2 1.2-2.1-0.8-1 0.2-1.1-2-1.3 0.2 0.6-1.8 1.4 0.1 1.2-0.8zm70.8 2.5-1.1 0.9-1.8-1.7 1.4-1.3-2.1-2.4-0.1-1 2.1-0.5 1.3 0.9 0.6 1.2 0.4 2.6-0.7 1.3zm-70.2-6.1-1.3 0.1-0.4-0.9 0.8-2.4 1.1 0.3 0.2 2.5-0.4 0.4zm34.6-5.4 0.9 1.7 5.5 2.5 2.8 0.3 1.7 2.6-0.2 0.6 1.5 3.8 1.1 0.9 2.7 0.3 0.4 1.9-0.9 0.8-1.9-0.7-2.1-1.6-0.4-1.3-2.2-2.9-3.6-0.2-1.5-0.7-0.6-1.7-1.5-0.9-2-1.9-1.5-1.1-3-1.1-0.6-0.7 1.9-1.3 2.1-0.5 1.4 1.2zm37.9-5.8-0.1 0.9 1.9 1.5 0.7 1-1.2 2.1-4-0.8-0.8-0.8 1.6-1.3-0.9-0.5-1.2 1.5-2.2-0.7-0.9-0.9 0.7-1.4 1.5 0.1 1.7-0.8v-0.6l2.3-0.2 0.9 0.9zm-81.3-1.6-1.3 0.3-1.2-0.8-1.2-1.9-2.2-2.2 0.7-1.1 1.6-0.4 1.4 1.2-1.1 1.2 0.8 0.7 0.9 2.4 1.6 0.6zm67.8-8.6-0.7 1.4-0.1 1.3-3.8-0.7-0.3-2.3 2.2-0.1 0.8 0.8 1-0.9 0.9 0.5zm2.4-6.9-1.4 0.4-1.7-1.3 1.4-0.5 1.7 1.4zm-11.9-3-1.6 0.6-1.8-1.1 1.1-2.3 1.3 0.1 1 1.3v1.4zm15.9-1.7-0.5-0.7-2.1-1.2-4.6-0.6-2.3-0.9-0.9 0.2-2-1-1.2 0.4-2.5 1.7-1.5-0.2-1.6-1-2.2 0.4-1.7 1.9-1.8 1-1.8-0.4h-2.3l-0.2 1.1 2 2.1-0.5 1 0.5 1 2.1 0.1 2.5 1.3-0.7 0.7-3.2-1.2-1.2-0.1-1.2 1.2 3.5 2.7 0.5 1.4-0.6 0.9-1.5-0.8-2.5-3.2-3.1-0.6-0.4 0.6 1.2 2.4 2.9 1.7-0.6 0.6-3-1-1.1-1.6-0.4-2-5.5-2.8-1.4-2.8-2.2 1.3 0.4 2-0.6 3.8 0.4 1.3 3.5 3.7 1.3 2.7 2.6 2.1 2.6 3.2 0.7 1.8-1.3 1.1-1.3-0.5 0.3-1.9-2.2-1.2-1.9 1.2 1.5 2.3 0.5 1.2-0.4 1.3-1.6 0.8-2.6 0.1 2.4 1.4 3.3 1 1.6 1.1 1.5 0.1 1.7 2.1 2.6 0.6 1.7 2.1 2 0.5 1.7 0.8 1 2.1 0.3 2.9 0.6 2.1 0.1 1.7-1.1 0.5-1.3-1.6-4.2-3.6-1-0.4-1 0.7-2.9 0.5-1.9 1.3 1.5 1.3 0.1 1.2 0.8 1.5 2 0.4 2 2.4-3 1-1.1 0.7-0.8-0.5-0.2-1.2-4.3-2.2-0.6 0.6 0.7 2.4 1.3 1.6 2.2 4.3 1.3 3.7-0.2 2.1 1 1.5 0.1 1.5-1.7-1.2-2.2-2.5-0.8-1.5-2.2 0.1-1.3 3.3 0.2 1.9-1.6-1.1-0.2-2.9-2.1-2.8-0.9-0.4-1.3-1.9-1.5 0.6-0.1 2.9-0.4 1-2.2-1.9-2.3-3.5-0.2-1.8 1.4-1.7-0.3-1.2-1.6-2.5-2.1-1.5-1.2-0.5-0.7-1.6-2-1.3v-1l2-1.7 1-2.6 1.9 0.5 1.4-0.2 2-2.4 1.6 0.1 3.9 2.1 4.2 1.2 2.1 1 1.2 1.1 1.6 0.3-0.5-1.4 0.8-0.4h2.1l0.2-1.6-2-0.6-0.8 0.2-2.4-1.4-2.3-0.8-2.2-1.5-1.2 1.3h-1.2l-3.4-0.9-2.1 0.7-4.2 0.7-1.1-1.3-2.6 1-1-0.7-1.9-4.2-1.7-1.9-1.2-0.5-0.2-1.9 1.5-0.2 2.4 0.9 0.9-0.6-0.6-1.6-2.5-0.2-1.8 0.5-2.8-2.2-1.5-1.7-2.2-1.1-1.7-3.4-2.6-2.6 2.7 0.9 0.7-0.7 0.3-1.5 0.9-0.7-1-2.2 1.7-1.3 1.9-0.3 0.6-0.5 0.3-2 1.2-3.1 1.7-0.8 0.8-2.6-1.1-1.8v-1.1l4.6-0.3 0.9-0.6 2.3 0.6 2.4-1.3 1.7-2.5 0.8-0.3 3-0.4 3.3 0.6 2.9-1 0.2-2.1 2-0.3 3 0.2 1-1 2.4-0.2 2.6 0.2 3-1.1 1.9-0.2 0.2-0.9 4.2 0.1 1.6-0.5 1.2 1.7 2.4 1.4 0.9-0.6 3.7 1.2 1.7 1.1 3.4-0.9 3.2-0.4 1.8 0.3 2.5-1.2 0.2-0.8-0.9-2.7-0.7-1 1.6-1.1 1.6 0.5 1.2 0.3 2.3 1.5 0.9 3.1-3.4 2.5 0.5 4.4-2.5 3.2-0.8 0.4z"
    name="Greece"></path>
  <path
    d="m611.2 521.2 2.3 0.4-1.1 0.9-1.2-1.3zm12.9 1.5 1.6-0.1 0.6 0.9 6.2 3.8 1.7 0.7 1.2 1.9-4.8-3.1-4.4-2.5-3.1-0.7-4.3-2-0.5-0.9 5.8 2zm-6.3-3.5-0.8 0.1-5.6-0.1-1.7-0.3-0.5-1.3 1.8 0.2 0.5 0.6 6.3 0.8zm-5.3-2.3-2 0.1-2.6-0.8 0.3-1.1 4.8 0.6-0.5 1.2zm-21.2-16.5-0.3 0.4-3.3-2.7-0.3-1.9 2.8 2.7 1.1 1.5zm-4.9-6.5-1.9-0.2 0.8-1.1 1.1 1.3zm-4.2 1.5-0.9-0.1-1.7-4.2 0.4-1.2-0.8-2 0.9-0.3 0.5 2.1 1 0.9-0.1 1.6 0.7 3.2zm3.7-4.9-1.5 0.3-1-1-1.3-0.2-1-1 1-0.7 0.5-1.2 3.3 3.8zm49.5-14.7-0.7 1.5 1.6 2.7 0.2 1.6 1.3 0.4-0.4 2 1.2 1 3 1 0.9 1.5-2.3 0.1-1.7 0.4 0.7 2.6-1 1.6-2.2-0.2-1.3-2.2-1.1-0.8-2.2-0.2-2.6-0.7-1.8 0.2-1.8-0.3-2.2 1-1.6-1.3-1.7 0.6-2.8-0.7-2.5-0.1-2.7-1.6-1.5 1.2-3.2-0.3-2.7 3.2-1.8-1-1.7-1.8-1.8-0.4-1.2 0.6-0.3 5 0.1 1.4 1.9 1.3 3.4 3.2 1.3 4 2.3 2.4 2.8 2.3 1.7 2 5 4.1 2.4 1.1 0.4 2.2 1.5 1.6 3 2.5-0.3 1.6-3.5-2.8-2.6-1.5-3.1-2.8-3.8-1.1-2.7-1.2-3.3 0.6-1.8-0.2-0.7-2.2-5.8-3.9-4.3-4-0.8-1.3 3.1-1.2-1.4-0.8-3.9-3.4-1.2-1.6-0.1-4.1-0.8-1.7-2.9-2.2-1.1-1.1-2.1-0.7-1.4 0.9-0.3 1.9-3 5h-1.3l-3.1-4.2-0.5-1.9-1.3-3.9 0.7-0.5 0.5 0.6 3.3 0.8 1.4-1.3 1.1 0.5 3.6-0.1 0.6-0.3 1.2-2.2 2.6 2.1 1.5 0.7 1.3-0.5 2 0.7 1.6 0.2 1.2-0.4-0.8-2.3 0.7-0.7-1-1.1 2.1-1 2.1-0.6 0.4-1.1-0.2-2.2-0.9-0.9 0.4-1.4 4.4-1.7 0.7-1h2v-1.7l0.9-0.8 2.5 0.6 2.9 1.2 1.7 1.2 0.9 1.3 2.7 1.8 2.2 2.2 1.3 0.7 2.5 0.6 1.3 1.3 3.3 0.9 4.9 0.2 2.5-0.9 1.1-1.4 2.9-0.4z"
    name="Croatia"></path>
  <path
    d="m671 437.8h1.5l1.4 2.3 2.2 0.8 0.9 1.1 2.3 0.4 0.9 0.7 0.7 1.7-2.2 2.3-4.6 1.1-1.9 2.4-1.2 1 0.1 1.7-1.4 1.4-0.7 2.5-1.4 1.5v1.2l-1.6 2.7 0.2 1.3-2.1 1.5-1.5 4.7-1.3 0.9-2.6-0.3-2.5 2-1.4-0.5-3.2 0.9-1-0.5-2.8-0.3-1.1 0.2-2.9-0.4-1 0.3-1.5 1.6-2.2 1-1.6-0.5-2.1 1.3-2.9 0.4-1.1 1.4-2.5 0.9-4.9-0.2-3.3-0.9-1.3-1.3-2.5-0.6-1.3-0.7-2.2-2.2-2.7-1.8-0.9-1.3-1.7-1.2-2.9-1.2-1.9-2.2-1.4-3.3-2.4-0.1 1.8-1.7 2.5-0.5 0.3-1.8-1.1-1.6 0.5-0.7-0.4-1.5 2.2-1.2 0.5-1.4-0.5-1.1-2.6-0.7 1.3-1.4 2.5 0.9 3.9-0.3-0.7-2 0.6-1.9 0.6-0.7 2.1 0.3 4.2 2.7 1.6 0.7 4.7 0.1 7-0.4 0.6-1-0.5-1.3 0.4-1 1.4-0.7 4.3-0.4 2.4-0.6 1-1.5 0.7-0.2 3.5 1.4 5-2.5 1.6-3.5 1.8-0.4 2.7 0.1 2.5 0.6 4.6-0.7 1.4 0.9 2.2 2.2 0.6 0.2 4.3-1.1z"
    name="Hungary"></path>
  <path
    d="m329.3 352 0.7 1.1-2.2 0.4 1.5 5.2 0.6 0.9v4.1l0.9 3.2 0.1 2.5-1.3 1.8-0.9 2.1-0.2 1.8-1.6 2.1-1.5 0.9 1.6 1.5-2.8 0.8-2.6-0.3-1.3 0.8-3.9 0.2-3.7 0.7-1.7 1.8-2.5 0.7-1 1-2.3 0.8-1.7-1.2-1 0.2 0.2 2.1-2.9 1.3-1.8 0.3-1 0.7-5.8 1.4-1.9-0.5-3.3 0.8-1.2-0.1 1.6-1.8 1.6-1.3-3.8 0.6-1.4 0.5-0.6-0.6 3.2-1.9-3.3 0.1-3-0.4-0.4-1 2.9-2.3 2.4-0.9-0.1-0.9-5.1 0.1 0.5-1.1 1.7-1 1.8-0.1 1.5 0.6 1.1-0.8-0.6-1.7 3.9-2.3 3-0.3 3.3-0.7 3.3-0.8-2.4-1.2-2.3 1.8-2.6 0.3-1.9-0.5h-2.1l2.7-2 1.6-1.7-0.8-0.7 2-2.3 3.6-1-1.6-1.3-3.9 0.2-1.4-1.3-2.6 0.1 0.4-1.2-3.5-0.2 0.5-1-0.6-1.1 2.8-0.6-0.2-2 1.9-0.8 2-0.4 0.1-1.1-2-0.2-2 0.4 0.8-2.1-0.8-1-0.4-1.7-0.9-1 2.8-0.2 1.2-0.5 4.7 0.1 1.9 1.3 1.7-1.2 4.8 0.9 0.6-2.6 3.8-1.5 1.2-2-3.7 0.4-3.6-1 0.7-0.8 2.1-0.7 1.9-1.6-0.3-1.1 1.7-2.7 3.1-0.8h2.4l1.6-0.9 1.2 2-1 1 0.6 0.9 1.2-0.8-0.5-2.1 0.9-1.3 1.9-0.3 0.6-0.8 3.2 1.7-2.5 1.5-0.5 0.7-1.9 0.9-1 2.3-1.2 1.6-2.2 0.8-1.6-0.1-0.2 0.8 1 1.4-2.9 0.9-1 1.4 2.7 2 0.2 1 2.1 0.4 0.8 0.7 2.9 0.3 2.4-1.8-0.5-0.9 1.9-1.6 1.3 0.5 1.8 2.7 1.4 0.5-0.1 1.5h2.9l2.1-0.4z"
    name="Ireland"></path>
  <path
    d="m240.3 177.9 1.2 0.1 2.8-0.8 2.2-1.1 0.5 1.1-2.5 2.4 2.2 0.9 2 0.3-0.1 1.7-1.7 1.6 0.8 0.3 3.5-0.5 1 2.3 1.5-0.2 2.4 0.3 1.4 1.2 1.2-0.3 0.5 0.9-0.7 1.2-1.5 0.6 2.1 2.9v1.1l-1 0.7h-1.3l-1 2.1-1.2 1.1-2 1-2.6-0.5-1.1 1.5 0.2 1.4-1.3 1.3-5.3 2.1h-2.5l-2.6 0.5-6.2 2-4.7 2.8-2 0.7-3.1 0.3-1.8 0.5-5.9 0.8-2 0.5-1.2 1.1-0.5 1.4-4 1.1-3.8 0.7-6.4-0.5-5.4-1.3-4.5-0.3-3.8-2.5-2.9-1-3.6-1.8-2.3 1.1-12.4 0.3-0.8-0.5-0.2-2.1 1.1-0.8 1.3 1.2 5-1.1 2.7-1.9 2.5-2.7-3.5 1.2-0.2-1.9-0.9-1.1-1.7-0.8-0.3-0.8 1.1-0.9-2.3-1.2-2.6 0.1-6.6-0.5-3.8 1-2 0.1-0.9-1v-1.1l1.5-0.3 1.8 0.1 4.1-0.6 1.4-0.6 0.8 0.5 3.6-1.1 1 0.2 4-0.2 4.4-0.1 1.1-0.8 0.4-1.1-2.8 0.9-3.7-0.5-0.6-0.9 3.6-1.6 2.7-0.8-0.8-1.3-3.2 0.2-0.7-0.8-2.6-0.4-1.8 0.3-0.9-0.5-2.4 0.6-5.2 0.9-3.3 0.9-3.1-1.1-2.4-0.2 1.4-1.4 2-0.1 1.7 0.8 0.1-3.2 1.2 0.3 2.8 1.1-0.7-2.8 2.2 0.1-2.2-1.6 0.5-1 1.6-0.3 0.8-1h2.4l2.3 1.1 0.2 1.4h2.1l1.1-0.8 0.9 0.6 0.5 1.2h1.2l0.4-2.2-3.6-1.1-0.3-1.4 3.7-0.1-1.7-1.1-3 0.2-1.4-0.4 2.6-1.2h3.4l1.4 0.2 2.3 1.7 2 0.6 3.1 2.3 2.2 0.9v1.2l0.7 0.8-2.3 3.4 0.9 0.7-0.8 1.6 1.9 0.6 1 1.7 0.9-1.8 1.5-1.9 2.3-1.3 0.9 0.1 0.9 1 0.9 0.1 1.4-2 0.7-4.3 1.7-0.9 1.8 0.7 1.3 1.6 2.6 2.1 1.8-0.5 0.1-2.3 1-1.3 2-0.3 2.2-0.8 2.3-0.2 1.7 1.4 1.2 1.4 1.7 1.1 0.7 1.8 0.9-0.3-0.2-1.7-1.4-2.6 0.3-0.9 4.1 0.2 3 2.3 1.3-0.3 3.6-2.8 2.3 0.8 1.8 0.1 2.8-0.8 0.8-1.2-0.9-2.3 0.6-0.4 2.6-0.6 2.7 0.1 2.6 2.1-0.1 1 1.6 0.8z"
    name="Iceland"></path>
  <path
    d="m602.6 595.6-1.2 2.5-2.8 4.3-1.5 5.1 0.3 2 1.6 1.4-0.7 0.5 1.6 1.8 0.1 1.3-1.8 1.9-0.4 1.7 0.1 1.5-2.9-0.6-1.4 0.3-3.7-1.4-1.9-2.8-3-2h-3l-1.4-0.5-2.9-1.9-3-1.4-2.6-2.1-1.7-0.4-1.5-1h-2.9l-2.3-1.6-1.3-2.3 1.3-3.7 1.4-0.8 0.9-1.2 2.3 2.3 1.8-0.8 1.4-1.6 2.4 0.1 0.5 0.9 1.4 0.3 2.5 1.6 1.4 0.4 3.4-1 3 0.4 2.8-0.5 1.7-0.6 1.2-1 1.4-0.3 3.5 0.3 2-1.2 0.8 0.2 2-1.2 1.1 1.1zm-78.3-41.5 0.7 0.9 1.8 5-0.6 1.6-1.3 2 0.8 2.8-0.6 11.5-0.6 2.9-0.9 0.4-2.9-1.2-1.5 0.3-1.2-0.6-0.3 3-1.8 2.1-3-0.2-0.7-0.6-2.4-3.8-0.4-4.3 0.6-1.3v-2.5l1.1-0.1v-1.7l-1.8-1.2v-1.9l0.7-1.4-0.1-2.6-0.8-0.9-0.8-2.3-2.2-2.4 0.1-3.4 3.4 0.6 1.3-0.3 3.1-1.5 2.1-2.5 1.4-0.5 1.5-1.8 0.7 0.9 2.2 0.8 1.2 1.5 0.9 0.5-0.7 1.4 1 0.8zm8.3-30.8 0.3 1.4-2.5 0.5-1.1-1.1 2.9-0.2 0.4-0.6zm37.9-56.6-0.2 0.9-3.3 2.3 0.7 1.4 2.3 0.7-1.6 2.1 0.3 1 1.3 0.2-0.4 2 1.9 1.1 1.5 1.3 0.2 1.3-1.5 0.1 0.7-0.6-2-2.2-2 0.9-3.2-0.9-2.1 2-1.5 0.4-1.7 1.1-3.2 1.2-1.8-0.4-1 0.7-0.4 3.1 0.8 0.6 1.5 2.6 1.7 1.1-0.7 1.9-0.9 0.7-1.3-0.5-0.3 1.7 0.9 4.5 1.4 3.2 1.2 1.3 2.7 2.2 2.7 1.1 5.1 3.7 2.8 1.1 0.7 0.7 1.8 2.8 1.6 3.2 1.8 5.1 1.3 2.5 2.3 2.9 4.8 4.1 4.3 2.9 4 1.9 3 0.3 7-0.4 2.6 0.7 0.4 1.2-0.4 0.9-2.9 2.1v1.7l1.5 1.2 7.1 3.2 7.2 2.6 2.2 1.4 2.7 2.1 6.4 2.9 1.1 1.4 4 3 1.8 2.4 0.5 1.8-1.5 4.4-1.6-0.5-1.9-1.3-3.1-5.4-5-0.5-2.9-1.3-0.7-1.4-2.3-0.4-1.3 0.9-1.4 2-1.5 3-1.5 4.3v1.7l1.1 1.7 2.9 1 2.4 1.5 1.6 1.6 0.3 3.8 0.9 2.1-0.9 1.3-1.9-0.3-2.5 0.7-1.7 1.4-0.7 1.4 0.5 3.4-0.3 1.4-3.3 2.5-1.6 2.5-1 2.3h-4.3l-1.1-1.5-0.1-2.2 0.6-1.3 1.6-0.7 0.9-2.8-0.5-2 1.1-1.6 2.8-0.7v-2.9l-1.4-1.3-1.4-5.1-2.4-4.3-1.4-3.8-1.1-1.8-1.4-1-3.7-0.3-4.6-2.6-0.3-1.1 0.6-1.1-1.1-2.8-2-1.7-2.6 0.6-1.2-0.1-0.1-1.5-2-1.3-2.7-0.2-0.7-0.7-2.6-4-1.7-1.7-2.3 0.1-3.9-0.9-2 0.7-3.2-2.6-2.8-0.9-5.7-5.3-1.8-2-3.5-2.2-2.3-3.2-1.8-1.2-4-1.4-0.3-1.3-3.1-3.1-1.7-1-1.3-2.1-2.5-0.5 0.1-2.7-1.2-3.5-1.7-2.2-1.2-5.3-0.8-1.5-1.8-1.1-4-1.2-5.7-3.4-1.1-0.1-3.4-1.3-2.1-0.2-2.6 1.2-3.1 3.2-2.5 3.4-0.9 0.6-3.4 1.2-3 0.5-0.2-1.5 2.1-2.6-0.3-2-3.3 0.6-5.1-2.4-0.9-0.9-0.1-1.4-0.7-1.3 1.4-2.5 0.8-0.7-0.5-1.7-3.2-1.4-1.5-3.1 0.8-0.4 1.9 0.2 1.7-1.3 1.2-0.3 0.8-2.5-1.8-1.6-1.7-2.6-0.9-0.6-0.1-1.6 2.6-1.7 1.4 0.7 2.4-0.5 2.6-1 3.1 0.8 2.4-1.4 1.6-2.2-0.6-1.5 3.4-2.9 1 0.6 0.2 2.5 2.4 2 2.2 0.6-0.4 1.2 1.3 1.2 0.9 1.4 1.2-0.7-0.7-1.7 0.2-1 2.2-2.6 0.5-1.1v-2.9l2-0.1 0.8 2.1 2 0.8 2.9-1.1 0.7 0.1 1.4 1.9 1.2-0.3-1.5-3.5 0.6-1.8 1.3-0.3 1 0.9 1.9 0.2-0.5-1.8 0.5-3.1 3 0.3 0.9 0.8 2.1 0.4 1.1-0.4 1.2-2.2 1.4-0.6 3.4-0.3 3.1 0.2 4.7-1.5v2.3l3.1 3.5 1.1 0.5 8.6 1.5 4 0.3 2.6 0.5z"
    name="Italy"></path>
  <path d="m519.4 458.5-1.2-0.1-0.1-1.7 0.5-1.5 1.1 2.5-0.3 0.8z" name="Liechtenstein"></path>
  <path
    d="m707.9 328.5v1.8l-0.7 3.1 3.9 1-1.3 1-0.4 1.1-3.6-0.1-1 2-0.8 0.6-2.6 0.6-1.1 3 0.4 2.3-1 1.5-0.5 2 1.9 0.5 0.9 1.1v1l-2 0.2-1.7-2.3-1 0.7-2.1 0.5-1.4 1.2-2-0.2-0.8 2.6-1.8-0.1-3.3 1.3-1.6-0.9-3.7 0.3-1.6 0.3-2.9-0.4-0.8-3-1.1-0.9-4.5-2.2-2.3-0.7-0.6 0.6-1.3-2v-2.1l1-3.1-1.3-1.3-1.4-0.6-0.9-1.3-5.7-0.1-2.4-0.6-3.9-1.4-2-1.2-1.8 0.2-0.6-1.2 0.2-1.6-1.1-2.4-1.6-2.9-0.7-3.8 2.8-1.7 3.6-1.9 4.7-1.4 5.9 0.5 4.3-0.1 1 0.9 1.6-0.7 4.9 0.5 2.3 0.1 3.7 0.9 4.6-0.4 1.7-1.3 2.3-0.2 2.4 2.9 6.1 1 0.9 0.4 5.4 3.1 2.6 2.1 1.5 0.7 2.3 0.5z"
    name="Lithuania"></path>
  <path
    d="m475.4 411.7 0.3 2.2 1.5 1.6 2.8 1.1v1.4l-0.9 0.9-0.6 3-1.3-0.7-2 0.6h-1.4l-2.1-1.2 1.1-1.7-2-2.4 0.2-1.7 1.4-2.5 1.3-1.3 1.7 0.7z"
    name="Luxembourg"></path>
  <path
    d="m711.6 301.2 1.9 0.3 0.5 1.1 3.2 1.7 0.7 2.2-0.8 1.6-0.3 3.1 1.8-0.3 1 0.6 0.3 1.2 1.7 2.1 1.3 0.8 1.9 4.2-0.3 1.7-1.3 0.2-1.4 0.8-2.5 2.4-0.4 1.7-3.1-0.1-3-0.4-1.1 0.3-1.2 1.5-2.6 0.6-2.3-0.5-1.5-0.7-2.6-2.1-5.4-3.1-0.9-0.4-6.1-1-2.4-2.9-2.3 0.2-1.7 1.3-4.6 0.4-3.7-0.9-2.3-0.1-4.9-0.5-1.6 0.7-1-0.9-4.3 0.1-5.9-0.5-4.7 1.4-3.6 1.9-2.8 1.7-0.8-2.8-0.6-5.5 0.1-2.8 1.9-1.6 0.8-1.2 0.6-4.5 2.5-3.6 2.4-0.4 3.1-1 3.5-0.9 1.4 1.9 4.9 3 1.2 1 2.3 3.4 4.4 1.8 3.1-0.6 3.6-2.4 1-1.1v-1.1l-1.2-4.7-1.1-2 0.1-1.3 8.4-2.8 1.5 1 1.1-0.7 5.6 2.5 2.3 0.5 0.6 0.7 3.5 2.7 2.8 1.1 4-1.2 3.4 1 1.9 0.2z"
    name="Latvia"></path>
  <path
    d="m751.4 483.2-2-2.3 0.9-0.7-1.4-5-0.1-2.6 0.9-4.8-0.5-2.9-1.4-2.3-1.4-2.9-3-2.1-1.3-1.7-2.1-1.8-2.5-3.2-1.5-1.3-3-4.9-2.5-3-2.5-1.6h-2.1l0.2-0.6 2.3-1.4 0.7 0.2 4 0.1 1.2-1 0.8 0.3 1.6-1 3.5 1 3.6 2.4 2.5 0.3 0.6 1.2 5.6 0.6 1.4 1.9 1.4 1 1.4-0.7 1.4 1.4 0.6 2.3-0.6 3.1 0.6 1.2 2.3 1.2 2.9 2v2.4l0.9 1.9 2 1.3 2.1 0.8 1 1.6 0.2 2.9 2.9 1.7-0.6 0.7-2.9 0.4-1.2-1.3-1.6 0.6-2.1-0.8-1.9-0.2-2.1-1-2.5 1.6 0.5 2.1 1 1.7-0.4 2-2.3 1.7v1.3l-2.5 2.9 0.5 1.4-0.4 1-2 0.2-1.1 0.7z"
    name="Moldova"></path>
  <path
    d="m683.8 531.8 3.3 3.2 3.4 1.8 1.7 3.3 0.9 1-0.5 1.7v4.2l-2 0.3-0.2 2.1-2.9 1-3.3-0.6-3 0.4-0.8 0.3-1.7 2.5-2.4 1.3-2.3-0.6-0.9 0.6-4.6 0.3-1.3-1.1-1.6 0.2-1.3-2.4-1.2-1.1-1.2-2.2-0.2-1.9-0.7-2 0.8-0.8-0.3-2.1 0.5-2.6 1.7 0.3 0.5-0.8 0.2-2.6 3.4-1.5 1-0.1 1.6 1.2 1.5-1.9 2.1-0.4 2.2-0.3 2-0.9 1.9 0.3 2.3-0.8 1.4 0.7z"
    name="Macedonia"></path>
  <path
    d="m642.4 512.9 0.4 1.2 2.6 1.7 1.9 2 3 1.6 2.1 0.5 5.3 2.9 0.1 1-1.6 0.4-0.2 0.7-2 0.4 0.9 1.5-0.2 1.3-3.4 1.2-0.8-2.1-1.1-0.3-3.2 5.3-0.8 0.3-2.5-0.2 1.6 1.9 1.7 0.8 0.3 0.6v3.1l-2.1-1.2-0.9-1.8-3.1-2.9-3.5-2 0.1-1-1.6 0.1-1.2-1.9 1.1-1 0.1-0.8-1.1-1.6-0.6-3 0.5-0.7 1.7-0.2-0.1-1.5 0.5-1.7 2-1.7 2.3-0.2-1.4-2.2 3.2-0.5z"
    name="Montenegro"></path>
  <path
    d="m458 260.9 0.1 1.7-1-0.1-0.7-1.1-0.2-2 0.7-0.5 1.1 2zm-1.8-11.1h-1.8l0.3-1.3 0.9-0.3 0.6 1.6zm32.5-31.9-2.3-0.2-1-0.8 2.8-0.8 0.7 0.5-0.2 1.3zm3.6-4.6-0.3-0.9 2.7-0.6 0.9 1-3.3 0.5zm28-16.6-4.2 0.3-0.3-1.1 2.1-0.8h1.2l1.2 1.6zm6.8-10.5-2 0.3 0.1-1.1 1.8-0.3 0.1 1.1zm4.1-5.7-0.1-1.1 1-1.2 1 0.4-0.3 1.5-1.6 0.4zm3.1-24.9-1.5 0.7 1.1-2.6 1.1-0.7 0.4 1.5-1.1 1.1zm8.5-5.2 2.3 0.2-0.5 0.8-1.4 0.3-1.1 0.8-1.9 0.2-1.9 1-1.6 0.3-0.4-1.2 0.9-1h1.3l1-1.2 3.3-0.2zm12.4-9 2.2 2.1-0.3 1.5-1.2 0.7-3.3 0.1-1.6-0.9-2.2 0.6-1.6-1.1 1.6-1.4 2.6 0.4 0.5-1.7 1.7 0.3 0.4-1.5 1.2 0.9zm6.3 5 1.3-1.1 1.5-0.4 0.6-2.2 1.8-0.5 1.6 1 0.9 1.2-0.2 1.1-3.1 1.2-2.5 2-1.6-0.2-0.7 0.7-2.4 0.6-1.7-0.9-0.9 0.9-1.4 0.4-1.2-0.4-2.9 1.5-2.8 0.3-1-1.1 3.1-1.9 5.1-0.6 2.9-2.3 0.4-2.5 0.6-0.9-1.3-0.6 0.2-1.7 2.4-1.7 1.3-1.4 1.5-0.3 0.9 1.1-1.1 1.4-1.6 1.2 1.1 1.5 0.6 2.4-1.4 2.2zm15.5-13.7 1.4 0.8 1.5-0.3 2.3 0.7 1 1.5-1.2 0.9 0.4 1.7-3.8 0.5-0.9-0.5-1.5 0.9-1.4 1.4-2.2-0.6 0.2-1.6-0.3-2.3 0.7-0.5 2.9 0.3-0.4-2 1.3-0.9zm124-2.6-1.8 0.4 0.2-1.8 1.6 1.4zm-92.4-3.8-1.3 0.4-1.8-0.3-0.7-1 2.2-1 1.7 0.3-0.1 1.6zm-15.1 0.3 1 0.7 1.5-0.5 1.1 1-1.4 0.8-0.8 1.2-2 0.1-2.9 2.3-0.1 0.8-5 0.5-1.5-0.3 1.7-2.7h1.7l1.7-0.8-0.3-0.8 2.5-2 0.6-1.7 1.4-1 0.8 2.4zm4.8-2 1.4 0.2 1.3 1.6h-2.3l-2-1.8h1.6zm37.3-4.3 0.5 1.1-3.3 2.1-1.6 0.1-2.1-1.2 0.1-0.8 1.9-0.9 0.9 0.1 2.7-1.4 0.9 0.9zm3.9-0.3-1.8 0.5-1.7-0.9-0.2-1.6 0.8-0.3 3.2 1.2-0.3 1.1zm-6.4-3.2-0.4 0.8-2.7 2.1-2.2 0.7-1.8-0.3-0.8 0.6h-2l-2-0.6-2-1.2 3.5-0.1 0.6-0.5h1.5l2.8-0.4 1.1 0.3 2.1-1.4h2.3zm60.6 23.5-1.7-1.3v-0.7l3.2-2.9 0.7-1-2.6-2.7-3.6-0.8-4.2-1.1-4.2-2-1.8-1.2-2.9 0.3-3.5 1.6-0.9 0.2-3.8-0.4-2.1 0.2-1.7 1.8-2.6 1.7-0.7 3.8-0.6 1.7 0.7 3.2-1.5 1.4-2.1 0.3-1.6 1.3-0.5 1.7-1.3 0.6-2.6-0.8-3.9-0.8-3.6-1.1-1.5-0.1-1.2 1.2-3.7 0.9-1.8 0.1-0.8-0.5-6.9-0.6-1.4-1.8-7.9-5.5h-3.6l-1.9 1.1 1 1.4-0.5 0.6-1.9-0.4h-2.1l-0.5 0.4-5.1 0.2 2.6 1.6 0.1 2-1.4 1.9-1.6 0.9 2.9 0.9-2.5 1.6-1-0.1-8.6-1.7-2.9-0.1-4.1-0.9-2.1 0.5v0.8l0.8 3.6-2.1 3.1-6.3-1.8-1.5 0.9-3.7 1.9-1.5 3.5-1.1 1.1-2.7 0.6-0.5 1.1 2.7 2.3 1 1.3-0.2 1.4-1.5 1-3.3 2.9-3 2.9-1.3 0.9 1 2.5-3.3 1.5-2.4 0.5-3.8 0.4 1.4 3.9-0.6 2.7-0.1 4.7-3.3 5-4.4 5 4.7 1.6 1.1 2.9 0.1 1.2-1.7 2.2-7.1-0.9-3.3 0.4-3.3 1.5-3.5 3.8-1.2 1 0.5 1.5-2 2.8 2.7 4.1-1.1 1.1 0.6 2.8-0.1 1.8 2.5 4.4v1.6l-0.9 6.4 3.8 2.1 1.2 0.4 3.4 2.7-0.4 1.9-1.3 2.5h-2.4l-1.8 0.6 0.3 1.6 3.1 4.9 0.5 1.4-0.6 2.1-0.1 2.8-1.9 2-1.3 0.8-2.6 0.7-0.9 2.4-1.5 1.5 1.6 4.4-0.6 3.9-0.7 1.4-1.9 0.2-1-1.8-0.4-1-6-1.2-2.3-2.9-0.4-3.1-2.5 1.2 0.6 1.1v2.3l-2.5 3.9-1.1-0.2-1.3 0.8-1.3 0.2-0.6-1-1.1 0.2-0.8 1-3.4 1.3 1 0.7-1.7 1-0.6 0.9-2.7 1.5-4.3 3.9-2.3 1.1-1.6 1.2h-1.4l-1.8 0.9-4.6 0.9-3.1-0.4-2.1 0.4-1.1-0.7v-1.1l-1.2-0.1-0.8 1.2-1.6-0.4 0.7-2.4-3.1-0.1-3.8-1.6-0.9-0.8-3.1-1.3-1.4-1.4-0.8-1.6 0.3-3.6 0.6-0.5 2.7 0.8 2.8 1.3-0.1-1.2-2.4-1.6 0.8-1.8-0.2-1.6 2.6-2.1-0.4-0.7-3.4 2-3.1 0.9-1.1 1.2-1.1 0.6h-2.1l-0.5-0.9 0.5-3.3 1.2-2.7 1.8-1 3.4 0.7 1-1 1.3-0.2 2.4-1.2-4.1 0.5-1.2-1 2.8-2.4 1.2-1.4 0.3-1.5 2.2-1.7 1.8-0.8 1.6 0.6 1.5-1.9-5 1.1-2 1.1-2.7 2.8-0.2 1.1-2 0.9-1.5 1.5-0.6 1.2-2.8 1.9-1.4 0.3v-2.4l1.1-2-0.3-1.6 3.2 0.2 1.8-1.2h-2.7l-1.4-0.7-1.2-1.5-0.6-1.9 1.1-1.8-2.2-2-0.5-2.2-0.1-2.5 0.9-0.5 2.1 0.4 2.4-0.2 5.2-0.9 3.4 0.6 1.4-0.1 2-0.7 1.9-0.1 2.2 1.2 0.7-0.5 5.4-1.2-3-1.5 0.1 1.4-3.6 0.3-3.2-0.6-1.3-0.6-0.5 1.3-1.1 0.3-3.4-0.5-4.7 0.3-2.1 0.7-1.4-0.1-2.5-1.2-0.9-0.9-0.3-2.6 2.8-0.3-1.9-2.3-1.9-1.3-0.2-1.4 0.7-1.3 1.5 0.2 3.8-0.1 6 1.5 4.9-0.3-0.8-0.6h-2.9l-7.2-1.3-2.2 0.1-1.2-0.3-0.7-1 0.4-1.9 1.1-0.4 1.2 0.6 1.9-2.3 1.9-1 2-0.5 2 1 1.3-0.1 4-0.8-1.3-0.5-3.5 0.5-0.2-0.5 2.4-2.3 4.2-0.4 5.9 0.5 2.3 0.8 0.4-1.8 5.3-1.4-6.8 0.8-1.8-0.5-4.9 0.7-0.1-1.3 2.3-2.3 4.1-0.9 1.9-1.1 3.1-0.2 2.6 0.3 1.2 1.3 4.4 1.7-5.1-4 1.1-1.7 3.3-0.4v-1.6l-2.2-0.3v-1.2l1.9-0.9 2.8-0.7 3.2 0.8-0.6 1.3 0.9 0.5 1.7-1.5 3.9-0.8 2.8 2.1 0.5 1.1 1.1-0.5 2.7-0.5 2.7 0.3 1.8-0.2-1-1.3 0.4-1 2.4-1 1.7-0.3 2.6-1.2-0.8-1-1.4-0.3 2.9-1.5-1.7-0.6-2.4 0.9-1.6 0.9 1.5 1-1.1 1.1-6.1 2.8-3 0.8-1.4-0.1-1.9-2.5-2.1-0.1 1.3-2.2 1.6-0.8 1.4-2.3 2.3-1.3 3.2-3.3 2.8-1.1 0.9-1.1 3-1.5 3-0.9 0.3-1-2.7 0.9 0.4-2.1 1.4-1 6.8-2.8 1.6 1.3 2.1-0.2 2.3-1.6-0.3-0.7-2.1 1h-1.5l-0.4-0.6-2.1-0.5-0.3-1.2 1.3-2.8 3.4-3.3 0.5-1.3 1.3-0.7 1.7 0.2-0.2-1.1-2.1-1.1 6.2-1.1h3l2.4-0.9 0.5-1-6.4 1.1-2.4 0.1-0.8-2.7 0.2-1.5 1.9-2.2 1.4-0.2 1.7-1.1 0.1-1.5 2.3-0.8 2.1-2.1 2.3-0.5 1.4 0.2 3-0.7 6.6-0.1 0.1-0.6-6.3-0.3-3.5 0.2-0.4-0.6 2.8-2.7 2-1 1.7 0.2 1.8 1 0.6-0.8-1.6-1.5 0.7-1.5-2.6 1.1-1.8 0.3-0.9-2 2.3-2h2.3l0.3-1.5 3.3-1.3 1.9-0.2 1.5-0.6 0.6 0.4 0.9 2.3 1.5 0.3 1-0.8-1.3-1.1-1.1-1.8 2-1.5 2.3-0.2 2.6 0.7 2.3-0.2 0.9-1.2-6.3-0.1-0.8-0.9 1.2-1.2 2.2-0.8 2.5-0.1 2.4-1.4 0.9-1.1 0.3-1.6 1.4-1.3 3.9-0.8-0.6-2.2 0.8-1.4 1-0.6 2.1 1.5 1.8 0.5-0.5-1.4 0.3-1.2h2.1l1-0.5 0.3-1.3 1.4-1.2 4.7-0.7 0.5 2.5 0.7 1.4 0.8-2.8 1.6-2.1 2.4-0.9 0.9 1.1-0.4 4.3-1.9 2.4 1.5-0.2 2.5-2.3 0.6-1.2-0.7-2.8 0.6-0.8 3.5-0.1 1.9 0.4 0.7-1.5 1.7-0.1 1.8 0.9 4.1 1.4-1.3-2.2-1-0.8-2.1-0.5-2.2-1 1.2-1 2.4 0.3 2-0.8 2.2-0.2 1.1 0.6 0.8-1 2.5-0.5 2.8 0.9 1.6 2.7 2.4 1.4-0.1-1.4 0.6-1.9 2.3-2 2.1-1 1.4-0.1 2.9-3.4-1.6-1 3.3-2.3 1.1-0.1 5.4 2.1 1.5-0.9 3.4 0.8-0.8 1-3.1 2.9-0.5 0.8-0.1 2.2-1.2 1.4 0.8 1.4 1.6-0.4 1.8-1.3 0.1-1.3 4.3-3.7 1.9-2.1 2.3-1.7 1.5-0.3 0.9 1.1-0.2 1.5 0.2 4.3 3.7-1.4 1.1-3 1.1-0.7-0.8-1.4 0.4-1.1 2.3-1.3 2.2 0.4 3.3 0.3 2.7 0.8 0.2 1.4-0.8 0.9-2.9 1.1 0.7 0.7 2-0.6 0.9 5.5 0.9-2.1 1-0.7 0.1-1.5 0.8-1.9 1.8-1.3h2.7l3.3 1.7 2.5 0.3 1.8 0.8 2.4-0.7 2 1 0.1 1 3.8 0.3 3.8 1.6 0.6 1.6-4.4 1-1.8 1-3.3 0.4-11.5-0.7 0.4 0.7 8.3 1.5 0.6 0.5 0.4 2.1 1.8 0.7 3.5-0.2v-1.3l3.2 0.6 3.8 0.2 1.1 1.7-0.3 1.5-2.4 0.1-4.2-1.4-0.4 2.3-1.1 0.9-5.8 1.3-1.1 2.6-2.2 1zm-40.5-27.7 3.7 0.5 2.2 1.4-3.6 0.5-1.7-0.1-2-1.8 1.4-0.5zm-339.6 3.9-0.1-1 4.5-1.5 1.9-1.4 3.4-0.5-0.2 1.8-3 0.8-3.3 0.5-3.2 1.3zm269.2-45-1 0.5-1.9-0.8-0.8-1.2 3-0.1 0.7 1.6zm9.6-50.1 3.9 0.2 2 1.9 1.4 2 1.3 0.2 4.7-0.4 3.4 0.7-1.4 1.1v1.2l5.5 1.3 1.8 0.1 3-0.4 6.5 1.7-6.6 1.1-2 1.9-3.7 1.3h-2.6l-2.3 1.3-2.2 0.1-1.5-1.9 2.2-1.3-3.1-0.4-1.2 0.5-10.5 1-1.1-0.2-0.9-1.2 2.8-0.6 0.2-1.1 2.5-2.4-5.5-1.6-2-1.2-0.8-1-2.5-0.9v-1l-1.7 0.1-0.4-1.2 10.8-0.9zm46.2-0.6h-1.3l-2.6-0.8 0.7-1 3.2 1.8zm-137.6 0.4 3.5 1.5 1.9 0.5 2.3 1.5-0.7 0.9-2-1.2-3.6-1.3-2.3-0.2-3.3-2.5-1.5-0.8-0.8-1.7 3.6 0.7 1.6 1-0.3 0.8 1.6 0.8zm155.6-3.4 2.7 0.1-0.1 0.6-7.3-0.4-3.8 0.7 0.4-0.9 2.4-0.6 3.7-0.1 2 0.6zm-109.9-10.8 1.4-0.6 5.4 0.8 2.5 0.9 1.3 1-1.9 1.9 1.7 1 3.2-1.7 2.7 0.3 1.7 0.9 1 1.1-0.2 1.4 3.1 1.1 3.4-0.2 2.4 0.3 1.5 1 1.9-0.2 0.2-0.8 2.6 0.2 3 0.8-2.1 0.9 2.1 0.8 3.4 0.6 2.1 0.6-1.5 1.4h-3.2l-2.9 0.3-5.4 0.3-3 1.6-2.5 1.8-0.4 1.6 0.6 1.1-1.5 0.5-3.3 0.2 0.2 3.9-0.8 1.9-3.3 0.3-1.8 1.1-1.2 2.1-2.1 2 1 1-2.1 1.9 1.2 1.8-1 0.6-2.1 0.3-2.2-0.3-2.3-1.1-6.7-2.2-4.3-2.4-6-1.3-3.3-1.6-1.5-1.3 0.3-1.4 2.8-0.2 2.9 0.7 1.7-1.9 11.3-1.1 7.3-0.2-1.9-1.3-6.9 0.7-4.3-0.2-2.1 0.1-2.1 0.6-4.3 0.5-4.6-0.1-2.9-1-1.3-2 1.2-0.6 3.8 0.1 6.4-0.9 3-0.8 3.1-0.1-0.5-0.8 1.8-0.4 2.4-0.2 5.6 0.1 0.2-0.6-2.6-0.6-0.9-0.6 2.6-1.8-2.2 0.1-3 1.3-1.8 0.5-4.6 0.3-1.7-1.6 0.9-1.2-0.8-0.7-1.3 1.3-2.1 0.3-2-0.9-1.9 0.5 0.7 1-0.6 1 2 0.9-2.3 0.6-2.1 1.1-3.9 0.2-4.5 0.1-4.6-1.6-2.2-1.2-1.8-1.2-2.7-0.6-1.7-0.8-0.4-1.1-1.4-0.7-0.7-1.2h4.4l-1.7-1.8 0.5-1.6-3.4 0.1 0.4 0.9-2.2 1-1.2-0.2-2.3-1.9-2.4-2.4 0.4-1.3-1.2-1 1.5-0.7 2.5 0.9 0.8-0.7 3.8-0.4 4.6 1.1 0.4-1.1 4.2 0.5 3-0.6 5-0.3 2 0.4-1 1.1-6.3 0.3-4 1.3 5.7-0.2 1 0.1 0.6 1.1 3 0.5 2.3 1 0.8-0.5-0.6-2.2 4.4-2.3 2.1 0.4 2.1 0.9 4 3 2.3 1.9 6.1 2.8-0.7-1.5-4.2-4.5-0.9-1.7 0.9-1.7 1.1-0.5-0.4-1.3 1.3-0.5 2.4 0.3 2.6 1.3zm134.7-2.3-8 0.4-0.9-0.3 15.7-1.4 1.7 0.5-8.5 0.8zm-118.9-1.9-1.8 0.6-3.2-0.5 0.9-0.7 4.1 0.6zm18.6 0.5 5.6 0.1 1.5 0.9 5.5 1.1 0.8-1.5-0.6-2.2 1.9-0.1 1.7-0.6 3.1 0.3 0.2 1.3-0.5 1.4 2.1 0.1 2.8-0.3 1.9-1.1 2.4 0.1 1.3-0.6 1.4 0.6 8.2 0.7 3.3 0.6h5.2l3.7 0.2 2.8 1 1.1 1.7-0.9 0.4-6.7 2-1.6 0.7-2.4 2.3-4.1 0.7-3.5-0.3-3 0.7-1.9 1-1.5 0.2-9.2-0.4-2.2-1.1 1.2-0.9-8.2 0.3-9.2-0.1-1-0.5-5.6-0.5-4.2-1.1 1.1-0.5h5.8l-0.7-1.5-2.9-0.1-1.8 0.4-4.3 0.2-4-0.1-1.9-0.3-3.8-1-0.7-0.8 2.8-0.4 2.1-0.7-4.5-0.3-1.9-0.3-0.6-0.9 5.9-0.2 5 0.8-0.7-2.2 3.9 1.1 0.2-1.1-2-1.4 2-0.1 4.5 0.7 5.1 1.6z"
    name="Norway"></path>
  <path
    d="m666.8 348 0.6-0.6 2.3 0.7 4.5 2.2 1.1 0.9 0.8 3 2.1 5.1 2.9 4.9 1.7 3.6 0.9 3.9-0.6 1.6-4 1.7-0.8 0.5-2 2.7v1.2l3.3 1.3 1.8 1 0.8 1-0.2 2.4 0.4 1.1-0.8 1.5 0.1 1.3 1 1.6 1.2 1.8v1.3l2.7 2.8 1.9 2.8 1.4 1-1.2 1.3 1.8 2.6 0.1 1.3-1.2 1.8-3 0.5-4.8 4.6-2.4 2.7-3.4 4.4-0.6 1 1.5 3.8-0.1 1.8 1.9 1.4-0.4 0.9-3.3-0.7-0.9-0.2-5.7-1.9-0.8-1.4-1-0.7-3.1-1-3.6-0.3-3.2 0.2-1.4 1.5-1.8-0.1-2.4-1-3 0.1-2.3 1-1.1 2.1-1.7-0.6-1.4 0.4-0.6-2.7-1.4-0.4-3-3-2.2 1.3-1 1.7h-2.2l-0.5-1.5-1.3-0.2-0.5-1.6-2.8-2.2-0.5-1.8-2.7-0.8-0.5 0.2-3.5-1.8-1.8 1-1-0.6-2.7-2.3 1.4-0.5v-1.6l-3.6 0.7-3.3-1.9-2.2-0.6h-1.3l1.7 2.4-3.5 2.5-1-0.4-1.5-1.9-2-1.8-1.6-0.9 1.6-1.2 0.7-1.1-1.8-1.2-3.2 0.7-0.8-0.9-2.7-1.1-4.6-1.1-1-1.1-0.3-1.1-3.3-0.8 0.1 1.9-2.1 0.4 1.6-3.6 0.4-2.3-1.6-3.2-2.2-0.9v-1.6l-1.9-3.1 0.8-1.1 0.7-2.6-0.8-1.9-2-2.3 0.6-2.6-1.4-1.7-3.3-2.1-1.6-1.4 0.7-1.6 1.9-1.8 0.3-2.7-1.8-4.1-0.7-2.6 2.8 0.9 0.7-0.5-0.1-1.8-4.1-0.7-0.1-1.2 2 0.4 3.8-1.4 6.5-1.8 6.9-1.7 3.3-0.5 2-2.2 1.9-1.7 3.8-0.7 1.3-0.8 2.8-1.2 6.6-1.2 5.5-0.4 5.4 2.3-0.9 0.3-3-1.2 2.2 3.5 1.1 1.2 2 0.9 1.7 0.3 4.9-0.5 2.2-1.1 0.5 0.1 6.6 0.4 22.9 0.9 7 0.1z"
    name="Poland"></path>
  <path id="a"
    d="m306 611.9-1.2 0.2-4.5 2.5h-1.3l-2.5-1.1-4.5-0.4-1.5-0.3-1.8 0.7h-1.5l-1.1 1-0.8-0.3 1-2.1 1.6-4.1v-2.6l0.4-2.2-0.3-2.1-0.7-1.4 1.1-3.5v-1.8l-0.9-2.3 2.8 0.3-1.7-1.4h-1.5l-2.3 0.9-1.5 0.1 0.1-1.4-0.5-1.8 2-0.6 1.6-1.7-0.3-1.6-1.2 1.1-0.6 1.4-2.8 0.7-1.5-0.5v-1.9l0.6-1.7 0.4-2.3 0.8-2.2-0.2-1.4 1.6-1.3 1.4-1.9 4.3-8.9-0.6-1 1.7-6.6 1.2-2.3 0.6-4.3-0.2-2-0.7-2-0.7-4.3v-1.4l-0.9-1.8 0.1-1 1.4-1.7 1.2-1.1 1.9-0.9 4.1-1 1 1.8-1.3 1.9 0.9 1.3 3-1.1 2.9-0.1 2.2 0.8h1.4l2.5-0.9 0.8-1.4 1.5 0.5 5.2 0.1 0.7 1.1 0.1 3.1 1.9 0.2 1.9 0.9 0.3 1.1-2.5 2.5-2.1 1.1-1.6 1.4-1.1 1.6-2 1.6 0.8 2 0.4 3.5-0.4 3.8 0.4 1.1-2.7 2.1-0.2 1 1.4 1.3v1.9l-1.7 3.5-1 0.5h-4.3l-1.1 0.3 1.1 1.9 1.4 1.2 0.3 1.9 1.6 3.2 1.7 0.4 0.5 0.8-0.6 2.4-3.2 3-0.9 4 3 4.3 1.7-0.2-0.7 2.4-2.1 0.6-3.5 4.3-0.8 2.2 1.1 6.4z"
    name="Portugal"></path>
  <path
    d="m751.4 483.2 1.5 1.6 1.8 0.9 4 0.9 0.6-1.2 0.9 0.3 1.6-0.5 2.2-1.3 2.2-0.2 2.2 0.7 1.9 1.8-0.2 4.3-0.7 2.1-6.2 1.3 0.4-0.6-0.7-2-1-1-0.9 1.1 0.6 1.7-0.7 1.4-0.2 2.4 0.6 0.9-1.6 2-0.5 1.3 0.8 4.8-0.4 3.7h-2l-2.6-0.5-2.2-0.7-2.5-2.6-1.7 0.5-0.9-0.6-3.2-0.4-4.5-2.3-2.9 0.4-4.4 0.9-3.2 1.2-3.3 2.1-1.2 1.6-1.6 0.9-2.3 0.6-4.2-0.2-9.4-1.7-2.5 0.5-3.5-0.4-5.3-1-3.9-0.3-3.7 0.6-0.9-1.8 1.8-2-4.3-2.5-0.8-1.2-1.6-0.9-0.5-1.7 2.5-1.8-3-1.6-1.7 0.5-1.7 1.8-1.3 0.2-1-1.2-1.5-0.7-3.5-0.7-1.5-1.2-2.1-0.6 0.2-0.6 1.8-0.8-2.3-1.1 1.5-2-0.9-1.1-2.6-0.8-3.8-1.9-2.2-1.8-0.4-4.1-0.8 0.2-1.8-2-2.9-1.7-1.7-2 3.2-0.9 1.4 0.5 2.5-2 2.6 0.3 1.3-0.9 1.5-4.7 2.1-1.5-0.2-1.3 1.6-2.7v-1.2l1.4-1.5 0.7-2.5 1.4-1.4-0.1-1.7 1.2-1 1.9-2.4 4.6-1.1 2.2-2.3 2.1-0.9 0.9-1.2h0.7l2.7 1.5 2.7-0.1 6.9 1.4 3.6-0.7 1.2 0.3 4.3 3.3 2.1-0.5 1-1.2 3.4-1.3 8.4-1.2 1.1-1.9 0.2-1.4 3.7-0.8h2.1l2.5 1.6 2.5 3 3 4.9 1.5 1.3 2.5 3.2 2.1 1.8 1.3 1.7 3 2.1 1.4 2.9 1.4 2.3 0.5 2.9-0.9 4.8 0.1 2.6 1.4 5-0.9 0.7 2 2.3z"
    name="Romania"></path>
  <path
    d="m651.6 473.1 1.7 2 2.9 1.7 1.8 2 0.8-0.2 0.4 4.1 2.2 1.8 3.8 1.9 2.6 0.8 0.9 1.1-1.5 2 2.3 1.1-1.8 0.8-0.2 0.6 2.1 0.6 1.5 1.2 3.5 0.7 1.5 0.7 1 1.2 1.3-0.2 1.7-1.8 1.7-0.5 3 1.6-2.5 1.8 0.5 1.7 1.6 0.9 0.8 1.2-0.9 0.7-0.2 1.9-2.1 1-0.4 2.3 0.6 2.4 2.4 3.9 2.9 1.5 1.3 1.6 1.6 1-0.3 1.4-1.6 1.7-1.1 1.6-1.8 0.1-1.1 0.6v3.3l1.4 2.9-1.1 1.7-1 0.3-1.4-0.7-2.3 0.8-1.9-0.3-2 0.9-2.2 0.3-0.6-1.3 1-0.9 1.2-3.2 0.2-1.2-4.7-1.2v-1.3l-2.2-1.2-0.2-0.7-2.3-2.1-2.8-1.3-1.1-1.3-1.7 0.9 0.6 1.6-0.4 1-1.7 1.3v1.4l-1.5 0.5-0.1-1-5.3-2.9-2.1-0.5-3-1.6-1.9-2-2.6-1.7-0.4-1.2 0.7-0.8 2.5 0.3 0.2-2.2-3.2-3.7 0.5-0.8 3.1 0.1 0.3-0.8-3.3-2.9-2.4-1.2-0.5-0.8 0.1-2.6 1.6-2.7 0.5-2.5-1.5-0.8-2.8 0.7 1-1.6-0.7-2.6 1.7-0.4 2.3-0.1-0.9-1.5-3-1-1.2-1 0.4-2-1.3-0.4-0.2-1.6-1.6-2.7 0.7-1.5 2.1-1.3 1.6 0.5 2.2-1 1.5-1.6 1-0.3 2.9 0.4 1.1-0.2 2.8 0.3 1 0.5z"
    name="Serbia"></path>
  <path
    d="m674.8 427.7-1.5 3-0.8 2.9-1.6 1.7 0.1 2.5-4.3 1.1-0.6-0.2-2.2-2.2-1.4-0.9-4.6 0.7-2.5-0.6-2.7-0.1-1.8 0.4-1.6 3.5-5 2.5-3.5-1.4-0.7 0.2-1 1.5-2.4 0.6-4.3 0.4-1.4 0.7-0.4 1 0.5 1.3-0.6 1-7 0.4-4.7-0.1-1.6-0.7-4.2-2.7-2.1-0.3-2.3-2.9-1.6-2.9-0.1-0.8 0.9-2.4 1.1-2.8 1.4-1.2 3.6 0.5 1.7-0.2 1.5-0.7 2.1-1.9 1.6-0.8 0.7-3 2.3-1.2 0.6-0.8 2-1.5 2.8-0.3 1.3 0.2 0.5 1.5h2.2l1-1.7 2.2-1.3 3 3 1.4 0.4 0.6 2.7 1.4-0.4 1.7 0.6 1.1-2.1 2.3-1 3-0.1 2.4 1 1.8 0.1 1.4-1.5 3.2-0.2 3.6 0.3 3.1 1 1 0.7 0.8 1.4 5.7 1.9 0.9 0.2z"
    name="Slovakia"></path>
  <path
    d="m605.2 467.1-2.5-0.6-0.9 0.8v1.7h-2l-0.7 1-4.4 1.7-0.4 1.4 0.9 0.9 0.2 2.2-0.4 1.1-2.1 0.6-2.1 1 1 1.1-0.7 0.7 0.8 2.3-1.2 0.4-1.6-0.2-2-0.7-1.3 0.5-1.5-0.7-2.6-2.1-1.2 2.2-0.6 0.3-3.6 0.1-1.1-0.5-1.4 1.3-3.3-0.8-0.5-0.6 1.7-1.1 1.5-0.1-0.2-1.3-1.5-1.3-1.9-1.1 0.4-2-1.3-0.2-0.3-1 1.6-2.1-2.3-0.7-0.7-1.4 3.3-2.3 0.2-0.9 5 0.9 5 0.7 3-1.2 1-1.3 1.9-0.7 2.6-0.2 2.8 0.2 2.3-1.1 1.6-0.2 2.4 0.5 0.1-1.9 1.3-0.9 2.4 0.1 1.4 3.3 1.9 2.2z"
    name="Slovenia"></path>
  <path
    d="m591.1 319.4-1.5-0.3-0.3-3.8 2-4.6 1-0.3 2.7-6.5 0.5 2-1.5 3.2-0.3 2.2-0.6 0.5-2 7.6zm26.2-22.7-1.3 1.4-1.4 0.5 0.1 3.3 1.5 1.2-1.3 0.5-0.7 1.8-1.8 0.6-1.5 1.6-0.3 1.6-2.1 0.9 1.2-2.4-0.9-0.7-1.4-2.1 0.4-0.9-0.6-3.2 2.7-2.9 1.3-1.1 3.3-1h1.3l1.5 0.9zm36.8-113-2.7 0.3-2.2-0.6-1 0.3-3.8 0.3-1.1 0.7-2.1-0.7-2-1.2-2 1.1-1.6-1-1 1.9 0.1 1.8-1.8-0.2 0.3 1.1-2 1.5-3.2 0.2 0.7 1.5-0.9 0.7 1 1.7-1.3 1.5-2.1 1.9-0.5 1 1.7 1.1 1.6 2.5 1.6 1.1-0.4 1.2-2.1 1.1-2.2 1.7-2 4.3-3.1 1.3-2.4 1.6-3 0.7-2.4 2.2-1.8-0.8-1.5 0.5-1 1.8-1.9 1.5-2.4-0.2 0.2 0.8-2.3 0.3-1 4-2.2 0.6-0.7 0.8-0.9-0.6-2.1 0.1 1.6 2.8-1.7 1.8h-1.2l-1.5 0.7-1.9-0.8-0.2 1.2 0.8 1.3 1.3 1-0.1 1.3-0.9 4.3 0.7 1.8-2.1 1.2-0.8 1.1 0.6 1.7-0.1 1.1 0.7 1.9 0.8 4.2 1.1 2-0.1 1.6 1.3 0.9 2.1-0.1 1.4 1.6 3.1-0.8 0.8 1.1 2.9 2.2 1.7 0.3 1.9 1.2v1.5l2.9 1 1.9 2 0.8 1.6-0.1 1-2.6 1.5-1.3 1.3-3.8 2.1-0.6-0.1-2.1 1 2 0.6 1.4-0.7 2.6-0.6 1.4 1.2-2.2 0.5-0.3 1.6-0.8 1-2 0.7-2.8 1.5-4 1.4-1.1 1.2-2.6 1-1.3 0.8h-3.8l-3.7-0.1 1 0.9 0.9-0.2 3.6 0.4 1.7 1.3-3 0.9 1.7 3.2-0.7 0.8 0.4 3.5-1.1 0.1-0.3 1.4 0.6 2.5 1 2.1-0.1 1-1.5 2.4 0.9 2.9-1.5 5.3-1.9 3.1-1.3 4.1-1.8 1.4-2.4-0.9-3.4 0.5-3.2-0.3-3 0.2-0.8 0.4 0.7 1.4-2.3-0.2-1.7 1.1-2 2.1v1.5l1.9 3-1.7 2h-1.1l-3.2-0.5-5.5 1.2-5.1-1 0.5-1 0.2-3.1-0.6-1.7-1.3-1.1-3.1-3.8-1.2-2.3 2.4 0.9 1-0.5-1.8-2.6 2.2-0.1 0.7-1-0.6-1.5-1.9-0.6-1.9-2.4-1.8-1.2-3.5-4.7-1.3-3.2-1.1 0.3-1.2-3.7-1.7-0.6-0.6-3.7-1.8-0.4-1.3-1.7-0.4-3.2-1.2-0.6-0.8-1.4-0.8-3-0.3-2.7-0.9-1.8 0.5-1.2 1.1-0.2 1.1 0.8 1 1.8 1.9-0.2 0.7-1.4 0.6-3.9-1.6-4.4 1.5-1.5 0.9-2.4 2.6-0.7 1.3-0.8 1.9-2 0.1-2.8 0.6-2.1-0.5-1.4-3.1-4.9-0.3-1.6 1.8-0.6h2.4l1.3-2.5 0.4-1.9-3.4-2.7-1.2-0.4-3.8-2.1 0.9-6.4v-1.6l-2.5-4.4 0.1-1.8-0.6-2.8 1.1-1.1-2.7-4.1 2-2.8-0.5-1.5 1.2-1 3.5-3.8 3.3-1.5 3.3-0.4 7.1 0.9 1.7-2.2-0.1-1.2-1.1-2.9-4.7-1.6 4.4-5 3.3-5 0.1-4.7 0.6-2.7-1.4-3.9 3.8-0.4 2.4-0.5 3.3-1.5-1-2.5 1.3-0.9 3-2.9 3.3-2.9 1.5-1 0.2-1.4-1-1.3-2.7-2.3 0.5-1.1 2.7-0.6 1.1-1.1 1.5-3.5 3.7-1.9 1.5-0.9 6.3 1.8 2.1-3.1-0.8-3.6v-0.8l2.1-0.5 4.1 0.9 2.9 0.1 8.6 1.7 1 0.1 2.5-1.6-2.9-0.9 1.6-0.9 1.4-1.9-0.1-2-2.6-1.6 5.1-0.2 2.9 0.8 0.4 0.9 2.9 1.1 4.8 2.3 4.2 1.8 8.3 1.7 3.5 1.8 1.2 1.6 1.4 0.1 1.9 1.5 1.8 0.9-1.1 1 0.4 2.4 0.7 1.4-0.3 1.9 2.8 0.4 0.6 1.3-1 0.8-0.1 1.1 0.8 1.6 3.3 2.6 0.6 0.9-0.7 1.4 0.1 1.8-1.5 1.3v1.3l1.3 2.6 1.8 0.6 1.9 2.2 1.6 2.5z"
    name="Sweden"></path>
  <path
    d="m733.4 565.7-2.9 0.5-0.1-1.5 2.2-0.6 0.8 1.6zm194.5-21.5 4.3 1.3 1.1-1 3.6 0.1 3.4 0.8 0.9-1.9 1.4-0.4 1.4 0.3 0.6 1.1 1.2 0.4 3.5 2.5 1.1 1.7 1.9 0.2 1.3 1.2 1.3 1.6 1.7 1.2 1.7 3.3-0.2 2.3-1 1.4 0.8 1.9 1.9 3-0.5 0.6 1.8 0.9 2.9 0.9 3.5-0.4 1.6 0.7 2.3 1.7 3.2 2.8 0.8 0.9-3.3-1.9-1.4 1.6-0.1 3.8-0.6 0.4-2.8-0.1-1.2 0.4 1.2 2.5 1.4 1.2v2.3l2.1 2.5 0.2 2.1 0.9 2.2 0.3 2.2 0.5 0.7 1.4 0.3-0.6 3.8-0.6 1.2-0.4 2 1.7 0.6 3.2 2 0.1 1.3 0.6 1.5 0.3 2 3.2 2.3v2.3l-2.1-0.5-3.7 3.1-1.2-1.2-0.3-2.4-1.5-1.5-1.3-0.2-2.1 1.4-4.2-0.3-2.9-1.1-2.9-0.8-1.9 0.6-2.2-0.7-1.5 1.9-2 1.9-1.2 0.3-1.6-2.6-1.3-0.2-1.2 1.3-2.2 0.8-4.6 1-3.2 0.3-4.1-0.6-3.2 0.2-3.1 1.4-5.2 2.8-4.1 1.4-4.2 0.9-7.6-0.2-1.1-0.3-3.5-2.3-3.4-0.6-3.4 1.6-2.3 0.8-3.5 1.6-4.8-0.1-1.9-1.7-3.7-0.7-0.6 1.6-0.3 3.8 1.8 3.1-3.3 1.4v2.6l-1.8 1.1-0.8 1.6-2.2-1.2-1-0.1 0.7-1.3-2.5-4.9 0.7-1.5 3.5-3.9-0.4-2.4-2-1.6-2.9 2.1-1.7 0.8-0.3 1.2-1.1 0.8-1.8 0.4-2.9-1-3.2-1.4-1.9-1.1-1.4-0.3-1.3 0.5-3.5 2.8-3.1 4.1-0.8 0.8-3.2 1.7-2.2 0.6-1-0.1-4.4 0.8-2.2 0.1-1.6 0.9-3.5-1-2.2-1.3-1.4-1.3-2.3-2.9-1.6-1.3-3.3-1.2-5.8-3-5.3-0.7-4-0.3-0.7 1.1 0.1 4.2-0.5 1.2-0.1 2.2-1.1 1.1-2.1-1-1.9 0.9-3.7 1.3-1.2 0.1-4.6-1.6-2.9-2.1-0.6-2-1.3-2.7-1.8 0.3-2.3-0.4-3.2-1.6-2.4-0.1-1.2 1.9-1 0.7-1.3-0.4 0.8-1.3-3.7 0.2-1.8 1-1.5-0.1-1-1 2-0.6 3.9-0.4 0.9-0.4 0.9-1.3 1.7-1.2-1.2-0.5-6 0.3-4.2-0.2-1 0.7-0.4-1.6 3.6-1.4-0.3-1.3-4.2-2.2-0.3-1.6-2-3.1 1.9-0.5 0.1-2.5-0.4-1.5-3.9-1.3-0.8 0.1-1.1-1.3-1.7-0.9-1.2 0.7-3.3-1.4-0.6-0.6 0.5-1.4 1-1.1-0.9-1.9-0.1-1 1.8-0.1 1 1.1 0.3 2.2 3.6 0.7 2.9-0.6-2.5-1.1-1.1-1.2-1.2-2.3 1.8-1.1 1.2-1.7-2.7-1.2 0.2-2.4-2.5-2.7 0.3-0.8 2.3-2.8-1.2-0.7-4.3 0.7-1.6 0.6-3.1 0.2-0.3-1.6 0.6-1.3-0.5-3.4 0.2-1.8 1.7-0.6 1.7-2.7 3-3.1h3.5l1.3-0.9h2.1l0.8 1.2 1.9 0.9 3.2-0.1 1.4-0.9-1.6-1.5 1.7-0.5 1.5 0.4-0.1 1.8 4.1-0.5 4.4 0.4 1.4-0.2h3.4l0.5-0.5-3.6-1.7 2-1.5 6.8-1.2 3.7-0.8-5.7-0.8-1.4-0.6-2-1.4-1-1.1 0.3-2.6 0.6-0.7 2.2-0.1 7.7 1.2 5.3-0.8 6.1 1.8 5.6-0.4 1.1-0.7 1.1-2.6 7.4-4.2 2.4-2.1 2.8-1.2 5-1.4 4-1.7 1.2-0.2 10.4 0.8 7 0.1 3-1.6 2 0.5-0.1 2.1 2.6 2.6 3.5 1.4 4.4-1.2 1.8 0.5 2.2 4 1.5 1.4 1.8 0.9 1.3 0.2 1.5-1.4 1.7-0.1 2.9 1.3 1.2 1.4 4.8 1.1 4.3 0.6 2 1.2 6.2 1.2 2.2-0.2 3.6-1.3 7-1.3 5.2 1.9 2.5 0.1 1.7 0.5 1.7-0.3 5-2.3 1.4-1.2 1.7-0.4 5.2-3.3 0.9-1.4zm-171.9-7.1-0.1 1.8 1 2 2.3 2.7 2 1.4 8.1 3.3 1.4 0.3-0.9 3.5-2.1 0.5-6.4-1.5-1.6-0.1-2.9 1.4-2.3-0.4-3.1 0.6-0.6 2.1-2 2.4-3.3 1.9-2.5 1-3.5 3.7-1.5 2.2-1.5 0.7 0.5-2-0.3-1.7 2.3-2 3.3-1.6 0.7-1.3-5.4 0.3h-3.3l-1-1.8 0.8-0.4 2.5-3.2-0.5-4.4 3.4-2.5-0.9-3.1-2.3-1.5-1.2-0.3 0.3-1.4 1.9-0.3 1-2.2 3.4-0.4 1.5-1.1 3.5-0.3 3.4 2.5 1.5-0.6h1.8l0.9-0.4 1.7 0.2z"
    name="Turkey"></path>
  <path
    d="m796.7 471.6v0.6l-3.9-0.8-0.9-0.9 4.8 1.1zm-26.4 14.6-1.9-1.8-2.2-0.7-2.2 0.2-2.2 1.3-1.6 0.5-0.9-0.3-0.6 1.2-4-0.9-1.8-0.9-1.5-1.6 1.1-0.7 2-0.2 0.4-1-0.5-1.4 2.5-2.9v-1.3l2.3-1.7 0.4-2-1-1.7-0.5-2.1 2.5-1.6 2.1 1 1.9 0.2 2.1 0.8 1.6-0.6 1.2 1.3 2.9-0.4 0.6-0.7-2.9-1.7-0.2-2.9-1-1.6-2.1-0.8-2-1.3-0.9-1.9v-2.4l-2.9-2-2.3-1.2-0.6-1.2 0.6-3.1-0.6-2.3-1.4-1.4-1.4 0.7-1.4-1-1.4-1.9-5.6-0.6-0.6-1.2-2.5-0.3-3.6-2.4-3.5-1-1.6 1-0.8-0.3-1.2 1-4-0.1-0.7-0.2-2.3 1.4-0.2 0.6-3.7 0.8-0.2 1.4-1.1 1.9-8.4 1.2-3.4 1.3-1 1.2-2.1 0.5-4.3-3.3-1.2-0.3-3.6 0.7-6.9-1.4-2.7 0.1-2.7-1.5h-0.7l-0.9 1.2-2.1 0.9-0.7-1.7-0.9-0.7-2.3-0.4-0.9-1.1-2.2-0.8-1.4-2.3h-1.5l-0.1-2.5 1.6-1.7 0.8-2.9 1.5-3 3.3 0.7 0.4-0.9-1.9-1.4 0.1-1.8-1.5-3.8 0.6-1 3.4-4.4 2.4-2.7 4.8-4.6 3-0.5 1.2-1.8-0.1-1.3-1.8-2.6 1.2-1.3-1.4-1-1.9-2.8-2.7-2.8v-1.3l-1.2-1.8-0.1-1.4 1.1-0.5 1.9 0.3 1.1 0.5 1.9-1.2 1.6-1.6 0.8-1.4 5.9-0.5 2.3-0.5 2.4-0.1 7.8 0.4 6.5 1.5 6.1 0.9h2.3l1.8 2.1 1 0.3 3-0.1 1.1 0.4 0.8 1.4 1.2-1.7 1.9 0.5 1.9-0.7 5.1 1 0.8 1.3 1 0.3 0.6-1.1 3.8-1.6 2.5 3 0.6 0.5 2.3-0.8 7.1-0.6 2 1.1 0.5 1.2 2.7 0.9 0.8-1.4-1.8-3.6 1-3.3 0.8-1.2 2.2-2.3 1.1-0.5 1.7 0.4 1.4-0.8 5 0.1 2.6 0.8 1.7-0.1 1.8-0.9 0.5-2.4 1.6-0.6 3.7 0.9 1-0.1 2.7-1.2 1.6-0.2 2 0.3 3.4-0.2 2.5 1.4 1.4 1.4 1.7 2.7 4 3-0.1 1-2.9 0.5 1.3 1.9 0.5 2 1.2 1.7-0.4 1 3.1 0.1 2.9 1 4.1-0.5 1.5 2.2 1.9 0.2 0.2 0.9 1.4 2.8 0.9 1.1-0.2 1.8 0.5 1 1.9 1.6 0.7 1 1.1 0.4 2.3-1.4 2.8 0.4 2.7 2h2.3l1.7 1.1 1.4-1.3 4.3-0.9 2.3-1 1 0.1 2.3 1.8 0.5 1.2 1.5 1.6 4.7 2.9 1.3-0.6 0.9-1.5 2.6 1.4 2.4 0.2 3.6 1.9 1.4 0.1 1.6-0.6 2 1.8 1.9 0.2 4.4 2.3 2.9-0.3 1 0.8-0.1 1.7 1 0.9-0.1 2.6-1.7 2.1-2.3 0.8 1.1 1.5 3.1 0.9-0.9 0.9-1.4-0.2-0.8 1-0.3 2.3 2.5 0.7 1.2 2.8v1.1l1.2 0.3-1.3 4.7-0.1 1.8-4.2 0.2-6-0.3-0.9 0.2-0.9 1.9-2.3 1.4-1.7 0.2-0.8 0.8v2.3l-0.4 1.3 1.1 0.7-0.7 1.6 0.5 1.3-0.5 0.1-4.3-0.2-3.4 0.3-2.1 2.4h-1.5l-3.2 1.5-1.4 1.7-1.4-0.8-3.1 0.5-1.7 1.1-3.1-0.1-2.3 0.6-4.6 3.8-1.3 0.1-1-1-1.6 2.6-2.4 1.2 0.6 3.1 2.8 4.5 3.6 3.9 1.7 1.4 2.4 0.7 3.1-1.4 2.4 0.4 1.7-1.2 1.5-0.1 3.7 1-1.1 2.5-0.3 2.6-1.9 0.6-2.2-0.1-2.2 0.4-2.7-1.5h-2.5l-1.1 1.9-2.3 1.3-0.6 1.4-2.6-0.3-2.1 0.2-2.8 1.4-1.9 2.8-2.3 1.8-1.9 0.5-2-0.1-1.3-0.6-2.9-1.8 0.7-2 0.5-3.5-1.2-2.9-2.3-1.4-1.6 0.2-0.9-0.3-3.7-2.4-1.9-0.2-1.9 0.5-1.5-1.2 3.5-2.9 3.5-2.4 1.7-0.2 2.1-1.2 2.2-1.6-1.3-2.3-1.9 0.6-2.2-1.1-0.9-0.8-3.1 0.8-1.8-0.1-3.8 0.8-1.9-0.8-4-2-2.6-0.3v-1l1.8-0.3 0.1-1-3.8-0.6-0.1-1.3 2 0.5 3.2 0.2 2.9 0.5 2.1-1.8-2.4 0.5-2.9-0.5-2.1-1.8-2.2 1.2-3.2-0.5-2.4 0.8-2.3-0.2-4.1 1.1-0.4 2.9-2 4-3.1 3.7-4.6 2.1-1.7-0.4-0.9 1.1 0.2 1.3 1 0.9 1.1 3.1-0.1 1.3z"
    name="Ukraine"></path>
  <path
    d="m674 532.8-2.1 0.4-1.5 1.9-1.6-1.2-1 0.1-3.4 1.5-0.2 2.6-0.5 0.8-1.7-0.3-0.1-2.2-1.4-3.2-1.9-1.3-1.4-0.5-2-2.9-0.5-0.4 0.2-1.3-0.9-1.5 2-0.4 0.2-0.7 1.6-0.4 1.5-0.5v-1.4l1.7-1.3 0.4-1-0.6-1.6 1.7-0.9 1.1 1.3 2.8 1.3 2.3 2.1 0.2 0.7 2.2 1.2v1.3l4.7 1.2-0.2 1.2-1.2 3.2-1 0.9 0.6 1.3z"
    name="Kosovo"></path>
  <path
    d="m452.2 392.5-0.6 1.2-3.2 1.5-3.9-1.1-1.2 0.6-1.2-0.7-0.3-1.3 2.8-0.4 3.5 0.7 1.5-0.6 1.2 0.5 1.4-0.4zm-3.4-5.3 1.5 1.4-1.5 0.3-1.6-1 1.6-0.7zm18.1-8.5-3-0.4-0.9-0.7 2.4-1.7 3.2-1.5 1.7 0.4 0.5 0.9-1.1 1.1-2.8 1.9zm-7.6-11.5-1.1 1.1-0.6-1.4 1.7-1.4v1.7zm-7.1 25.3-2.6-0.8-2.2 0.5-2.8-0.7-1.7-1.3 1.2-0.7 2.3-0.1 4 0.7 1.2-0.9-0.6-1-2.3-2.1 1.6-2.7 1.4-1 3.2-3.8 0.9-2 1.2-5.5 1-2 1.4 0.5 2-0.8 3.4-2 1-1.7 1-0.9 4-1.6 2.1-0.4 8.9-0.5 1.8 1.7 2.7 0.6 0.1 4.3-0.7 1.7-1.1 3.8-3.1-0.1-0.6 1.6 0.7 1 2.6 0.3 0.8 1-0.6 2.6-2.6 1.6-0.3 0.9 1 0.9-0.7 1-4.5 1.3-2.3-0.8-1.8 0.7-0.7 1.1 3.1 4.1v1.2l-1.3 2.8 0.7 1.2-2.2 1.6-0.5 0.8 1.9 1.2-0.6 2.4-1.2-0.1-2.4-0.3-0.7-1.1 1.1-1.3 1-2.9-2.6-1.1-1.7-1.3-1.9 0.4-2.6-1.4-0.5-1.6-2.5 0.8-1.1-1.3-1.5 1-1.5-0.8-1.4 0.7 0.2 0.9-2.1-0.3zm18.1-15.6 0.9-0.9-0.5-1.9-2.1-0.3-0.5-0.8 0.4-2.5-2.8-0.4-0.4-2.5-1.5 0.3-2.3 1.5 0.6 1.3 1.6 1.6v0.9l-2.1 0.7 0.1 2.6-0.2 1.6 5.4 1.4 3.4-2.6z"
    name="Netherlands"></path>
  <path
    d="m420.4 584.7-0.4 1-2-0.4v-1.5l1.2-1.6 2.7-0.7 0.8 1.3-2.3 1.9zm21.7-13.6 1.2 0.5 1.3-0.5 1.4 0.4 0.2 1-2.2 3.5-0.6 1.4-2.1 1.3-4-1.7-0.3-1.6-1.4-0.7-1.7 1.3-1.4-1-0.3-1.2 5.3-3.7 1.5-0.9 3.2-0.9 0.5 1.2-0.6 1.6zm14.7-0.8-0.3 0.2-3.9-1.9-1.6-0.4 0.1-1.4 2.6-0.2 2.1 0.7 1.2 1.8-0.2 1.2zm-77.4-55.5 0.5 1.3 4.3 1.3-0.3 3.2 1.8-0.4 4.4 1.7 2.2 0.2 2.2 2.1 3.6-0.4 3.2 2.1 3.1-0.4 0.7 0.4h4.7l0.8-2.4 4 1.1 2.5 1 1.7 0.3 1.1 1.5v2.1l0.7 0.4 2.8-1.1 2.8 1.2 1.3 1.2 2.1-1.1 4.7 1.2 1.2-0.8 3.8-1.1 3.1 0.6 1.2 2.2-1.8 0.5-0.2 1.4 1.2 1.3 0.1 2.1-3 2.8-8.7 4.7-2.9 2.7-6.6 1.5-4.5 1.5-2.2 0.5-4.1 3.8 1.1 0.3 1.2 1.2-0.4 0.6-2.5 1.1h-0.9l-2.9 4.6-2.6 3.3-1.5 1.5-1.5 2.1-3.2 5.6-0.1 1.6 1.6 5.5 2.2 2.7 2.4 1.1 0.6 1-0.8 1-2.4 1.7-4.3 2.3-1.8 1.9-0.3 1.8-1.3 0.8-0.5 2.5-1.8 4.4 1.3 1.2-1.3 0.8-6.5 0.3-4.1 2.8-2 2.4-1.9 4.5-2.2 2.6-1 0.5-1.5-1.2-1.9-0.1-1.9 0.3-1 1-1.5 0.5-1.5-0.5-4.6-0.2-2.3 0.8-1.9-0.5-3.2-0.3-7 0.6-4 3.4h-3.4l-3.1 1.2-2.1 3-0.5 1.6-1-0.3-0.3 1.2-2.1 0.8-2.4-1-2-1.5-1-0.1-1.6-2.2-1.2-3.1v-1.1l-1.5-0.6-0.3-1.4 0.2-1.6-1.2-2-5-3.7-3.7-0.3-3 0.5-1.1-6.4 0.8-2.2 3.5-4.3 2.1-0.6 0.7-2.4-1.7 0.2-3-4.3 0.9-4 3.2-3 0.6-2.4-0.5-0.8-1.7-0.4-1.6-3.2-0.3-1.9-1.4-1.2-1.1-1.9 1.1-0.3h4.3l1-0.5 1.7-3.5v-1.9l-1.4-1.3 0.2-1 2.7-2.1-0.4-1.1 0.4-3.8-0.4-3.5-0.8-2 2-1.6 1.1-1.6 1.6-1.4 2.1-1.1 2.5-2.5-0.3-1.1-1.9-0.9-1.9-0.2-0.1-3.1-0.7-1.1-5.2-0.1-1.5-0.5-0.8 1.4-2.5 0.9h-1.4l-2.2-0.8-2.9 0.1-3 1.1-0.9-1.3 1.3-1.9-1-1.8-4.1 1-1.9 0.9-1.2 1.1-1.3-0.1v-2.5l2.6-2.6-1.6-0.2 1.2-1.9-1-1 0.1-2.6-2.3 0.9-0.5-1.2 1.4-2.2-1.4-0.2-2.3-2.5 0.8-3.1 2-1 1.9-1.5 2.6 0.3 1.7-0.3 3.6-1.6-0.4-1.5 0.4-0.7 3.2-1.7 2-0.2 1.9-0.9 1.3 0.5 1.1-0.1 1.3 0.6 1.7 1.6 2.5 0.6 2-0.5 3.6-0.1 1.7 0.2 3.2-0.3 1.8 0.1 2.9-0.8 2.3 1 4.4 0.4 2.6 0.8 7.2 1.4h2.7l3.7-0.8 1.6-0.5 1.5 0.3 2.1-0.6 2.3 1 4.7 1.3 2.1-1.3 3.4 0.6 3.3 1.3 1.8 0.1 2.6-0.3 2.5-1z"
    name="Spain"></path>
  <path
    d="m521.2 524.1-0.3 2.3 1 1.7 0.6 6.5-1.8 3.2 0.1 3-1.6 4.3-0.8 1.1-3.8-2-1.2-1.1 1-1.8-2.2-0.9 0.4-1.7-0.2-0.9-1.6-0.5 1-1.3v-0.8l-1.5-1-0.3-0.9 1.3-1.1-0.6-0.9 0.1-1.3 0.9-1.9 1.2-0.9 2.8-0.8 1.2-1.1 1.9 0.6 0.6-1.2-0.2-2.7 0.3-1.1 1.3 0.5 0.4 2.7zm-133.9-47.9-0.4 1.4-1.9-2.4 1-0.5 1.3 1.5zm84.4-55.6 2.1 1.2h1.4l2-0.6 1.3 0.7 1.4 0.1 3.5 4.3 1.8-0.7 1.4 0.4 0.3 0.9 2.1 0.1 3-0.6 2 1.4 4.8 0.8 1.6 0.6 0.1 1.3-3.5 3.8-1.4 5.5-1 1.8-0.3 1.5 0.2 2.4-0.6 2v1.5l1.1 1.3-1.5 0.7-0.8 1.4-2.7 0.3-0.8-0.8h-1.1l-1.8 1.4 1.3 1.1-0.6 0.9-3.8 4-2.1 0.9-0.5 2.9-3 2.2-1.1 2.9 0.8 0.7-0.3 1.5-1.5 1v1l1.4 0.1 2.3-1.6-0.5-1.3 2.3-1.5 1.9-0.1 2.2 0.3 0.8 2.2-0.5 1.7 2.3 2.3 0.9 1.4-2.6 1.7 0.1 1.6 0.9 0.6 1.7 2.6 1.8 1.6-0.8 2.5-1.2 0.3-1.7 1.3-1.9-0.2-0.8 0.4 1.5 3.1 3.2 1.4 0.5 1.7-0.8 0.7-1.4 2.5 0.7 1.3 0.1 1.4 0.9 0.9 5.1 2.4 3.3-0.6 0.3 2-2.1 2.6 0.2 1.5-0.6 0.3-0.8 0.3-2.4 1.1-3.9 3.4-1.8 1-0.7 1.8-2 1.4-2.4 0.5-2.3 1-1.1-0.4h-2.8l-1.7-1.2-3.4-0.8-1.1-1.8-2.5-0.1-0.8-1.5-1.9 0.3-1.5 0.7-2-0.1-5.9-1.8-1.4-1.4-1.7 0.5-1.6 1.6-6.5 4.1-2.6 4.3-0.1 1.2 0.7 3.9 1.6 2.5-3.1-0.6-3.8 1.1-1.2 0.8-4.7-1.2-2.1 1.1-1.3-1.2-2.8-1.2v-1.5l-2.6-0.6-0.9 0.7-1.1-1.5-1.7-0.3-2.5-1-4-1.1-0.8 2.4h-4.7l-0.7-0.4-3.1 0.4-3.2-2.1-3.6 0.4-2.2-2.1-2.2-0.2-4.4-1.7-1.8 0.4 0.3-3.2-4.3-1.3-0.5-1.3 2-0.5 1.9-1.9 1.7-7.1 1.3-8.3 1-1.6 1.2-0.4-1-1.2-1.1 1.5 0.7-7.6 0.5-2.8 0.9-3 3.1 2.4 0.8 1 0.9 3.4 0.6 0.1-1.1-4.6-1.8-2.3-3.6-2.3-0.5-1.3 1.8-0.6-0.5-1.8-0.5-5.9-3-0.6-4.8-2.6-1.7-2.6-1.6-1.9-0.4-1.7 0.9-1.8-0.8-1.1-1.4-0.8 1.1-1.6-3-0.2-1.8-0.5-0.3-1.1 1.3-1.4-1.6-0.8-2.6 0.2-0.2-1.7-2.2 0.3-1.2-0.3-1.1-1.1-1.3 0.2-2.2-0.4-0.8-0.7-4.8-1.3-2-0.1-1.9 0.6-1.1-0.3-1.3-2.2-3.1-1.1 0.6-0.7 3.1-0.6 0.6-0.7-2.2-0.9-0.2-1.2 1.6 0.3 0.1-1.2-4 0.1-0.4-1.3 0.5-1.4 2.3-1.2 5.8-1.4 2.5 0.2 1.7-0.2 3-1.6 2.9-0.4 2.7 0.8 2.5 2.8 1.2 1 3.1-1.7 4.4 0.1 0.9 0.9 1.2-1.7 1 1 4.7-0.2-1.5-2.5-0.2-6-1.3-1.7-2.1-4.3 0.2-1.4 3.2 0.3 2.7-0.6 1.3 0.4 0.3 2.8 1.1 1.6h2.2l2.3 0.5 3 0.1 4.3 0.8 1.8-0.5 3.5-2-1.8-0.7-0.2-0.7 0.9-2.2 5.2-2.5 3.7-0.7 3.8-1.3 2-1.4 1.2-1.8 0.5-1.3 0.3-6.8 1-2.2 2.9-1.6 6.4-1.1 0.9-0.5 0.9 2.2v1.2l2.9 2.4 3.2-1 1.6 1.8 0.5 2 4.2 1.1 0.6 2 0.9-0.3 3.6 0.4 1.6 1.1-0.4 1.6 0.7 0.7-0.7 1.4 0.5 0.6 2.3 0.3 2.2-0.3 1.3-0.6 0.5-1.4 1.9-0.6-0.8 2.7 0.6 0.6 0.4 2 1.7 0.1 3.3 1.5 2.8 2.6 3.4-0.4z"
    name="France"></path>
  <path
    d="m306 611.9-1.2 0.2-4.5 2.5h-1.3l-2.5-1.1-4.5-0.4-1.5-0.3-1.8 0.7h-1.5l-1.1 1-0.8-0.3 1-2.1 1.6-4.1v-2.6l0.4-2.2-0.3-2.1-0.7-1.4 1.1-3.5v-1.8l-0.9-2.3 2.8 0.3-1.7-1.4h-1.5l-2.3 0.9-1.5 0.1 0.1-1.4-0.5-1.8 2-0.6 1.6-1.7-0.3-1.6-1.2 1.1-0.6 1.4-2.8 0.7-1.5-0.5v-1.9l0.6-1.7 0.4-2.3 0.8-2.2-0.2-1.4 1.6-1.3 1.4-1.9 4.3-8.9-0.6-1 1.7-6.6 1.2-2.3 0.6-4.3-0.2-2-0.7-2-0.7-4.3v-1.4l-0.9-1.8 0.1-1 1.4-1.7 1.2-1.1 1.9-0.9 4.1-1 1 1.8-1.3 1.9 0.9 1.3 3-1.1 2.9-0.1 2.2 0.8h1.4l2.5-0.9 0.8-1.4 1.5 0.5 5.2 0.1 0.7 1.1 0.1 3.1 1.9 0.2 1.9 0.9 0.3 1.1-2.5 2.5-2.1 1.1-1.6 1.4-1.1 1.6-2 1.6 0.8 2 0.4 3.5-0.4 3.8 0.4 1.1-2.7 2.1-0.2 1 1.4 1.3v1.9l-1.7 3.5-1 0.5h-4.3l-1.1 0.3 1.1 1.9 1.4 1.2 0.3 1.9 1.6 3.2 1.7 0.4 0.5 0.8-0.6 2.4-3.2 3-0.9 4 3 4.3 1.7-0.2-0.7 2.4-2.1 0.6-3.5 4.3-0.8 2.2 1.1 6.4z"
    name="Portugal"></path>
  <path
    d="m843.2 646.3h-0.1-0.1l0.1-0.1 0.1 0.1zm0 0h0.1 0.1l0.1 0.1h-0.1-0.1-0.1v-0.1zm-0.4-0.3h-0.1v-0.1h0.1v-0.1l0.1 0.1v0.1h-0.1zm3.5-0.8 0.2 0.1 0.3 0.3 0.2 0.4 0.1 0.3 0.2 0.2 0.2 0.1h-0.2-0.3l-0.3-0.1-0.2-0.2h-0.2l-0.7 0.1-0.6 0.1-0.2 0.2h-0.3-0.3l-0.1-0.1 0.2-0.1h0.1l-0.1-0.3h-0.2l-0.2-0.1v-0.4l-0.1-0.1-0.3-0.1v-0.2l0.1-0.1 0.2-0.1 0.2 0.2 0.2-0.1 0.3-0.3 0.2 0.2 0.2 0.1h0.1l0.2 0.1h0.1l0.3-0.1h0.2l0.1 0.1h0.2 0.1 0.1v-0.1zm-4 1.1v0.2l-0.3 0.1-0.3 0.3v0.2l-0.1 0.3v0.3 0.3 0.3 0.1h-0.1l-0.1 0.1v0.3l-0.1 0.1h-0.2-0.4l-0.2 0.1-0.1 0.1-0.1 0.2-0.1 0.1-0.2 0.1-0.4 0.1-0.4 0.2-0.3 0.1-0.2-0.3 0.1 0.5-0.4 0.2-0.9 0.2-0.2 0.1-0.1 0.1-0.2 0.1h-0.2l-0.9-0.1-1 0.1-0.1 0.1-0.2 0.1-0.6 0.5-0.1 0.3h-0.3l-0.3 0.1v0.1l-0.1-0.1-0.1-0.2 0.1-0.2 0.1 0.1h0.3l-0.1-0.4-0.4-0.1-0.3 0.3-0.2-0.1v0.1l-0.4-0.1-0.3-0.2-0.1-0.1v-0.2h-0.1-0.1-0.1-0.1l-0.1 0.1v0.1h-0.2l-0.1 0.2h-0.2-0.2l-0.1 0.1 0.1 0.2-0.2 0.1h-0.5l-0.6-0.1-0.5-0.2-0.7-0.4-0.6-0.2h-0.5l-0.3-0.1-0.2-0.2-0.6-0.4-0.1-0.1-0.1-0.4v-0.1l-0.1-0.1-0.4-0.9-0.1-0.1-0.3-0.2-0.2-0.1-0.1-0.1-0.1-0.2v-0.2l0.1-0.2-0.3-0.4-0.1-0.2v-0.4l-0.1-0.2-0.3-0.5-0.2-0.3-0.1-0.4 0.1-0.3h0.1l0.3 0.1 0.4 0.5 0.3 0.1 0.2 0.1h0.6l0.4-0.2 0.6-0.8 0.1-0.5 0.1-0.3 0.2-0.1 0.1-0.1v-0.1h0.1l0.1 0.1h0.1 0.2l0.3 0.3h0.2 0.1l0.2-0.2 0.1-0.2v-0.2l0.4 0.1 0.4 0.8 0.2 0.1 0.4 0.1 0.3 0.1 0.2 0.2 0.2 0.1 0.1 0.2v0.2l0.2 0.2h0.1l0.4-0.1 0.2-0.4 0.1-0.1 0.2 0.2 0.2 0.1h0.2l0.2-0.1 0.4-0.4 0.2-0.1 0.3-0.2 0.1-0.2h0.2l0.3 0.1h0.3 0.4l0.1-0.1h0.1l0.1-0.2 0.3-0.2h0.2l0.2 0.1 0.1 0.1h0.2 0.1l0.4 0.4 0.2 0.1 0.3 0.1h0.1l0.1-0.1v-0.1l0.1-0.2 0.3-0.3h0.1 0.2 0.3 0.2 0.1v0.2l0.1 0.2 0.5 0.5v0.1l0.1 0.3v0.2 0.3 0.4l-0.1 0.3 0.1 0.2 0.1 0.1h0.2 0.2v-0.3-0.4l0.3-0.3 0.1 0.1 0.1 0.4 0.1 0.2 0.1 0.1 0.3-0.1v-0.2l0.1-0.1h0.2l0.1 0.1h0.2l0.1-0.1 0.1 0.1h0.1l0.3 0.2h0.2 0.1l0.3 0.2z"
    name="Cyprus"></path>
</svg>
