<?xml version="1.0" encoding="UTF-8" standalone="no"?>
<svg
   xmlns:dc="http://purl.org/dc/elements/1.1/"
   xmlns:cc="http://creativecommons.org/ns#"
   xmlns:rdf="http://www.w3.org/1999/02/22-rdf-syntax-ns#"
   xmlns:svg="http://www.w3.org/2000/svg"
   xmlns="http://www.w3.org/2000/svg"
   xmlns:sodipodi="http://sodipodi.sourceforge.net/DTD/sodipodi-0.dtd"
   xmlns:inkscape="http://www.inkscape.org/namespaces/inkscape"
   width="460"
   height="180"
   viewBox="0 0 460 180"
   version="1.1"
   id="svg2313"
   sodipodi:docname="logo-alde-color.svg"
   inkscape:version="0.92.3 (2405546, 2018-03-11)">
  <metadata
     id="metadata2317">
    <rdf:RDF>
      <cc:Work
         rdf:about="">
        <dc:format>image/svg+xml</dc:format>
        <dc:type
           rdf:resource="http://purl.org/dc/dcmitype/StillImage" />
        <dc:title></dc:title>
      </cc:Work>
    </rdf:RDF>
  </metadata>
  <sodipodi:namedview
     pagecolor="#ffffff"
     bordercolor="#666666"
     borderopacity="1"
     objecttolerance="10"
     gridtolerance="10"
     guidetolerance="10"
     inkscape:pageopacity="0"
     inkscape:pageshadow="2"
     inkscape:window-width="1920"
     inkscape:window-height="991"
     id="namedview2315"
     showgrid="false"
     inkscape:snap-page="true"
     fit-margin-top="0"
     fit-margin-left="0"
     fit-margin-right="0"
     fit-margin-bottom="0"
     inkscape:zoom="1.7881945"
     inkscape:cx="249.37462"
     inkscape:cy="65.323861"
     inkscape:window-x="-10"
     inkscape:window-y="-10"
     inkscape:window-maximized="1"
     inkscape:current-layer="svg2313" />
  <defs
     id="defs2281">
    <linearGradient
       id="prefix__a"
       x1="0"
       x2="20.676073"
       y1="587.96222"
       y2="587.96222"
       gradientTransform="scale(10.882144,0.09189366)"
       gradientUnits="userSpaceOnUse">
      <stop
         offset="0%"
         stop-color="#2B4288"
         stop-opacity="0"
         id="stop2272" />
      <stop
         offset="15.576%"
         stop-color="#2B4288"
         id="stop2274" />
      <stop
         offset="83.695%"
         stop-color="#2B4288"
         id="stop2276" />
      <stop
         offset="100%"
         stop-color="#2B4288"
         stop-opacity="0"
         id="stop2278" />
    </linearGradient>
  </defs>
  <g
     id="g2311"
     transform="matrix(2,0,0,2,5,13)"
     style="fill:none;fill-rule:evenodd">
    <g
       id="g2297">
      <path
         d="m 85.87,54.823 h 14.374 V 0 H 85.87 Z"
         transform="translate(0,0.071)"
         id="path2283"
         inkscape:connector-curvature="0"
         style="fill:#d8127d" />
      <path
         d="M 90.902,54.323 H 85.87 V 22.027 c 3.035,2.743 4.913,6.813 4.913,12.55 v 15.49 c 0,1.42 0.031,2.838 0.118,4.256"
         transform="translate(0,0.071)"
         id="path2285"
         inkscape:connector-curvature="0"
         style="fill:#342d78" />
      <path
         d="m 147.104,35.135 c 0.32,-4.79 2.795,-8.703 7.986,-8.703 5.75,0 7.985,3.912 7.985,8.703 h -15.971 m 7.906,-17.808 c -12.936,0 -22.279,7.985 -22.279,21.721 0,6.703 2.497,12.052 6.644,15.775 h 32.803 V 48.07 c -4.312,2.315 -8.783,3.194 -12.696,3.194 -7.027,0 -11.419,-2.237 -12.217,-7.985 h 28.747 v -2.636 c 0,-12.376 -5.59,-23.317 -21.002,-23.317"
         transform="translate(0,0.071)"
         id="path2287"
         inkscape:connector-curvature="0"
         style="fill:#2b4288" />
      <path
         d="m 100.244,54.323 h -0.06 c -3.272,-4.102 -4.972,-9.779 -4.972,-15.994 0,-5.352 1.733,-10.855 5.032,-14.886 v 30.88"
         transform="translate(0,0.071)"
         id="path2289"
         inkscape:connector-curvature="0"
         style="fill:#602a7a" />
      <path
         d="m 118.769,49.828 c -5.43,0 -8.703,-4.552 -8.703,-11.179 0,-5.511 3.113,-10.303 8.703,-10.303 5.27,0 8.783,4.553 8.783,10.861 0,6.069 -3.992,10.62 -8.783,10.62 M 127.472,0 v 23.636 h -0.159 c -3.673,-4.792 -8.544,-6.309 -14.294,-6.309 -5.477,0 -9.773,2.45 -12.775,6.116 v 30.954 c 0.115,0.142 0.226,0.287 0.344,0.426 h 38.787 c -4.147,-3.723 -6.644,-9.07 -6.644,-15.775 0,-8.412 3.508,-14.662 9.196,-18.247 V 0 h -14.455"
         transform="translate(0,0.071)"
         id="path2291"
         inkscape:connector-curvature="0"
         style="fill:#35a0cd" />
      <path
         d="m 68.505,51.264 c -3.354,0 -5.909,-1.675 -5.909,-4.55 0,-3.994 3.833,-5.51 8.703,-5.51 2.157,0 4.233,0.159 6.07,0.24 0,4.87 -3.434,9.82 -8.864,9.82 M 85.87,22.027 c -3.683,-3.327 -9.068,-4.7 -14.89,-4.7 -6.149,0 -11.5,0.88 -16.61,2.955 l 0.24,9.743 c 3.992,-2.236 8.624,-3.115 13.255,-3.115 5.19,0 9.423,1.517 9.503,7.187 -1.837,-0.318 -4.392,-0.559 -6.708,-0.559 -7.666,0 -21.48,1.517 -21.48,14.213 0,2.838 0.727,5.186 1.98,7.072 H 85.87 V 22.027"
         transform="translate(0,0.071)"
         id="path2293"
         inkscape:connector-curvature="0"
         style="fill:#2b4288" />
      <path
         d="m 0,54.03 h 225 v 1.9 H 0 Z"
         transform="translate(0,0.071)"
         id="path2295"
         style="fill:url(#prefix__a)"
         inkscape:connector-curvature="0" />
    </g>
    <g
       id="g2303">
      <path
         d="m 7.587,8.378 v -3.06 h 1.445 c 1.943,0 3.084,-0.971 3.084,-2.671 C 12.116,0.923 10.963,0 9.032,0 H 6.179 v 8.378 z m 1.3,-4.274 h -1.3 V 1.226 h 1.3 c 1.286,0 1.82,0.51 1.82,1.42 0,0.96 -0.534,1.458 -1.82,1.458 z m 5.642,4.274 0.57,-1.736 h 3.024 l 0.57,1.736 h 1.494 L 17.273,0 h -1.335 l -2.914,8.378 z m 3.193,-2.95 h -2.234 l 1.117,-3.388 1.117,3.387 z m 6.008,2.95 v -3.4 h 1.627 l 1.614,3.4 h 1.555 L 26.741,4.748 C 27.712,4.395 28.258,3.655 28.258,2.501 28.258,0.838 27.105,0 25.174,0 H 22.321 V 8.378 Z M 25.077,3.764 H 23.73 V 1.226 h 1.347 c 1.19,0 1.773,0.328 1.773,1.275 0,0.947 -0.583,1.263 -1.773,1.263 z M 33.78,8.378 V 1.226 h 2.404 V 0 h -6.229 v 1.226 h 2.416 v 7.152 z m 7.828,0 V 4.88 L 44.218,0 H 42.592 L 40.904,3.351 39.228,0 H 37.59 l 2.61,4.881 v 3.497 h 1.41 z"
         transform="translate(147)"
         id="path2299"
         inkscape:connector-curvature="0"
         style="fill:#2b4288;fill-rule:nonzero" />
      <path
         d="M 0,1.336 V 7.664 C 0,7.85 0.172,8 0.385,8 0.597,8 0.77,7.85 0.77,7.664 V 1.336 C 0.77,1.15 0.597,1 0.385,1 0.172,1 0,1.15 0,1.336"
         transform="translate(147)"
         id="path2301"
         inkscape:connector-curvature="0"
         style="fill:#d8127d" />
    </g>
    <path
       d="m 78.152,70.604 0.166,0.003 c 0.469,-0.022 0.93,0.131 1.292,0.43 0.353,0.336 0.574,0.787 0.624,1.272 h -0.857 c -0.13,-0.621 -0.485,-0.932 -1.06,-0.932 -0.32,-0.022 -0.63,0.124 -0.817,0.386 -0.209,0.37 -0.303,0.794 -0.272,1.217 v 0.671 c 0,1.065 0.36,1.595 1.084,1.595 0.254,0.015 0.504,-0.065 0.702,-0.225 0.19,-0.19 0.316,-0.437 0.357,-0.704 h 0.849 c -0.163,1.135 -0.799,1.703 -1.908,1.703 -0.55,0.031 -1.085,-0.188 -1.456,-0.597 -0.342,-0.395 -0.513,-0.986 -0.513,-1.772 v -0.67 c 0,-0.786 0.172,-1.373 0.513,-1.773 0.37,-0.412 0.908,-0.634 1.462,-0.601 z m 70.713,-0.005 0.166,0.002 c 0.55,-0.026 1.083,0.197 1.45,0.607 0.347,0.4 0.519,0.987 0.519,1.772 v 0.671 c 0.002,0.786 -0.171,1.377 -0.519,1.772 -0.807,0.796 -2.104,0.796 -2.911,0 -0.344,-0.395 -0.516,-0.986 -0.516,-1.772 v -0.67 c 0,-0.786 0.172,-1.373 0.516,-1.773 0.368,-0.415 0.907,-0.639 1.461,-0.607 z m -48,-0.003 0.175,0.005 c 0.824,0 1.423,0.286 1.8,0.862 l -0.671,0.48 c -0.243,-0.387 -0.681,-0.607 -1.137,-0.571 -0.227,-0.015 -0.451,0.048 -0.638,0.177 -0.149,0.136 -0.23,0.33 -0.224,0.53 0.006,0.202 0.1,0.39 0.257,0.516 0.266,0.16 0.56,0.27 0.866,0.324 0.453,0.072 0.88,0.26 1.24,0.547 0.265,0.273 0.402,0.647 0.376,1.028 0.01,0.406 -0.154,0.797 -0.449,1.076 -0.374,0.315 -0.857,0.471 -1.345,0.436 -0.885,0 -1.542,-0.289 -1.969,-0.866 l 0.694,-0.48 c 0.146,0.182 0.328,0.332 0.535,0.439 0.219,0.096 0.457,0.141 0.696,0.133 0.635,0 0.954,-0.233 0.954,-0.702 0.005,-0.21 -0.09,-0.41 -0.258,-0.538 -0.272,-0.174 -0.577,-0.29 -0.896,-0.338 -1.06,-0.22 -1.589,-0.752 -1.589,-1.597 -0.016,-0.403 0.15,-0.792 0.452,-1.06 0.372,-0.288 0.837,-0.43 1.306,-0.396 z m 34.725,0.072 v 3.139 c -0.03,0.38 0.062,0.76 0.263,1.084 0.217,0.219 0.512,0.342 0.82,0.342 0.308,0 0.603,-0.123 0.82,-0.342 0.201,-0.324 0.294,-0.704 0.263,-1.084 v -3.14 h 0.887 v 3.123 c 0,0.74 -0.172,1.294 -0.516,1.664 -0.829,0.738 -2.08,0.738 -2.909,0 -0.343,-0.359 -0.515,-0.908 -0.515,-1.647 v -3.14 h 0.887 z M 72.234,70.6 c 0.55,-0.032 1.086,0.186 1.458,0.593 0.347,0.4 0.519,0.988 0.519,1.772 v 0.671 c 0.002,0.786 -0.171,1.377 -0.519,1.772 -0.371,0.409 -0.907,0.628 -1.458,0.597 -0.55,0.032 -1.085,-0.187 -1.454,-0.597 -0.343,-0.395 -0.515,-0.986 -0.515,-1.772 v -0.67 c 0,-0.785 0.172,-1.373 0.515,-1.773 0.37,-0.408 0.904,-0.626 1.454,-0.593 z m 43.296,0 c 0.55,-0.032 1.086,0.186 1.458,0.593 0.344,0.4 0.519,0.988 0.519,1.772 v 0.671 c 0,0.785 -0.175,1.376 -0.519,1.772 -0.809,0.795 -2.105,0.795 -2.914,0 -0.342,-0.395 -0.513,-0.986 -0.513,-1.772 v -0.67 c 0,-0.785 0.172,-1.373 0.513,-1.773 0.37,-0.407 0.906,-0.626 1.456,-0.593 z m 39.624,0.067 c 0.514,-0.033 1.021,0.12 1.431,0.432 0.349,0.311 0.535,0.765 0.507,1.231 0.027,0.47 -0.162,0.928 -0.513,1.243 -0.406,0.313 -0.912,0.469 -1.425,0.438 h -0.91 v 1.924 h -0.884 v -5.268 z m -101.76,0 c 1.317,0 1.978,0.773 1.982,2.32 v 0.627 c 0.002,1.548 -0.657,2.321 -1.977,2.321 H 51.62 v -5.268 z m 109.095,0.002 v 0.771 h -2.343 v 1.387 h 2.113 v 0.765 h -2.113 v 1.58 h 2.343 v 0.763 h -3.228 V 70.67 h 3.228 z m -98.461,0 1.52,3.05 1.517,-3.05 h 0.848 v 5.266 H 67.059 V 72.41 l -1.206,2.512 h -0.627 l -1.184,-2.49 v 3.505 H 63.188 V 70.67 h 0.84 z m 57.622,-0.002 c 0.51,-0.033 1.017,0.11 1.436,0.404 0.344,0.288 0.531,0.72 0.505,1.168 0.054,0.63 -0.33,1.214 -0.93,1.414 l 1.11,2.282 h -0.976 l -1.015,-2.138 h -1.037 v 2.138 h -0.885 v -5.268 z m -60.697,0.002 v 0.771 h -2.346 v 1.387 h 2.115 v 0.765 h -2.115 v 1.58 h 2.346 v 0.763 H 57.722 V 70.67 h 3.23 z m 50.791,0 v 0.771 h -2.346 v 1.512 h 2.116 v 0.762 h -2.116 v 2.221 h -0.884 V 70.67 h 3.23 z m 31.258,-0.002 c 0.51,-0.033 1.016,0.11 1.434,0.404 0.344,0.288 0.531,0.72 0.505,1.168 0.052,0.633 -0.338,1.22 -0.943,1.414 l 1.11,2.282 h -0.977 l -1.015,-2.138 h -1.023 v 2.138 h -0.885 v -5.268 z m -10.534,0.002 v 0.771 h -2.344 v 1.387 h 2.113 v 0.765 h -2.113 v 1.58 h 2.344 v 0.763 h -3.231 V 70.67 h 3.23 z M 84.241,70.667 c 0.51,-0.033 1.016,0.11 1.434,0.404 0.343,0.288 0.53,0.72 0.504,1.168 0.052,0.636 -0.344,1.223 -0.954,1.414 l 1.11,2.282 H 85.359 L 84.344,73.797 H 83.33 v 2.138 h -0.884 v -5.268 z m 13.144,0.002 v 0.771 h -1.511 v 4.495 H 94.987 V 71.44 H 93.47 v -0.77 h 3.915 z m -6.763,-0.002 1.833,5.268 h -0.94 l -0.358,-1.092 h -1.902 l -0.358,1.092 h -0.946 l 1.83,-5.268 h 0.84 z m -18.393,0.704 c -0.316,0 -0.617,0.142 -0.82,0.385 -0.208,0.368 -0.304,0.788 -0.276,1.21 v 0.67 c -0.028,0.423 0.069,0.844 0.277,1.212 0.203,0.243 0.503,0.384 0.82,0.384 0.316,0 0.616,-0.14 0.819,-0.384 0.21,-0.367 0.306,-0.79 0.277,-1.212 v -0.67 c 0.03,-0.422 -0.067,-0.843 -0.277,-1.21 -0.202,-0.243 -0.503,-0.385 -0.82,-0.385 z m 76.798,0 c -0.317,0 -0.617,0.142 -0.82,0.385 -0.208,0.368 -0.305,0.788 -0.277,1.21 v 0.67 c -0.027,0.423 0.07,0.844 0.278,1.212 0.202,0.243 0.503,0.384 0.819,0.384 0.316,0 0.617,-0.14 0.82,-0.384 0.21,-0.367 0.306,-0.79 0.277,-1.212 v -0.67 c 0.03,-0.422 -0.067,-0.843 -0.278,-1.21 -0.202,-0.243 -0.502,-0.385 -0.819,-0.385 z m -33.504,0 c -0.317,0 -0.617,0.142 -0.82,0.385 -0.209,0.368 -0.305,0.788 -0.277,1.21 v 0.67 c -0.028,0.423 0.069,0.844 0.277,1.212 0.203,0.243 0.503,0.384 0.82,0.384 0.316,0 0.616,-0.14 0.82,-0.384 0.209,-0.367 0.305,-0.79 0.276,-1.212 v -0.67 c 0.03,-0.422 -0.067,-0.843 -0.277,-1.21 -0.202,-0.243 -0.503,-0.385 -0.82,-0.385 z m -62.026,0.064 -0.12,0.002 h -0.893 v 3.736 h 0.893 c 0.323,0.026 0.637,-0.115 0.832,-0.375 0.207,-0.358 0.303,-0.77 0.277,-1.184 v -0.626 c 0.027,-0.412 -0.07,-0.822 -0.277,-1.179 -0.196,-0.258 -0.51,-0.398 -0.832,-0.372 z m 36.712,0.515 -0.705,2.13 h 1.406 z m 64.848,-0.513 h -0.812 v 1.811 h 0.812 c 0.768,0 1.145,-0.324 1.145,-0.918 0,-0.593 -0.382,-0.893 -1.145,-0.893 z m -33.32,-0.004 -0.148,0.004 h -0.846 v 1.598 h 0.846 c 0.295,0.023 0.591,-0.04 0.851,-0.183 0.172,-0.158 0.27,-0.38 0.27,-0.613 0,-0.233 -0.098,-0.455 -0.27,-0.613 -0.259,-0.146 -0.555,-0.212 -0.851,-0.189 z m 21.35,0 -0.148,0.004 h -0.846 v 1.598 h 0.846 c 0.295,0.023 0.591,-0.04 0.851,-0.183 0.172,-0.158 0.27,-0.38 0.27,-0.613 0,-0.233 -0.098,-0.455 -0.27,-0.613 -0.259,-0.146 -0.555,-0.212 -0.851,-0.189 z m -58.76,0 -0.147,0.004 h -0.849 v 1.598 h 0.849 c 0.295,0.022 0.591,-0.041 0.851,-0.183 0.172,-0.158 0.27,-0.38 0.27,-0.613 0,-0.233 -0.098,-0.455 -0.27,-0.613 -0.259,-0.145 -0.555,-0.211 -0.851,-0.189 z m 89.731,-9.1 c 1.294,0 1.941,0.758 1.941,2.274 v 0.619 c 0,1.52 -0.647,2.28 -1.94,2.28 h -1.748 v -5.173 z m -88.531,-0.326 0.164,0.002 c 0.47,-0.021 0.93,0.132 1.293,0.43 0.353,0.336 0.574,0.788 0.623,1.273 h -0.856 c -0.132,-0.622 -0.485,-0.932 -1.06,-0.932 -0.32,-0.023 -0.63,0.123 -0.818,0.385 -0.204,0.369 -0.297,0.789 -0.266,1.21 v 0.673 c -0.002,1.063 0.36,1.595 1.084,1.595 0.254,0.015 0.504,-0.065 0.702,-0.225 0.19,-0.192 0.315,-0.44 0.358,-0.707 h 0.848 c -0.163,1.135 -0.798,1.703 -1.908,1.703 -0.55,0.031 -1.085,-0.188 -1.456,-0.597 -0.343,-0.396 -0.513,-0.987 -0.513,-1.769 v -0.674 c 0,-0.782 0.17,-1.372 0.513,-1.769 0.37,-0.408 0.906,-0.627 1.456,-0.596 z m 13.375,0.6 c 0.808,-0.795 2.104,-0.795 2.912,0 0.346,0.398 0.519,0.988 0.519,1.77 v 0.674 c 0.001,0.782 -0.171,1.372 -0.52,1.77 -0.807,0.795 -2.103,0.795 -2.91,0 -0.345,-0.398 -0.517,-0.988 -0.517,-1.77 v -0.674 c 0,-0.784 0.172,-1.373 0.516,-1.77 z M 152.405,62 l 0.176,0.003 c 0.832,0.002 1.432,0.29 1.802,0.863 l -0.674,0.48 c -0.122,-0.182 -0.286,-0.332 -0.477,-0.439 -0.206,-0.096 -0.432,-0.142 -0.66,-0.133 -0.227,-0.014 -0.451,0.05 -0.637,0.18 -0.152,0.124 -0.236,0.313 -0.225,0.508 -0.01,0.212 0.087,0.415 0.26,0.538 0.268,0.162 0.563,0.272 0.871,0.324 0.452,0.075 0.876,0.266 1.232,0.555 0.266,0.273 0.403,0.646 0.377,1.026 0.006,0.403 -0.157,0.79 -0.45,1.068 -0.373,0.316 -0.856,0.473 -1.344,0.435 -0.886,-0.002 -1.542,-0.29 -1.97,-0.862 l 0.697,-0.483 c 0.144,0.183 0.326,0.333 0.532,0.441 0.22,0.096 0.457,0.142 0.696,0.133 0.635,0 0.954,-0.235 0.954,-0.701 0.007,-0.21 -0.088,-0.41 -0.255,-0.538 -0.272,-0.177 -0.578,-0.293 -0.898,-0.341 -1.058,-0.22 -1.587,-0.752 -1.587,-1.595 -0.017,-0.403 0.148,-0.793 0.45,-1.062 0.372,-0.287 0.836,-0.428 1.306,-0.397 z m -28.479,0.081 c 1.248,0 1.872,0.455 1.872,1.364 0.005,0.254 -0.069,0.503 -0.21,0.713 -0.135,0.199 -0.33,0.35 -0.555,0.433 0.58,0.123 0.978,0.657 0.932,1.248 0.011,0.41 -0.156,0.806 -0.458,1.084 -0.3,0.285 -0.77,0.427 -1.411,0.427 h -1.864 v -5.269 z m -70.203,0 1.83,5.269 h -0.937 l -0.36,-1.093 h -1.9 L 51.998,67.35 H 51.05 l 1.833,-5.269 z m 20.022,0 1.83,5.269 H 74.638 L 74.28,66.257 H 72.378 L 72.02,67.35 h -0.948 l 1.833,-5.269 z m 88.422,0 1.833,5.27 h -0.94 l -0.358,-1.093 H 160.8 l -0.358,1.093 h -0.945 l 1.83,-5.269 h 0.84 z m -26.65,0 c 0.512,-0.035 1.02,0.108 1.437,0.405 0.345,0.287 0.532,0.72 0.505,1.167 0.052,0.637 -0.346,1.224 -0.957,1.412 l 1.11,2.282 h -0.977 l -1.02,-2.135 h -1.023 v 2.138 h -0.888 v -5.269 z m -27.613,0 v 0.771 h -2.344 v 1.511 h 2.113 v 0.763 h -2.113 v 2.221 h -0.887 v -5.266 h 3.23 z m -38.901,0 v 5.266 h -0.885 v -5.266 z m 62.463,0 v 0.771 h -2.343 v 1.39 h 2.116 v 0.762 h -2.116 v 1.58 h 2.343 v 0.763 h -3.227 v -5.266 z m -53.118,0 2.166,3.624 v -3.624 h 0.857 v 5.266 h -0.788 l -2.143,-3.58 v 3.58 h -0.857 v -5.266 z m -14.664,0 v 4.504 h 2.343 v 0.762 H 62.8 v -5.266 z m 78.2,-0.003 1.834,5.27 h -0.937 l -0.355,-1.093 h -1.9 l -0.36,1.092 h -0.946 l 1.833,-5.269 h 0.832 z m -22.28,0.003 v 5.266 h -0.885 v -5.266 h 0.884 z m -61.155,0 v 4.504 h 2.343 v 0.762 h -3.23 v -5.266 z m 34.594,0 v 0.771 h -2.346 v 1.39 h 2.116 v 0.762 h -2.116 v 1.58 h 2.346 v 0.763 h -3.23 v -5.266 z m 73.727,0 2.169,3.624 v -3.624 h 0.854 v 5.266 h -0.787 l -2.144,-3.58 v 3.58 h -0.854 v -5.266 z m -52.486,0 v 4.504 h 2.344 v 0.762 H 113.4 v -5.266 z m 32.326,0 v 4.504 h 2.343 v 0.762 h -3.227 v -5.266 z m 27.566,1.004 -0.118,0.003 h -0.876 v 3.668 h 0.876 c 0.316,0.025 0.623,-0.114 0.813,-0.368 0.2,-0.353 0.292,-0.758 0.26,-1.162 v -0.619 c 0.032,-0.403 -0.059,-0.806 -0.26,-1.156 -0.19,-0.253 -0.498,-0.39 -0.813,-0.363 z m -73.7,-0.299 -0.12,0.002 c -0.321,-0.022 -0.63,0.124 -0.816,0.386 -0.208,0.367 -0.305,0.787 -0.277,1.209 v 0.674 c -0.028,0.421 0.069,0.841 0.277,1.209 0.183,0.258 0.493,0.406 0.815,0.385 0.326,0.025 0.641,-0.12 0.832,-0.385 0.21,-0.367 0.307,-0.788 0.278,-1.21 v -0.673 c 0.029,-0.422 -0.068,-0.843 -0.278,-1.21 -0.19,-0.265 -0.506,-0.411 -0.832,-0.385 z m 23.615,2.206 -0.15,0.004 h -0.816 v 1.589 h 0.923 c 0.692,0 1.038,-0.266 1.038,-0.796 0.017,-0.235 -0.088,-0.463 -0.278,-0.602 -0.264,-0.146 -0.566,-0.213 -0.868,-0.191 z m 37.66,-1.63 -0.701,2.13 h 1.403 z m -108.444,0 -0.701,2.13 h 1.406 z m 20.025,0 -0.705,2.13 h 1.406 z m 68.134,0 -0.701,2.13 h 1.403 z m -5.889,-0.515 -0.148,0.005 h -0.832 v 1.594 h 0.832 c 0.296,0.024 0.592,-0.04 0.852,-0.183 0.192,-0.14 0.297,-0.372 0.277,-0.61 0.02,-0.239 -0.085,-0.471 -0.277,-0.615 -0.26,-0.145 -0.556,-0.21 -0.852,-0.186 z m -11.538,-0.008 -0.168,0.005 h -0.746 v 1.389 h 0.862 c 0.622,0 0.93,-0.244 0.93,-0.732 0.018,-0.198 -0.071,-0.39 -0.233,-0.505 -0.253,-0.123 -0.533,-0.176 -0.813,-0.152 z"
       id="path2305"
       inkscape:connector-curvature="0"
       style="fill:#2b4ca0;fill-rule:nonzero" />
    <path
       d="m 194.952,69.083 c -0.09,-0.23 -0.228,-0.443 -0.415,-0.63 -0.028,-0.028 -0.058,-0.052 -0.087,-0.079 l -5.243,-5.242 c -0.735,-0.736 -1.926,-0.735 -2.66,0 -0.736,0.733 -0.736,1.925 0,2.66 l 3.995,3.996 -4.002,4.001 c -0.733,0.735 -0.733,1.925 0,2.661 0.735,0.734 1.926,0.734 2.661,0 l 5.177,-5.177 c 0.056,-0.045 0.112,-0.093 0.164,-0.144 0.553,-0.553 0.69,-1.365 0.41,-2.046"
       id="path2307"
       inkscape:connector-curvature="0"
       style="fill:#2b4288" />
    <path
       d="m 201.788,69.083 c -0.092,-0.23 -0.23,-0.443 -0.416,-0.63 -0.028,-0.028 -0.057,-0.052 -0.087,-0.079 l -5.243,-5.242 c -0.735,-0.736 -1.926,-0.735 -2.661,0 -0.734,0.733 -0.734,1.925 0,2.66 l 3.995,3.996 -4,4 c -0.736,0.736 -0.736,1.926 0,2.662 0.735,0.734 1.925,0.734 2.66,0 l 5.176,-5.178 c 0.057,-0.044 0.112,-0.092 0.164,-0.143 0.553,-0.553 0.69,-1.365 0.412,-2.046"
       id="path2309"
       inkscape:connector-curvature="0"
       style="fill:#d8127d" />
  </g>
</svg>
