<?xml version="1.0" encoding="UTF-8" standalone="no"?>
<!-- Created with Inkscape (http://www.inkscape.org/) -->

<svg
   version="1.1"
   id="svg2"
   width="455.03998"
   height="241.01088"
   viewBox="0 0 455.03998 241.01088"
   sodipodi:docname="EGP-Logo_2017.png"
   xmlns:inkscape="http://www.inkscape.org/namespaces/inkscape"
   xmlns:sodipodi="http://sodipodi.sourceforge.net/DTD/sodipodi-0.dtd"
   xmlns="http://www.w3.org/2000/svg"
   xmlns:svg="http://www.w3.org/2000/svg">
  <defs
     id="defs6" />
  <sodipodi:namedview
     id="namedview4"
     pagecolor="#ffffff"
     bordercolor="#000000"
     borderopacity="0.25"
     inkscape:showpageshadow="2"
     inkscape:pageopacity="0.0"
     inkscape:pagecheckerboard="0"
     inkscape:deskcolor="#d1d1d1"
     showgrid="false" />
  <g
     inkscape:groupmode="layer"
     inkscape:label="Image"
     id="g8"
     transform="translate(1.8692307,246.65333)">
    <path
       style="fill:#ffdc2e;fill-opacity:1"
       d="M 20.43282,-204.3282 17.513846,-40.86564 202.86871,-65.676921 210.16615,-230.59897 64.217434,-232.05845 Z"
       id="path510" />
    <path
       style="fill:#ffffff;fill-opacity:1;stroke-width:0.826493"
       d="m 225.5596,-188.27385 -8.09602,84.65026 c 0,0 212.5206,-0.53917 212.5206,-2.69587 0,-2.15669 2.024,-73.3276 2.024,-73.3276 z"
       id="path843" />
    <path
       style="fill:#57b45f;fill-opacity:1;stroke-width:0.32"
       d="m -1.8692307,-126.1479 v -120.50543 h 227.5199907 227.52 v 94.09005 c 0,74.988175 -0.0812,94.116898 -0.4,94.222288 -0.22,0.0727 -102.208,11.88125 -226.64,26.24114 -124.43199,14.3599 -226.6359907,26.1873196 -227.1199907,26.2831496 l -0.88,0.17424 z M 106.74153,-63.213312 c 8.938,-13.621083 13.65,-25.092853 13.69858,-33.350353 0.0101,-1.71072 -0.16184,-3.888735 -0.38202,-4.840035 -1.01537,-4.38705 -4.07229,-8.45423 -7.79387,-10.36962 l -1.86526,-0.96 -3.2541,3.38255 c -11.361095,11.809575 -14.65377,23.719075 -10.256496,37.097455 1.370765,4.17043 6.089956,13.120003 6.918306,13.120003 0.14169,0 1.46238,-1.836 2.93486,-4.08 z m -40.770762,-0.84791 c 6.536572,-4.397493 11.808863,-8.732983 17.122044,-14.079723 5.449449,-5.48387 8.298435,-9.26736 10.867654,-14.43237 2.405997,-4.83689 3.187904,-7.960405 3.164166,-12.640005 -0.0232,-4.57542 -0.567536,-6.60406 -1.736742,-6.47268 -1.232742,0.13852 -6.895177,3.02422 -10.217123,5.20687 -10.509686,6.905275 -17.327827,15.605715 -21.91486,27.964965 -1.475328,3.9751 -3.488663,11.83103 -4.085091,15.939813 l -0.452749,3.11897 1.466349,-0.84978 c 0.806492,-0.46737 3.410352,-2.1576 5.786352,-3.75606 z m 85.909802,-16.592093 c 0.45081,-1.44621 0.58374,-14.84438 0.17924,-18.06794 -0.98322,-7.835705 -2.95145,-12.655875 -6.71402,-16.442605 -3.90217,-3.92724 -8.0332,-5.4884 -14.57502,-5.50807 -1.936,-0.006 -3.82659,0.0902 -4.20131,0.21329 -0.89389,0.29374 -2.51457,3.91104 -3.51544,7.84635 -0.89938,3.53626 -1.02707,8.45909 -0.29114,11.22446 1.70931,6.423025 7.2511,11.760855 17.32376,16.686165 3.16968,1.54991 10.55798,4.63145 11.36681,4.74092 0.11147,0.0151 0.30367,-0.29657 0.42712,-0.69257 z m -107.17433,-6.16262 c 6.799017,-0.99592 13.460553,-2.97011 18.419603,-5.45875 3.66143,-1.83745 8.857699,-5.53752 12.012995,-8.554005 4.99424,-4.77453 8.505529,-9.98043 10.489206,-15.55147 l 0.842755,-2.36684 -4.730016,0.18967 c -9.502118,0.38103 -17.961843,3.32545 -27.104185,9.43365 -7.841113,5.23882 -15.797996,12.443115 -23.227292,21.030365 l -1.384247,1.6 0.932855,0.22566 c 1.463171,0.35395 9.880588,0.0183 13.748326,-0.54828 z m 203.17833,-21.604395 c 3.93953,-0.38299 6.39436,-1.07207 7.3993,-2.07701 0.76654,-0.76654 0.76689,-0.77044 0.76689,-8.43858 0,-6.5476 -0.0737,-7.74537 -0.50285,-8.17455 -0.42069,-0.42069 -1.46461,-0.50286 -6.38874,-0.50286 -6.80324,0 -6.54841,-0.12453 -6.54841,3.20001 0,3.01248 0.18818,3.2 3.21126,3.2 h 2.54874 v 3.00267 c 0,3.46048 0.0754,3.38521 -3.39976,3.39296 -3.72534,0.008 -6.13298,-1.4628 -7.52487,-4.59779 -0.59296,-1.33553 -0.75059,-2.36042 -0.85403,-5.5526 -0.16795,-5.18281 0.51123,-7.67164 2.62526,-9.62029 0.82742,-0.76269 1.99241,-1.46138 2.8044,-1.68191 1.93088,-0.52441 6.10028,-0.20455 8.3287,0.63895 2.13879,0.80958 2.57729,0.65232 3.86182,-1.38497 1.30356,-2.06745 1.40513,-2.91607 0.45449,-3.7971 -1.83449,-1.70014 -8.1221,-2.78089 -12.73616,-2.18916 -3.28602,0.42141 -4.98588,0.97688 -7.05734,2.30613 -4.49931,2.8872 -6.62795,8.50444 -6.23106,16.44311 0.10559,2.112 0.4032,4.61314 0.66135,5.55809 1.69758,6.21384 5.61573,9.49126 12.27417,10.26696 3.01515,0.35127 2.77834,0.35097 6.30684,0.008 z m 48.28031,-0.67699 c 2.2101,-0.63978 3.72588,-1.72899 3.72588,-2.67735 0,-0.61333 -0.84689,-2.34163 -1.52818,-3.11865 -0.63556,-0.72487 -1.44581,-0.70639 -3.51525,0.0802 -2.16737,0.82377 -4.98704,0.84276 -6.48156,0.0436 -1.16109,-0.62083 -2.01393,-1.82048 -2.36292,-3.3238 l -0.20428,-0.88 h 6.36886 6.36886 l 1.15724,-1.28093 c 1.27539,-1.41171 1.28196,-1.44844 0.82452,-4.61326 -0.62961,-4.35604 -2.65826,-7.40572 -5.90729,-8.88048 -1.28352,-0.58261 -2.16965,-0.7263 -4.48,-0.72649 -8.57474,-6.4e-4 -12.71371,5.57658 -11.61746,15.65455 0.54808,5.03856 3.01416,8.41463 7.13504,9.7679 3.14082,1.03142 6.85232,1.01544 10.51654,-0.0453 z m -10.04691,-15.9114 c 0.85082,-2.96663 3.0278,-4.3716 5.30162,-3.42154 1.20047,0.50159 2.07117,1.98416 2.07117,3.52666 v 0.81028 h -3.81766 -3.81766 z m 35.34662,16.08326 c 2.18156,-0.53243 3.91132,-1.50188 4.17779,-2.34149 0.39526,-1.24537 -1.35651,-4.18648 -2.49341,-4.18621 -0.384,9e-5 -1.45574,0.28809 -2.38163,0.64 -2.11267,0.80298 -4.96189,0.83794 -6.46569,0.0793 -1.14486,-0.57754 -2.04527,-1.82578 -2.42334,-3.3595 l -0.21693,-0.88 h 6.40154 6.40154 l 0.99315,-1.13114 c 0.88819,-1.01159 0.99315,-1.34622 0.99315,-3.16629 0,-2.59772 -0.99939,-5.84492 -2.33974,-7.60224 -3.80813,-4.99279 -12.81416,-4.98453 -17.21562,0.0158 -2.98453,3.39061 -3.67298,11.26573 -1.4199,16.24229 2.46679,5.44859 8.36965,7.54903 15.98909,5.68946 z m -9.73383,-15.28011 c 0,-0.0617 0.16603,-0.60174 0.36895,-1.2 0.62018,-1.82848 1.49712,-2.80856 2.83545,-3.16894 1.85199,-0.49869 3.25992,0.17589 3.94603,1.89062 1.03767,2.59339 1.04128,2.59057 -3.31043,2.59057 -2.112,0 -3.84,-0.0505 -3.84,-0.11225 z m 56.77802,15.25774 c 3.95667,-1.37773 6.132,-5.7502 4.98774,-10.02549 -0.52976,-1.97936 -2.77843,-4.12249 -5.32464,-5.07471 -3.24198,-1.21242 -4.01696,-1.81049 -3.90086,-3.01036 0.14669,-1.51553 1.43987,-2.06844 3.60659,-1.54198 2.69469,0.65473 3.38314,0.60058 4.0768,-0.32066 0.34278,-0.45524 0.70086,-1.40655 0.79574,-2.11402 0.14109,-1.05176 0.0429,-1.40713 -0.53856,-1.94881 -1.0072,-0.93837 -3.55536,-1.50635 -6.72083,-1.49807 -4.84368,0.0127 -7.81728,2.10562 -8.64307,6.08339 -0.48515,2.33703 -0.12579,4.36939 1.08294,6.12436 1.0481,1.52177 1.77972,2.00365 5.52013,3.63585 2.48938,1.08629 3.20557,1.96262 2.69709,3.30009 -0.52864,1.39042 -2.58746,1.5611 -5.68947,0.47166 -1.96842,-0.6913 -2.00058,-0.69231 -2.67277,-0.084 -1.55533,1.40757 -2.05629,3.76236 -1.00314,4.71544 2.08071,1.88302 8.11354,2.5453 11.72631,1.2873 z m -100.06118,-0.16926 c 0.30478,-0.25295 0.40316,-2.31031 0.40316,-8.43087 v -8.09626 l 0.82057,-0.97519 c 0.99582,-1.18347 2.5593,-1.67029 4.18601,-1.30341 0.65895,0.14862 1.32874,0.18947 1.48841,0.0908 0.57896,-0.35782 1.18501,-2.35638 1.18501,-3.90779 0,-1.33338 -0.13477,-1.69306 -0.84315,-2.25028 -1.54198,-1.21292 -3.87776,-0.75915 -5.75492,1.118 -1.3394,1.33941 -1.72193,1.45285 -1.72193,0.51064 0,-0.26481 -0.23831,-0.74481 -0.52959,-1.06667 -0.61796,-0.68284 -2.64923,-0.74896 -4.89803,-0.15944 l -1.42762,0.37424 0.0947,11.68001 c 0.103,12.70186 0.0872,12.59505 1.91379,12.90981 1.25877,0.21691 4.62081,-0.10952 5.08357,-0.49358 z m 69.28316,-0.17519 c 0.50576,-0.4518 0.56,-1.29497 0.56,-8.70787 v -8.20763 l 1.13776,-1.10277 c 0.95696,-0.9275 1.36832,-1.10278 2.58829,-1.10278 1.1383,0 1.58214,0.1626 2.06224,0.75545 0.56778,0.70119 0.61206,1.36774 0.61661,9.28 0.003,4.68851 0.12576,8.71515 0.27344,8.94811 0.63206,0.99689 5.54707,1.21862 6.68166,0.30143 0.64624,-0.52241 0.5641,-19.53938 -0.0924,-21.40022 -0.69348,-1.9655 -1.90813,-3.10053 -3.95469,-3.69549 -3.09571,-0.89994 -6.92765,0.0924 -9.04016,2.34104 l -0.72003,0.76642 -0.51002,-1.36837 -0.51005,-1.36837 -2.24992,0.0178 c -1.23744,0.01 -2.72022,0.21263 -3.29507,0.45074 -0.99629,0.41268 -1.03597,0.49417 -0.84806,1.74219 0.10841,0.72009 0.28108,6.02069 0.38374,11.77911 0.12912,7.24282 0.29914,10.56289 0.55165,10.77169 0.94998,0.78552 5.41878,0.64476 6.36502,-0.2005 z m -151.44526,-5.12104 c -6.42729,-12.06345 -13.94795,-19.77583 -22.01268,-22.57384 -3.79957,-1.31823 -9.2772,-1.56058 -13.85401,-0.61294 -3.28384,0.67993 -8.00699,2.42951 -10.79892,4.00021 l -1.71088,0.96251 0.22322,1.78656 c 0.42408,3.39421 2.13051,7.15563 4.48653,9.88946 1.37658,1.59733 4.28729,3.64928 6.67342,4.70455 5.55664,2.4574 20.58811,4.45726 36.94711,4.91562 l 1.70852,0.0479 z M 58.808851,-115.2977 c 3.783241,-0.6448 7.309363,-1.82594 11.001916,-3.68527 4.183892,-2.10675 7.25865,-4.34904 11.151194,-8.13209 l 3.311193,-3.21806 -1.371462,-1.21706 c -1.726406,-1.53206 -5.223085,-3.2259 -8.489913,-4.11266 -3.706602,-1.00613 -11.046538,-1.00598 -16.121011,3.1e-4 -4.559325,0.90414 -9.988589,2.25001 -15.84,3.92662 -5.527369,1.58375 -17.183959,5.38448 -17.547431,5.72149 -0.393779,0.36511 6.065767,4.57518 9.819383,6.39988 8.57807,4.16995 16.557331,5.60004 24.086131,4.31684 z m 18.681916,-23.81307 c 3.278055,-0.72744 6.301424,-1.83528 9.835734,-3.60409 l 2.635738,-1.3191 -0.17673,-1.30968 c -1.044051,-7.73716 -5.11064,-12.64611 -12.296748,-14.84392 -5.00504,-1.53074 -13.580704,-2.30414 -26.61615,-2.40037 l -8.85816,-0.0654 1.909171,3.68 c 5.580787,10.75719 13.37144,18.05117 21.345846,19.985 2.740944,0.66469 8.954727,0.60243 12.221299,-0.12245 z m 256.795323,-0.65868 c 0.39536,-0.32812 0.48467,-1.3311 0.48467,-5.44291 v -5.04067 l 1.31616,0.65118 c 1.60711,0.79515 4.57018,0.90247 6.84384,0.2479 2.23149,-0.64243 4.90711,-3.329 5.91751,-5.94173 1.01651,-2.62857 1.28364,-8.96494 0.5063,-12.01035 -1.23344,-4.8324 -4.59075,-7.97696 -8.52573,-7.98551 -1.62393,-0.004 -4.11459,0.97906 -5.28877,2.08644 -1.36192,1.28446 -1.40931,1.30272 -1.40931,0.54298 0,-0.31284 -0.23753,-0.90792 -0.52784,-1.3224 -0.49187,-0.70225 -0.67702,-0.7411 -2.71709,-0.57007 -2.86252,0.23999 -3.99414,0.78022 -3.83785,1.83221 0.0645,0.43398 0.18121,7.91283 0.25942,16.61967 0.0898,9.99388 0.2616,15.97446 0.46602,16.22078 0.17811,0.2146 0.63737,0.4596 1.02057,0.54445 1.2457,0.2758 4.99456,-0.0191 5.4921,-0.43197 z m 1.36467,-15.4158 -0.88,-0.32141 v -5.46312 c 0,-5.34947 0.017,-5.48518 0.80842,-6.52301 1.05337,-1.38105 2.90598,-1.98275 4.31187,-1.40041 1.56138,0.64674 2.33216,2.48589 2.4951,5.95364 0.2544,5.41422 -1.22016,8.15402 -4.35993,8.10097 -0.8225,-0.0139 -1.89146,-0.16989 -2.37546,-0.34666 z m -165.96272,14.30117 c 7.49523,-1.34815 17.91294,-4.37306 28.37137,-8.23797 4.39148,-1.62287 5.14861,-1.9972 4.82595,-2.38599 -0.82049,-0.98863 -7.24927,-5.02035 -10.6329,-6.66828 -12.15871,-5.92166 -22.45589,-6.26083 -33.32169,-1.09755 -4.76857,2.26596 -10.49384,6.62398 -13.81838,10.51841 l -1.78104,2.08636 1.39971,1.21034 c 2.67594,2.31394 7.45075,4.25892 12.38017,5.04297 2.45851,0.39104 9.19346,0.14027 12.57681,-0.46829 z m 96.77898,-8.78412 c 0.71294,-0.31501 1.81278,-1.02625 2.44409,-1.58055 l 1.14782,-1.0078 0.21087,1.12403 c 0.31454,1.67665 1.16587,2.06817 3.77824,1.73761 1.1865,-0.15014 2.46409,-0.43718 2.83909,-0.63787 0.60786,-0.32532 0.65501,-0.52624 0.43469,-1.85272 -0.13591,-0.8183 -0.3335,-6.16382 -0.43908,-11.87892 l -0.19198,-10.39109 -0.8,-0.40419 c -1.56454,-0.79046 -5.49788,-0.37696 -6.14858,0.6464 -0.13289,0.20899 -0.24382,4.00493 -0.24652,8.43542 l -0.005,8.05545 -0.82653,0.98228 c -0.96173,1.14296 -2.45129,1.63335 -3.81347,1.25547 -1.7331,-0.48077 -1.76,-0.63216 -1.76,-9.90695 0,-9.48558 0.03,-9.34697 -2.10826,-9.74811 -1.50986,-0.28325 -4.15311,-0.007 -4.76112,0.4976 -0.42134,0.34969 -0.49062,1.79555 -0.49062,10.24025 0,10.13029 0.10128,11.09455 1.35418,12.8934 1.61081,2.31272 6.00217,3.03366 9.38208,1.54029 z m 49.58314,-0.0524 c 3.66969,-1.37302 5.92892,-4.62553 6.61491,-9.52326 0.69065,-4.93104 -0.56154,-10.2171 -3.03162,-12.79806 -2.31591,-2.41984 -6.88124,-3.67437 -10.9299,-3.00349 -4.13347,0.68494 -6.58167,2.49155 -8.27235,6.10443 -0.85264,1.82206 -0.99582,2.5315 -1.12021,5.55058 -0.23796,5.77554 0.78599,9.1308 3.56954,11.69658 0.79587,0.73361 1.9919,1.5615 2.65786,1.83975 2.92569,1.22243 7.44779,1.27985 10.51177,0.13347 z m -7.49396,-5.92045 c -1.40683,-1.18377 -2.05514,-3.63686 -1.88722,-7.14085 0.20852,-4.35092 1.66712,-6.51872 4.38612,-6.51872 2.8838,0 3.95176,1.68914 4.13543,6.54084 0.21513,5.68272 -1.01208,7.94228 -4.31521,7.94524 -0.9707,9.6e-4 -1.60412,-0.22487 -2.31912,-0.82651 z m 62.05456,6.20413 c 2.12163,-0.51698 3.81799,-1.45797 4.22035,-2.34107 0.29284,-0.64272 0.22055,-1.03936 -0.41436,-2.27307 -1.12388,-2.18394 -1.45936,-2.30567 -4.05255,-1.47047 -5.00054,1.61054 -8.30099,0.45905 -9.20589,-3.21182 l -0.21692,-0.88 h 6.40153 6.40154 l 1.03046,-1.17363 c 1.01552,-1.15659 1.02826,-1.21118 0.87783,-3.76 -0.27959,-4.73689 -2.17034,-8.00058 -5.60989,-9.68339 -1.63111,-0.79803 -2.16391,-0.89341 -4.87175,-0.87215 -6.89251,0.0541 -10.66732,3.46062 -11.56396,10.43565 -0.85722,6.66824 1.44278,12.2957 5.92076,14.48657 2.84519,1.39203 7.21738,1.68529 11.08285,0.74338 z m -9.29757,-16.19512 c 0.84807,-2.95706 2.59428,-4.19853 4.97924,-3.54001 0.93251,0.25747 1.29248,0.59393 1.77683,1.6608 0.33411,0.73585 0.61062,1.6619 0.61446,2.0579 0.007,0.70683 -0.0628,0.72 -3.81062,0.72 h -3.81767 z m 28.33757,15.967 c 0.704,-0.31325 1.74663,-1.00826 2.31696,-1.54446 l 1.03693,-0.97492 0.33984,1.26206 c 0.42394,1.57442 1.03997,1.82038 3.744,1.49484 2.43738,-0.29343 3.77338,-1.0016 3.41398,-1.80965 -0.13113,-0.2949 -0.32662,-4.49618 -0.43436,-9.33618 -0.17079,-7.67279 -0.27111,-8.94346 -0.78314,-9.92 -1.44141,-2.749 -3.43053,-3.99976 -7.21117,-4.53441 -5.18144,-0.73275 -11.56361,0.91517 -11.80761,3.04881 -0.13287,1.16171 0.41766,2.49724 1.41603,3.43514 l 0.77997,0.73276 2.3143,-0.75015 c 2.76486,-0.8962 5.5887,-0.99149 6.75408,-0.2279 0.81062,0.53114 1.40422,2.31822 1.06429,3.2041 -0.11402,0.29717 -1.05437,0.49364 -2.99517,0.62578 -6.85805,0.46695 -10.37891,3.04785 -10.8881,7.98127 -0.38819,3.76142 1.69796,7.28641 4.60007,7.77273 0.67053,0.11236 1.3631,0.26021 1.5391,0.32856 0.63584,0.24694 3.54829,-0.23142 4.8,-0.78838 z m -3.04,-5.78831 c -1.96944,-1.96944 0.90154,-4.79229 4.88,-4.79821 1.17402,-0.002 1.19997,0.0242 1.19789,1.19821 -0.005,3.10111 -4.13235,5.54553 -6.07789,3.6 z m -98.26038,6.08585 c 0.60246,-0.17278 1.21131,-0.49678 1.35299,-0.72 0.14168,-0.22322 0.2598,-4.01491 0.26249,-8.42598 l 0.005,-8.02013 0.91339,-0.87507 c 1.15819,-1.10963 2.4239,-1.45209 4.038,-1.09256 1.5446,0.34405 1.88399,-0.003 2.44194,-2.49605 0.45413,-2.02927 0.0486,-3.37022 -1.19001,-3.93455 -1.8417,-0.83913 -3.91725,-0.14476 -5.66274,1.89445 -0.8008,0.93556 -1.18058,1.20119 -1.18058,0.82575 0,-0.30442 -0.22989,-0.99806 -0.51088,-1.54142 l -0.51088,-0.98793 -2.20619,0.18495 c -1.21341,0.10173 -2.60351,0.37733 -3.08912,0.61243 -0.74704,0.36168 -0.86886,0.59851 -0.79152,1.53886 0.0503,0.61127 0.17137,5.8634 0.26913,11.6714 0.10357,6.15339 0.30881,10.7189 0.49184,10.94079 0.58071,0.70401 3.56933,0.94069 5.36724,0.42506 z m 123.81744,-0.30287 c 0.66998,-0.35855 0.68294,-0.52118 0.68294,-8.56403 v -8.19854 l 0.80842,-1.05988 c 1.05414,-1.38207 2.88752,-1.97794 4.17961,-1.35841 1.63159,0.78232 1.72215,1.3274 1.72727,10.3987 0.004,6.46389 0.0991,8.43913 0.42057,8.70596 1.10003,0.91295 5.49994,0.81169 6.46032,-0.14867 0.40855,-0.40855 0.48381,-1.86742 0.48381,-9.37729 0,-4.8914 -0.14595,-9.66305 -0.32432,-10.60366 -0.4161,-2.19397 -1.42157,-3.66352 -3.05107,-4.45917 -2.98464,-1.45736 -6.27427,-1.10552 -9.26743,0.9912 -0.98208,0.68795 -1.83977,1.25081 -1.90598,1.25081 -0.0662,0 -0.21306,-0.42205 -0.32634,-0.93789 -0.32486,-1.47899 -0.87516,-1.73797 -3.22659,-1.51839 -2.90873,0.27162 -3.84684,0.77313 -3.71465,1.98581 0.057,0.52276 0.20096,5.84647 0.32,11.83047 l 0.21638,10.88 1.12,0.40131 c 1.27078,0.45533 4.3728,0.32984 5.39706,-0.21833 z m -161.11129,-0.20914 c 0.35399,-0.9225 0.20976,-5.1103 -0.18977,-5.50983 -0.27281,-0.27281 -2.21866,-0.384 -6.72,-0.384 h -6.336 v -3.84 -3.84 h 5.696 c 4.00356,0 5.8101,-0.1141 6.08,-0.384 0.46014,-0.46013 0.51686,-4.98993 0.0713,-5.696 -0.24691,-0.39131 -1.36947,-0.49852 -6.0751,-0.5802 l -5.77223,-0.1002 v -3.3398 -3.3398 h 6.336 c 4.50134,0 6.44719,-0.11119 6.72,-0.384 0.51305,-0.51305 0.51305,-5.11896 0,-5.632 -0.5489,-0.54891 -19.80309,-0.54891 -20.352,0 -0.55353,0.55353 -0.55353,32.59846 0,33.152 0.28226,0.28225 3.02884,0.384 10.36577,0.384 8.80686,0 10.00462,-0.0596 10.176,-0.50617 z m -149.14115,-6.80786 c 0.24733,-0.20527 0.9139,-1.4791 1.48127,-2.83073 3.01782,-7.18935 3.29282,-13.98717 0.77394,-19.1314 -2.36895,-4.83802 -8.54333,-9.36408 -17.399823,-12.75475 -3.328361,-1.27424 -8.360041,-2.83572 -8.54424,-2.65152 -0.412509,0.41251 -1.044275,7.96472 -1.049513,12.54604 -0.01744,15.25438 4.26254,22.59596 14.553753,24.96449 2.310067,0.53166 9.493523,0.43142 10.184613,-0.14213 z m 51.09539,-3.04479 c 7.69328,-1.79487 14.12522,-4.9611 21.12,-10.39666 3.86957,-3.007 10.40055,-9.45116 14.31483,-14.12452 3.19549,-3.81518 7.12517,-9.00489 7.12517,-9.40981 0,-0.66394 -9.23095,0.11472 -14.92676,1.25912 -18.40629,3.69818 -32.9452,15.1419 -38.71612,30.4738 -1.32512,3.52053 -1.45201,3.40477 3.48288,3.17736 2.74384,-0.12645 5.42563,-0.47201 7.6,-0.97929 z m -32.88064,-7.86203 c 5.39207,-5.67088 9.33109,-12.39435 11.00908,-18.79125 1.49511,-5.69971 1.11869,-12.46134 -1.05697,-18.98658 -1.39839,-4.19404 -5.61044,-12.16597 -6.42449,-12.1593 -0.13584,0.001 -0.4826,0.39711 -0.77057,0.88 -0.28797,0.48289 -1.75047,2.90156 -3.25001,5.37484 -6.42712,10.60065 -10.77402,20.78593 -11.94222,27.982 -0.55936,3.44565 -0.55116,5.04365 0.0402,7.83556 0.93263,4.40285 3.5465,8.09415 7.09461,10.01896 1.02354,0.55526 1.95433,1.0134 2.06843,1.01809 0.1141,0.005 1.56846,-1.42285 3.23191,-3.17232 z m 15.32516,0.28399 c 15.17936,-7.60068 24.97885,-21.02005 29.19766,-39.98314 1.00372,-4.51165 2.21611,-12.8 1.87233,-12.8 -0.29817,0 -6.68966,4.8872 -9.99451,7.64223 -10.60773,8.84293 -18.9537,18.42942 -22.86417,26.26266 -3.6548,7.32107 -4.70122,14.85475 -2.76838,19.93082 0.39108,1.02707 0.41472,1.02161 4.55707,-1.05257 z"
       id="path170" />
  </g>
</svg>
