<svg width="4096" height="1374" viewBox="0 0 4096 1374" fill="none" xmlns="http://www.w3.org/2000/svg">
<path d="M528 1257.08C515.048 1254.29 506.314 1251.45 497.334 1247.11C469.49 1233.63 444.735 1208.09 428.175 1175.77C344.671 981.058 319.231 716.018 237.359 491.222C230.73 473.02 219.429 455.208 208.075 444.068C193.268 429.539 169.31 416.367 140.696 407.023C129.369 403.324 118.397 393.509 112.997 382.246C111.279 378.663 109.309 372.042 108.385 366.746C102.971 335.723 117.43 303.288 146.5 281.247C165.024 267.202 197.014 258.318 219.16 261.07C234.237 262.943 255.271 271.248 271.128 281.588C288.73 293.066 309.596 312.18 323.432 329.5C326.508 333.35 329.45 337.024 329.971 337.664C330.492 338.304 334.041 343.479 337.859 349.164C353.473 372.419 377.278 417.286 389.373 461.796C461.295 726.466 512.367 962.61 570.563 1206.68C574.653 1223.84 577.99 1239.36 577.978 1241.18C577.966 1243.01 577.403 1246.43 576.083 1248.63C574.29 1251.6 571.486 1254.12 568.355 1255.63C562.618 1258.39 555.862 1258.43 549.5 1258.7C542.32 1259.01 534.185 1258.4 528 1257.08Z" fill="#049667"/>
<path d="M528 1257.08C515.048 1254.29 506.314 1251.45 497.334 1247.11C469.49 1233.63 444.735 1208.09 428.175 1175.77C344.671 981.058 319.231 716.018 237.359 491.222C230.73 473.02 219.429 455.208 208.075 444.068C193.268 429.539 169.31 416.367 140.696 407.023C129.369 403.324 118.397 393.509 112.997 382.246C111.279 378.663 109.309 372.042 108.385 366.746C102.971 335.723 117.43 303.288 146.5 281.247C165.024 267.202 197.014 258.318 219.16 261.07C234.237 262.943 255.271 271.248 271.128 281.588C288.73 293.066 309.596 312.18 323.432 329.5C326.508 333.35 329.45 337.024 329.971 337.664C330.492 338.304 334.041 343.479 337.859 349.164C353.473 372.419 377.278 417.286 389.373 461.796C461.295 726.466 512.367 962.61 570.563 1206.68C574.653 1223.84 577.99 1239.36 577.978 1241.18C577.966 1243.01 577.403 1246.43 576.083 1248.63C574.29 1251.6 571.486 1254.12 568.355 1255.63C562.618 1258.39 555.862 1258.43 549.5 1258.7C542.32 1259.01 534.185 1258.4 528 1257.08Z" fill="url(#paint0_linear_640_2)"/>
<path d="M528 1257.08C515.048 1254.29 506.314 1251.45 497.334 1247.11C469.49 1233.63 444.735 1208.09 428.175 1175.77C344.671 981.058 319.231 716.018 237.359 491.222C230.73 473.02 219.429 455.208 208.075 444.068C193.268 429.539 169.31 416.367 140.696 407.023C129.369 403.324 118.397 393.509 112.997 382.246C111.279 378.663 109.309 372.042 108.385 366.746C102.971 335.723 117.43 303.288 146.5 281.247C165.024 267.202 197.014 258.318 219.16 261.07C234.237 262.943 255.271 271.248 271.128 281.588C288.73 293.066 309.596 312.18 323.432 329.5C326.508 333.35 329.45 337.024 329.971 337.664C330.492 338.304 334.041 343.479 337.859 349.164C353.473 372.419 377.278 417.286 389.373 461.796C461.295 726.466 512.367 962.61 570.563 1206.68C574.653 1223.84 577.99 1239.36 577.978 1241.18C577.966 1243.01 577.403 1246.43 576.083 1248.63C574.29 1251.6 571.486 1254.12 568.355 1255.63C562.618 1258.39 555.862 1258.43 549.5 1258.7C542.32 1259.01 534.185 1258.4 528 1257.08Z" fill="url(#paint1_linear_640_2)"/>
<path d="M528 1257.08C515.048 1254.29 506.314 1251.45 497.334 1247.11C469.49 1233.63 444.735 1208.09 428.175 1175.77C344.671 981.058 319.231 716.018 237.359 491.222C230.73 473.02 219.429 455.208 208.075 444.068C193.268 429.539 169.31 416.367 140.696 407.023C129.369 403.324 118.397 393.509 112.997 382.246C111.279 378.663 109.309 372.042 108.385 366.746C102.971 335.723 117.43 303.288 146.5 281.247C165.024 267.202 197.014 258.318 219.16 261.07C234.237 262.943 255.271 271.248 271.128 281.588C288.73 293.066 309.596 312.18 323.432 329.5C326.508 333.35 329.45 337.024 329.971 337.664C330.492 338.304 334.041 343.479 337.859 349.164C353.473 372.419 377.278 417.286 389.373 461.796C461.295 726.466 512.367 962.61 570.563 1206.68C574.653 1223.84 577.99 1239.36 577.978 1241.18C577.966 1243.01 577.403 1246.43 576.083 1248.63C574.29 1251.6 571.486 1254.12 568.355 1255.63C562.618 1258.39 555.862 1258.43 549.5 1258.7C542.32 1259.01 534.185 1258.4 528 1257.08Z" fill="url(#paint2_radial_640_2)"/>
<path d="M529.429 962.885C608.015 674.845 667.272 469.546 739.978 209C749.442 175.079 752.791 165.358 759.192 153.217C774.466 124.249 801.086 102.493 838.243 88.6121C880.174 72.948 911.795 76.7661 925.931 99.2003C932.345 109.378 933.456 119.296 929.438 130.5L596.489 1240.35C596.489 1240.35 549.957 1044.85 529.429 962.885Z" fill="url(#paint3_linear_640_2)"/>
<path d="M529.429 962.885C608.015 674.845 667.272 469.546 739.978 209C749.442 175.079 752.791 165.358 759.192 153.217C774.466 124.249 801.086 102.493 838.243 88.6121C880.174 72.948 911.795 76.7661 925.931 99.2003C932.345 109.378 933.456 119.296 929.438 130.5L596.489 1240.35C596.489 1240.35 549.957 1044.85 529.429 962.885Z" fill="url(#paint4_linear_640_2)"/>
<path d="M1933.5 137.5L1992.33 136.969L1992.59 402.396L2063 403V455.971L1934.24 456.5L1933.5 137.5ZM2225.24 455.952L2224.5 137.5H2353.5L2354.03 193H2282.98L2283.5 271.5L2334.03 272.035L2333.5 325.5L2282.98 326.035L2283.5 402.5L2353.5 402.654V455.996L2225.24 455.952ZM1055.64 141L1055.5 137.5L1088.08 137.221C1106 137.067 1121.75 137.343 1123.08 137.834C1124.45 138.339 1125.61 139.658 1125.75 140.864C1129.96 162.244 1135.7 185.197 1140 203C1145.53 225.825 1150.29 245.625 1150.58 247C1150.87 248.375 1153.31 258.95 1156.01 270.5C1162.3 297.408 1166.37 317.456 1173.97 359C1180.88 396.763 1180.65 395.75 1182.14 394.261C1182.9 393.496 1182.75 385.611 1181.59 366.844C1178.59 318.005 1178.11 298.767 1177.83 218L1177.55 137.5H1202.03H1226.5L1226.49 156.75C1226.48 167.338 1226.37 239 1226.24 316L1226 456H1152.08L1100.55 224.912L1104.23 456H1056C1056 456 1056.48 258.704 1055.64 141ZM1286.5 454.378C1268.15 450.356 1256.98 438.745 1251.28 417.743C1249.74 412.076 1249.55 401.036 1249.29 298C1249.14 235.575 1249.31 183.825 1249.67 183C1250.04 182.175 1250.45 180.6 1250.57 179.5C1250.89 176.733 1251.62 174.024 1253 170.5C1253.65 168.85 1254.34 166.716 1254.53 165.759C1255.06 163.123 1261.45 153.886 1265.62 149.711C1269.47 145.864 1280.2 140.056 1284.25 139.624C1285.54 139.487 1287.1 139.059 1287.72 138.672C1288.35 138.286 1305.65 137.909 1326.18 137.835C1364.12 137.698 1372.57 138.318 1377.75 141.615C1378.99 142.402 1380 142.802 1380 142.503C1380 140.994 1388.51 146.606 1392.94 151.038C1397.15 155.245 1401.16 160.858 1401.49 163C1401.54 163.275 1402.13 164.513 1402.82 165.75C1403.51 166.988 1403.77 168 1403.41 168C1403.05 168 1403.32 168.675 1404 169.5C1404.68 170.325 1404.91 171 1404.5 171C1404.09 171 1404.23 171.578 1404.82 172.284C1407.73 175.785 1408.01 188.214 1407.7 298.5C1407.4 402.359 1407.25 411.009 1405.58 417.5C1400.58 437.022 1391.34 447.737 1374.71 453.318C1368.92 455.263 1365.98 455.421 1331 455.658C1300.3 455.865 1292.23 455.633 1286.5 454.378ZM1348.5 192.933L1307.5 192.5C1307.45 196.343 1307.46 401.765 1307.46 401.765L1348.5 402.5V192.933ZM1470.34 454.905C1459.13 453.032 1448.22 446.99 1442.82 439.663C1438.22 433.424 1434.13 424.149 1432.56 416.406C1431.42 410.749 1431.11 384.909 1430.83 273.5L1430.5 137.5L1489.98 136.97L1489.5 402.5H1529.5V137.5L1588.55 138.273C1588.55 138.273 1588.66 201.21 1588.18 276.539C1587.22 427.813 1587.69 417.829 1580.81 431.967C1574.77 444.375 1564.34 451.861 1549.36 454.53C1540.43 456.121 1479.36 456.41 1470.34 454.905ZM1600.04 137L1660.54 138.058L1683.97 391.338L1690.38 391.187L1713.5 137.5L1773.97 136.971L1733.02 454.75L1640.09 456L1600.04 137ZM1786.5 137.5L1916 136.986V193H1846L1845.75 270.75L1897.18 272.034L1896.46 325.045L1845.5 325.5V402.5L1916 403.026V456H1787L1786.5 137.5ZM2077.98 137H2138.14C2137.99 225.5 2137.84 314 2137.69 402.5C2161.63 402.657 2209.5 402.971 2209.5 402.971L2209 456H2079.12L2077.98 137Z" fill="url(#paint5_linear_640_2)"/>
<path d="M2203.52 1265.75C2203.08 1264.44 2200 1243.64 2200 1241.97C2200 1241.42 2196.4 1241 2191.71 1241C2167.22 1241 2150.83 1228.42 2143.2 1203.77C2141.74 1199.06 2141.53 1186.62 2141.23 1087C2140.99 1007.54 2141.22 973.223 2142.03 967.574C2145.56 942.912 2159.31 927 2180.5 923.075C2187.88 921.708 2247.61 921.686 2257.27 923.046C2276.59 925.766 2289.95 935.666 2296.03 951.757C2301.02 964.97 2301.09 966.921 2300.74 1085.79C2300.44 1187.05 2300.27 1197.05 2298.68 1202.91C2294.32 1219.04 2286.35 1229.83 2274.65 1235.46C2270.72 1237.35 2265.65 1239.19 2263.39 1239.55C2261.13 1239.92 2258.81 1240.5 2258.24 1240.86C2257.22 1249.52 2260.69 1255.71 2260.99 1265.25C2251.46 1264.89 2210.7 1277.4 2203.52 1265.75V1265.75ZM2241 977H2201V1186H2241V977ZM1055.5 922.5H1184.5C1184.68 940.667 1184.85 958.834 1185.03 977H1115.19C1114.2 1004.85 1114.86 1033.65 1115.05 1056H1165V1110H1115V1186C1138.82 1186.32 1161 1186.41 1184.5 1186.5C1184.68 1204.67 1184.85 1222.83 1185.03 1241H1054.99C1055.16 1134.83 1055.33 1028.67 1055.5 922.5ZM1233.56 1239.4C1214.28 1234.73 1202 1219.65 1199.02 1196.97C1198.25 1191.06 1198 1153.55 1198.21 1073L1198.5 957.5L1200.82 951C1205.1 938.996 1210.67 932.671 1221.5 927.529C1225.35 925.701 1231.46 923.709 1235.08 923.103C1244.98 921.444 1305.49 921.712 1315.29 923.458C1336.19 927.185 1347.5 938.455 1351.55 959.584C1353.52 983.707 1352.82 1032 1352.82 1032H1294V977H1258V1186H1293.97L1294.5 1116.5H1353.5L1353.8 1141.5C1354.14 1169.84 1352.73 1197.92 1350.58 1205.87C1345.67 1223.95 1333.02 1236.11 1315.2 1239.88C1306.95 1241.62 1241.16 1241.24 1233.56 1239.4ZM1408 1239.43C1399.04 1236.98 1393.86 1233.98 1387.49 1227.56C1380.64 1220.66 1376.76 1213.4 1373.91 1202.11C1372.01 1194.61 1371.96 1190.73 1372.23 1078.93L1372.5 963.5L1375.32 955.5C1381.69 937.418 1392.18 927.528 1409.28 923.497C1417.8 921.487 1480.88 921.424 1492.04 923.416C1499.84 924.808 1509.55 929.07 1514.6 933.319C1519.19 937.18 1524.95 946.268 1527.56 953.775C1531.8 965.977 1532.14 976.962 1531.74 1089.5C1531.42 1182.92 1531.19 1195.25 1529.72 1201.34C1525.15 1220.25 1515.23 1232.34 1499.5 1238.19C1493.71 1240.34 1492.09 1240.43 1453.5 1240.68C1420.42 1240.89 1412.55 1240.67 1408 1239.43V1239.43ZM1471.5 977.5L1431 976.959V1186H1472.01L1471.5 977.5ZM1553.46 1239.75L1553.5 922.5H1612.5L1613.01 1185.97L1684.5 1186.5L1685.03 1241L1553.46 1239.75ZM1734 1239.19C1717.49 1234.87 1706.46 1223 1700.81 1203.47L1698.5 1195.5V1082.5C1698.5 976.756 1698.62 969.002 1700.32 961.747C1705.23 940.796 1717.46 927.88 1736.57 923.447C1742.38 922.101 1749.24 921.912 1780.97 922.228C1816.46 922.582 1818.86 922.722 1825.15 924.81C1840.95 930.056 1850.39 940.199 1855.63 957.543C1857.31 963.1 1857.45 971.154 1857.74 1077.44C1858.09 1203.84 1858.23 1200.66 1851.62 1214.59C1845.27 1227.96 1833.34 1237.28 1819.11 1239.98C1816.02 1240.56 1798.1 1240.98 1777.11 1240.94C1746.01 1240.89 1739.52 1240.63 1734 1239.19ZM1798 977H1758V1186H1798V977ZM1914 1239.19C1897.06 1234.76 1885.4 1221.95 1881.51 1203.5C1880.26 1197.56 1880.03 1178.7 1880.02 1078.8C1880.01 996.039 1880.33 959.525 1881.11 955.799C1883.76 943.202 1892.02 932.167 1902.34 927.445C1913.54 922.319 1919.02 921.834 1961.5 922.205C1999.11 922.534 2000.73 922.628 2007 924.833C2020.53 929.592 2028.02 937.325 2032.7 951.368C2035.38 959.396 2035.42 959.901 2035.78 990.765L2036.15 1022.03L1977.5 1021.5L1976.96 977H1939V1186H1978V1110H1960V1062H2036.08L2035.79 1131.25L2035.5 1200.5L2032.71 1208.39C2029.06 1218.71 2026 1223.79 2020.11 1229.3C2008.57 1240.09 2003.62 1241.01 1957.44 1240.94C1926.03 1240.89 1919.53 1240.63 1914 1239.19ZM2059.5 922.5L2118 921.97V1241H2058.99L2059.5 922.5ZM2359 1239.41C2340.72 1234.56 2329.14 1221.82 2324.32 1201.25C2322.61 1193.96 2322.5 1185.5 2322.5 1058.01V922.518L2380.69 923.354L2382 1186H2421L2422 923H2481L2481.25 1009.75C2481.72 1173.36 2481.57 1190.46 2479.61 1200C2475.12 1221.88 2462.24 1235.99 2443.2 1239.91C2434.72 1241.65 2365.92 1241.25 2359 1239.41ZM2504.07 923.605L2633 923V976L2562.5 976.5L2563.16 1055.5L2613 1055.77L2613.94 1110H2563V1186H2633V1241H2502.74L2504.07 923.605ZM2727 1082.27L2790 1082V1107.95L2755.5 1108.5V1148.5L2781 1149.06V1174.94L2755.5 1175.5L2755.9 1214.5L2789.5 1214.82L2789.45 1240.05L2726.97 1240.86L2727 1082.27ZM2821.01 1239.94L2820.5 1108.5L2796 1107.94V1082H2875V1107.94L2850.5 1108.5L2849.24 1239.96L2821.01 1239.94ZM3571.1 1239.97L3605.6 922.84C3605.6 922.84 3711.62 918.283 3712 923.906C3728.43 1088.69 3744.24 1240.61 3744.24 1240.61L3685.5 1239.95L3678.09 1178.92C3678.06 1178.75 3636.5 1178.66 3636.5 1178.66L3627.67 1240.15L3571.1 1239.97ZM3661.77 978L3654.39 977.894L3641.43 1126.14L3674.86 1125.9L3661.77 978ZM3757.5 922.5L3816 921.97L3816.01 924.735C3816.01 1016.94 3815.99 1186 3815.99 1186H3888V1241L3758.12 1240.61L3757.5 922.5ZM3902.46 1239.75L3902.5 922.5L4032 921.985V977H3962V1056H4013V1110H3962V1186H4032V1241L3902.46 1239.75H3902.46ZM3005.11 1238.45C2991.58 1234.74 2982.4 1227.08 2976.36 1214.47C2970.91 1203.1 2970 1195.74 2970 1162.91V1134H3026.97L3026.95 1186.5H3063.5L3064.03 1128.43L3027.76 1101.55C2984.91 1069.77 2981.71 1067.17 2977.52 1060.56C2970.62 1049.67 2970.62 1049.72 2970.23 1005.48C2969.85 962.043 2970.32 956.537 2975.35 945.552C2980.39 934.533 2990.06 927.557 3004.5 924.511C3014.94 922.309 3075.02 922.368 3085.79 924.591C3096.62 926.826 3103.01 930.136 3108.87 936.548C3118.87 947.49 3121 958.033 3121 996.588V1025H3065.1L3064.73 977.2H3026.27L3027 1026.74L3061.75 1052.2C3080.86 1066.2 3098.53 1079.04 3101 1080.74C3111.16 1087.7 3117.63 1096.97 3119.89 1107.8C3121.63 1116.09 3121.38 1190.85 3119.59 1200.16C3115.82 1219.77 3106.96 1231.39 3091.3 1237.31C3085.75 1239.4 3083.88 1239.51 3048 1239.71C3017.53 1239.88 3009.49 1239.65 3005.11 1238.45V1238.45ZM3177.23 1238.45C3156.99 1233 3145.78 1217.59 3142.95 1191.34C3142.25 1184.83 3142 1145.23 3142.22 1074.5C3142.55 968.414 3142.57 967.433 3144.71 959.844C3150.31 939.998 3159.89 929.546 3176.79 924.84C3182.84 923.156 3187.25 922.981 3221.5 923.073C3262.91 923.185 3265.16 923.427 3276.68 929.046C3280.41 930.861 3284.59 933.973 3287.19 936.87C3291.16 941.283 3296.79 951.099 3297.54 954.916C3297.71 955.786 3297.92 956.498 3298.01 956.498C3298.21 956.498 3298.69 958.97 3299.95 966.498C3300.59 970.327 3300.87 1012.85 3300.71 1084L3300.47 1195.5L3298.24 1203.39C3292.46 1223.84 3282.47 1234.32 3264.77 1238.49C3255.87 1240.59 3185.05 1240.55 3177.23 1238.45V1238.45ZM3240.88 977.356L3201.2 977.198L3200.69 1186.35L3241.5 1186.5L3240.88 977.356ZM3357.11 1238.42C3344.12 1234.92 3335.34 1227.86 3329.9 1216.54C3323.26 1202.7 3323.5 1207.89 3323.5 1078.5C3323.5 1014.15 3323.81 959.608 3324.19 957.297C3324.57 954.987 3325.37 952.175 3325.97 951.047C3326.58 949.92 3326.83 948.998 3326.53 948.998C3324.93 948.998 3332.18 938.138 3336.22 934.5C3339.97 931.117 3348.01 926.22 3351 925.491C3351.27 925.424 3353.3 924.791 3355.5 924.084C3360.76 922.393 3412.2 921.514 3428.5 922.836C3440.75 923.83 3449.75 925.503 3451.45 927.104C3451.97 927.596 3453 927.998 3453.74 927.998C3456.75 927.998 3466.28 936.517 3469.35 941.946C3471.07 945 3472.53 947.723 3472.58 947.998C3472.63 948.273 3473.14 949.623 3473.71 950.998C3474.67 953.277 3476.65 962.344 3476.99 965.998C3477.81 974.746 3477.17 1030.29 3477.17 1030.29L3419 1030.94L3417.75 977.217L3382.64 976.498L3381.5 1186.5H3418.5L3419.03 1117H3477.5L3476.91 1158.25C3476.26 1203.18 3476.04 1205.09 3470.01 1216.94C3464.12 1228.52 3455.24 1235.32 3441.91 1238.46C3432.8 1240.61 3365.13 1240.57 3357.11 1238.42L3357.11 1238.42ZM3498.5 922.5H3556.5L3556.79 1240H3499.24L3498.5 922.5ZM1095 896.778C1095 895.025 1108.04 854.651 1108.9 853.74C1139.63 852.768 1163.06 853.301 1196.05 853.5C1182.6 869.879 1170.4 883.574 1158.76 898C1150.76 895.668 1097.04 903.075 1095 896.778Z" fill="url(#paint6_linear_640_2)"/>
<path d="M1095.34 831.942C1079.14 829.119 1068.27 820.738 1060.97 805.435C1054.79 792.486 1055 798.007 1055 649.435V514H1115V778H1154V514H1214.05L1213.76 651.25C1213.49 778.477 1213.34 788.938 1211.72 794.5C1207.29 809.695 1198.81 821.527 1188.69 826.66C1177.6 832.275 1177.28 832.312 1137.5 832.586C1117.15 832.726 1098.18 832.436 1095.34 831.942ZM1235 514H1305.63L1362.73 773.599L1357.85 514H1407V833.024L1331.78 832.5L1281.9 604.531L1285.23 833H1235V514ZM1430 514H1490V833H1430V514ZM1555.5 832.339C1544.93 830.808 1535.57 826.419 1529.63 820.206C1521.54 811.756 1518.4 806.208 1515.24 794.79C1513.63 788.982 1513.5 779.657 1513.5 673C1513.5 564.291 1513.61 557.123 1515.32 551.08C1519.19 537.458 1527.29 525.843 1536.84 520.246C1546.69 514.477 1550.92 513.999 1591.98 514.015C1621.22 514.026 1630.86 514.35 1635.65 515.479C1654.48 519.921 1665.52 531.281 1670.73 551.601C1672.37 558.005 1672.5 566.717 1672.5 673C1672.5 779.172 1672.37 787.973 1670.74 794C1666.57 809.406 1658.1 821.345 1647.5 826.75C1636.98 832.117 1635.26 832.309 1595.5 832.55C1575.15 832.673 1557.15 832.579 1555.5 832.339ZM1613 569H1572.09L1571.96 778H1613L1613 569ZM1695 514L1765 514.479L1821.81 772.52L1817 514H1866V833H1791.08L1741.05 603.465L1744.23 833H1695V514ZM1972 513.93L2036.25 514.215L2100.5 514.5L2106 517.096C2115.08 521.383 2120.02 527.564 2123.36 538.83C2126.56 549.621 2127.15 567.667 2126.78 642.5C2126.45 707.962 2126.23 716.12 2124.68 721.5C2118.88 741.679 2108.47 751.204 2089.17 753.995C2085.5 754.526 2070.91 754.969 2056.75 754.98L2031 755V833H1972V513.93ZM2067 569H2031V701H2067V569ZM2183.53 831.971C2161.87 828.188 2147.89 812.617 2144.05 788C2143.19 782.498 2142.97 750.659 2143.22 668.5C2143.55 564.274 2143.7 556.088 2145.37 550.563C2151.22 531.2 2163.79 518.469 2180.49 515.002C2184.17 514.238 2198.75 513.989 2225.71 514.228C2263.87 514.567 2265.74 514.672 2271.42 516.795C2283.5 521.313 2290.3 527.391 2296.09 538.83C2302.71 551.921 2302.5 547.411 2302.5 673.5C2302.5 779.62 2302.38 787.949 2300.72 794C2296.36 809.952 2288.44 821.204 2277.73 826.643C2266.94 832.127 2265.36 832.306 2225.5 832.583C2205.15 832.724 2186.26 832.448 2183.53 831.971ZM2243 569H2203V778H2243V569ZM2325 513.943L2388.75 514.222L2452.5 514.5L2458.76 517.392C2465.77 520.63 2470.87 525.66 2473.76 532.189C2478.53 542.981 2478.5 542.279 2478.5 633C2478.5 709.94 2478.33 719.001 2476.84 723.5C2472.66 736.119 2468.32 742.541 2460.67 747.432C2450.71 753.806 2447.8 754.265 2414.25 754.754L2384 755.196V833H2325V513.943ZM2420 569H2384V701H2420V569ZM2537.5 831.927C2517.5 828.572 2504.51 816.294 2498.41 795C2496.64 788.827 2496.53 781.594 2496.25 651.25L2495.95 514H2556V778H2595V514H2655V649.042C2655 799.881 2655.33 792.536 2647.97 807.648C2641.24 821.475 2630.26 829.291 2613.82 831.959C2606.35 833.171 2544.76 833.146 2537.5 831.927ZM2677 514H2737V777.975L2808.5 778.5V832.5L2677 833.015V514ZM2847 514.701L2953.49 514.5L2987.22 833H2926L2921 771.792L2878.28 771C2878.28 771 2874.4 812.325 2872.58 833H2811.82L2847 514.701ZM2914.83 718.357L2904 570.653L2896 570.75L2882.81 718L2914.83 718.357ZM3000 514H3059V833H3000V514ZM3083 513.93L3146.75 514.215L3210.5 514.5L3215.38 516.772C3222.86 520.248 3227.37 524.342 3230.75 530.705C3237.53 543.465 3237.34 541.163 3237.74 618.421C3237.97 663.087 3237.73 690.717 3237.08 694.921C3234.75 709.837 3230.28 718.642 3222.35 723.891C3219.86 725.543 3217.33 727.058 3216.73 727.257L3243.62 831.265L3184.58 832.5L3159.04 734.21L3142.5 734.5L3141.98 833H3083V513.93ZM3180.02 569H3142L3142.69 679.355L3179.5 679.5L3180.02 569ZM3258 514H3388V569H3318V648H3369V702H3318V778H3388V833H3258V514Z" fill="#503B86" fill-opacity="0.980392"/>
<defs>
<linearGradient id="paint0_linear_640_2" x1="266.5" y1="373" x2="177" y2="624" gradientUnits="userSpaceOnUse">
<stop stop-color="#523F85"/>
<stop offset="1" stop-color="#523F85" stop-opacity="0"/>
</linearGradient>
<linearGradient id="paint1_linear_640_2" x1="472.5" y1="1180" x2="207" y2="1102" gradientUnits="userSpaceOnUse">
<stop stop-color="#E5BB2E"/>
<stop offset="1" stop-color="#E5BB2E" stop-opacity="0"/>
</linearGradient>
<radialGradient id="paint2_radial_640_2" cx="0" cy="0" r="1" gradientUnits="userSpaceOnUse" gradientTransform="translate(521.5 903.5) rotate(-173.55) scale(57.8662 109.383)">
<stop stop-color="#D64D3E" stop-opacity="0.74"/>
<stop offset="0.0001" stop-color="#D64D3E" stop-opacity="0.41"/>
<stop offset="1" stop-color="#D64D3E" stop-opacity="0"/>
</radialGradient>
<linearGradient id="paint3_linear_640_2" x1="628.5" y1="1083" x2="950" y2="100" gradientUnits="userSpaceOnUse">
<stop stop-color="#E4B32E"/>
<stop offset="0.299144" stop-color="#D02D4A" stop-opacity="0.980392"/>
<stop offset="0.655763" stop-color="#C838A1" stop-opacity="0.980392"/>
</linearGradient>
<linearGradient id="paint4_linear_640_2" x1="790.5" y1="162" x2="870" y2="456.5" gradientUnits="userSpaceOnUse">
<stop stop-color="#523E87"/>
<stop offset="1" stop-color="#523E87" stop-opacity="0"/>
</linearGradient>
<linearGradient id="paint5_linear_640_2" x1="1817" y1="514" x2="1933.5" y2="137.5" gradientUnits="userSpaceOnUse">
<stop stop-color="#DD3BB3" stop-opacity="0.980392"/>
<stop offset="1" stop-color="#5C428C" stop-opacity="0.980392"/>
</linearGradient>
<linearGradient id="paint6_linear_640_2" x1="2502.74" y1="1241" x2="3281.67" y2="441.108" gradientUnits="userSpaceOnUse">
<stop stop-color="#009565" stop-opacity="0.980392"/>
<stop offset="0.34429" stop-color="#E89024" stop-opacity="0.980392"/>
<stop offset="1" stop-color="#B91B3E" stop-opacity="0.980392"/>
</linearGradient>
</defs>
</svg>
