<?xml version="1.0" encoding="UTF-8"?>
<svg version="1.0" viewBox="0 0 1000 550" xmlns="http://www.w3.org/2000/svg" xmlns:cc="http://creativecommons.org/ns#"
   xmlns:dc="http://purl.org/dc/elements/1.1/" xmlns:rdf="http://www.w3.org/1999/02/22-rdf-syntax-ns#">
   <path
      d="m100.31 460.87 0.24993-7.7479-4.2488-2.4993-0.49986-5.9984 4.4987-3.499 1.9994-4.7487-0.24993-4.2488-1.2496-4.7487 0.49986-2.2494 2.4993-4.7487-0.74978-4.2488 1.2496-3.749 3.4991-5.2486 2.7492-5.4985 0.99971-5.2486-0.74978-4.9986-1.9994-5.2472-1.7685-5.9072-0.0536-0.14502v-2.7493l1.7495-2.2494 3.2492-0.74982 0.99971-2.4993-0.99971-4.2488 2.9991-5.4985-1.2496-3.9989-5.4986-1.4996-3.2491 4.2488-4.7488-0.74977-2.7492 2.9992-0.49985-7.248-2.7492-2.2494 4.2488-2.7493-0.74978-4.7486-1.9994-2.7493-3.7489-1.2497v-3.749h-1.9996l-3.499 2.4993-1.2496-1.7495v-4.2488l-3.9988-2.7492-1.4997-3.749-5.7483 2.7493-2.7492-3.499-2.9993 2.4993-4.9986-2.9992 0.24993-4.7486-2.2494-2.7493-5.4985 0.24991-2.2494 5.2486-2.9993 5.4985-13.496 0.74982-5.4984-0.49985-1.7496 5.7484 1.2496 2.4993 3.749 4.4988 6.9981 2.2494-1.4997 5.9984 3.749 4.4988v4.2488l-4.2489 1.4996-3.499 0.49984-3.2491 7.498-3.749 4.4987-3.499 5.9984 4.4987 4.2488-1.7495 2.7493 3.4991 3.9989-0.49986 6.9981 2.2494 2.2494 3.499 4.2488 0.74978 3.2491 0.24993 4.7487-2.4993 6.7482 4.4987 0.74977 4.2489-0.9997 9.9972 4.9986h3.9988l4.7488 2.7493 5.4984 0.24993 3.2492 4.9986-1.9996 3.749v2.2494l0.24993 4.9986 2.9993 0.49985 2.9991 4.7487 5.4985-0.49989 2.4993 1.9995h2.7492l5.4985 4.7486 0.24993 2.2494 3.9988 0.24993 3.5293 2.5422"
      fill="#63C3D0" fill-rule="evenodd" stroke="#000" stroke-width="3.5" name="Vorarlberg" />
   <path
      d="m367.47 285.56-4.5066 3.5015-5.2444 2.9991 3.2502 7.9922 0.50256 8.746-5.5114 1.2561-14.242-1.7429-1.7428 1.2404-3.2504-1.2404-18.748 4.9932-1.0048 4.004-8.2435-1.5074-13.252 1.2562-4.4907-1.7586-5.7468 5.0089v6.7361l-3.5016 4.004-8.2435 1.0049-7.5054-1.7586-6.5007 8.008 2.9991 0.73799-0.73795 3.7528-7.2543-0.25123-5.7469 5.2601-0.75364 2.9991-3.7528 2.9991-4.2395-0.75369 2.7479-4.5064-2.4967-1.9941-3.5014 0.7537-5.2445 1.4917-5.9981 6.5006-7.2542-0.75369-5.4957 1.5074-5.7468-3.2503 2.4966-3.5015-8.7459-11.243-5.2602 0.50246-1.4916-2.7478 5.4956-3.7528-4.4907-4.004-8.7459 3.5015h-5.0088l-0.9893-3.2503-5.0088 0.25122-3.5016-4.2552-6.9873 0.25124-4.004-2.2454-4.004 3.7528-0.25122 2.9991h-6.7361l-5.2602-3.5015 1.005-3.2503-0.25121-2.2454-6.7519 1.9941 3.2503 4.004-2.4966 3.7528 1.7586 3.2346-1.5074 2.9991 4.5064 2.5123 1.2405 9.7352-5.4957 6.7518-0.50242 3.7528-2.4966-0.25124-3.5016 3.7528 1.2562 1.7429-7.2543 9.2484h-3.5016l-3.5014 3.5015-5.4957 2.2454-3.7528-0.75369-3.9568 1.2404-0.0314 0.26694 1.7428 5.9981 2.0098 5.4957 0.73809 5.0089-0.9893 5.2444-2.7478 5.4956-3.5016 5.2444-1.2561 3.7527 0.75364 4.2552-2.4966 4.742-0.50243 2.2454 1.2404 4.7577 0.25122 4.2395-1.9942 4.7576-4.5064 3.5016 0.50243 5.9981 4.2552 2.4966-0.23553 7.1444 5.7312 0.0942 4.5064-3.4858 5.2445-1.5074 0.25122-4.9932 1.4916-5.2602 6.7519 1.2562 1.9942-0.75369-0.73809-2.999 2.9991-2.4966 2.7478-7.4898 1.9942 0.2355 2.2454-0.73795 5.7469 3.737 0.75364 3.2503 6.5006 5.2602-2.999 7.741 0.75364 2.7479 4.9932 3.5015 8.4947 0.50246 7.5056-3.7527 7.003 0.25123 3.7371 3.7527 5.7469 1.4917 0.75364 2.999-3.5016 4.5065 3.2504 0.75369 3.7528-1.7586 2.4966 2.999 5.4956 0.50246 3.7528 2.4966 9.4997-2.2454 7.741 1.7429 1.5074-5.4957 4.742-4.2395v-7.2543l3.2504-3.2503-0.75377-6.5006 10.002-11.745 9.2485-0.75369 9.7508-3.2503 5.7469 1.0049 3.2504 2.2454 4.9932-1.2404 5.4956-7.2543h2.9991l4.2552 3.7527 9.4996-4.004 12.75 3.7527 2.7479 2.7478h4.742l0.50243-3.2503 7.5056-0.75369 14.744-8.4947 14.493-3.7528 4.0039-4.4907 2.7479-0.61235v-5.1345l-0.25121-5.9981-2.0098-2.2453-3.7371-1.5074-0.50243-5.7469-0.25121-7.2543 1.7428-3.2503-1.4916-5.9981 3.2502-1.7429 6.9873 0.50247 5.5114-2.9991 7.2385-3.2503 4.5065-4.004 2.7478-0.98922 6.2494 4.2395 11.494-4.4907-0.25121-3.7528 6.7518-6.5006h4.9933l3.2502-1.4917 2.7479-3.7528 1.2561-4.2552 0.9893-4.2395 2.261-2.9991 3.4858-5.7626-1.9942-2.7478-2.4966-2.9991v-3.737l-0.50243-5.5114-4.4907-1.9941-4.004-2.4966-1.3818-5.2915-3.1246-0.95781-3.7371 2.7478-7.7568-6.5006-2.4966-5.4956-8.4947 2.2454-5.0088-1.4917-8.7459 2.9991-1.9942-4.7577 2.7478-3.737-1.2404-1.7586zm39.851 16.707 0.12561 0.0471-0.25121-0.50246 0.1256 0.45535zm-52.099 107.4 6.5948-1.4079 3.1717-0.65426 3.0462 2.4233-3.0776-2.4966-4.6634 1.0206-5.0717 1.1149zm12.813 0.36111 0.92643 0.75369-4.4907 8.746-8.008 1.9941v9.2484l3.7528 5.4957 0.50243 3.7527 7.4899 4.742 5.26-0.48673 1.7429 1.7429 4.2552 7.7567-2.0098 9.7352 5.009 2.0098s3.9934-0.5012 4.9932-0.25123c4e-3 9.6e-4 0.0117-1e-3 0.0157 0 0.016 6e-3 0.0463 0.0206 0.0629 0.0314 1.0362 0.7472 3.1717 10.206 3.1717 10.206l5.4957 3.2503 17.492 8.008 5.9981 0.73796 6.5006-0.12561 1.052 0.95784 0.70659-2.5751c0-5e-5 1.984-4.4685 3.2345-5.2444 1.2498-0.74982 1.7586-6.2494 1.7586-6.2494l0.25134-6.5006 4.2394 0.25123 5.2602 0.25123 4.7419-2.7479 5.4957-3.2503 4.004 3.5015 4.2552 0.48679-1.005-5.7469-3.7526-3.737-4.004-5.5114-4.4909-3.737-3.7526-4.2552-0.50255-5.4957-1.994-5.4957-4.7421-0.75369-1.7586-4.2552-2.999-3.737 1.2562-4.7576 2.4966-6.7518-7.7568-2.2454-7.9923-1.7429-1.4916-5.9981-2.0098-2.2611-5.9981-4.2395h-4.742l-3.2503-0.75369-3.7528-2.2454-4.4907 3.9883-4.5064-0.98922-5.7469 1.4917-1.4916 4.2552-1.7586 2.999-5.7469 4.004-7.003 1.7429h-0.17279zm-267.73 50.136h-0.25121l0.23553 0.59667 0.0157-0.59667z"
      fill="#63C3D0" fill-rule="evenodd" stroke="#000" stroke-width="3.5" name="Tyrol" />
   <path
      d="m418.51 402.07 2.4993-1.9994 0.74978-3.749 6.2483 2.9991 3.499 2.2494 3.9988 2.4993 5.9984 0.74982 7.248 0.9997h4.9986l5.4985 2.9992 5.4984 2.9992 5.4985 3.2491 5.9983-1.2497h4.4988l5.2485 0.49984 5.9984-2.2494 3.7489-0.74981 0.99971-3.499 2.4994-4.9986 5.4984-1.4995 3.999 1.4995 4.4987 2.4994 5.4986 0.49984 5.4984 0.24993h3.999l5.2485 1.7495 2.4993 0.99975 5.9984-0.24992h4.4987l2.7493 1.7495 2.9991 2.9992 3.2491 2.7492 3.999 1.7495 5.4984 3.9989 2.9991-1.2497 2.7493-2.9992-0.24992-3.9989 1.9994-3.749 1.9994-3.9989 2.4993-3.499-0.99971-6.2482 1.2498-3.4991 5.4984-3.749 1.4996-2.2494-0.24993-3.2491-4.7486-1.2497-1.9994-1.2496-3.2492-6.7481-2.4993-4.9986-2.7492-4.4988-3.2492-6.7481-3.499 0.24993-0.74979 2.7493-0.99971 1.7495-5.4985-1.4996-2.2494 1.9994-1.4996 1.4996-5.7485-3.499-3.9988-2.7493-1.9994-0.99968-2.9993-9.9973-2.7492-6.9981-1.4996-5.4985 1.7495-7.4979 0.49986-1.4996-4.4987-2.9992-3.999-3.2491-5.2485-3.2491-0.24993-4.2489 1.4996-4.4988 2.2494-3.9989-0.49985-3.9989-1.7495-1.7495 2.4993-7.7479 2.2494-6.9981-0.49985-3.2491-1.7495-0.74977-4.2488-0.49989-4.9987-2.9991-2.9991-2.4993v-0.99975h10.747l1.4996-1.4995-0.24993-2.2494-6.4982-2.9992-8.9974-0.74977-4.2489 0.24992h-6.2482l-2.4994-4.7487-2.9991-9.4974-1.9994-7.7479 1.7495-5.9983 6.2482 0.24992 3.2492 0.24992v-3.2491l-1.9994-2.9992-4.9987-0.99968-4.9986 0.74977-3.2492 2.9992-8.2478 0.24992-8.4976-1.2497-5.4986-4.9986-2.4993-2.4993-4.7488 0.24993-3.9988 1.2497-2.7492 0.24993-0.99971 2.4993-1.4997 4.2489-7.2623 1.9459-0.23553-0.44633 1.7495 2.2494 1.7495 1.9994 3.9988 1.4996 5.7485 8.4976 6.2483 9.9973-4.4988 9.4974-3.7489 4.2488 0.24993 5.4985-2.4993 5.2486 1.7495 2.4993h8.4977l3.7489-3.2491 5.4986 5.4985 1.9994 4.9986 2.9991 5.4985-3.2491 3.499-0.24993 6.4982h-2.4994l-0.99971 2.4993 2.2495 2.4993-2.2495 3.2491-0.24992 2.7493s1.4996 2.9992 2.7493 2.9992c1.2496 0-0.49985 4.2488-0.49985 4.2488l-3.2492 1.2497-1.7495 3.9989-2.7492-3.499-3.4991 2.2494-9.4974-5.7484-0.24993-2.2494-5.9983-5.2486h-3.999l-3.2491-6.7481 1.7495-5.4985 3.2491-0.49984-1.7495-3.499-6.2482-2.9992 0.24993-3.9989-4.2489-2.2494-2.4993 0.74977-5.2485-0.24993-3.999 1.9994-4.2488-0.24992s-2.3744 5.6859-4.2489 7.248l-0.24993-0.49984 1.4996 5.7484 3.999 2.4993 4.4987 1.9994 0.49986 5.4985v3.749l2.4994 2.9992 1.9994 2.7493-3.499 5.7484-2.2495 2.9992-0.99972 4.2488-1.2496 4.2488-2.7492 3.749-3.2491 1.4996h-4.9987l-6.7482 6.4982 0.24993 3.749-11.497 4.4988-6.2482-4.2489-2.7493 0.99974-4.4987 3.9989-7.248 3.2491-5.4984 2.9992-6.9981-0.49986-3.2491 1.7495 1.4996 5.9983-1.7496 3.2491 0.25005 7.248 0.49986 5.7484 3.7489 1.4996 1.9994 2.2494 0.24993 5.9984v5.4985l0.0532-0.36659 9.6941-2.1327 2.994 2.2442 0.25507 0.25515 6.9981-1.7495 5.7485-3.9989 1.7495-2.9991 1.4996-4.2488 5.7485-1.4996 4.4987 0.99974 4.4987-3.9989 3.749 2.2494 3.2491 0.74977h4.7488l5.9983 4.2489 1.9996 2.2494"
      fill="#63C3D0" fill-rule="evenodd" stroke="#000" stroke-width="3.5" name="Salzbourg" />
   <path
      d="m418.85 401.95 2.4994-1.9994 0.74966-3.749 6.2483 2.9991 3.4991 2.2494 3.9988 2.4993 5.9984 0.74982 7.2479 0.9997h4.9987l10.997 5.9984 5.4984 3.2491 5.9984-1.2497h4.4987l5.2486 0.49985 5.9983-2.2494 3.749-0.74982 0.99971-3.499 2.4993-4.9986 5.4985-1.4996 3.9988 1.4996 4.4988 2.4993 5.4984 0.49985 5.4986 0.24992h3.9988l5.2486 1.7495 2.4993 0.99975 5.9984-0.24993h4.4987l2.7492 1.7495 2.9993 2.9992 3.2491 2.7492 3.9988 1.7495 5.4985 3.9989 0.74978-0.24992 3.2491 5.2486 3.4991 2.4993 2.7492 1.2497 5.4986-2.4993 1.4996-3.4991 3.9988-3.499 3.499-1.7495 1.7495-3.2491 1.7496-3.499 2.9991-2.7492 3.7489-1.4996 3.999-2.4993 6.998-3.499 3.2492-0.49984h1.7495l2.2494-0.74982 2.2494-0.49985 1.4997 2.4993 1.7495 2.9991 3.2491 0.74982 3.499-0.24991 4.9987-0.49991 1.4996-0.49984 1.9994 4.7487 1.7495 0.99969h3.2492l3.2491-1.7495 2.4993-2.2494 2.4994-1.7495h1.9994l2.2494-0.74978 6.2483-0.24992 2.2494-1.2497h2.2494l2.9991 0.74977h2.2495l2.9991-0.9997h2.7492l3.7489-0.24996 3.4991-0.49986 2.7492-0.24991h3.2492l2.4993-0.74978 4.4987-1.7495 2.9993-0.99975 2.9991 2.9992 3.9988 1.9994 2.4993 2.9992 2.7493 4.4987 2.7492 3.749 3.7489 4.7487 1.9996 2.9992 0.24993 4.4988-2.2495 3.9989-0.99971 3.2491 0.74991 3.9989 1.4996 2.7492 1.7495 1.9994 1.4996 4.4988v5.9984l0.74979 5.7484 0.49985 1.9994 3.2491 1.2497 4.2489 3.499 3.4108 1.9692-0.91152 0.78002-8.7476 1.9994-2.7492 5.4985-1.4996 2.4993-4.9987-5.2486-2.9991 4.2488-7.248 0.74977-5.4984 19.745-10.247 2.2494-2.7493 6.7481-3.2491 0.4999-2.2494 3.749-9.4974 2.7492v6.4982l-2.2495 3.749-7.2479-6.7481-2.2494 2.2494-3.4991-1.4996-2.9991-1.9994-2.9991-3.2491-9.2475 1.9994-4.9987 1.7495-3.499-1.7495-7.9978 1.2497-8.4977 1.2496-5.4984-7.9978-8.2478-0.99975-7.498 0.49985-9.2475-6.2482-8.4977 0.24992-5.9983 3.499-10.997-0.99974-12.997-4.7486-4.2488 2.4993-3.9988-3.749-3.999 0.99969-3.7489-2.9991-6.9981 2.2494-4.4988-2.9992-10.997 4.2489-9.9972 0.49985-10.747-5.4985-11.497-0.74982-13.746-0.74977-12.746 0.24992-10.747-5.7484-2.4994-1.2497-7.7478 0.24992-5.2219-0.32635 0.78102 0.40886 0.6918-2.5818s1.9994-4.4988 3.2492-5.2486c1.2495-0.74977 1.7495-6.2482 1.7495-6.2482l0.24993-6.4982 4.2488 0.24992 5.2485 0.24993 4.7488-2.7492 5.4984-3.2491 3.999 3.499 4.2488 0.49985-0.99971-5.7484-3.7489-3.749-3.9988-5.4985-4.4988-3.749-3.7489-4.2488-0.49986-5.4985-1.9994-5.4985-4.7488-0.74978-1.7495-4.2488-2.9993-3.749 1.2498-4.7487 2.4993-6.7482-7.7479-2.2494-7.9978-1.7495-1.4996-5.9984"
      fill="#E31E2D" fill-rule="evenodd" stroke="#000" stroke-width="3.5" name="Carinthie" />
   <path
      d="m671.81 263.78 1.1783 2.0407 2.7492 2.2494 2.9991-2.4993 6.9981 0.24992 2.7492 0.49985 1.9994 0.99975 3.999 3.499s1.7495 0.24993 3.2491 0.49985c1.4996 0.24992 3.2492-1.2497 3.2492-1.2497l2.4993-5.7484 2.9991-0.74982 4.4987-0.49984 2.9993 1.7495 2.4993-0.74977 4.2488-2.2494 4.7488-1.9994 5.2485-1.2497 1.9996-5.7484 1.4996-0.9997 2.4993-2.7493 3.2491 0.74977 3.999-0.99969 2.2494-2.2494 2.4993-0.49984h3.999c1.7495 0 4.9986 4.7487 4.9986 4.7487l2.9993 3.749s4.4987 0.49986 5.4984 0.49986 4.9986 1.4996 4.9986 1.4996l3.4991 4.2488 5.2485-0.74982h5.4985l2.2494 4.9986 2.9991 0.4999 3.999 0.49985h4.4987l2.2495 6.2483 3.499 8.4977 2.9991-5.4985 5.2486 0.24998 1.7495 6.4982-0.49985 4.9986 5.2485-0.49984 3.2492 2.7493 2.2494 3.499 1.7495 3.749h4.9987 5.7483l1.2496 1.7495 1.7495 0.9997 4.7488-0.24993 2.9991-2.9991 0.49986 7.7478 2.7492 2.7493 4.2489 3.9989-3.499 5.7484-3.749 5.2486-2.7492-5.4985h-2.4993v1.9995l-0.24992 3.2491-1.9996 1.2497 1.7496 5.4985 2.2494 5.4985 1.4996 4.2488 2.4993 5.4985 0.99971 5.7484 0.25005 4.7487 1.9994 3.499 2.2494 2.9991 0.24993 2.7493v4.2488l-1.4996 5.7484 0.74978 4.4988 3.9988 4.2488 4.2489 2.7493-0.25005 4.9986-2.4993 3.749-2.7492 4.9986-2.7492 4.4987-1.9994 3.9989-1.7495 0.24993-3.749 2.9992 0.49985 6.4982 1.7495 2.4993 2.7492 2.4993v2.9992l-1.2495 1.2497-3.999 0.99974 1.9994 3.2491v7.248l0.74979 6.4982 2.2494 3.499 2.9993 0.49984 0.49986 2.9992 2.2494 1.9994v6.4982h-2.2494l-5.2486-6.7481-2.4993 0.99974-13.746-5.4985-7.498 1.9995-5.2486 3.749-4.2488 0.99969h-2.4993l-2.9993-1.7495h-3.499l-1.4996 4.4988-0.74979 1.7495-3.9988-1.4996-6.9981 2.9992v3.2491 3.749l-3.999 3.2491-5.7483 0.74977-3.2491-2.9991-2.4994-2.4993h-4.7486l-12.497 1.7495-10.497 0.99975-5.2485-1.9994-9.7473 1.7495 0.91152-0.78001-3.4108-1.9692-4.2489-3.499-3.2491-1.2497-0.49986-1.9994-0.74978-5.7484v-5.9984l-1.4996-4.4988-1.7495-1.9994-1.4997-2.7492-0.74979-3.9989 0.99972-3.2491 2.2494-3.9989-0.2498-4.4988-1.9996-2.9992-3.7489-4.7486-2.7492-3.749-2.7493-4.4987-2.4993-2.9992-3.9988-1.9994-2.9991-2.9992-2.9993 0.99975-4.4987 1.7495-2.4994 0.74977h-3.2491l-2.7492 0.24992-3.4991 0.49985-3.7489 0.24997h-2.7492l-2.9991 0.9997h-2.2495l-2.9991-0.74977h-2.2494l-2.2494 1.2497-6.2483 0.24993-2.2494 0.74977h-1.9994l-2.4994 1.7495-2.4993 2.2494-3.2491 1.7495h-3.2492l-1.7495-0.9997-1.9994-4.7487-1.4996 0.49985-4.9987 0.4999-3.499 0.24992-3.2491-0.74982-1.7496-2.9991-1.4996-2.4993-2.2494 0.49984-2.2494 0.74982h-1.7495l-3.2492 0.49985-6.998 3.499-3.999 2.4993-3.7489 1.4996-2.9991 2.7492-1.7496 3.499-1.7495 3.2491-3.499 1.7495-3.9988 3.499-1.4997 3.4991-5.4984 2.4993-2.7492-1.2497-3.4991-2.4993-3.2491-5.2486-0.74979 0.24993 2.9991-1.2497 2.7492-2.9992-0.24993-3.9989 1.9996-3.749 1.9994-3.9989 2.4993-3.499-0.99971-6.2482 1.2496-3.4991 5.4985-3.749 1.4996-2.2494-0.24993-3.2491-4.7488-1.2497-1.9994-1.2496-3.2491-6.7481-2.4994-4.9986-2.7492-4.4988-3.2491-6.7481-3.499 0.24992-0.74991 2.7492-0.99972 1.7495-5.4984-1.4996-2.2495 1.9994-1.4996 1.4996-5.7483-3.499-3.999-2.7493-1.9994-0.9997-2.9991-9.9972-2.7492-6.9981-1.4997-5.4985 1.7496-7.4979 0.49986-1.4996h-0.24993l4.9986 1.2497 5.7485 0.74978 3.2491 0.74982 0.74978-2.7493 0.74978-2.2494 3.2491-2.2494 0.74991-0.74977v-3.9989l-0.99984-2.7493-2.4993-2.9992-2.7492-2.2494-1.4996-2.7493-0.49985-3.2491v-3.499-3.9989l0.24993-4.4988 0.49985-1.2496 8.2478-4.9986 5.7484-3.2491 3.999-2.9992 4.4987 3.2491 1.9994 0.49984 4.4988 0.49986 1.2496-0.24993 1.7495 1.7495 4.7488-1.2496h0.49986l8.4976 7.4979 0.49986 2.4993-0.24993 3.249 1.9994 0.24998 1.4997-3.499 3.9988-0.4999 3.2492-0.24992 1.7495-2.7493 3.499-0.74977h1.9994l2.9993 3.499 2.7492 1.7495 7.7479 0.99975h3.2491c0.99971 0 3.499-0.74982 3.499-0.74982l0.99971-2.4993 3.2492-4.9986 1.7495-1.4996h2.7492l3.9988-0.24992 1.7496-2.4993-0.24993-2.4993 6.2482-2.4993 3.2492-1.2496 6.748-2.4993 4.4988-1.9994 3.9988-4.7487 2.7492-2.4993"
      fill="#63C3D0" fill-rule="evenodd" stroke="#000" stroke-width="3.5" name="Styrie" />
   <path
      d="m440.38 235.33v-3.499l-1.2036-2.9904 0.20391-0.50869-3.2491-2.9992-6.2483-3.749-2.4993-5.4985-1.7496-6.4982 2.4994-1.2497 3.499 0.49985-0.24993-2.9992 1.7495-2.4993 3.999-1.9994 0.49985-3.2491v-3.2491l2.9991-1.7495h4.4987l3.999-0.74982 3.2491-0.74977 1.2496-2.2494 2.4994-4.2488 0.99971-2.4993 3.2491-0.4999h3.749l1.9994-1.2496 1.4996-1.4996 2.7492-0.24993 2.4993-2.2494 4.2489-1.9994 9.7473-0.24993 2.9991-0.99975 5.4986-3.9989 3.7489-4.2488 3.4991-3.749 2.4993-2.9992 0.74978-2.9991 0.99971-2.4993 0.74979-2.4993v-3.749l-0.24993-3.499v-2.9992l0.74978-2.9992 2.4993-3.749-1.7495-4.4988-1.2496-3.499v-2.7492l2.4993-1.9995 3.499-1.4996 3.749-0.9997 3.2491 2.2494 1.9994 1.9994 2.9993-0.99968 1.7495-0.24993 2.2494 1.7495 3.999 0.24991 0.99958 1.9994 1.4997 1.7495 3.7489 2.2494 2.2494 0.99975 1.7496-2.2494 0.49986-6.2483 3.2491-0.49984 3.9988-3.749v-3.9989l2.9993-3.499-2.7493-12.247 1.9996-2.9992-5.2486-4.2488 2.2494-2.7493 0.99971-2.4993 0.99971-3.9989 3.2492 0.49985 3.499 0.24997 9.7473 7.9978 4.9987 0.49991 3.499 5.2486 3.499 2.2494v2.9992l-3.7489 1.7495v2.2494l2.4993 2.2494 0.24993 1.9995 4.4988 2.4993 15.246 0.24993 3.9988 2.2494 3.749 0.24996 3.2491 0.49986 3.2491 0.99974 3.749 2.4993 3.7489-3.9989 2.7492-3.2491 2.9993 0.24992 2.2494-4.9986v-5.4985l4.9986-1.2497 2.9993 3.499 6.4982 2.9992 2.4993-2.4993 2.4993-1.9994 2.2494 1.2497 0.74979 2.9992h3.999l1.2496 3.9989 3.7489 0.24993 0.24993-0.24993v2.7493h4.2489l4.2488 0.74977 4.9987 1.9994 4.4987 1.4996 5.4985 0.49984 4.7486 2.9992-0.74978 2.7492-2.4993 0.24993-2.2494 3.2491-0.74991 2.2494 0.74991 2.4993 5.7483 4.4987 2.4993 0.99975 0.25006 6.2483h2.9991v1.7495l0.24993 4.7487-0.24993 2.4993 1.9994 3.2491 0.49985 3.749-0.24993 5.7484 0.24993 4.9986 0.74979 7.9978-1.7495-0.99974-2.2494-0.9997-1.9994-1.7495-2.7493 0.24993-2.2494 0.24993-2.4993 1.7495-3.2492 3.499-2.4993 3.2491-2.4993 0.99975-2.9991 0.74977-2.7493 0.74982-2.9991 0.74977-4.4987 1.2497-4.9987-1.4996-1.7495-1.2497-2.7492-2.9992-2.9993-3.2491-0.74978-1.9995-3.499-0.24992-4.4988-0.49985-4.9986 3.9989-0.49986 4.4988 0.49986 5.2486-1.2496 4.9986 2.4993 4.7487-0.99971 1.7495-1.2496 3.499-2.2494 4.7487 0.99971 3.749 4.9986 3.9989 2.7492 2.2494 2.7493 2.2494 2.7492 0.49984 2.4993 1.4996 1.9994 1.9994 3.749 2.9992 3.9988 1.2497 2.9993 1.2496h2.7492l3.9988 1.7495 4.4988 3.749 0.74979 3.9989-1.9994 1.4996v3.499l-1.7495 3.749-1.2498 2.2494v2.9991l1.7496 4.7487-0.74992 4.4988-2.7492 2.4993-3.9988 4.7487-4.4988 1.9994-6.7481 2.4993-3.2492 1.2496-6.2482 2.4994 0.24993 2.4993-1.7496 2.4993-3.9988 0.24993h-2.7492l-1.7495 1.4996-3.2492 4.9986-0.99971 2.4993s-2.4993 0.74982-3.499 0.74982h-3.2491l-7.7479-0.99975-2.7492-1.7495-2.9993-3.499h-1.9994l-3.499 0.74977-1.7495 2.7493-3.2492 0.24993-3.9988 0.49989-1.4997 3.499-1.9994-0.24998 0.24993-3.2491-0.49986-2.4993-8.4977-7.4979h-0.49986l-4.7486 1.2496-1.7495-1.7495-1.2496 0.24992-4.4988-0.49985-1.9994-0.49984-4.4987-3.2491-3.999 2.9992-5.7483 3.2491-8.2478 4.9986-0.49986 1.2496-0.24993 4.4988v3.9989 3.499l0.49986 3.2491 1.4996 2.7493 2.7492 2.2494 2.4993 2.9992 0.99984 2.7493v3.9989l-0.74991 0.74977-3.2491 2.2494-0.74979 2.2494-0.74978 2.7493-3.2492-0.74982-5.7484-0.74978-4.9987-1.2497h0.24992l-4.4987-2.9992-3.9988-3.2491-5.2486-3.2491-0.24993-4.2488 1.4996-4.4988 2.2494-3.9989-0.49973-3.9989-1.7496-1.7495 2.4993-7.7479 2.2495-6.9981-0.49986-3.2491-1.7496-0.74977-4.2488-0.49991-4.9986-2.9991-2.9993-2.4993v-0.99975h10.747l1.4996-1.4995-0.24993-2.2494-6.4981-2.9992-8.9975-0.74977-4.2488 0.24992h-6.2483l-2.4993-4.7487-2.9991-9.4974-1.9996-7.7479 1.7496-5.9983 6.2482 0.24991 3.2491 0.24993v-3.2491l-1.9994-2.9992-4.9986-0.99969-4.9987 0.74977-3.2491 2.9992-8.2478 0.24993-8.4977-1.2497-5.4984-4.9986-2.4994-2.4993-4.7486 0.24993-3.9988 1.2497-2.7493 0.24993-0.99972 2.4993-1.4996 4.2488-7.2623 1.9459"
      fill="#63C3D0" fill-rule="evenodd" stroke="#000" stroke-width="3.5" name="Haute-Autrich" />
   <path
      d="m961.37 171.22-6.6231 6.6232-1.2498-1.4996-5.4984 1.9994 1.4996 4.2488-0.24993 3.9989-1.4996 1.9994-2.7492-1.9994-4.9987-3.499h-4.2488l-3.999 3.499-2.9991 4.2488-5.2485 2.9991-4.7488 1.9995-3.7489 1.9994-0.24993 5.4985-0.99971 2.9992-3.749 1.9994-3.2491 1.4996v4.2488l-2.4993 2.2494-3.4991 2.7492-2.4993-2.4993-4.7486-2.9992-2.9993 0.99975-6.2483 1.2496-3.499 2.9992-1.7495 2.4994-3.499 4.9986 0.74978 3.9989 0.74978 4.7487-2.2494 3.749v3.499l-3.2492-0.49985-2.9991 2.7492v5.7485l0.99972 4.2488 0.74978 2.2494 2.2495 3.4991 2.7492 2.2494 4.2488 4.2488 1.7495 2.2494 0.24993 2.7492-2.2494 2.7493v2.9992l-0.99971 2.7492-2.4993 1.9994-0.49985 2.9992 0.24993 4.9986 3.9988 3.9989-1.4996 3.9989-3.499 3.9989-3.999 3.2491-4.2488 3.749-4.7488 0.49989-5.7483 0.49986 0.24993 0.24991-3.499 5.7484-3.749 5.2486-2.7492-5.4985h-2.4994v1.9995l-0.24992 3.2491-1.9994 1.2497 1.7495 5.4985 2.2495 5.4985 1.4996 4.2488 2.4993 5.4985 0.99971 5.7484 0.24993 4.7487 1.9996 3.499 2.2494 2.9991 0.24993 2.7493v4.2488l-1.4997 5.7485 0.74991 4.4988 3.9988 4.2488 4.2489 2.7493-0.25005 4.9986-2.4993 3.749-2.7492 4.9986-2.7492 4.4987-1.9994 3.9989-1.7496 0.24993-3.7489 2.9992 0.49985 6.4982 1.7495 2.4993 2.7492 2.4994v2.9991l9e-4 0.38995 2.7484-1.8895 4.7486-3.749 4.7486-1.2497 4.7488-7.248 2.4993-3.2491 0.99971-3.9989 4.4988-0.49985 0.99971-2.2494 0.99971-3.2491 2.4993-2.4993 0.99971-2.9992 0.49998-2.9992 1.7495 1.4996h1.9994l4.2488-1.7495 3.2492 0.99975 2.9991-1.7495 3.7489 2.2494 2.2494-1.7495 1.9996 0.49984 4.7486-0.24993 1.2496-1.2497-1.2496-1.7495-3.499-0.99969h-4.2489l0.74979-2.7493 6.2483-2.7492 1.7495-3.499h-3.7489l-2.7492-4.7487 2.2494-2.4993 1.9994-2.2494 1.4996-0.99975 1.2496-2.7492-1.7495-2.2494-3.2491 0.24998-4.4988 3.2491-1.2496-4.4988 1.4996-1.9994-1.4996-2.7493h-1.9994l-1.7495-3.749 1.7495-2.7493 0.24993-7.4979-0.24993-4.7487 1.9994-3.499-0.24993-6.2483-3.499-0.74977 0.74978-6.9981-1.4996-4.7487 1.2496-2.4993h2.2494l3.499 3.499 2.9993-3.499 5.7485-0.24993 8.2476-7.7478 2.9991-3.749-1.2495-3.249-0.99984-3.749 3.4991-1.4996 2.7492-2.2494-0.24993-4.2488-5.4986-3.499-0.49985-6.9981-4.9986-4.2488-4.2489 1.7495-9.7473-3.749-3.499 1.2497-8.7476-3.4991 2.4993-3.7489h3.2492l2.4993-4.2488 5.9984-3.2491-1.7496-4.4988 1.2498-2.7492h5.4984l3.9988-1.9995 3.999 2.9992 4.2488-0.24993 0.74991 1.7495h2.2494l1.9994 1.2497 1.4996 3.9989 3.2491 1.7495 9.2475 2.4993 2.9993-8.7476 2.9991 4.7487 17.745-5.2486 7.248-0.24993-2.9993-4.9986 0.24993-7.4979-2.7492-2.9992-0.24993-2.2494 1.2496-2.7493-1.4996-2.7493-6.2483-4.4987v-1.4996l5.7485-1.2497 4.2488-4.9986-0.49986-7.7478 1.2496-4.2489-0.99971-2.7493 5.7483-8.2477-1.9994-2.4993-7.2479-0.24993-1.2496-5.7484-0.24993-5.7485-0.74978-3.749-1.3602-1.674"
      fill="#E31E2D" fill-rule="evenodd" stroke="#000" stroke-width="3.5" name="Burgenland" />
   <path
      d="m692.54 25.58-0.50243 4.2552-1.4916 4.004 2.7478 11.494-0.75377 3.7527-0.98917 3.9883 0.48674 3.2503-0.23553 2.999-1.5073 4.7577 1.0049 3.2503 1.7429 3.2503-1.4917 3.2503h-1.5074l-2.7478-1.5074-6.5006-1.0049h-7.2385l-1.2562 9.2484-7.7411 8.2592-1.7586 6.7361 0.50256 8.746-1.7429 5.9981 0.23553-0.23553v2.7478h4.2552l4.2552 0.73798 4.9932 2.0098 4.5066 1.4917 5.4956 0.50246 4.742 2.9991-0.75364 2.7478-2.4966 0.25124-2.2454 3.2503-0.75377 2.2454 0.75377 2.4966 5.7469 4.5064 2.4966 1.0049 0.25122 6.2494h2.999v1.7429l0.25122 4.742-0.25122 2.5123 1.9942 3.2346 0.50243 3.7528-0.25121 5.7469 0.25121 5.0089 0.75377 7.9922-1.7429-1.0049-2.261-0.98922-1.9942-1.7586-2.7478 0.25123-2.2455 0.25123-2.4964 1.7586-3.2504 3.4858-2.5124 3.2503-2.4964 1.0049-2.9991 0.75368-2.7478 0.73799-2.9991 0.7537-4.4907 1.2561-5.0088-1.5074-1.7429-1.2404-2.7478-2.9991-2.9991-3.2503-0.75364-2.0098-3.5016-0.23552-4.4907-0.50246-5.0088 3.9883-0.48674 4.5064 0.48674 5.2444-1.2405 4.9932 2.4966 4.7577-1.0049 1.7429-1.2405 3.5015-2.261 4.7577 1.005 3.7371 4.9932 4.004 2.7636 2.2454 2.7478 2.2611 2.7478 0.48675 2.4966 1.5074 1.9942 1.9941 3.7528 2.999 4.004 1.2562 2.999 1.2404h2.7479l3.9882 1.7586 4.5064 3.7528 0.75377 3.9883-2.0098 1.5074v3.5015l-1.7429 3.7371-1.2561 2.2611v2.9991l1.7585 4.742-0.84788 4.3494 1.0992 1.8999 2.7478 2.2454 2.999-2.4966 6.9873 0.25123 2.7636 0.50246 1.9942 0.98922 4.004 3.5015s1.735 0.25255 3.2345 0.50247c1.4996 0.24993 3.2504-1.2405 3.2504-1.2404l2.5123-5.7626 2.999-0.73798 4.4907-0.50247 2.9991 1.7429 2.4966-0.738 4.2552-2.2611 4.7419-1.9941 5.2602-1.2562 1.9942-5.7469 1.4916-0.98921 2.5124-2.7478 3.2502 0.73798 3.9883-0.98922 2.2454-2.2611 2.5123-0.48676h3.9883c1.7495 0 5.009 4.742 5.009 4.742l2.999 3.7528s4.4959 0.50247 5.4956 0.50247c0.99984 0 4.9933 1.4917 4.9933 1.4917l3.5016 4.2552 5.2444-0.75369h5.4957l2.261 4.9932 2.999 0.50247 3.9883 0.50245h4.5064l2.2454 6.2494 3.5016 8.4947 2.999-5.4957 5.2445 0.25122 1.7585 6.5006-0.50242 4.9932 5.2445-0.50245 3.2502 2.7478 2.2454 3.5015 1.7586 3.7528h4.9932 5.7469l1.2562 1.7429 1.7429 1.0049 4.7576-0.25122 2.999-2.9991 0.48674 7.741 2.7636 2.7635 3.9883 3.737 5.7468-0.50246 4.7578-0.48676 4.2395-3.7528 4.0039-3.2503 3.5016-4.004 1.4917-3.9883-3.9883-4.004-0.25121-4.9932 0.50243-2.9991 2.4966-2.0098 0.9893-2.7478v-2.9991l2.261-2.7478-0.25122-2.7478-1.7586-2.2454-4.2395-4.2552-2.7478-2.2454-2.261-3.5015-0.73809-2.2454-1.0048-4.2552v-5.7469l2.999-2.7478 3.2504 0.50246v-3.5015l2.2454-3.7528-0.75377-4.742-0.73796-4.004 3.5016-4.9932 1.7428-2.4966 3.5016-2.9991 6.2494-1.2562 2.999-1.0049 4.7421 2.9991 2.4966 2.4966 3.5014-2.7478 2.4967-2.2454v-4.2395l3.2502-1.5074 3.7528-1.9941 1.005-2.9991 0.25121-5.5114 3.737-1.9941 4.7578-1.9941 5.2444-2.9991 2.9991-4.2552 4.0039-3.5015h4.2395l5.009 3.5015 2.7478 2.0098 1.4917-2.0098 0.25121-3.9883-1.4917-4.2552 5.4957-1.9941 1.2404 1.4917 6.6263-6.6262-0.0942-0.17273-1.7743-2.1983h-2.2454l-2.9991-1.0049-3.2502-3.4858-2.7479-0.50247-1.5073-5.2601-1.005-3.737-1.4916-4.004v-5.7469l-3.7528-1.0049-1.005-1.4917-2.7478-3.5015-0.9893-4.5064-6.5006-3.4858-1.5073-4.5064 1.7585-2.2454-0.25122-12.75 2.9991-6.5006 2.999-5.4957 3.5016-5.9981-2.4966-7.003v-3.737l-1.2562-4.2552-4.2552-13.504-3.7371-4.4907-5.2601 2.9991h-7.2385l-3.5016-4.004-5.4957-0.75368-0.75365 2.2611-2.4966 1.2405-1.005-3.2503v-4.2395l-3.7528-3.5015-5.2444 2.4966-9.2484-4.9932-3.7528 2.4966-4.9933-1.2562-4.0039 11.258-5.4957 3.9883-2.2454-1.9941h-2.2454l-2.0098 2.999-1.7429-1.7429h-1.2562l-8.2434 0.73796-8.9973-1.7429-2.4966 1.9941h-5.4956l-17.256-9.7509-2.4966-3.9883-13.99-7.2543h-6.7519l-0.50242 1.7586-1.2404 2.4966-8.9973-0.75369-1.2561-1.7429-2.9991-2.0098-4.2552-2.2454-6.2335-0.75369-7.2543-1.4916-4.742-6.5006h-5.9981l-9.7509-4.7577-4.5064 1.7586-3.9883-2.7478-1.7585 7.741-5.7469-0.25122-3.7528 2.9991-3.7371-0.48678 2.4967-4.5064-3.2504-4.9932h-8.7459l-2.0098-2.0098-8.9973-0.50246zm181.06 111.83c0.0338-3e-3 0.0764 3e-3 0.10993 0 0.46373 0.27709 0.9578 0.50141 1.3975 0.8165 1.1263 0.3463 0.98338 1.3876 1.0048 2.3396 0.7692 1.1141 0.2588 2.5622 0.40832 3.8312 1.7964 1.2601 3.5827 2.5306 5.3386 3.847 0.23334 0.33828 0.46463 0.40476 0.65953 0.32974 0.43622-0.18685 0.72626-1.1364 0.62803-1.633 0.0275-0.84099-0.55488-1.9474-0.23552-2.6065 1.5719-0.18277 3.1056 0.34328 4.4279 1.162 1.2729 0.46248 0.30354 1.4632-0.0314 2.2297-0.88478 1.0016 0.5608 1.2641 0.51811 2.2454 0.99804 0.32368 1.2504 1.4279 2.4495 1.2876 0.84762-0.0823 1.6634-0.52453 2.5751-0.14132-0.16585 1.5935-0.84479 3.0706-1.162 4.632 1.138-0.0624 1.1672 0.89465 2.1198 0.8479-0.53135 1.2836-0.74773 2.6536-0.94212 4.0197 0.13718 1.111-0.37065 2.0604-0.84787 3.0305-0.54717 0.81201-0.76033 1.6832-0.40832 2.6222 0.45036 0.96724 0.35393 1.9316-0.0627 2.8892 0.50731 0.66264-0.46129 1.4913-0.20416 2.4181 0.19709 1.1085 1.9546 0.37527 1.3975-0.54957 0.26252 0.0197 0.4366 0.0652 0.53379 0.14132 3e-3 2e-3 0.0134 0.0136 0.0158 0.0157 2e-3 2e-3 0.0135 0.0136 0.0157 0.0157 4e-3 4e-3 0.0118 0.0112 0.0157 0.0157 2e-3 2e-3 0.0139 0.0134 0.0157 0.0157 3e-3 5e-3 0.0127 0.0109 0.0157 0.0157 1e-3 2e-3 -1e-3 0.0132 0 0.0157 0.20904 0.41755-0.70376 1.2733-0.34545 1.9156 0.02 0.0343 0.0508 0.0769 0.0785 0.10993 0.0765 0.0876 0.18757 0.17527 0.32976 0.25122-1.2e-4 3e-3 -1.2e-4 0.0125 0 0.0157 0.0105 0.19304 0.18359 0.60646 0.40819 0.86361 0.0977 0.10867 0.21818 0.19455 0.32977 0.21982 0.0312 6e-3 0.0783 4e-3 0.10992 0 0.14669-0.024 0.30817-0.14738 0.43969-0.45534 0.0485 0.17201 0.11879 0.30508 0.18835 0.39254 0.0225 0.0267 0.0541 0.0591 0.0785 0.0785 0.0212 0.0158 0.0558 0.0362 0.0786 0.0471 8e-3 3e-3 0.0235 0.0128 0.0314 0.0157 0.0157 5e-3 0.0464 0.0125 0.0629 0.0157 0.0164 3e-3 0.0456-9.5e-4 0.0627 0 0.0216 6.5e-4 0.0559 2e-3 0.0786 0 0.31742-0.0346 0.72317-0.31309 1.1933-0.54955 1.1348-0.19051 1.1778 1.3085 0.56516 1.8842 0.71623 0.5721 0.95858 1.833 0.47106 2.4966 0.2183 0.7449 0.2156 1.19 0.0629 1.4289-8e-3 0.0122-0.0222 0.036-0.0314 0.0471-6e-3 7e-3 -0.0248 0.0247-0.0315 0.0314-0.017 0.0161-0.0437 0.0339-0.0627 0.0471-0.0117 8e-3 -0.0347 0.0248-0.0471 0.0314-0.76483 0.37609-2.8247-1.0096-3.9412-1.1462-2.0253-0.33631-2.7598-2.6232-4.5221-3.4387-0.89699-0.90127-2.0804-0.33213-3.0776 0.0314-0.92502-0.30111-1.4002-0.3744-2.1354 0.34545-0.44778-0.22819-0.76161-0.30951-1.005-0.26694-0.0563 0.0111-0.12303 0.0393-0.17266 0.0628-0.0225 0.0112-0.0572 0.0335-0.0786 0.0471-0.26163 0.17421-0.4555 0.53527-0.72227 0.98922-0.86485 0.55772-1.1356 1.5004-1.9785 2.0098-0.94263 1.4966-2.5414 1.2318-4.1923 1.2248-0.89236 0.35955 0.25649 1.7943-0.0315 2.5908 0.094 0.51239 0.30123 0.97887 0.2984 1.2404-5.1e-4 0.0124-0.0143 0.0357-0.0157 0.0471-1e-3 7e-3 2e-3 0.0244 0 0.0314s-0.0134 0.0251-0.0157 0.0314c-1e-3 3e-3 1e-3 0.0128 0 0.0157-2e-3 3e-3 -0.014 0.013-0.0157 0.0157-0.0114 0.0155-0.0303 0.0359-0.0472 0.0471-3e-3 2e-3 -0.0126 0.0141-0.0157 0.0157-0.0264 0.012-0.0724 0.0122-0.10992 0.0157-0.16109 0.0101-0.43558-0.0448-0.84788-0.20413-1.0059-0.96926-1.2865 0.71511-2.371 0.18842-0.13024 0.28984-0.25919 0.45878-0.37682 0.53386-0.0122 7e-3 -0.0351 0.0261-0.0472 0.0314-0.0121 5e-3 -0.035 0.0127-0.0471 0.0157-0.0161 3e-3 -0.0468-3.9e-4 -0.0629 0-0.012-2.2e-4 -0.035 2e-3 -0.0471 0s-0.035-0.0121-0.0471-0.0157c-0.0162-5e-3 -0.0465-8e-3 -0.0629-0.0157-0.0122-6e-3 -0.0348-0.0242-0.0472-0.0314-0.27988-0.17063-0.58831-0.61002-1.0048-0.8479-1.2842-0.0941-2.2274-1.2108-3.5486-0.98922-1.3953-0.44806-2.9996-0.44705-4.2082-1.319-1.2508-0.57526-2.6917-0.72181-3.9725-1.2876-0.0464 0.0307-0.0996 0.0691-0.14142 0.10991-0.48289 0.48785-0.66943 1.6057-1.0048 2.2925-0.0305 0.19378-0.0858 0.33837-0.1413 0.42395-0.0255 0.0366-0.0653 0.0728-0.0942 0.0942-3e-3 2e-3 -0.0125 0.0136-0.0157 0.0157-7e-3 4e-3 -0.0247 0.0124-0.0315 0.0157-7e-3 3e-3 -0.0244 0.0132-0.0314 0.0157-7e-3 2e-3 -0.0243-2e-3 -0.0314 0-7e-3 2e-3 -0.0242 0.0145-0.0314 0.0157-0.11983 0.018-0.2606-0.01-0.37695 0.0157-7e-3 2e-3 -0.0244-2e-3 -0.0314 0s-0.0247 0.0128-0.0314 0.0157c-7e-3 3e-3 -0.0249 0.012-0.0314 0.0157-3e-3 2e-3 -0.0126 0.0136-0.0157 0.0157-0.0252 0.0184-0.0563 0.0485-0.0785 0.0785-0.0791 0.11471-0.13679 0.31956-0.1571 0.67519-0.0168 0.22664-0.0879 0.36372-0.17267 0.42396-0.0341 0.0212-0.0838 0.0301-0.1256 0.0314-0.44432-8e-3 -1.2694-0.98928-1.633-1.2876 0.10607-0.57012-0.0271-0.86571-0.28258-1.0206-0.34057-0.19678-0.89583-0.18777-1.4132-0.31404-0.0222 0.0155-0.0558 0.0349-0.0785 0.0471-8e-3 4e-3 -0.0238 0.0122-0.0314 0.0157-0.94404 0.4107-2.2838-1.8218-3.6742-0.50245-1.4034 1.2544-3.6736-0.42974-5.1503 1.052-0.77576 0.41717-1.71 1.0927-2.4809 0.51817 0.45332-0.95382 1.6041-0.75182 2.418-1.1462 0.51464-0.11294 0.90766-0.32515 1.0992-0.61237 0.014-0.022 0.0353-0.0556 0.047-0.0785 0.0338-0.0692 0.0669-0.15817 0.0786-0.23553 0.0264-0.20251-0.0278-0.43644-0.17266-0.69087-0.85302 0.14309-1.7132 0.20956-2.5594 0.39254 0.01-0.95957-1.1038-1.4839-1.2562-2.4652-0.1868-0.19145-0.28246-0.35387-0.31408-0.47105-3e-3 -0.0128-0.0141-0.035-0.0157-0.0471-2.5e-4 -3e-3 2.6e-4 -0.0128 0-0.0157v-0.0157c1.3e-4 -3e-3 -2.5e-4 -0.0129 0-0.0157 2.6e-4 -3e-3 -3.8e-4 -0.013 0-0.0157 5.2e-4 -3e-3 0.0152-0.0131 0.0157-0.0157 6.4e-4 -3e-3 -6.4e-4 -0.0132 0-0.0157 9e-4 -2e-3 -9e-4 -0.0133 0-0.0157 3e-3 -7e-3 0.0119-0.0246 0.0158-0.0314 1e-3 -2e-3 0.0141-0.0135 0.0157-0.0157 0.27229-0.36214 1.7046-0.21188 2.0569-0.738 8e-3 -0.0125 0.0247-0.0338 0.0315-0.0471 3e-3 -7e-3 0.0127-0.0245 0.0156-0.0314 3e-3 -7e-3 0.0134-0.0242 0.0158-0.0314 3e-3 -0.011-3e-3 -0.0356 0-0.0471 2e-3 -0.0117 0.0141-0.0349 0.0157-0.0471 7.7e-4 -8e-3 -5.1e-4 -0.023 0-0.0314-1.07-0.0891-2.1281-0.21868-3.1875-0.39254-0.19259 0.0995-0.36088 0.14659-0.48674 0.15701-0.0399 2e-3 -0.0917 6e-3 -0.12561 0-7e-3 -1e-3 -0.0243 2e-3 -0.0315 0-7e-3 -2e-3 -0.0245-0.0134-0.0314-0.0157-7e-3 -3e-3 -0.0251-0.0129-0.0314-0.0157-3e-3 -2e-3 -0.0126 2e-3 -0.0157 0-3e-3 -2e-3 -0.0127-0.0139-0.0158-0.0157-6e-3 -4e-3 -0.0257-0.0117-0.0314-0.0157-3e-3 -2e-3 -0.013-0.0135-0.0157-0.0157-3e-3 -2e-3 -0.0131-0.0134-0.0157-0.0157-5e-3 -5e-3 -0.0109-0.0106-0.0157-0.0157-0.38081-0.42894-0.10182-1.8592-0.64385-2.5594-0.10568-0.1323-0.24607-0.24687-0.42387-0.31405-0.80571-0.0638-1.1575-0.20912-1.2562-0.40824-0.17613-0.4086 0.63755-1.0585 0.67522-1.79 0.43223-0.58041 1.2756-1.1254 1.6173-1.79 0.6945-0.4117 0.5752-1.5586 0.73796-2.3239 0.33555-0.8891 0.81689-1.6147-0.0629-2.3239 0.34828-0.35449 0.75055-0.68756 0.89506-0.97353 0.0107-0.0222 0.024-0.0567 0.0314-0.0785 7e-3 -0.0217 0.0127-0.0572 0.0157-0.0785 2e-3 -0.017 9e-4 -0.0462 0-0.0628-3e-3 -0.0332-0.0171-0.0779-0.0314-0.10991-0.0137-0.0279-0.0393-0.0672-0.0629-0.0942-7e-3 -8e-3 -0.0234-0.0238-0.0314-0.0314-0.10877-0.0982-0.29107-0.19729-0.5653-0.28262-0.0279 0.0173-0.0661 0.0348-0.0941 0.0471-0.0161 7e-3 -0.0468 0.0106-0.0629 0.0157-0.0121 4e-3 -0.0351 0.013-0.0471 0.0157-0.0121 2e-3 -0.0351 0.0141-0.0472 0.0157-0.0159 2e-3 -0.0468-3.9e-4 -0.0627 0-0.74618 3e-3 -1.4169-1.4848-0.92643-1.9941 3e-3 -3e-3 0.013-0.0131 0.0157-0.0157 3e-3 -3e-3 0.0129-0.0132 0.0157-0.0157 6e-3 -5e-3 0.0252-0.0111 0.0315-0.0157 3e-3 -2e-3 0.0125-0.0135 0.0157-0.0157 7e-3 -4e-3 0.0244-0.0117 0.0314-0.0157s0.024-0.0121 0.0314-0.0157c0.0298-0.0139 0.0755-0.0377 0.10992-0.0471 0.0395-0.01 0.0956-0.0121 0.14129-0.0157 0.0413-3e-3 0.095-3e-3 0.14143 0-2e-3 -0.0301-9e-3 -0.0675-0.0158-0.0942-2e-3 -7e-3 -0.0131-0.0242-0.0157-0.0314-3e-3 -7e-3 -0.0126-0.0246-0.0157-0.0314-3e-3 -7e-3 -0.0121-0.025-0.0157-0.0314-0.31177-0.5157-1.7432-0.21231-2.057-0.28263-0.0105-3e-3 -0.024-0.0116-0.0314-0.0157-1e-3 -7.4e-4 -0.0148 7.9e-4 -0.0157 0-7.7e-4 -8.1e-4 7.7e-4 -0.0148 0-0.0157-2.5e-4 -1e-3 1.3e-4 -0.0146 0-0.0157 1.3e-4 -1e-3 -2.5e-4 -0.0145 0-0.0157 1e-3 -3e-3 -2e-3 -0.0128 0-0.0157 0.0483-0.0707 0.22448-0.19939 0.5653-0.39256 0.4303-0.61101 1.1518-0.67304 1.3975-0.9421 2e-3 -3e-3 0.0134-0.0129 0.0157-0.0157 9e-3 -0.0114 0.0243-0.0349 0.0314-0.0471 3e-3 -6e-3 0.0129-0.025 0.0157-0.0314 1e-3 -3e-3 -1e-3 -0.0124 0-0.0157 2e-3 -7e-3 0.014-0.0244 0.0158-0.0314 2e-3 -0.0108-1e-3 -0.0357 0-0.0471 6.4e-4 -0.0116 3.8e-4 -0.0348 0-0.0471-2e-3 -0.0208 5e-3 -0.0556 0-0.0785-1.1937-0.80672-0.90663-2.3643-0.61248-3.5329 0.18205-0.9199 0.82499-1.6061 1.1463-2.5123 0.25186-0.30668 0.34803-1.0266 0.5653-1.3818 0.0387-0.0607 0.0936-0.12324 0.14129-0.15703 0.0298-0.0193 0.0757-0.0407 0.10992-0.0471 0.0303-4e-3 0.0756 8e-3 0.10993 0.0157 0.10966 0.0289 0.25005 0.1119 0.40819 0.28263 1.3551 0.6386 2.3207 1.7359 3.3131 2.8263 0.43931 0.011 0.77293 0.18583 0.9578 0.43965 0.24299 0.34767 0.2318 0.85925-0.0941 1.3818 0.44342 1.0928 1.5078 0.88884 2.2924 0.56527 0.3178 0.0856 0.47337-5e-3 0.56529-0.15702 0.13808-0.2451 0.12226-0.68124 0.25121-0.94211 0.0122-0.0232 0.0319-0.0584 0.0472-0.0785 0.0158-0.0195 0.0432-0.047 0.0627-0.0628 0.0972-0.072 0.24067-0.0961 0.45537-0.0471 0.66686-0.55807 0.95703-1.1341 1.2561-1.8371-0.30701-0.028-0.47865-0.0645-0.54949-0.10992-3e-3 -2e-3 -0.0135-0.0138-0.0157-0.0157-4e-3 -4e-3 -0.0131-0.0117-0.0157-0.0157-1e-3 -2e-3 6.4e-4 -0.0137 0-0.0157-1.3e-4 -2e-3 -2.6e-4 -0.0136 0-0.0157 5.1e-4 -2e-3 -9e-4 -0.0136 0-0.0157 5e-3 -9e-3 0.0217-0.0227 0.0314-0.0314 3e-3 -2e-3 0.0127-0.0135 0.0157-0.0157 0.0188-0.0132 0.0518-0.0338 0.0785-0.0471 0.35265-0.16895 1.2828-0.35409 1.6015-0.37685 1.4445 0.17503 1.2338-0.8658 2.3082-1.3818 0.25777-0.20973 0.35253-0.36825 0.34546-0.48677-6e-3 -0.049-0.0414-0.10337-0.0786-0.14132-0.22666-0.21245-0.8831-0.28302-1.0677-0.47106-5e-3 -6e-3 -0.0113-0.025-0.0157-0.0314-2e-3 -3e-3 -0.014-0.0124-0.0157-0.0157-3e-3 -7e-3 -0.014-0.0243-0.0158-0.0314-2e-3 -0.011-1e-3 -0.0353 0-0.0471 9e-3 -0.0521 0.0549-0.11802 0.12573-0.18843 0.39251-0.71651 1.3081-1.1137 2.1354-1.0206 0.95715 0.84207 2.4041-0.48676 2.8734-1.1462 0.66043 0.25012 1.2165 0.24129 1.5858-0.0942 0.0275-0.0258 0.0689-0.0646 0.0942-0.0942 0.0932-0.11189 0.17382-0.25758 0.23553-0.42396 0.56208-0.52545 2.5078-0.65328 1.7429-1.6016-0.11751-0.13733-0.16945-0.25085-0.17267-0.32974 0-2e-3 -2.5e-4 -0.0135 0-0.0157 1.3e-4 -2e-3 0.0153-0.0136 0.0157-0.0157 3.9e-4 -2e-3 -6.4e-4 -0.0138 0-0.0157 6.4e-4 -2e-3 -7.7e-4 -0.0139 0-0.0157 2e-3 -4e-3 0.0136-0.0124 0.0157-0.0157 1e-3 -2e-3 -1e-3 -0.0141 0-0.0157 0.0135-0.0168 0.0413-0.0357 0.0627-0.0471 0.37142-0.16967 1.7152 0.36632 1.6487 1.1619-3e-3 0.0268-0.01 0.0669-0.0157 0.0942-6e-3 0.0229-0.0235 0.0553-0.0314 0.0785 0.90985-0.20228 1.7509 0.97818 2.528 0.48676-0.2129-0.4239-0.20969-0.9657 0.0942-1.2719 0.20249-0.19499 0.54241-0.30764 1.0207-0.21982 0.23348-0.0226 0.35561-0.0952 0.40819-0.20413 0.19131-0.4558-0.78603-1.4976-0.40819-2.0255-0.0645-0.27968-0.0176-0.46296 0.0784-0.58098 0.23964-0.27027 0.80866-0.20619 1.0677-0.31403 0.0684-0.0312 0.11622-0.0868 0.12574-0.15703 6e-3 -0.0861-0.0411-0.21838-0.15711-0.39255-0.30829-0.62503-0.0144-1.4875-0.54948-2.1826-0.12496-0.36156-0.0531-0.60827 0.10979-0.78509 0.36461-0.37796 1.1675-0.48408 1.3661-0.92641 0.0359-0.0431 0.0758-0.0702 0.10992-0.0942 0.017-0.0109 0.0462-0.0248 0.0627-0.0314 0.0166-6e-3 0.0465-0.014 0.0629-0.0157 0.0122-5.4e-4 0.035-1e-3 0.0472 0 0.0161 3e-3 0.0468 0.01 0.0627 0.0157 0.0438 0.0188 0.0974 0.0556 0.14129 0.0942 0.35201 0.32072 0.73899 1.1674 1.4604 0.95781 0.58741-0.93793 1.8079-1.2018 2.8577-1.3033z"
      fill="#63C3D0" fill-rule="evenodd" stroke="#000" stroke-width="3.5" name="Basse-Autriche" />
   <path
      d="m873.71 137.49c-1.0711 0.0949-2.3581 0.3382-2.9646 1.3064-1.0492 0.30486-1.371-1.6093-1.9449-0.91912-0.29235 0.65078-1.8793 0.54699-1.4798 1.704 0.53508 0.69506 0.25224 1.5628 0.56067 2.1878 0.74181 1.1146-1.4371 0.0666-1.1197 1.4434-0.47427 0.66246 1.1904 2.1178-5e-3 2.2335-1.2244-0.22481-1.4715 0.77321-1.1176 1.4779-0.77691 0.49144-1.6059-0.68471-2.5159-0.48243 0.40369-1.1904-2.4068-1.8958-1.5222-0.86185 0.7647 0.94828-1.1865 1.0774-1.7485 1.6028-0.30393 0.81907-1.0086 0.9578-1.9177 0.61356-0.46913 0.65948-1.9157 1.9798-2.8729 1.1377-0.8273-0.0931-1.7473 0.31095-2.1399 1.0275-0.69669 0.69314 1.9907 0.38201 0.72176 1.4145-1.0744 0.51598-0.86061 1.5622-2.305 1.3872-0.53688 0.0384-2.7815 0.50594-1.1437 0.6552-0.29916 0.703-0.58548 1.2695-1.2523 1.8276-1.1452-0.26145-0.2309 1.6008-1.3931 1.2877-0.7845 0.32354-1.8351 0.54005-2.2787-0.5527 0.57173-0.91622 0.17794-1.7976-0.86304-1.8236-0.99252-1.0904-1.9683-2.1867-3.3232-2.8253-0.92026-0.99331-0.9011 0.75298-1.3367 1.2835-0.32128 0.90625-0.95394 1.5956-1.136 2.5155-0.29415 1.1686-0.59075 2.73 0.60297 3.5367 0.12689 0.58623-0.91448 0.46252-1.4709 1.2525-1.8968 1.075 1.5115-0.16576 1.5979 0.93458-1.4814-0.0908-0.31781 2.6926 0.70337 2.0601 1.3495 0.42007 0.44535 0.99939-0.25121 1.7084 0.87976 0.70924 0.40343 1.4407 0.0679 2.3298-0.16276 0.76532-0.0384 1.9166-0.73294 2.3284-0.34173 0.66457-1.1915 1.1995-1.6238 1.7799-0.0567 1.1016-1.875 2.0098 0.58046 2.2043 1.4681 0.55471 0.11918 3.7367 1.8794 2.8265 1.0595 0.17386 2.1254 0.30015 3.1954 0.38922-0.0554 1.0813-3.1802 0.28032-1.8517 1.6418 0.15234 0.98134 1.2588 1.5188 1.2489 2.4783 0.84621-0.18299 1.7095-0.25888 2.5625-0.40197 0.47581 0.83506-0.0523 1.4029-1.0502 1.6219-0.81394 0.39442-1.9636 0.18779-2.4169 1.1416 0.77087 0.57453 1.7054-0.10181 2.481-0.51898 1.4767-1.4818 3.7478 0.20264 5.151-1.0518 1.447-1.373 2.8296 1.1126 3.7786 0.44996 0.91974 0.22449 1.9506-5e-3 1.7036 1.3218 0.4951 0.40616 1.8261 2.1038 1.9204 0.8425 0.0891-1.5696 0.90445-0.15325 1.0994-1.3934 0.36705-0.75133 0.55732-2.02 1.1508-2.4136 1.2808 0.56573 2.727 0.71341 3.9778 1.2887 1.2085 0.8719 2.8171 0.87604 4.2123 1.3241 1.3212-0.22161 2.2541 0.88586 3.5383 0.97999 0.78398 0.44778 1.1704 1.62 1.745 0.34079 1.0844 0.52668 1.3706-1.1652 2.3765-0.19597 1.5993 0.61798 0.96333-0.19037 0.76932-1.2482 0.28799-0.79648-0.87076-2.2311 0.0216-2.5907 1.651 7e-3 3.2522 0.26232 4.1948-1.2342 0.84286-0.50947 1.1158-1.4532 1.9808-2.011 0.55077-0.93719 0.76624-1.4503 1.9855-0.82883 0.73526-0.71983 1.205-0.64793 2.1299-0.34682 0.99714-0.36352 2.1851-0.92697 3.0821-0.0257 1.7625 0.81554 2.484 3.0934 4.5094 3.4296 1.5793 0.1932 5.046 2.9061 4.0657-0.43941 0.48739-0.6636 0.23437-1.9137-0.48186-2.4858 0.61248-0.57568 0.58098-2.0746-0.55385-1.8841-0.85945 0.4324-1.508 1-1.7841-0.0256-0.5158 1.2339-1.2834-0.22687-1.2831-0.62044-1.5163-0.81025 1.0977-2.3883-0.67046-2.521 0.55707 0.92482-1.2098 1.6612-1.407 0.5527-0.25712-0.92681 0.70839-1.7492 0.20108-2.4118 0.41654-0.95757 0.52222-1.9186 0.0719-2.8858-0.352-0.93901-0.14707-1.81 0.40022-2.622 0.47723-0.97003 0.99663-1.9291 0.85932-3.0401 0.19439-1.3661 0.39829-2.7299 0.92965-4.0135-0.95253 0.0467-0.97233-0.91662-2.1104-0.85419 0.31717-1.5615 0.98982-3.0292 1.1557-4.6226-0.91177-0.38322-1.7253 0.0583-2.5731 0.1406-1.1991 0.14038-1.4534-0.97259-2.4515-1.2963 0.0426-0.98124-1.3967-1.2449-0.51207-2.2464 0.33504-0.76647 1.3063-1.7638 0.0334-2.2263-1.3223-0.81865-2.8627-1.3376-4.4347-1.1548-0.31935 0.65913 0.266 1.7562 0.23849 2.5971 0.14283 0.72229-0.52416 2.4119-1.2899 1.3017-1.7559-1.3163-3.5441-2.5885-5.3407-3.8486-0.14952-1.269 0.36718-2.7046-0.40202-3.8187-0.0215-0.95195 0.11237-1.9965-1.014-2.3428-0.43969-0.31508-0.93402-0.5456-1.3977-0.82269z"
      fill="#E31E2D" fill-rule="evenodd" stroke="#000" stroke-width="3.5" name="Vienne" />
   <text x="199.28571" y="388.57141" fill="#000000" font-family="Bitstream Vera Sans" font-size="40px"
      xml:space="preserve">
      <tspan x="199.28571" y="388.57141" font-family="DejaVu Sans" font-size="20px">Tyrol</tspan>
   </text>
   <text x="375.92285" y="439.80328" fill="#000000" font-family="Bitstream Vera Sans" font-size="40px"
      xml:space="preserve">
      <tspan x="375.92285" y="439.80328" font-family="DejaVu Sans" font-size="20px">Tyrol</tspan>
   </text>
   <text x="424.28574" y="367.14285" fill="#000000" font-family="DejaVu Sans" font-size="40px" xml:space="preserve">
      <tspan x="424.28574" y="367.14285" font-size="20px">Salzbourg</tspan>
   </text>
   <text x="464.74957" y="213.37471" fill="#000000" font-family="DejaVu Sans" font-size="40px" xml:space="preserve">
      <tspan x="464.74957" y="213.37471" font-size="20px">Haute-Autriche</tspan>
   </text>
   <text x="650.46387" y="352.66043" fill="#000000" font-family="DejaVu Sans" font-size="40px" xml:space="preserve">
      <tspan x="650.46387" y="352.66043" font-size="20px">Styrie</tspan>
   </text>
   <text x="697.60669" y="219.8033" fill="#000000" font-family="DejaVu Sans" font-size="40px" xml:space="preserve">
      <tspan x="697.60669" y="219.8033" font-size="20px">Basse-Autriche</tspan>
   </text>
   <text x="831.17816" y="121.23186" fill="#000000" font-family="DejaVu Sans" font-size="40px" xml:space="preserve">
      <tspan x="831.17816" y="121.23186" font-size="20px">Vienne</tspan>
   </text>
   <text x="880.46387" y="441.23184" fill="#000000" font-family="DejaVu Sans" font-size="40px" xml:space="preserve">
      <tspan x="880.46387" y="441.23184" font-size="20px">Burgenland</tspan>
   </text>
   <text x="17.606724" y="284.08902" fill="#000000" font-family="DejaVu Sans" font-size="40px" xml:space="preserve">
      <tspan x="17.606724" y="284.08902" font-size="20px">Vorarlberg</tspan>
   </text>
   <text x="488.32101" y="466.23187" fill="#000000" font-family="DejaVu Sans" font-size="40px" xml:space="preserve">
      <tspan x="488.32101" y="466.23187" font-size="20px">Carinthie</tspan>
   </text>
   <path d="m70 294.29v87.143" fill="none" stroke="#000" stroke-width="1px" />
   <path d="m884.29 420.71-10-47.143" fill="none" stroke="#000" stroke-width="1px" />
   <path d="m870 125.71v36.429" fill="none" stroke="#000" stroke-width="1px" />
</svg>
